<svg viewBox="0 0 25 35" fill="none" xmlns="http://www.w3.org/2000/svg">
<path d="M20.5457 16.2206C22.5607 15.0773 23.6498 12.7887 23.2743 10.4928C22.8079 6.94835 18.6102 5.61019 15.2985 5.32861V0H12.0336V5.28167H9.8415V0H6.57657V5.28167H0V8.68548H2.44868C3.54481 8.68548 4.08117 9.0141 4.08117 9.90606V24.5304C4.08117 25.7511 3.47477 26.1267 2.82178 26.1267H0.32647V29.6009H6.66979V35H9.95803V29.6009H12.1501V35H15.3452V29.6009H16.0447C22.7612 29.6009 25 26.291 25 21.7841C24.9463 19.1266 23.1157 16.8403 20.5457 16.2206ZM9.84136 8.8967H12.1735C13.8059 8.8967 17.0242 9.17843 17.0242 11.8544C17.1361 13.601 15.8791 15.1315 14.1557 15.3521H9.84136V8.8967ZM13.4561 25.798V25.7745H9.84136V18.7323H14.0392C15.0187 18.7323 18.7033 19.0609 18.7033 21.69C18.7033 24.3191 16.9543 25.798 13.4561 25.798Z" fill="#F2A900"/>
</svg>
