<svg viewBox="0 0 19 21" fill="none" xmlns="http://www.w3.org/2000/svg">
<path d="M15.983 7.91873C16.9733 7.0974 17.6051 5.85818 17.6051 4.47412C17.6051 2.00711 15.598 0 13.1309 0C10.6639 0 8.65679 2.00711 8.65679 4.47412C8.65679 4.79659 8.69139 5.11108 8.75653 5.41439C8.50175 5.36916 8.23966 5.34548 7.9721 5.34548C5.50505 5.34548 3.49798 7.35258 3.49798 9.81959C3.49798 11.2035 4.12971 12.4426 5.11981 13.264C2.35005 14.3932 0.392578 17.115 0.392578 20.2859H1.9799C1.9799 16.9818 4.66797 14.2937 7.97206 14.2937C10.4391 14.2937 12.4462 12.2866 12.4462 9.81963C12.4462 9.49716 12.4116 9.18263 12.3464 8.87932C12.6012 8.92455 12.8633 8.94823 13.1309 8.94823C15.078 8.94823 16.8105 9.88232 17.9056 11.3253L18.9812 10.1277C18.1862 9.16295 17.1576 8.3978 15.983 7.91873ZM7.9721 12.7064C6.38034 12.7064 5.0853 11.4114 5.0853 9.81959C5.0853 8.22779 6.38034 6.93279 7.9721 6.93279C9.56386 6.93279 10.8589 8.22783 10.8589 9.81959C10.8589 11.4114 9.56386 12.7064 7.9721 12.7064ZM13.1309 7.36088C11.5391 7.36088 10.2441 6.06588 10.2441 4.47408C10.2441 2.88228 11.5391 1.58732 13.1309 1.58732C14.7227 1.58732 16.0177 2.88232 16.0177 4.47412C16.0177 6.06596 14.7227 7.36088 13.1309 7.36088Z" fill="#464B4E"/>
</svg>
