<svg width="24" height="21" viewBox="0 0 24 21" fill="none" xmlns="http://www.w3.org/2000/svg">
<path d="M22.9524 2.70857C22.951 2.70857 22.9496 2.70839 22.9482 2.70839H16.8488V2.03129C16.8488 0.911261 15.9434 0 14.8306 0H9.44876C8.33595 0 7.43057 0.911261 7.43057 2.03129V2.70839H1.33118C0.95662 2.70839 0.658447 3.01732 0.658447 3.38549V18.2816C0.658447 19.4017 1.56383 20.3129 2.67663 20.3129H21.6027C22.7155 20.3129 23.6209 19.4017 23.6209 18.2816V3.39977C23.6209 3.39889 23.6209 3.39801 23.6209 3.39713C23.5951 2.95243 23.3234 2.71104 22.9524 2.70857ZM8.77603 2.03129C8.77603 1.65801 9.07788 1.3542 9.44876 1.3542H14.8306C15.2015 1.3542 15.5033 1.65801 15.5033 2.03129V2.70839H8.77603V2.03129ZM22.0147 4.06259L19.9256 10.3705C19.834 10.6475 19.5775 10.8336 19.2876 10.8336H15.5033V10.1565C15.5033 9.78247 15.2022 9.47937 14.8306 9.47937H9.44876C9.07718 9.47937 8.77603 9.78247 8.77603 10.1565V10.8336H4.99176C4.70182 10.8336 4.44534 10.6475 4.35372 10.3705L2.26458 4.06259H22.0147ZM14.1579 10.8336V12.1878H10.1215V10.8336H14.1579ZM22.2754 18.2816C22.2754 18.6549 21.9736 18.9587 21.6027 18.9587H2.67663C2.30575 18.9587 2.0039 18.6549 2.0039 18.2816V7.55793L3.07729 10.7988C3.35234 11.6297 4.12177 12.1878 4.99176 12.1878H8.77603V12.8649C8.77603 13.2388 9.07718 13.542 9.44876 13.542H14.8306C15.2022 13.542 15.5033 13.2388 15.5033 12.8649V12.1878H19.2876C20.1576 12.1878 20.927 11.6297 21.202 10.7988L22.2754 7.55793V18.2816Z" fill="#464B4E"/>
</svg>
