<svg viewBox="0 0 26 21" fill="none" xmlns="http://www.w3.org/2000/svg">
<path d="M1.7632 18.1747V18.5497H2.1382H25.2834V19.9379H1.0691C0.885014 19.9379 0.708466 19.8648 0.578297 19.7346C0.448129 19.6045 0.375 19.4279 0.375 19.2438V0.375H1.7632V18.1747Z" fill="white" stroke="#464B4E" stroke-width="0.75"/>
<path d="M8.95519 9.21948C9.06192 9.32621 9.12187 9.47096 9.12187 9.6219V16.6056H4.77637V9.6219C4.77637 9.47096 4.83633 9.32621 4.94305 9.21948C5.04978 9.11275 5.19453 9.0528 5.34547 9.0528H8.55277C8.70371 9.0528 8.84846 9.11275 8.95519 9.21948L9.30801 8.86666L8.95519 9.21948Z" fill="white" stroke="#464B4E"/>
<path d="M16.4388 4.94311C16.5456 5.04984 16.6055 5.19459 16.6055 5.34553V16.6056H12.26V5.34553C12.26 5.19459 12.32 5.04984 12.4267 4.94311C12.5334 4.83639 12.6782 4.77643 12.8291 4.77643H16.0364C16.1874 4.77643 16.3321 4.83639 16.4388 4.94311Z" fill="white" stroke="#464B4E"/>
<path d="M23.9227 0.666686C24.0294 0.773412 24.0894 0.918165 24.0894 1.0691V16.6056H19.7439V1.0691C19.7439 0.918166 19.8039 0.773413 19.9106 0.666686C20.0173 0.559959 20.1621 0.5 20.313 0.5H23.5203C23.6712 0.5 23.816 0.559959 23.9227 0.666686Z" fill="white" stroke="#464B4E"/>
</svg>
