<svg viewBox="0 0 21 21" fill="none" xmlns="http://www.w3.org/2000/svg">
<path d="M12.3042 3.8582V2.27686C12.3042 -0.758954 0.62085 -0.758954 0.62085 2.27686V11.5261C0.62085 12.7196 2.43919 13.4635 4.6267 13.728C3.82657 14.0967 3.317 14.5946 3.317 15.2258V18.0006C3.317 19.5186 6.25581 20.3129 9.15868 20.3129C12.0615 20.3129 15.0003 19.5185 15.0003 18.0006V16.6056C17.7493 16.5279 20.3927 15.7405 20.3927 14.3009V5.9766C20.3926 4.06006 15.7377 3.35489 12.3042 3.8582ZM6.46252 0.923312C9.66071 0.923312 11.4055 1.83804 11.4055 2.30828C11.4055 2.77853 9.66067 3.69326 6.46252 3.69326C3.26438 3.69326 1.51959 2.77853 1.51959 2.30828C1.51955 1.83809 3.26434 0.923312 6.46252 0.923312ZM1.51955 3.59298C2.60994 4.2672 4.54135 4.6166 6.46248 4.6166C8.38362 4.6166 10.3151 4.2672 11.4055 3.59298V4.05175C9.84383 4.40756 8.7093 5.05733 8.7093 6.00157V6.27472C8.00506 6.39079 7.24487 6.4632 6.46252 6.4632C3.26434 6.4632 1.51959 5.54847 1.51959 5.07823V3.59298H1.51955ZM9.60801 12.8261C9.69352 12.879 9.7825 12.9303 9.878 12.9792C9.78806 12.9753 9.69828 12.9715 9.60801 12.9691V12.8261ZM1.51955 6.36292C2.60994 7.03714 4.54135 7.38655 6.46248 7.38655C7.24032 7.38655 7.99638 7.31479 8.70926 7.20537V9.50633C8.00502 9.62241 7.24483 9.69482 6.46248 9.69482C3.2643 9.69482 1.51955 8.78009 1.51955 8.30985V6.36292ZM1.51955 11.5415V9.59454C2.60994 10.2688 4.54135 10.6182 6.46248 10.6182C7.24032 10.6182 7.99638 10.5464 8.70926 10.437V12.738C8.00502 12.854 7.24483 12.9264 6.46248 12.9264C3.26434 12.9264 1.51955 12.0117 1.51955 11.5415ZM14.1016 18.0047C14.1016 18.4749 12.3568 19.3896 9.15868 19.3896C5.96054 19.3896 4.2157 18.4749 4.2157 18.0047V16.5194C5.30609 17.1936 7.2375 17.543 9.15863 17.543C10.9976 17.543 12.8484 17.2237 13.9599 16.6051C14.0066 16.607 14.0547 16.6072 14.1016 16.6086V18.0047H14.1016ZM9.15868 16.6197C5.96049 16.6197 4.21575 15.705 4.21575 15.2347C4.21575 14.7645 5.96054 13.8497 9.15868 13.8497C12.3568 13.8497 14.1016 14.7645 14.1016 15.2347C14.1016 15.705 12.3568 16.6197 9.15868 16.6197ZM19.4939 14.3114C19.4939 14.7582 17.9017 15.5972 15.0003 15.6804V15.2347C15.0003 14.6579 14.5755 14.1917 13.8901 13.8345C14.1099 13.8436 14.3303 13.8497 14.5509 13.8497C16.4721 13.8497 18.4035 13.5003 19.4939 12.8261V14.3114H19.4939ZM19.4939 11.5415C19.4939 12.0117 17.7491 12.9264 14.551 12.9264C11.3528 12.9264 9.60805 12.0117 9.60805 11.5415V10.0562C10.6984 10.7304 12.6298 11.0798 14.551 11.0798C16.4721 11.0798 18.4036 10.7304 19.4939 10.0562V11.5415ZM19.4939 8.77152C19.4939 9.24176 17.7491 10.1565 14.551 10.1565C11.3528 10.1565 9.60805 9.24176 9.60805 8.77152V7.28622C10.6984 7.96044 12.6298 8.30985 14.551 8.30985C16.4721 8.30985 18.4036 7.96044 19.4939 7.28622V8.77152ZM14.551 7.38655C11.3528 7.38655 9.60805 6.47182 9.60805 6.00157C9.60805 5.53133 11.3528 4.6166 14.551 4.6166C17.7491 4.6166 19.4939 5.53133 19.4939 6.00157C19.4939 6.47182 17.7491 7.38655 14.551 7.38655Z" fill="#464B4E"/>
</svg>
