<svg viewBox="0 0 19 21" fill="none" xmlns="http://www.w3.org/2000/svg">
<path d="M9.68379 6.65271C9.26904 6.65271 8.86361 6.7757 8.51876 7.00612C8.17391 7.23654 7.90513 7.56404 7.74642 7.94722C7.5877 8.3304 7.54617 8.75203 7.62709 9.15881C7.708 9.56559 7.90772 9.93924 8.20099 10.2325C8.49426 10.5258 8.86791 10.7255 9.27469 10.8064C9.68146 10.8873 10.1031 10.8458 10.4863 10.6871C10.8694 10.5284 11.197 10.2596 11.4274 9.91473C11.6578 9.56988 11.7808 9.16445 11.7808 8.74971C11.7808 8.19355 11.5599 7.66017 11.1666 7.26691C10.7733 6.87364 10.2399 6.65271 9.68379 6.65271ZM9.68379 10.1477C9.40729 10.1477 9.137 10.0657 8.9071 9.9121C8.6772 9.75848 8.49802 9.54015 8.39221 9.2847C8.2864 9.02924 8.25871 8.74815 8.31265 8.47697C8.3666 8.20578 8.49974 7.95669 8.69526 7.76117C8.89077 7.56566 9.13987 7.43251 9.41105 7.37857C9.68224 7.32463 9.96333 7.35231 10.2188 7.45812C10.4742 7.56394 10.6926 7.74312 10.8462 7.97302C10.9998 8.20292 11.0818 8.47321 11.0818 8.74971C11.0818 9.12048 10.9345 9.47606 10.6723 9.73824C10.4101 10.0004 10.0546 10.1477 9.68379 10.1477Z" fill="#464B4E"/>
<path d="M17.7222 13.2024V12.5942H17.0232V13.1429C16.731 13.1849 16.4614 13.324 16.2578 13.5379L14.3845 12.4579C14.7408 11.7399 14.9262 10.9493 14.9262 10.1477C14.9262 9.3462 14.7408 8.55552 14.3845 7.83754L16.2578 6.75758C16.4637 6.96897 16.732 7.10864 17.0232 7.15601V7.70123H17.7222V7.0931C17.8014 7.06613 17.8775 7.03099 17.9494 6.98825C18.2699 6.80263 18.5036 6.49744 18.5993 6.13967C18.6949 5.7819 18.6447 5.40078 18.4597 5.07999C18.3695 4.92046 18.2481 4.78069 18.1028 4.66902C17.9575 4.55734 17.7913 4.47603 17.6139 4.42992C17.3958 4.37144 17.1668 4.36664 16.9465 4.41594C16.7262 4.46524 16.5211 4.56717 16.3487 4.71302L15.821 4.40895L15.4715 5.01358L15.9503 5.28969C15.844 5.56428 15.8293 5.86583 15.9083 6.14946L14.0385 7.22941C13.5916 6.56441 12.9981 6.01071 12.3038 5.61084C11.6095 5.21097 10.8328 4.97556 10.0333 4.92271V2.75931C10.3185 2.6849 10.573 2.5222 10.7602 2.29448L11.2355 2.56709L11.585 1.96246L11.0573 1.65839C11.0956 1.45634 11.0889 1.24832 11.0375 1.04917C10.9862 0.850025 10.8916 0.664651 10.7604 0.506267C10.6293 0.347883 10.4647 0.220392 10.2786 0.132882C10.0925 0.0453724 9.88941 0 9.68376 0C9.47811 0 9.27499 0.0453724 9.08888 0.132882C8.90278 0.220392 8.73827 0.347883 8.60709 0.506267C8.47592 0.664651 8.3813 0.850025 8.32998 1.04917C8.27867 1.24832 8.27192 1.45634 8.31023 1.65839L7.78249 1.96246L8.13198 2.56709L8.6108 2.29448C8.79713 2.52159 9.05026 2.68423 9.33426 2.75931V4.92271C8.53477 4.97556 7.75803 5.21097 7.0637 5.61084C6.36938 6.01071 5.77595 6.56441 5.329 7.22941L3.45918 6.14946C3.53818 5.86583 3.52347 5.56428 3.41724 5.28969L3.89605 5.01358L3.54656 4.40895L3.01881 4.71302C2.86288 4.57926 2.67938 4.48151 2.48137 4.42674C2.28336 4.37196 2.07572 4.3615 1.87321 4.39609C1.6707 4.43069 1.4783 4.50949 1.30971 4.6269C1.14112 4.7443 1.00048 4.89742 0.897788 5.07536C0.795101 5.2533 0.732894 5.45168 0.715593 5.6564C0.698293 5.86111 0.726324 6.06712 0.797692 6.25977C0.869061 6.45242 0.982012 6.62697 1.12851 6.771C1.27501 6.91504 1.45145 7.02501 1.64528 7.0931V7.70123H2.34428V7.15601C2.63575 7.10936 2.90427 6.96957 3.10968 6.75758L4.983 7.83754C4.6267 8.55552 4.4413 9.3462 4.4413 10.1477C4.4413 10.9493 4.6267 11.7399 4.983 12.4579L3.10968 13.5379C2.90616 13.324 2.63653 13.1849 2.34428 13.1429V12.5942H1.64528V13.2024C1.56672 13.2308 1.49072 13.2659 1.4181 13.3072C1.24782 13.403 1.09951 13.5335 0.98276 13.6902C0.86601 13.8469 0.783407 14.0264 0.740281 14.217C0.697155 14.4075 0.694464 14.6051 0.732383 14.7968C0.770301 14.9885 0.847986 15.1701 0.960425 15.3299C1.07286 15.4897 1.21756 15.6242 1.38517 15.7246C1.55279 15.8251 1.7396 15.8893 1.93356 15.9131C2.12751 15.9369 2.3243 15.9197 2.51123 15.8628C2.69816 15.8058 2.87107 15.7103 3.01881 15.5824L3.54656 15.8865L3.89605 15.2819L3.41724 15.0058C3.52347 14.7312 3.53818 14.4296 3.45918 14.146L5.329 13.066C5.77407 13.7343 6.36667 14.2914 7.0611 14.6943C7.75554 15.0973 8.53325 15.3354 9.33426 15.3902V17.5536C9.04899 17.628 8.79455 17.7907 8.6073 18.0184L8.13198 17.7458L7.78249 18.3505L8.31023 18.6545C8.27192 18.8566 8.27867 19.0646 8.32998 19.2638C8.3813 19.4629 8.47592 19.6483 8.60709 19.8067C8.73827 19.965 8.90278 20.0925 9.08888 20.18C9.27499 20.2676 9.47811 20.3129 9.68376 20.3129C9.88941 20.3129 10.0925 20.2676 10.2786 20.18C10.4647 20.0925 10.6293 19.965 10.7604 19.8067C10.8916 19.6483 10.9862 19.4629 11.0375 19.2638C11.0889 19.0646 11.0956 18.8566 11.0573 18.6545L11.585 18.3505L11.2355 17.7458L10.7567 18.0184C10.573 17.7849 10.3196 17.6159 10.0333 17.5361V15.3902C10.8328 15.3374 11.6095 15.102 12.3038 14.7021C12.9981 14.3022 13.5916 13.7485 14.0385 13.0835L15.9083 14.1635C15.8293 14.4471 15.844 14.7487 15.9503 15.0232L15.4715 15.2993L15.821 15.904L16.3487 15.5999C16.5063 15.7257 16.6893 15.816 16.885 15.8644C17.0808 15.9129 17.2847 15.9184 17.4828 15.8806C17.6809 15.8428 17.8684 15.7627 18.0326 15.6456C18.1968 15.5285 18.3337 15.3773 18.4339 15.2023C18.5342 15.0273 18.5954 14.8327 18.6133 14.6319C18.6313 14.431 18.6056 14.2286 18.538 14.0387C18.4704 13.8487 18.3625 13.6756 18.2217 13.5312C18.0809 13.3869 17.9105 13.2747 17.7222 13.2024ZM16.9009 5.16387C17.0206 5.09455 17.1581 5.06229 17.2962 5.07117C17.4342 5.08006 17.5665 5.12968 17.6763 5.21377C17.7861 5.29786 17.8685 5.41263 17.913 5.54356C17.9576 5.67449 17.9623 5.81569 17.9265 5.9493C17.8908 6.0829 17.8163 6.20291 17.7123 6.29413C17.6083 6.38535 17.4797 6.44368 17.3426 6.46174C17.2054 6.4798 17.066 6.45678 16.942 6.39559C16.818 6.33441 16.7149 6.2378 16.6458 6.118C16.5565 5.95857 16.5333 5.77054 16.581 5.59416C16.6287 5.41779 16.7435 5.2671 16.9009 5.17435V5.16387ZM2.29884 6.45352C2.18775 6.48367 2.07093 6.48592 1.95876 6.46006C1.84659 6.43421 1.74254 6.38105 1.65585 6.30531C1.56917 6.22958 1.50253 6.1336 1.46185 6.02592C1.42118 5.91823 1.40773 5.80217 1.42269 5.68803C1.43766 5.5739 1.48059 5.46523 1.54765 5.37167C1.61472 5.27811 1.70386 5.20257 1.80714 5.15175C1.91043 5.10092 2.02466 5.07639 2.13971 5.08034C2.25475 5.08428 2.36704 5.11658 2.4666 5.17435C2.5859 5.24358 2.68204 5.34655 2.74294 5.47031C2.80383 5.59406 2.82676 5.73306 2.80882 5.86982C2.79089 6.00657 2.7329 6.13496 2.64215 6.23883C2.5514 6.3427 2.43195 6.41739 2.29884 6.45352ZM2.79164 14.6912C2.74968 14.8474 2.65489 14.9841 2.52342 15.0782C2.39195 15.1723 2.23192 15.2179 2.07059 15.2073C1.90927 15.1967 1.75661 15.1304 1.63864 15.0199C1.52066 14.9093 1.44465 14.7613 1.42356 14.601C1.40247 14.4407 1.4376 14.2781 1.52296 14.1408C1.60833 14.0035 1.73865 13.9 1.89174 13.848C2.04482 13.796 2.2112 13.7986 2.36254 13.8555C2.51388 13.9124 2.64082 14.02 2.72174 14.16C2.76775 14.2396 2.79762 14.3275 2.80961 14.4186C2.8216 14.5098 2.8155 14.6024 2.79164 14.6912ZM8.98476 1.41025C8.98476 1.272 9.02576 1.13685 9.10257 1.0219C9.17937 0.906955 9.28854 0.817362 9.41627 0.764457C9.54399 0.711551 9.68454 0.697709 9.82013 0.72468C9.95572 0.751651 10.0803 0.818224 10.178 0.91598C10.2758 1.01374 10.3424 1.13829 10.3693 1.27388C10.3963 1.40947 10.3825 1.55002 10.3296 1.67774C10.2766 1.80547 10.1871 1.91464 10.0721 1.99144C9.95715 2.06825 9.82201 2.10925 9.68376 2.10925C9.49837 2.10925 9.32058 2.0356 9.1895 1.90451C9.05841 1.77343 8.98476 1.59563 8.98476 1.41025ZM7.26523 13.9922C7.35341 13.414 7.64585 12.8864 8.08955 12.5053C8.53325 12.1241 9.09882 11.9145 9.68376 11.9145C10.2687 11.9145 10.8343 12.1241 11.278 12.5053C11.7217 12.8864 12.0141 13.414 12.1023 13.9922C11.3799 14.4534 10.5408 14.6984 9.68376 14.6984C8.82674 14.6984 7.98759 14.4534 7.26523 13.9922ZM10.3828 18.8852C10.3828 19.0235 10.3418 19.1586 10.265 19.2736C10.1882 19.3885 10.079 19.4781 9.95126 19.531C9.82353 19.5839 9.68299 19.5977 9.54739 19.5708C9.4118 19.5438 9.28725 19.4772 9.1895 19.3795C9.09174 19.2817 9.02516 19.1572 8.99819 19.0216C8.97122 18.886 8.98507 18.7454 9.03797 18.6177C9.09088 18.49 9.18047 18.3808 9.29542 18.304C9.41037 18.2272 9.54551 18.1862 9.68376 18.1862C9.86915 18.1862 10.0469 18.2599 10.178 18.3909C10.3091 18.522 10.3828 18.6998 10.3828 18.8852ZM12.7174 13.5204C12.5352 12.8555 12.1397 12.2689 11.5915 11.8508C11.0434 11.4327 10.3731 11.2062 9.68376 11.2062C8.99438 11.2062 8.32409 11.4327 7.77598 11.8508C7.22787 12.2689 6.8323 12.8555 6.65011 13.5204C5.9655 12.9064 5.48333 12.099 5.26735 11.2051C5.05137 10.3112 5.11174 9.37279 5.44048 8.51391C5.76921 7.65504 6.35084 6.91614 7.10849 6.39489C7.86614 5.87363 8.76412 5.59456 9.68376 5.59456C10.6034 5.59456 11.5014 5.87363 12.259 6.39489C13.0167 6.91614 13.5983 7.65504 13.927 8.51391C14.2558 9.37279 14.3162 10.3112 14.1002 11.2051C13.8842 12.099 13.402 12.9064 12.7174 13.5204ZM17.8551 14.866C17.7859 14.9858 17.6829 15.0824 17.5588 15.1436C17.4348 15.2047 17.2954 15.2278 17.1583 15.2097C17.0212 15.1916 16.8925 15.1333 16.7885 15.0421C16.6846 14.9509 16.61 14.8309 16.5743 14.6973C16.5386 14.5637 16.5433 14.4225 16.5878 14.2915C16.6324 14.1606 16.7148 14.0458 16.8246 13.9617C16.9344 13.8776 17.0667 13.828 17.2047 13.8191C17.3427 13.8103 17.4802 13.8425 17.5999 13.9118C17.7602 14.0046 17.877 14.1572 17.9248 14.3361C17.9727 14.515 17.9476 14.7056 17.8551 14.866Z" fill="#464B4E"/>
<path d="M1.64526 8.40027H2.34426V9.09927H1.64526V8.40027Z" fill="#464B4E"/>
<path d="M1.64526 11.1962H2.34426V11.8952H1.64526V11.1962Z" fill="#464B4E"/>
<path d="M1.64526 9.79822H2.34426V10.4972H1.64526V9.79822Z" fill="#464B4E"/>
<path d="M4.15161 16.233L4.50111 15.6277L5.10644 15.9772L4.75694 16.5825L4.15161 16.233Z" fill="#464B4E"/>
<path d="M5.36169 16.9332L5.71119 16.3279L6.31653 16.6774L5.96703 17.2827L5.36169 16.9332Z" fill="#464B4E"/>
<path d="M6.57153 17.6335L6.92103 17.0282L7.52637 17.3777L7.17687 17.983L6.57153 17.6335Z" fill="#464B4E"/>
<path d="M11.8403 17.3737L12.4457 17.0242L12.7952 17.6296L12.1898 17.9791L11.8403 17.3737Z" fill="#464B4E"/>
<path d="M13.0519 16.6741L13.6572 16.3246L14.0067 16.9299L13.4014 17.2794L13.0519 16.6741Z" fill="#464B4E"/>
<path d="M14.26 15.9778L14.8653 15.6283L15.2148 16.2337L14.6095 16.5832L14.26 15.9778Z" fill="#464B4E"/>
<path d="M17.0233 8.40027H17.7223V9.09927H17.0233V8.40027Z" fill="#464B4E"/>
<path d="M17.0233 9.79822H17.7223V10.4972H17.0233V9.79822Z" fill="#464B4E"/>
<path d="M17.0233 11.1962H17.7223V11.8952H17.0233V11.1962Z" fill="#464B4E"/>
<path d="M11.8425 2.91632L12.192 2.31099L12.7974 2.66049L12.4479 3.26582L11.8425 2.91632Z" fill="#464B4E"/>
<path d="M13.0525 3.61664L13.402 3.01131L14.0073 3.3608L13.6578 3.96614L13.0525 3.61664Z" fill="#464B4E"/>
<path d="M14.2623 4.31689L14.6118 3.71156L15.2172 4.06106L14.8677 4.66639L14.2623 4.31689Z" fill="#464B4E"/>
<path d="M6.57019 2.66382L7.17552 2.31432L7.52502 2.91965L6.91969 3.26915L6.57019 2.66382Z" fill="#464B4E"/>
<path d="M4.15417 4.05969L4.75951 3.71019L5.10901 4.31553L4.50367 4.66502L4.15417 4.05969Z" fill="#464B4E"/>
<path d="M5.3623 3.35999L5.96764 3.01049L6.31714 3.61582L5.7118 3.96532L5.3623 3.35999Z" fill="#464B4E"/>
</svg>
