<svg width="35" height="35" viewBox="0 0 35 35" fill="none" xmlns="http://www.w3.org/2000/svg">
<circle cx="17.5" cy="17.5" r="17.5" fill="#3C3C3D"/>
<path d="M10.4031 18.3684L17.6219 21.3869C17.7026 21.4209 17.7891 21.4375 17.875 21.4375C17.9609 21.4375 18.0474 21.4209 18.1281 21.3869L25.3469 18.3684C25.5314 18.2915 25.6705 18.1345 25.725 17.9422C25.7795 17.7506 25.7436 17.5436 25.6276 17.3815L18.4089 7.27495C18.2859 7.10264 18.0806 7.00009 17.8753 7C17.6698 6.99991 17.4643 7.10246 17.3412 7.27495L10.1224 17.3815C10.0064 17.5436 9.9705 17.7506 10.025 17.9422C10.0795 18.1345 10.2185 18.2915 10.4031 18.3684ZM18.5313 19.7956V9.70424L24.0819 17.475L18.5313 19.7956ZM17.2188 9.70424V19.7956L11.6682 17.475L17.2188 9.70424Z" fill="white"/>
<path d="M25.6483 20.4724C25.4766 20.2032 25.135 20.0981 24.8408 20.2186L17.8752 23.1307L10.9095 20.2186C10.6147 20.0962 10.2738 20.2026 10.102 20.4724C9.9309 20.7428 9.97897 21.0972 10.2167 21.3113L17.4355 27.8309C17.5604 27.9437 17.7175 28.0001 17.8751 28.0001C18.0328 28.0001 18.1898 27.9437 18.3147 27.8309L25.5335 21.3113C25.7713 21.0972 25.8194 20.7428 25.6483 20.4724ZM17.8752 26.4594L13.9454 22.9109L17.622 24.4478C17.7835 24.5157 17.9668 24.5157 18.1283 24.4478L21.805 22.9109C21.805 22.9109 17.8752 26.4594 17.8752 26.4594Z" fill="white"/>
</svg>
