<svg width="35" height="35" viewBox="0 0 35 35" fill="none" xmlns="http://www.w3.org/2000/svg">
<path d="M16.2477 10.1547L15.2999 11.1025C14.9614 11.441 14.4198 11.441 14.149 11.1025L11.9827 8.93617C11.8473 8.80078 11.6442 8.66538 11.4411 8.66538H7.51458C6.7699 8.66538 6.43141 9.54546 6.973 10.087L11.6442 14.7582L12.3889 15.5029L14.4198 17.5339L15.1645 18.2785L16.7892 19.9033L17.5339 20.648L19.5649 22.6789L20.3096 23.4236L23.0852 26.1992C23.2206 26.3346 23.4237 26.47 23.6268 26.47H27.5533C28.298 26.47 28.6364 25.5899 28.0949 25.0484L23.9653 20.9188C23.6268 20.5803 23.6268 20.0387 23.9653 19.7679L24.913 18.8201C25.2515 18.4816 25.7931 18.4816 26.0639 18.8201L32.1568 24.913C32.5629 25.3192 33.2399 25.1838 33.5107 24.7099C34.5262 22.5435 35.0001 20.1064 35.0001 17.5339C35.0001 13.1335 33.3753 9.13927 30.7351 6.09284C30.2612 5.55126 29.3134 5.88975 29.3134 6.63443V12.5919C29.3134 12.795 29.2457 12.9981 29.0426 13.1335L25.4546 16.7892L24.7099 17.5339L22.679 19.5648L22.002 20.3095L20.9188 21.3927C20.5803 21.7311 20.0388 21.7311 19.768 21.3927L18.8202 20.4449C18.4817 20.1064 18.4817 19.5648 18.8202 19.294L19.9034 18.2108L20.648 17.4662L22.679 15.4352L23.4237 14.6905L26.1993 11.9149C26.3347 11.7795 26.4701 11.5764 26.4701 11.3733V7.51451C26.4701 6.76983 25.59 6.43134 25.0484 6.97292L20.3096 11.6441L19.6326 12.3211L17.6016 14.352L16.8569 15.0967L15.7061 16.2476C15.3676 16.5861 14.826 16.5861 14.5552 16.2476L13.6074 15.2998C13.2689 14.9613 13.2689 14.4197 13.6074 14.1489L14.6906 13.0658L15.4353 12.3211L17.4662 10.2901L18.2109 9.54546L24.913 2.84333C25.3192 2.43714 25.1838 1.76016 24.7099 1.48936C22.5436 0.541586 20.1065 0 17.5339 0C13.1335 0 9.13934 1.62476 6.09292 4.26499C5.48363 4.73888 5.88982 5.68665 6.6345 5.68665H12.592C12.795 5.68665 12.9981 5.75435 13.1335 5.95745L16.1123 8.93617C16.5185 9.27466 16.5185 9.81625 16.2477 10.1547Z" fill="#186AB4"/>
<path d="M18.2785 25.5223L17.5339 24.7776L15.5029 22.7466L14.7582 22.002L13.0658 20.3095L12.3211 19.6325L10.2901 17.6016L9.54546 16.8569L2.84333 10.1548C2.43714 9.74857 1.76016 9.88396 1.48936 10.3579C0.541586 12.5242 0 14.9613 0 17.5339C0 21.9343 1.62476 25.9285 4.26499 28.9749C4.73888 29.5165 5.68666 29.178 5.68666 28.4333V22.4081C5.68666 22.2051 5.75435 22.002 5.95745 21.8666L8.93617 18.8878C9.27466 18.5493 9.81625 18.5493 10.087 18.8878L11.0348 19.8356C11.3733 20.1741 11.3733 20.7157 11.0348 20.9865L8.86848 23.0851C8.73308 23.2205 8.59768 23.4236 8.59768 23.6267V27.5532C8.59768 28.2979 9.47776 28.6364 10.0193 28.0948L14.1489 23.9652C14.4874 23.6267 15.029 23.6267 15.2998 23.9652L16.2476 24.913C16.5861 25.2515 16.5861 25.7931 16.2476 26.0639L10.1547 32.1567C9.74855 32.5629 9.88395 33.2399 10.3578 33.5107C12.5242 34.5261 14.9613 35 17.5339 35C21.9342 35 25.9284 33.3753 28.9749 30.735C29.5165 30.2611 29.178 29.3134 28.4333 29.3134H22.4081C22.205 29.3134 22.0019 29.2457 21.8665 29.0426L18.2785 25.5223Z" fill="#186AB4"/>
</svg>
