<svg width="35" height="35" viewBox="0 0 35 35" fill="none" xmlns="http://www.w3.org/2000/svg">
<circle cx="17.5" cy="17.5" r="17.5" fill="#333333"/>
<path d="M22.1461 23.7775L15.5366 23.7681L16.8399 18.9912L19.8517 18.0605C20.439 17.8791 20.7677 17.2567 20.5859 16.6704C20.4041 16.0842 19.7807 15.7562 19.1934 15.9375L17.5331 16.4505L19.4558 9.40345C19.6173 8.81131 19.2674 8.20055 18.6743 8.03928C18.0812 7.87815 17.4693 8.22731 17.3077 8.81946L15.0133 17.2292L11.7843 18.2271C11.197 18.4086 10.8683 19.0309 11.0501 19.6172C11.1978 20.0935 11.637 20.3995 12.1116 20.4001C12.221 20.4003 12.3325 20.3842 12.4426 20.3502L14.3201 19.77L13.0063 24.5853C12.9152 24.9191 12.9851 25.2762 13.1954 25.5513C13.4056 25.8264 13.7322 25.988 14.0788 25.9885L22.143 26C22.7578 26.0009 23.2568 25.5041 23.2578 24.8904C23.2585 24.2766 22.7608 23.7783 22.1461 23.7775Z" fill="white"/>
</svg>
