<svg width="35" height="35" viewBox="0 0 35 35" fill="none" xmlns="http://www.w3.org/2000/svg">
<path d="M17.5 0C7.83657 0 0 7.83643 0 17.5001C0 19.4316 0.313091 21.2895 0.891147 23.0278H6.1251V8.30347L17.5003 19.6786L28.8752 8.30347V23.0276H34.1091C34.6876 21.2894 35.0007 19.4315 35.0007 17.5C35.0005 7.83602 27.1638 0 17.5 0Z" fill="#FF6600"/>
<path d="M14.8844 22.294L9.92011 17.3295V26.5944H2.5462C5.61832 31.6343 11.1666 35 17.4998 35C23.833 35 29.3818 31.6343 32.4535 26.5944H25.0797V17.3294L20.1154 22.2937L17.4999 24.909L14.8847 22.2938H14.8844V22.294Z" fill="#4C4C4C"/>
</svg>
