<svg width="35" height="35" viewBox="0 0 35 35" fill="none" xmlns="http://www.w3.org/2000/svg">
<circle cx="17.5" cy="17.5" r="17.5" fill="#006097"/>
<path d="M17.849 16.4729C15.9444 16.4729 14.1747 14.7681 11.2702 11.6735C10.8903 11.2686 10.9162 10.6376 11.3282 10.2642C11.7402 9.89077 12.3822 9.91628 12.7622 10.3212C15.1116 12.8245 16.8335 14.4783 17.849 14.4783C18.8644 14.4783 20.5863 12.8245 22.9358 10.3212C23.3158 9.91634 23.9578 9.89077 24.3698 10.2642C24.7817 10.6377 24.8077 11.2686 24.4277 11.6735C21.5232 14.7681 19.7536 16.4729 17.849 16.4729Z" fill="white"/>
<path d="M23.5109 24.9962C23.2373 24.9962 23.1345 24.8882 22.9344 24.675C20.585 22.1717 18.863 20.5179 17.8476 20.5179C16.8321 20.5179 15.1102 22.1717 12.7607 24.675C12.3808 25.0799 11.7388 25.1054 11.3268 24.732C10.9148 24.3585 10.8889 23.7277 11.2688 23.3228C14.1733 20.2281 15.943 18.5233 17.8476 18.5233C19.7522 18.5233 21.5218 20.2281 24.4263 23.3228C25.0996 24.054 24.4292 25.0704 23.5109 24.9962Z" fill="white"/>
</svg>
