<svg width="35" height="35" viewBox="0 0 35 35" fill="none" xmlns="http://www.w3.org/2000/svg">
<circle cx="17.5" cy="17.5" r="17.5" fill="#1BA27A"/>
<path d="M19.6802 16.3021V14.2273H24.6595V11H11.0559V14.2273H16.0348V16.31C12.0129 16.5118 9 17.3386 9 18.3282C9 19.3177 12.0129 20.1445 16.0348 20.3463V26.8119C16.6506 26.9354 17.2882 27 17.9412 27C18.5353 27 19.1167 26.9464 19.6802 26.8438V20.3543C23.7858 20.1673 26.8824 19.3314 26.8824 18.3282C26.8824 17.325 23.7858 16.489 19.6802 16.3021ZM17.9412 19.6034C13.4549 19.6034 9.81804 18.9404 9.81804 18.1222C9.81804 17.4238 12.4684 16.8382 16.0348 16.6821V19.0543C16.6394 19.1398 17.2487 19.1828 17.8576 19.1828C18.4668 19.1828 19.076 19.1398 19.6803 19.0543V16.6748C23.3307 16.8204 26.064 17.4128 26.064 18.1222C26.0639 18.9403 22.4271 19.6034 17.9412 19.6034Z" fill="white"/>
</svg>
