<svg width="45" height="45" viewBox="0 0 45 45" fill="none" xmlns="http://www.w3.org/2000/svg">
<path d="M22.5879 0C10.2219 0 0 10.0459 0 22.4121C0 34.7783 10.2219 45 22.5879 45C34.9539 45 45 34.7783 45 22.4121C45 10.0459 34.9539 0 22.5879 0Z" fill="#FEDB41"/>
<path d="M45 22.4121C45 34.7783 34.9539 45 22.5879 45V0C34.9539 0 45 10.0459 45 22.4121Z" fill="#FFCC33"/>
<path d="M22.5879 5.27344C13.1483 5.27344 5.27344 12.9726 5.27344 22.4121C5.27344 31.8517 13.1483 39.7266 22.5879 39.7266C32.0275 39.7266 39.7266 31.8517 39.7266 22.4121C39.7266 12.9726 32.0275 5.27344 22.5879 5.27344Z" fill="#FEA832"/>
<path d="M39.7266 22.4121C39.7266 31.8517 32.0275 39.7266 22.5879 39.7266V5.27344C32.0275 5.27344 39.7266 12.9726 39.7266 22.4121Z" fill="#FE9923"/>
<path d="M25.2246 21.0938H23.9062V15.8203H25.2246C25.963 15.8203 26.543 16.4003 26.543 17.1387C26.543 18.8788 29.1797 18.8788 29.1797 17.1387C29.1797 14.9501 27.4133 13.1836 25.2246 13.1836H23.9062V11.8652C23.9062 10.995 23.2471 10.5469 22.5879 10.5469C21.9287 10.5469 21.2695 10.995 21.2695 11.8652V13.1836H19.7754C17.5867 13.1836 15.8203 14.9501 15.8203 17.1387V19.7754C15.8203 21.964 17.5867 23.7305 19.7754 23.7305H21.2695V29.1797H19.7754C19.037 29.1797 18.457 28.5997 18.457 27.8613C18.457 26.1212 15.8203 26.1212 15.8203 27.8613C15.8203 30.0499 17.5867 31.8164 19.7754 31.8164H21.2695V33.1348C21.2695 34.005 21.9287 34.4531 22.5879 34.4531C23.2471 34.4531 23.9062 34.005 23.9062 33.1348V31.8164H25.2246C27.4133 31.8164 29.1797 30.0499 29.1797 27.8613V25.0488C29.1797 22.8603 27.4133 21.0938 25.2246 21.0938ZM21.2695 21.0938H19.7754C19.037 21.0938 18.457 20.5138 18.457 19.7754V17.1387C18.457 16.4003 19.037 15.8203 19.7754 15.8203H21.2695V21.0938ZM26.543 27.8613C26.543 28.5997 25.963 29.1797 25.2246 29.1797H23.9062V23.7305H25.2246C25.963 23.7305 26.543 24.3105 26.543 25.0488V27.8613Z" fill="#FEDB41"/>
<path d="M25.2246 21.0938H23.9062V15.8203H25.2246C25.963 15.8203 26.543 16.4003 26.543 17.1387C26.543 18.8788 29.1797 18.8788 29.1797 17.1387C29.1797 14.9501 27.4133 13.1836 25.2246 13.1836H23.9062V11.8652C23.9062 10.995 23.2471 10.5469 22.5879 10.5469V34.4531C23.2471 34.4531 23.9062 34.005 23.9062 33.1348V31.8164H25.2246C27.4133 31.8164 29.1797 30.0499 29.1797 27.8613V25.0488C29.1797 22.8603 27.4133 21.0938 25.2246 21.0938ZM26.543 27.8613C26.543 28.5997 25.963 29.1797 25.2246 29.1797H23.9062V23.7305H25.2246C25.963 23.7305 26.543 24.3105 26.543 25.0488V27.8613Z" fill="#FFCC33"/>
</svg>
