<svg viewBox="0 0 28 35" fill="none" xmlns="http://www.w3.org/2000/svg">
<path
    d="M1.41011 27.154C0.9797 26.8935 0.624 26.5277 0.377089 26.0918C0.130179 25.6559 0.000334155 25.1644 0 24.6645V18.9961C0.000137083 18.7818 0.0572286 18.5714 0.165523 18.386C0.273817 18.2005 0.429489 18.0467 0.616859 17.9399C0.804228 17.8331 1.01668 17.7771 1.2328 17.7777C1.44893 17.7782 1.6611 17.8352 1.84795 17.9428L14.7514 25.405C15.1218 25.6205 15.4289 25.9283 15.6424 26.2978C15.8558 26.6673 15.9682 27.0857 15.9683 27.5115V33.3841C15.9683 33.6522 15.8911 33.9203 15.7558 34.1501C15.6548 34.314 15.5222 34.4566 15.3656 34.5697C15.209 34.6828 15.0314 34.7642 14.8431 34.8092C14.6547 34.8543 14.4593 34.8621 14.2679 34.8322C14.0765 34.8024 13.8929 34.7355 13.7276 34.6353L1.41011 27.154ZM20.6429 16.3981C21.0133 16.6136 21.3205 16.9214 21.5339 17.2909C21.7474 17.6604 21.8597 18.0788 21.8599 18.5046V30.4223C21.8599 30.7733 21.6667 31.0989 21.3576 31.2712L18.531 32.8479C18.4988 32.8671 18.4537 32.8798 18.4151 32.8926V26.2667C18.4151 25.4113 17.9644 24.6134 17.2175 24.173L5.8851 17.4513V9.98283C5.88524 9.76856 5.94233 9.55812 6.05062 9.37269C6.15892 9.18727 6.31459 9.03341 6.50196 8.92662C6.68933 8.81982 6.90178 8.76387 7.1179 8.76439C7.33403 8.76491 7.5462 8.82189 7.73305 8.92958L20.6429 16.3981ZM26.2898 7.59546C27.0496 8.02953 27.5132 8.83383 27.5132 9.70196V27.1093C27.5132 27.4668 27.3136 27.7923 26.9981 27.9647L24.3195 29.4009V17.279C24.3195 16.4236 23.8688 15.6321 23.1283 15.1916L11.5513 8.30401V1.21851C11.5513 1.00148 11.6092 0.790831 11.7122 0.605714C12.0535 0.0248311 12.8069 -0.173052 13.3928 0.165264L26.2898 7.59546Z"
    fill="white"
  />
</svg>
