<svg viewBox="0 0 35 35" fill="none" xmlns="http://www.w3.org/2000/svg">
<path
    d="M34.6865 15.8788C34.613 14.5962 34.3249 13.5679 34.1045 12.9181C34.1045 12.9181 33.6582 11.675 32.8502 10.5111C29.9742 6.35257 22.0244 3.07546 20.5949 2.48784C18.9112 1.79287 17.2161 1.29 17.2161 1.29C16.7811 1.16005 16.3234 1.03009 15.8318 0.90579C13.7469 0.380323 11.9332 0.131715 10.5828 0.013061C9.92738 -0.0434408 7.76336 0.0356616 5.68409 1.2335C2.54823 3.03591 1.4973 6.40907 0.836228 8.52224C0.0395515 11.0535 0 13.2401 0 15.0087C0 16.3873 0.090403 17.9524 0.339011 19.6701C0.508517 20.8283 0.841878 23.0489 1.77981 25.6028C2.80249 28.4109 4.91566 34.191 8.97815 34.79C9.33411 34.8408 10.0178 34.9312 10.8371 34.6939C14.0125 33.7899 16.0126 28.8968 16.0917 22.563C16.1652 21.1335 16.1595 19.478 15.99 17.6473C15.8827 16.506 15.7075 14.6753 15.0577 12.37C14.5888 10.7032 14.0351 9.34152 13.583 8.35839C13.357 7.65211 13.2271 6.81023 13.6509 6.30737C14.5492 5.25643 17.3969 6.31302 20.1881 7.37525C22.5463 8.27671 24.8272 9.36893 27.0079 10.6411C29.0759 12.1384 29.1437 13.0424 29.0646 13.4492C28.7538 15.0369 25.019 15.7206 21.6741 16.3195C19.9282 16.6359 19.075 16.8845 18.0523 16.7885C17.3009 16.7207 17.0071 16.5851 16.7189 16.7998C16.0465 17.297 16.7641 18.6643 16.7585 21.4612C16.7585 22.4443 16.6624 23.5235 16.6172 24.049C16.459 25.9135 16.2443 26.9588 16.7132 27.23C16.9336 27.3543 17.1992 27.2526 17.4647 27.1509C18.4818 26.7723 19.5383 26.5068 20.5836 26.2243C23.3579 25.4841 26.1095 24.7948 26.9796 24.5744C28.2057 24.3484 29.2002 24.0546 29.9121 23.8173C31.1721 23.3992 31.9123 23.0884 32.6072 22.5121C34.9464 20.6023 34.743 16.8563 34.6865 15.8788ZM10.2325 31.8688C7.68425 32.4734 4.75181 29.298 3.67827 24.7722C2.60474 20.2464 3.79693 16.0935 6.34516 15.4889C8.89339 14.8844 11.8258 18.0598 12.8994 22.5856C13.9673 27.1057 12.7751 31.2642 10.2325 31.8688Z"
    fill="url(#paint0_linear)"
  />
<defs>
<linearGradient
      id="paint0_linear"
      x1="13.0702"
      y1="2.04798"
      x2="20.4981"
      y2="28.4584"
      gradientUnits="userSpaceOnUse"
    >
<stop stop-color="#F44336" />
<stop offset="0.123" stop-color="#F66342" />
<stop offset="0.392" stop-color="#FBB45F" />
<stop offset="0.578" stop-color="#FEF075" />
<stop offset="0.596" stop-color="#F2ED7C" />
<stop offset="0.707" stop-color="#ACDAA7" />
<stop offset="0.806" stop-color="#75CBC9" />
<stop offset="0.891" stop-color="#4DC0E1" />
<stop offset="0.959" stop-color="#34B9F0" />
<stop offset="1" stop-color="#2BB7F6" />
</linearGradient>
</defs>
</svg>
