<svg viewBox="0 0 36 36" fill="none" xmlns="http://www.w3.org/2000/svg">
<path
    d="M19.6757 35.5C18.7755 35.5 17.8745 35.5 16.846 35.5C15.4316 35.3714 14.1456 35.1142 12.8595 34.5999C7.07273 32.5423 3.21457 28.5558 1.54262 22.6402C1.15757 21.6114 1.15757 20.4541 0.900024 19.2967C0.900024 18.5251 0.900024 17.7536 0.900024 16.9819C0.900024 16.8533 0.900024 16.7247 0.900024 16.5961C1.28592 12.6096 2.82867 9.13744 5.52912 6.1797C7.84452 3.73637 10.6733 2.06459 14.0172 1.16444C15.0457 0.907234 15.9459 0.778629 16.9744 0.650024C17.8745 0.650024 18.7755 0.650024 19.6757 0.650024C19.804 0.650024 19.804 0.650024 19.9324 0.650024C21.7327 0.778629 23.533 1.29305 25.3333 2.06459C27.9054 3.22195 30.0916 4.89374 31.8919 7.07994C33.3063 8.75172 34.3356 10.6806 34.9782 12.8668C35.3641 14.0242 35.4925 15.1815 35.75 16.4676C35.75 17.4963 35.75 18.6537 35.75 19.6825C35.75 19.8111 35.75 19.9397 35.6217 20.0683C35.2358 23.1546 34.2073 25.8552 32.4061 28.2986C29.8349 31.8993 26.3626 34.2141 21.9902 35.1142C21.3468 35.2428 20.4466 35.3714 19.6757 35.5ZM28.5488 18.1393C28.5488 16.339 28.5488 14.6672 28.5488 12.8668C28.5488 12.7382 28.5488 12.6096 28.5488 12.3524C28.5488 11.7095 28.0346 11.4522 27.3911 11.7095C27.2628 11.8381 27.0052 11.8381 26.8769 11.9667C24.5623 13.6384 22.1186 15.1815 19.804 16.8533C19.4181 17.1105 19.1606 17.4963 19.1606 18.0108C19.1606 19.8111 19.1606 21.7401 19.1606 23.5404C19.1606 23.669 19.1606 23.7976 19.1606 23.9263C19.2898 24.1834 19.4181 24.4406 19.804 24.4406C20.0607 24.4406 20.3183 24.312 20.4466 24.1834C20.5758 24.0549 20.5758 23.7976 20.5758 23.5404C20.5758 21.8687 20.5758 20.1969 20.5758 18.5251C20.5758 18.0108 20.7042 17.7536 21.0901 17.4963C22.2469 16.7247 23.4046 15.9532 24.5623 15.0529C25.2049 14.6672 25.8484 14.1528 26.491 13.767C26.6193 13.767 26.6193 13.6384 26.7485 13.6384C26.8769 13.767 26.8769 13.8956 26.8769 14.0242C26.8769 14.1528 26.8769 14.2814 26.8769 14.2814C26.8769 17.2391 26.8769 20.1969 26.8769 23.1546C26.8769 23.2832 26.8769 23.5404 26.8769 23.669C26.8769 24.0549 27.2628 24.312 27.6487 24.312C28.0346 24.312 28.2913 24.0549 28.2913 23.669C28.2913 23.5404 28.2913 23.2832 28.2913 23.1546C28.5488 21.6115 28.5488 19.8111 28.5488 18.1393ZM8.23042 18.1393C8.23042 19.1681 8.23042 20.1969 8.23042 21.0971C8.23042 21.9973 8.23042 22.8974 8.23042 23.7976C8.23042 24.1834 8.35878 24.4406 8.74468 24.5692C9.00138 24.6978 9.25892 24.5692 9.51647 24.312C9.64482 24.0549 9.64482 23.7976 9.64482 23.669C9.64482 20.5827 9.64482 17.4963 9.64482 14.41C9.64482 14.2814 9.64482 14.0242 9.77317 14.0242C9.90152 13.8956 10.0307 14.1528 10.1591 14.1528C11.9594 15.4387 13.7597 16.7247 15.6892 18.0108C15.9459 18.1393 16.0742 18.3965 16.0742 18.6537C16.0742 20.1969 16.0742 21.6115 16.0742 23.1546C16.0742 23.4118 16.0742 23.669 16.0742 23.9263C16.0742 24.4406 16.3318 24.6978 16.846 24.6978C17.2319 24.6978 17.4895 24.4406 17.6178 23.9263C17.6178 23.7976 17.6178 23.669 17.6178 23.5404C17.6178 21.7401 17.6178 20.0683 17.6178 18.2679C17.6178 17.7536 17.4895 17.3677 16.9744 17.1105C15.1741 15.9532 13.3738 14.6672 11.7018 13.3812C10.8017 12.7382 10.0307 12.2238 9.25892 11.7095C8.74467 11.4522 8.23042 11.7095 8.23042 12.2238C8.23042 12.3524 8.23042 12.6096 8.23042 12.7382C8.23042 14.5386 8.23042 16.339 8.23042 18.1393Z"
    fill="white"
  />
</svg>
