<svg viewBox="0 0 30 30" fill="none" xmlns="http://www.w3.org/2000/svg">
<path d="M25.875 4.31244H22.4375V10.3124H25.875V4.31244Z" fill="#F05540" />
<path d="M27.1875 1.24988H21.125V4.4999H27.1875V1.24988Z" fill="#F3705A" />
<path
    d="M2.625 16.1875V30H27.125V16.1875C22.3125 11.375 19.625 8.68752 14.875 3.9375C10.125 8.74998 7.43748 11.4375 2.625 16.1875Z"
    fill="#FFD15C"
  />
<path
    d="M27.1875 16.1875C22.375 11.375 19.6875 8.68752 14.9375 3.9375C12.5 6.31248 10.625 8.18748 8.74998 10.0625C6.87498 11.9375 4.99998 13.8125 2.625 16.1875V19C7.43748 14.1875 10.125 11.5 14.875 6.74994C19.6875 11.5624 22.375 14.2499 27.125 19V19.375V16.1875H27.1875V16.1875Z"
    fill="#F7B64C"
  />
<path
    d="M12.6875 30H5.3125V22.75C5.3125 20.6875 7 19.0625 8.99998 19.0625C11.0625 19.0625 12.6875 20.75 12.6875 22.75V30Z"
    fill="#415A6B"
  />
<path d="M24.5 19.0624H14.875V27.4999H24.5V19.0624Z" fill="#344A5E" />
<path d="M19.1875 20.0625H15.875V26.5H19.1875V20.0625Z" fill="#8AD7F8" />
<path d="M23.5001 20.0625H20.1876V26.5H23.5001V20.0625Z" fill="#8AD7F8" />
<path
    d="M29.4375 13.625L16.375 0.5625C15.625 -0.1875 14.3125 -0.1875 13.5625 0.5625L0.5625 13.625C-0.1875 14.375 -0.1875 15.6875 0.5625 16.4375C1.3125 17.1875 2.625 17.1875 3.375 16.4375L15 4.81248L26.625 16.4375C27.375 17.1875 28.6875 17.1875 29.4375 16.4375C30.1875 15.625 30.1875 14.375 29.4375 13.625Z"
    fill="#F3705A"
  />
</svg>
