<svg viewBox="0 0 28 23" fill="none" xmlns="http://www.w3.org/2000/svg">
<path
    d="M23.5261 5.49323C23.0199 5.97739 22.2057 5.95538 21.7215 5.44922L20.4011 4.08479C18.4645 2.06015 15.2515 1.99413 13.2048 3.90874L4.38003 12.2494L12.7427 12.4474C13.4469 12.4694 13.9971 13.0416 13.9751 13.7459C13.9531 14.4501 13.3809 15.0003 12.6767 14.9782L1.23303 14.6922C0.528805 14.6701 -0.0213692 14.098 0.000637822 13.3937L0.286729 2.06015C0.308736 1.35593 0.880917 0.805751 1.58514 0.827758C2.28936 0.849765 2.83954 1.42195 2.81753 2.12617L2.61947 10.4228L11.4443 2.08215C14.5032 -0.800762 19.3228 -0.668718 22.2277 2.34624L23.5481 3.71067C24.0543 4.21683 24.0323 5.00908 23.5261 5.49323Z"
    fill="white"
  />
<path
    d="M3.98394 17.201C4.4901 16.7168 5.30436 16.7388 5.78852 17.245L7.10893 18.6094C9.04555 20.6341 12.2586 20.7001 14.3052 18.7855L23.13 10.4448L14.7674 10.2468C14.0631 10.2248 13.513 9.65259 13.535 8.94836C13.557 8.24414 14.1292 7.69396 14.8334 7.71597L26.277 8.00206C26.9812 8.02407 27.5314 8.59625 27.5094 9.30048L27.2233 20.6341C27.2013 21.3383 26.6291 21.8885 25.9249 21.8665C25.2207 21.8445 24.6705 21.2723 24.6925 20.568L24.8906 12.2714L16.0658 20.6121C13.0068 23.495 8.18728 23.3629 5.28235 20.348L3.96194 18.9835C3.45578 18.4774 3.47778 17.6851 3.98394 17.201Z"
    fill="white"
  />
</svg>
