<svg viewBox="0 0 25 29" fill="none" xmlns="http://www.w3.org/2000/svg">
<path d="M2.06666 10.9259C1.10248 10.9259 0.319946 11.7084 0.319946 12.6726V19.6595C0.319946 20.6237 1.10248 21.4062 2.06666 21.4062C3.03085 21.4062 3.81338 20.6237 3.81338 19.6595V12.6726C3.81338 11.7084 3.03085 10.9259 2.06666 10.9259Z" fill="#464B4E"/>
<path d="M23.0274 10.9259C22.0632 10.9259 21.2806 11.7084 21.2806 12.6726V19.6595C21.2806 20.6237 22.0632 21.4062 23.0274 21.4062C23.9915 21.4062 24.7741 20.6237 24.7741 19.6595V12.6726C24.7741 11.7084 23.9915 10.9259 23.0274 10.9259Z" fill="#464B4E"/>
<path d="M5.56015 21.5075C5.56015 22.4717 6.34268 23.2542 7.30687 23.2542V26.6464C7.30687 27.6106 8.0894 28.3931 9.05359 28.3931C10.0178 28.3931 10.8003 27.6106 10.8003 26.6464V23.2542H14.2937V26.6464C14.2937 27.6106 15.0763 28.3931 16.0405 28.3931C17.0046 28.3931 17.7872 27.6106 17.7872 26.6464V23.2542C18.7514 23.2542 19.5339 22.4717 19.5339 21.5075V11.0272H5.56015V21.5075Z" fill="#464B4E"/>
<path d="M16.9068 3.7591L18.4614 1.87439C18.7688 1.50234 18.7164 0.952126 18.3444 0.644704C17.9706 0.339029 17.4221 0.389683 17.1147 0.761734L15.4151 2.82111C14.5383 2.42461 13.5723 2.1923 12.547 2.1923C11.5077 2.1923 10.5296 2.43334 9.64398 2.84207L7.98983 0.773961C7.68765 0.398417 7.13918 0.335535 6.76189 0.637717C6.38635 0.939899 6.32521 1.48837 6.62565 1.86566L8.15927 3.78356C6.58547 5.0639 5.56015 6.99227 5.56015 9.17916H19.5339C19.5339 6.9783 18.4963 5.03944 16.9068 3.7591ZM10.8003 6.55909C10.3182 6.55909 9.92694 6.16782 9.92694 5.68573C9.92694 5.20364 10.3182 4.81237 10.8003 4.81237C11.2824 4.81237 11.6737 5.20364 11.6737 5.68573C11.6737 6.16782 11.2824 6.55909 10.8003 6.55909ZM14.2937 6.55909C13.8116 6.55909 13.4204 6.16782 13.4204 5.68573C13.4204 5.20364 13.8116 4.81237 14.2937 4.81237C14.7758 4.81237 15.1671 5.20364 15.1671 5.68573C15.1671 6.16782 14.7758 6.55909 14.2937 6.55909Z" fill="#464B4E"/>
</svg>
