<svg viewBox="0 0 39 33" fill="none" xmlns="http://www.w3.org/2000/svg">
<path d="M1.2797 2.54957L7.87726 0.073893C8.04687 0.00996055 8.2287 -0.0129473 8.40845 0.0069705C8.5882 0.0268883 8.76098 0.0890888 8.91319 0.188682C9.0654 0.288274 9.19291 0.422545 9.28568 0.580935C9.37844 0.739326 9.43395 0.91752 9.44782 1.10151L11.1627 23.5359L15.803 21.6644L13.9662 1.51741L37.4889 11.3124L39 19.5712L31.232 23.756L30.1537 15.6065L24.972 13.404L26.5842 24.4376C26.6484 24.8777 26.5733 25.3272 26.3697 25.7206C26.1661 26.114 25.8447 26.4308 25.4524 26.6249L12.5637 33L2.25833 28.5829C1.88709 28.4237 1.56781 28.1601 1.33768 27.8229C1.10755 27.4856 0.976031 27.0886 0.958449 26.678L0.00213014 4.51676C-0.0172589 4.09289 0.0961162 3.67372 0.325822 3.32002C0.555528 2.96632 0.88963 2.69647 1.2797 2.54957Z" fill="#464B4E"/>
</svg>
