<svg width="21" height="13" viewBox="0 0 21 13" fill="none" xmlns="http://www.w3.org/2000/svg">
<path d="M20.2633 6.13123L14.7263 0.173016C14.6239 0.0629147 14.4802 0 14.3297 0H11.9504C11.4773 0 11.2316 0.564109 11.5538 0.910565L16.7519 6.49979L11.5538 12.089C11.2316 12.4355 11.4773 12.9996 11.9504 12.9996H14.3297C14.4802 12.9996 14.6239 12.9371 14.7263 12.8266L20.2633 6.86835C20.4563 6.66048 20.4563 6.3391 20.2633 6.13123Z" fill="#464B4E"/>
<path d="M14.4156 6.13117L8.87865 0.173382C8.7762 0.0628558 8.63252 0.000366211 8.48203 0.000366211H6.10274C5.62961 0.000366211 5.3839 0.564474 5.70612 0.910931L8.66992 4.09791H0.850201C0.38089 4.09791 0 4.4788 0 4.94811V8.05262C0 8.52193 0.38089 8.90282 0.850201 8.90282H8.6695L5.7057 12.0894C5.38347 12.4358 5.62918 12.9999 6.10232 12.9999H8.48161C8.63209 12.9999 8.77577 12.9374 8.87822 12.8269L14.4152 6.86871C14.6086 6.66084 14.6086 6.33904 14.4156 6.13117Z" fill="#464B4E"/>
</svg>
