<?xml version="1.0" encoding="UTF-8"?>
<svg width="1921.8" height="1053.4" fill="none" version="1.1" viewBox="0 0 1921.8 1053.4" xmlns="http://www.w3.org/2000/svg" xmlns:cc="http://creativecommons.org/ns#" xmlns:dc="http://purl.org/dc/elements/1.1/" xmlns:rdf="http://www.w3.org/1999/02/22-rdf-syntax-ns#">
 <metadata>
  <rdf:RDF>
   <cc:Work rdf:about="">
    <dc:format>image/svg+xml</dc:format>
    <dc:type rdf:resource="http://purl.org/dc/dcmitype/StillImage"/>
    <dc:title/>
   </cc:Work>
  </rdf:RDF>
 </metadata>
 <g stroke="#182542" stroke-linecap="square" stroke-miterlimit="10" stroke-opacity=".25">
  <path d="m83.181 731.17v321.7" opacity=".418"/>
  <path d="m162.18 731.17v321.7" opacity=".418"/>
  <path d="m241.18 731.17v321.7" opacity=".418"/>
  <path d="m320.18 731.17v321.7" opacity=".418"/>
  <path d="m399.18 731.17v321.7" opacity=".418"/>
  <path d="m479.18 731.17v321.7" opacity=".418"/>
  <path d="m558.18 731.17v321.7" opacity=".418"/>
  <path d="m953.18 731.17v321.7" opacity=".418"/>
  <path d="m637.18 731.17v321.7" opacity=".418"/>
  <path d="m1032.2 731.17v321.7" opacity=".418"/>
  <path d="m716.18 731.17v321.7" opacity=".418"/>
  <path d="m1112.2 731.17v321.7" opacity=".418"/>
  <path d="m874.18 731.17v321.7" opacity=".418"/>
  <path d="m1270.2 731.17v321.7" opacity=".418"/>
  <path d="m1349.2 731.17v321.7" opacity=".418"/>
  <path d="m795.18 731.17v321.7" opacity=".418"/>
  <path d="m1191.2 731.17v321.7" opacity=".418"/>
 </g>
 <path d="m81.681 904.67c11.046 0 20-8.954 20-20s-8.9543-20-20-20-20 8.954-20 20 8.9543 20 20 20z" fill="#6a57b0" opacity=".542"/>
 <path d="m328.18 864.67c12.979 0 23.5-10.521 23.5-23.5s-10.521-23.5-23.5-23.5-23.5 10.521-23.5 23.5 10.521 23.5 23.5 23.5z" fill="#bb2889" opacity=".574"/>
 <path d="m477.68 870.67c8.837 0 16-7.163 16-16s-7.163-16-16-16-16 7.163-16 16 7.163 16 16 16z" fill="#ea550f" opacity=".358"/>
 <g fill="#6d4eda">
  <path d="m634.68 815.67c6.075 0 11-4.925 11-11s-4.925-11-11-11-11 4.925-11 11 4.925 11 11 11z" opacity=".358"/>
  <path d="m759.68 908.67c13.255 0 24-10.745 24-24s-10.745-24-24-24-24 10.745-24 24 10.745 24 24 24z" opacity=".46"/>
  <path d="m947.18 797.67c8.56 0 15.5-6.94 15.5-15.5s-6.94-15.5-15.5-15.5-15.5 6.94-15.5 15.5 6.94 15.5 15.5 15.5z" opacity=".46"/>
 </g>
 <path d="m1067.7 739.67c11.05 0 20-8.954 20-20s-8.95-20-20-20-20 8.954-20 20 8.95 20 20 20z" fill="#6234ce" opacity=".409"/>
 <path d="m1184.7 819.67c8.28 0 15-6.716 15-15s-6.72-15-15-15-15 6.716-15 15 6.72 15 15 15z" fill="#6d4eda" opacity=".358"/>
 <path d="m1350.7 812.67c8.28 0 15-6.716 15-15s-6.72-15-15-15-15 6.716-15 15 6.72 15 15 15z" fill="#6d4eda" opacity=".358"/>
 <path d="m240.68 793.67c6.075 0 11-4.925 11-11s-4.925-11-11-11-11 4.925-11 11 4.925 11 11 11z" fill="#edbed1"/>
 <g transform="translate(-4.3186 -.3312)" opacity=".579" style="mix-blend-mode:darken">
  <path d="m709 839c6.627 0 12-5.373 12-12s-5.373-12-12-12-12 5.373-12 12 5.373 12 12 12z" fill="#bb2889"/>
 </g>
 <g transform="translate(-4.3186 -.3312)" opacity=".192" style="mix-blend-mode:darken">
  <path d="m865.5 880c4.142 0 7.5-3.358 7.5-7.5s-3.358-7.5-7.5-7.5-7.5 3.358-7.5 7.5 3.358 7.5 7.5 7.5z" fill="#2838ae"/>
 </g>
 <g transform="translate(-4.3186 -.3312)" opacity=".692" style="mix-blend-mode:darken">
  <path d="m592.5 918c12.426 0 22.5-10.074 22.5-22.5s-10.074-22.5-22.5-22.5-22.5 10.074-22.5 22.5 10.074 22.5 22.5 22.5z" fill="#6a57b0"/>
 </g>
 <path d="m903.68 806.67c6.627 0 12-5.373 12-12s-5.373-12-12-12-12 5.373-12 12 5.373 12 12 12z" fill="#ea550f" opacity=".358"/>
 <path d="m993.68 857.67c6.63 0 12-5.373 12-12s-5.37-12-12-12c-6.627 0-12 5.373-12 12s5.373 12 12 12z" fill="#f8478e" opacity=".629"/>
 <path d="m1111.7 854.67c6.63 0 12-5.373 12-12s-5.37-12-12-12-12 5.373-12 12 5.37 12 12 12z" fill="#ea550f" opacity=".358"/>
 <path d="m1308.7 852.67c6.63 0 12-5.373 12-12s-5.37-12-12-12-12 5.373-12 12 5.37 12 12 12z" fill="#9f47d0" opacity=".66"/>
 <path d="m164.68 854.67c6.627 0 12-5.373 12-12s-5.373-12-12-12-12 5.373-12 12 5.373 12 12 12z" fill="#590c84" opacity=".215"/>
 <path d="m101.68 884.67c0 3.956-1.173 7.822-3.371 11.111-2.197 3.289-5.3208 5.853-8.9753 7.367-3.6545 1.513-7.6759 1.909-11.556 1.138-3.8796-0.772-7.4433-2.677-10.24-5.474-2.7971-2.797-4.7019-6.361-5.4736-10.24-0.7717-3.88-0.3756-7.901 1.1381-11.556 1.5138-3.654 4.0772-6.778 7.3662-8.975 3.289-2.198 7.1558-3.371 11.111-3.371 5.3043 0 10.391 2.107 14.142 5.858 3.751 3.751 5.858 8.838 5.858 14.142z" fill="#182542"/>
 <path d="m81.828 897.05-2.6934-0.762 0.8972-2.88-2.3162-0.659-0.8953 2.88-2.6247-0.756-0.6476-0.191 0.8571-2.756-3.2-0.908 0.9029-2.903 3.1981 0.912 3.2876-10.568-3.1981-0.914 0.9009-2.903 3.1981 0.913 1.0172-3.267 2.6266 0.749 0.6477 0.19-1.0553 3.385 2.3105 0.659 1.0533-3.391 2.7048 0.772-1.0553 3.388 0.762 0.214c0.6384 0.175 1.2362 0.474 1.7591 0.879 0.5229 0.406 0.9607 0.911 1.2885 1.486 0.3204 0.561 0.5217 1.181 0.5912 1.823s0.0057 1.291-0.1874 1.907c-0.2028 0.639-0.5339 1.23-0.9731 1.737-0.4393 0.507-0.9773 0.918-1.5812 1.21 0.3364 0.565 0.55 1.194 0.6268 1.847 0.0768 0.654 0.0151 1.315-0.1811 1.943-0.1978 0.626-0.5188 1.206-0.944 1.706-0.4253 0.5-0.9462 0.911-1.5322 1.207-1.2022 0.621-2.5973 0.758-3.8971 0.38l-0.7619-0.215-0.8838 2.886zm-1.9429-11.023-1.2667 4.078 5.6915 1.621c0.5638 0.163 1.1687 0.103 1.6895-0.167 0.2538-0.129 0.4794-0.306 0.6636-0.523 0.1842-0.216 0.3231-0.467 0.4088-0.738 0.0817-0.262 0.1101-0.536 0.0832-0.809-0.0268-0.272-0.1083-0.536-0.2394-0.776-0.1398-0.258-0.3298-0.484-0.5588-0.667-0.2291-0.183-0.4925-0.317-0.7746-0.396zm2.0952-6.735-1.2685 4.078 5.6914 1.621c0.2056 0.059 0.4185 0.089 0.6324 0.089 0.4705 4e-3 0.93-0.141 1.3127-0.415 0.3826-0.274 0.6686-0.662 0.8168-1.108 0.0843-0.268 0.1122-0.55 0.082-0.829-0.0301-0.279-0.1177-0.549-0.2572-0.792-0.2871-0.504-0.7617-0.873-1.32-1.027l-5.6896-1.619z" fill="#fff"/>
 <path d="m176.68 842.67c0 2.373-0.704 4.693-2.022 6.667-1.319 1.973-3.193 3.511-5.386 4.42-2.193 0.908-4.605 1.145-6.933 0.682s-4.466-1.605-6.144-3.284c-1.679-1.678-2.821-3.816-3.284-6.144s-0.226-4.74 0.682-6.933c0.909-2.193 2.447-4.067 4.42-5.386 1.974-1.318 4.294-2.022 6.667-2.022 3.183 0 6.235 1.264 8.485 3.515 2.251 2.25 3.515 5.302 3.515 8.485z" fill="#182542"/>
 <path d="m164.77 850.1-1.616-0.458 0.538-1.728-1.389-0.395-0.538 1.728-1.574-0.454-0.389-0.114 0.514-1.654-1.92-0.545 0.542-1.742 1.919 0.548 1.972-6.341-1.918-0.548 0.54-1.742 1.919 0.547 0.61-1.96 1.576 0.45 0.389 0.114-0.633 2.031 1.386 0.395 0.632-2.034 1.623 0.463-0.633 2.033 0.457 0.128c0.383 0.105 0.742 0.284 1.055 0.528 0.314 0.243 0.577 0.546 0.773 0.891 0.193 0.336 0.313 0.709 0.355 1.094s4e-3 0.774-0.112 1.144c-0.122 0.383-0.321 0.738-0.584 1.042-0.264 0.304-0.587 0.551-0.949 0.726 0.202 0.339 0.33 0.717 0.376 1.109s9e-3 0.789-0.108 1.165c-0.119 0.376-0.312 0.724-0.567 1.024s-0.568 0.546-0.919 0.724c-0.721 0.373-1.559 0.455-2.338 0.228l-0.458-0.129-0.53 1.732zm-1.166-6.614-0.76 2.447 3.415 0.972c0.338 0.098 0.701 0.062 1.014-0.1 0.152-0.077 0.288-0.184 0.398-0.314 0.111-0.129 0.194-0.28 0.245-0.443 0.049-0.157 0.066-0.321 0.05-0.485-0.016-0.163-0.065-0.322-0.143-0.466-0.084-0.154-0.198-0.29-0.336-0.4-0.137-0.109-0.295-0.19-0.464-0.237zm1.257-4.041-0.761 2.447 3.415 0.972c0.124 0.036 0.251 0.054 0.38 0.054 0.282 2e-3 0.558-0.085 0.787-0.249 0.23-0.165 0.401-0.398 0.49-0.665 0.051-0.161 0.068-0.33 0.05-0.498-0.019-0.167-0.071-0.329-0.155-0.475-0.172-0.302-0.457-0.523-0.792-0.616l-3.414-0.971z" fill="#fff"/>
 <path d="m251.68 782.67c0 2.175-0.645 4.302-1.854 6.111-1.208 1.809-2.926 3.219-4.936 4.051-2.009 0.833-4.221 1.051-6.354 0.627-2.134-0.424-4.094-1.471-5.633-3.009-1.538-1.538-2.586-3.498-3.011-5.631-0.425-2.134-0.208-4.346 0.624-6.356s2.241-3.728 4.05-4.937c1.808-1.209 3.934-1.855 6.11-1.856 1.445-1e-3 2.876 0.284 4.211 0.836 1.335 0.553 2.548 1.363 3.57 2.384 1.022 1.022 1.832 2.235 2.385 3.57 0.553 1.334 0.838 2.765 0.838 4.21z" fill="#8ac072"/>
 <path d="m241.19 789.86-0.755-1.45-1.612 0.842-0.792-1.533 1.612-0.842-2.891-5.555-1.612 0.843-0.794-1.532 1.612-0.843-0.895-1.714 1.322-0.687 0.327-0.171 0.927 1.785 1.164-0.606-0.928-1.784 1.364-0.709 0.927 1.784 0.38-0.197c0.492-0.256 1.049-0.359 1.599-0.297 0.551 0.063 1.071 0.288 1.492 0.648 0.422 0.36 0.727 0.837 0.875 1.371 0.149 0.534 0.135 1.1-0.041 1.626 0.465 0.139 0.885 0.398 1.22 0.75 0.334 0.352 0.57 0.785 0.685 1.256 0.116 0.472 0.106 0.965-0.028 1.431-0.135 0.467-0.388 0.89-0.737 1.228-0.194 0.188-0.415 0.347-0.655 0.472l-0.383 0.199 0.789 1.515-1.358 0.705-0.788-1.515-1.162 0.606 0.789 1.515-1.323 0.687-0.325 0.17zm2.481-7.564c-0.193 1e-3 -0.383 0.047-0.555 0.136l-2.868 1.492 1.115 2.144 2.868-1.49c0.241-0.125 0.432-0.327 0.544-0.574s0.138-0.524 0.073-0.787c-0.064-0.263-0.215-0.497-0.428-0.664-0.214-0.167-0.477-0.257-0.748-0.257zm-1.841-3.544c-0.194 1e-3 -0.385 0.048-0.557 0.137l-2.867 1.492 1.116 2.145 2.867-1.492c0.24-0.125 0.432-0.327 0.544-0.574 0.112-0.246 0.138-0.524 0.073-0.787-0.064-0.263-0.215-0.497-0.429-0.664-0.213-0.167-0.476-0.257-0.747-0.257z" fill="#fff"/>
 <path d="m328.17 817.67c-4.647 2e-3 -9.19 1.382-13.053 3.965-3.864 2.583-6.874 6.254-8.652 10.548-1.777 4.294-2.241 9.019-1.333 13.577 0.907 4.558 3.146 8.745 6.433 12.03 3.287 3.286 7.474 5.523 12.033 6.429 4.558 0.906 9.283 0.44 13.576-1.339 4.294-1.779 7.963-4.791 10.545-8.655s3.96-8.408 3.96-13.055c0-3.087-0.608-6.143-1.79-8.995-1.181-2.852-2.913-5.443-5.096-7.625s-4.775-3.913-7.627-5.094c-2.852-1.18-5.909-1.787-8.996-1.786z" fill="#266ba6"/>
 <path d="m328.17 862.69c-4.257 0-8.417-1.263-11.956-3.627-3.54-2.365-6.298-5.726-7.927-9.658-1.629-3.933-2.055-8.26-1.224-12.434 0.83-4.175 2.88-8.01 5.889-11.019 3.01-3.01 6.845-5.06 11.019-5.89 4.175-0.831 8.502-0.404 12.434 1.224 3.933 1.629 7.294 4.388 9.659 7.927 2.364 3.539 3.626 7.7 3.626 11.956 0 5.708-2.267 11.181-6.303 15.217s-9.51 6.304-15.217 6.304z" fill="#fff"/>
 <path d="m333.24 843.74c-0.318 1e-3 -0.635 0.025-0.949 0.072-0.468-0.328-0.854-0.76-1.127-1.262-0.273-0.503-0.426-1.061-0.448-1.632 0.064-0.841 0.437-1.629 1.046-2.211 1.474 0.314 3.011 0.092 4.336-0.626 1.324-0.718 2.349-1.885 2.891-3.291 0.541-1.407 0.563-2.96 0.061-4.38-0.501-1.421-1.493-2.617-2.797-3.371-1.304-0.755-2.835-1.02-4.317-0.748-1.481 0.273-2.817 1.065-3.767 2.235-0.95 1.169-1.452 2.639-1.415 4.146 0.037 1.506 0.61 2.949 1.616 4.071-0.029 0.38-0.137 0.751-0.315 1.088s-0.424 0.635-0.721 0.873c-1.026 0.423-2.148 0.556-3.244 0.385-0.549-1.394-1.575-2.547-2.895-3.255s-2.848-0.925-4.313-0.612-2.771 1.136-3.687 2.321c-0.915 1.186-1.38 2.658-1.312 4.155 0.069 1.496 0.665 2.919 1.685 4.017 1.019 1.098 2.395 1.798 3.882 1.976 1.487 0.179 2.99-0.176 4.24-1.001s2.167-2.067 2.587-3.505c0.883-0.242 1.824-0.147 2.64 0.265 0.734 0.81 1.151 1.857 1.175 2.949-0.823 1.156-1.233 2.555-1.165 3.972s0.61 2.77 1.54 3.842 2.192 1.8 3.586 2.068c1.393 0.268 2.836 0.059 4.097-0.592 1.26-0.651 2.265-1.707 2.854-2.998 0.588-1.291 0.726-2.742 0.39-4.12-0.336-1.379-1.125-2.605-2.241-3.481s-2.494-1.351-3.913-1.35z" fill="#2c71ae"/>
 <path d="m493.68 854.67c0 3.164-0.938 6.258-2.696 8.889-1.759 2.631-4.257 4.682-7.181 5.893s-6.141 1.528-9.244 0.911c-3.104-0.618-5.955-2.142-8.193-4.379-2.237-2.238-3.761-5.089-4.379-8.193-0.617-3.103-0.3-6.32 0.911-9.244s3.262-5.422 5.893-7.181c2.631-1.758 5.725-2.696 8.889-2.696 4.243 0 8.313 1.686 11.314 4.686 3 3.001 4.686 7.071 4.686 11.314z" fill="#182542"/>
 <path d="m477.8 864.57-2.154-0.61 0.717-2.304-1.853-0.527-0.716 2.304-2.1-0.605-0.518-0.152 0.686-2.205-2.56-0.727 0.722-2.322 2.559 0.729 2.63-8.454-2.559-0.731 0.721-2.322 2.559 0.73 0.813-2.614 2.102 0.599 0.518 0.152-0.844 2.708 1.848 0.528 0.843-2.713 2.163 0.617-0.844 2.711 0.61 0.171c0.511 0.14 0.989 0.379 1.407 0.704 0.418 0.324 0.769 0.728 1.031 1.188 0.256 0.449 0.417 0.945 0.473 1.458 0.055 0.514 4e-3 1.033-0.15 1.526-0.162 0.511-0.427 0.984-0.779 1.39-0.351 0.405-0.781 0.734-1.264 0.967 0.269 0.452 0.44 0.956 0.501 1.479 0.061 0.522 0.012 1.052-0.145 1.554-0.158 0.5-0.415 0.965-0.755 1.365s-0.757 0.728-1.226 0.965c-0.962 0.497-2.078 0.606-3.118 0.304l-0.609-0.172-0.707 2.309zm-1.554-8.819-1.013 3.263 4.553 1.297c0.451 0.13 0.935 0.082 1.351-0.134 0.204-0.103 0.384-0.245 0.531-0.418 0.148-0.173 0.259-0.374 0.327-0.591 0.066-0.209 0.088-0.429 0.067-0.647s-0.087-0.429-0.192-0.621c-0.111-0.206-0.263-0.387-0.447-0.533-0.183-0.146-0.394-0.254-0.619-0.317zm1.676-5.388-1.015 3.263 4.554 1.297c0.164 0.047 0.334 0.071 0.505 0.071 0.377 3e-3 0.744-0.113 1.051-0.332 0.306-0.219 0.534-0.53 0.653-0.887 0.067-0.214 0.09-0.44 0.066-0.663s-0.095-0.439-0.206-0.634c-0.23-0.402-0.609-0.697-1.056-0.821l-4.552-1.295z" fill="#fff"/>
 <path d="m610.68 895.17c0 4.45-1.32 8.8-3.792 12.5s-5.986 6.584-10.098 8.287c-4.111 1.703-8.635 2.149-13 1.281-4.364-0.869-8.373-3.011-11.52-6.158s-5.289-7.156-6.158-11.52c-0.868-4.365-0.422-8.889 1.281-13 1.703-4.112 4.587-7.626 8.287-10.098s8.05-3.792 12.5-3.792c5.967 0 11.69 2.371 15.91 6.59 4.219 4.22 6.59 9.943 6.59 15.91z" fill="#182542"/>
 <path d="m588.35 909.1-3.03-0.858 1.009-3.24-2.605-0.741-1.008 3.24-2.952-0.851-0.729-0.214 0.964-3.101-3.6-1.022 1.016-3.266 3.598 1.027 3.698-11.889-3.597-1.028 1.013-3.266 3.598 1.026 1.144-3.675 2.955 0.843 0.729 0.214-1.187 3.808 2.599 0.741 1.185-3.814 3.043 0.868-1.187 3.812 0.857 0.24c0.718 0.197 1.391 0.533 1.979 0.99 0.588 0.456 1.081 1.024 1.449 1.671 0.361 0.631 0.587 1.329 0.666 2.051 0.078 0.722 6e-3 1.452-0.211 2.145-0.228 0.719-0.601 1.384-1.095 1.954s-1.099 1.033-1.779 1.361c0.379 0.636 0.619 1.344 0.705 2.079 0.087 0.734 0.017 1.479-0.203 2.185-0.223 0.704-0.584 1.357-1.062 1.92-0.479 0.562-1.065 1.024-1.724 1.357-1.353 0.699-2.922 0.853-4.384 0.428l-0.858-0.242-0.994 3.247zm-2.186-12.401-1.425 4.588 6.403 1.823c0.634 0.184 1.315 0.116 1.901-0.188 0.285-0.144 0.539-0.344 0.746-0.588 0.208-0.243 0.364-0.526 0.46-0.831 0.092-0.294 0.124-0.603 0.094-0.909-0.03-0.307-0.122-0.604-0.269-0.874-0.158-0.289-0.371-0.544-0.629-0.75-0.258-0.205-0.554-0.357-0.871-0.445zm2.357-7.577-1.427 4.588 6.403 1.823c0.231 0.067 0.471 0.1 0.712 0.101 0.529 4e-3 1.046-0.159 1.476-0.467 0.431-0.309 0.753-0.745 0.919-1.247 0.095-0.302 0.127-0.619 0.093-0.933s-0.133-0.617-0.29-0.891c-0.323-0.566-0.857-0.981-1.485-1.155l-6.401-1.821z" fill="#fff"/>
 <path d="m646.68 805.17c0 2.274-0.674 4.498-1.938 6.389s-3.06 3.365-5.161 4.236c-2.101 0.87-4.414 1.098-6.645 0.654-2.23-0.444-4.279-1.539-5.888-3.147-1.608-1.609-2.703-3.658-3.147-5.888-0.444-2.231-0.216-4.544 0.654-6.645 0.871-2.101 2.345-3.897 4.236-5.161s4.115-1.938 6.389-1.938c3.05 0 5.975 1.212 8.132 3.368 2.156 2.157 3.368 5.082 3.368 8.132z" fill="#182542"/>
 <path d="m635.27 812.29-1.548-0.438 0.516-1.656-1.332-0.379-0.515 1.656-1.509-0.435-0.373-0.109 0.493-1.585-1.84-0.523 0.519-1.669 1.839 0.525 1.891-6.076-1.839-0.526 0.518-1.669 1.839 0.524 0.585-1.878 1.51 0.43 0.372 0.11-0.607 1.946 1.329 0.379 0.606-1.949 1.555 0.443-0.607 1.949 0.438 0.122c0.367 0.101 0.711 0.273 1.012 0.506 0.3 0.233 0.552 0.524 0.741 0.855 0.184 0.322 0.3 0.679 0.34 1.048s3e-3 0.742-0.108 1.096c-0.117 0.368-0.307 0.707-0.56 0.999-0.252 0.291-0.562 0.528-0.909 0.695 0.194 0.325 0.316 0.687 0.361 1.063 0.044 0.375 8e-3 0.756-0.105 1.117-0.113 0.36-0.298 0.693-0.542 0.981-0.245 0.287-0.544 0.523-0.881 0.693-0.692 0.358-1.494 0.436-2.241 0.22l-0.438-0.124-0.509 1.659zm-1.117-6.338-0.728 2.345 3.272 0.932c0.325 0.094 0.672 0.059 0.972-0.097 0.146-0.073 0.276-0.175 0.381-0.3 0.106-0.124 0.186-0.269 0.236-0.425 0.047-0.15 0.063-0.308 0.047-0.464-0.015-0.157-0.062-0.309-0.137-0.447-0.081-0.148-0.19-0.278-0.322-0.383-0.131-0.105-0.283-0.183-0.445-0.228zm1.205-3.873-0.729 2.345 3.272 0.932c0.118 0.034 0.241 0.051 0.364 0.052 0.27 2e-3 0.535-0.082 0.755-0.239 0.22-0.158 0.384-0.381 0.469-0.638 0.049-0.154 0.065-0.316 0.047-0.476-0.017-0.161-0.067-0.316-0.148-0.456-0.165-0.289-0.438-0.501-0.759-0.59l-3.271-0.931z" fill="#fff"/>
 <path d="m716.68 826.67c0 2.373-0.704 4.693-2.022 6.667-1.319 1.973-3.193 3.511-5.386 4.42-2.193 0.908-4.605 1.145-6.933 0.682s-4.466-1.605-6.144-3.284c-1.679-1.678-2.821-3.816-3.284-6.144s-0.226-4.74 0.682-6.933c0.909-2.193 2.447-4.067 4.42-5.386 1.974-1.318 4.294-2.022 6.667-2.022 3.183 0 6.235 1.264 8.485 3.515 2.251 2.25 3.515 5.302 3.515 8.485z" fill="#182542"/>
 <path d="m704.77 834.1-1.616-0.458 0.538-1.728-1.389-0.395-0.538 1.728-1.574-0.454-0.389-0.114 0.514-1.654-1.92-0.545 0.542-1.742 1.919 0.548 1.972-6.341-1.918-0.548 0.54-1.742 1.919 0.547 0.61-1.96 1.576 0.45 0.389 0.114-0.633 2.031 1.386 0.395 0.632-2.034 1.623 0.463-0.633 2.033 0.457 0.128c0.383 0.105 0.742 0.284 1.055 0.528 0.314 0.243 0.577 0.546 0.773 0.891 0.193 0.336 0.313 0.709 0.355 1.094s4e-3 0.774-0.112 1.144c-0.122 0.383-0.321 0.738-0.584 1.042-0.264 0.304-0.587 0.551-0.949 0.726 0.202 0.339 0.33 0.717 0.376 1.109s9e-3 0.789-0.108 1.165c-0.119 0.376-0.312 0.724-0.567 1.024s-0.568 0.546-0.919 0.724c-0.721 0.373-1.559 0.455-2.338 0.228l-0.458-0.129-0.53 1.732zm-1.166-6.614-0.76 2.447 3.415 0.972c0.338 0.098 0.701 0.062 1.014-0.1 0.152-0.077 0.288-0.184 0.398-0.314 0.111-0.129 0.194-0.28 0.245-0.443 0.049-0.157 0.066-0.321 0.05-0.485-0.016-0.163-0.065-0.322-0.143-0.466-0.084-0.154-0.198-0.29-0.336-0.4-0.137-0.109-0.295-0.19-0.464-0.237zm1.257-4.041-0.761 2.447 3.415 0.972c0.124 0.036 0.251 0.054 0.38 0.054 0.282 2e-3 0.558-0.085 0.787-0.249 0.23-0.165 0.401-0.398 0.49-0.665 0.051-0.161 0.068-0.33 0.05-0.498-0.019-0.167-0.071-0.329-0.155-0.475-0.172-0.302-0.457-0.523-0.792-0.616l-3.414-0.971z" fill="#fff"/>
 <path d="m783.68 884.67c0 4.747-1.408 9.387-4.045 13.334-2.637 3.946-6.385 7.023-10.771 8.839-4.385 1.817-9.211 2.292-13.866 1.366-4.656-0.926-8.932-3.212-12.289-6.568-3.356-3.357-5.642-7.633-6.568-12.289-0.926-4.655-0.451-9.481 1.366-13.866 1.816-4.386 4.893-8.134 8.839-10.771 3.947-2.637 8.587-4.045 13.334-4.045 6.365 0 12.47 2.529 16.971 7.029 4.5 4.501 7.029 10.606 7.029 16.971z" fill="#182542"/>
 <path d="m759.86 899.53-3.232-0.914 1.077-3.456-2.78-0.791-1.074 3.456-3.15-0.907-0.777-0.229 1.029-3.307-3.84-1.091 1.083-3.483 3.838 1.095 3.945-12.681-3.838-1.098 1.081-3.483 3.838 1.095 1.221-3.92 3.152 0.898 0.777 0.229-1.267 4.061 2.773 0.791 1.264-4.068 3.246 0.925-1.267 4.067 0.915 0.256c0.766 0.21 1.483 0.568 2.111 1.055 0.627 0.487 1.153 1.093 1.546 1.784 0.384 0.672 0.626 1.417 0.709 2.187 0.084 0.77 7e-3 1.549-0.225 2.288-0.243 0.767-0.64 1.476-1.167 2.084s-1.173 1.102-1.898 1.452c0.404 0.678 0.66 1.434 0.752 2.217 0.093 0.784 0.019 1.578-0.217 2.332-0.237 0.751-0.622 1.447-1.133 2.047-0.51 0.6-1.135 1.092-1.838 1.447-1.443 0.747-3.117 0.91-4.677 0.458l-0.914-0.259-1.061 3.463zm-2.331-13.227-1.52 4.893 6.829 1.946c0.677 0.195 1.403 0.123 2.028-0.202 0.304-0.153 0.575-0.366 0.796-0.626s0.388-0.561 0.491-0.887c0.098-0.313 0.132-0.643 0.099-0.97-0.032-0.326-0.129-0.643-0.287-0.931-0.168-0.309-0.396-0.581-0.67-0.801-0.275-0.219-0.591-0.38-0.93-0.475zm2.514-8.083-1.522 4.894 6.829 1.945c0.247 0.071 0.502 0.107 0.759 0.108 0.565 4e-3 1.116-0.17 1.575-0.499 0.46-0.328 0.803-0.794 0.981-1.33 0.101-0.321 0.134-0.66 0.098-0.994-0.036-0.335-0.141-0.659-0.309-0.951-0.344-0.604-0.914-1.047-1.584-1.232l-6.827-1.943z" fill="#fff"/>
 <path d="m868.68 872.17c0 1.483-0.44 2.933-1.264 4.167-0.824 1.233-1.995 2.194-3.366 2.762-1.37 0.568-2.878 0.716-4.333 0.427-1.455-0.29-2.791-1.004-3.84-2.053s-1.764-2.385-2.053-3.84-0.141-2.963 0.427-4.333c0.568-1.371 1.529-2.542 2.762-3.366 1.234-0.824 2.684-1.264 4.167-1.264 1.989 0 3.897 0.79 5.303 2.197 1.407 1.406 2.197 3.314 2.197 5.303z" fill="#182542"/>
 <path d="m861.24 876.81-1.01-0.286 0.336-1.08-0.868-0.247-0.336 1.08-0.984-0.284-0.243-0.071 0.321-1.034-1.2-0.34 0.339-1.089 1.199 0.342 1.233-3.963-1.199-0.342 0.338-1.089 1.199 0.342 0.381-1.225 0.985 0.281 0.243 0.071-0.395 1.27 0.866 0.247 0.395-1.272 1.014 0.29-0.395 1.27 0.285 0.08c0.24 0.066 0.464 0.178 0.66 0.33s0.36 0.342 0.483 0.557c0.12 0.211 0.196 0.443 0.222 0.684s2e-3 0.484-0.07 0.715c-0.076 0.24-0.201 0.461-0.365 0.651-0.165 0.19-0.367 0.345-0.593 0.454 0.126 0.212 0.206 0.448 0.235 0.693s5e-3 0.493-0.068 0.728c-0.074 0.235-0.195 0.453-0.354 0.64-0.16 0.188-0.355 0.342-0.575 0.453-0.451 0.233-0.974 0.284-1.461 0.142l-0.286-0.08-0.331 1.082zm-0.729-4.134-0.475 1.53 2.135 0.607c0.211 0.062 0.438 0.039 0.633-0.062 0.095-0.048 0.18-0.115 0.249-0.196s0.121-0.176 0.153-0.277c0.031-0.098 0.042-0.201 0.032-0.303-0.01-0.103-0.041-0.202-0.09-0.292-0.053-0.096-0.124-0.181-0.21-0.25-0.086-0.068-0.184-0.119-0.29-0.148zm0.786-2.525-0.476 1.529 2.135 0.608c0.077 0.022 0.157 0.033 0.237 0.033 0.176 2e-3 0.349-0.053 0.492-0.156 0.144-0.102 0.251-0.248 0.306-0.415 0.032-0.101 0.043-0.206 0.031-0.311-0.011-0.105-0.044-0.206-0.096-0.297-0.108-0.189-0.286-0.327-0.495-0.385l-2.134-0.607z" fill="#fff"/>
 <path d="m915.68 794.67c0 2.373-0.704 4.693-2.022 6.667-1.319 1.973-3.193 3.511-5.386 4.42-2.193 0.908-4.605 1.145-6.933 0.682s-4.466-1.605-6.144-3.284c-1.679-1.678-2.821-3.816-3.284-6.144s-0.226-4.74 0.682-6.933c0.909-2.193 2.447-4.067 4.42-5.386 1.974-1.318 4.294-2.022 6.667-2.022 3.183 0 6.235 1.264 8.485 3.515 2.251 2.25 3.515 5.302 3.515 8.485z" fill="#182542"/>
 <path d="m903.77 802.1-1.616-0.458 0.538-1.728-1.389-0.395-0.538 1.728-1.574-0.454-0.389-0.114 0.514-1.654-1.92-0.545 0.542-1.742 1.919 0.548 1.972-6.341-1.918-0.548 0.54-1.742 1.919 0.547 0.61-1.96 1.576 0.45 0.389 0.114-0.633 2.031 1.386 0.395 0.632-2.034 1.623 0.463-0.633 2.033 0.457 0.128c0.383 0.105 0.742 0.284 1.055 0.528 0.314 0.243 0.577 0.546 0.773 0.891 0.193 0.336 0.313 0.709 0.355 1.094s4e-3 0.774-0.112 1.144c-0.122 0.383-0.321 0.738-0.584 1.042-0.264 0.304-0.587 0.551-0.949 0.726 0.202 0.339 0.33 0.717 0.376 1.109 0.046 0.391 9e-3 0.789-0.108 1.165-0.119 0.376-0.312 0.724-0.567 1.024s-0.568 0.546-0.919 0.724c-0.721 0.373-1.559 0.455-2.338 0.228l-0.458-0.129-0.53 1.732zm-1.166-6.614-0.76 2.447 3.415 0.972c0.338 0.098 0.701 0.062 1.014-0.1 0.152-0.077 0.288-0.184 0.398-0.314 0.111-0.13 0.194-0.28 0.245-0.443 0.049-0.157 0.066-0.321 0.05-0.485-0.016-0.163-0.065-0.322-0.143-0.466-0.084-0.154-0.198-0.29-0.336-0.4-0.137-0.109-0.295-0.19-0.464-0.237zm1.257-4.041-0.761 2.447 3.415 0.972c0.124 0.036 0.251 0.054 0.38 0.054 0.282 2e-3 0.558-0.085 0.787-0.249 0.23-0.165 0.401-0.398 0.49-0.665 0.051-0.161 0.068-0.33 0.05-0.498-0.019-0.167-0.071-0.329-0.155-0.475-0.172-0.302-0.457-0.523-0.792-0.616l-3.414-0.971z" fill="#fff"/>
 <path d="m962.68 782.17c0 3.066-0.909 6.062-2.612 8.611s-4.124 4.536-6.956 5.709c-2.833 1.173-5.949 1.48-8.956 0.882s-5.768-2.074-7.936-4.242-3.644-4.929-4.242-7.936-0.291-6.123 0.882-8.956c1.173-2.832 3.16-5.253 5.709-6.956s5.545-2.612 8.611-2.612c4.111 0 8.053 1.633 10.96 4.54s4.54 6.849 4.54 10.96z" fill="#182542"/>
 <path d="m947.3 791.76-2.088-0.59 0.696-2.232-1.795-0.511-0.694 2.232-2.034-0.586-0.502-0.148 0.664-2.136-2.48-0.704 0.7-2.25 2.478 0.707 2.548-8.189-2.478-0.709 0.698-2.25 2.478 0.707 0.789-2.531 2.035 0.58 0.502 0.148-0.818 2.623 1.791 0.51 0.816-2.627 2.097 0.598-0.818 2.626 0.59 0.165c0.495 0.136 0.958 0.367 1.364 0.682 0.405 0.315 0.744 0.706 0.998 1.152 0.248 0.434 0.404 0.915 0.458 1.412s5e-3 1.001-0.145 1.478c-0.157 0.495-0.414 0.953-0.754 1.346-0.341 0.393-0.758 0.712-1.226 0.938 0.261 0.438 0.427 0.925 0.486 1.432 0.06 0.506 0.012 1.019-0.14 1.505-0.153 0.485-0.402 0.935-0.732 1.323-0.329 0.387-0.733 0.705-1.187 0.934-0.932 0.482-2.013 0.588-3.02 0.296l-0.591-0.167-0.685 2.236zm-1.506-8.543-0.982 3.161 4.411 1.256c0.437 0.127 0.906 0.08 1.31-0.13 0.196-0.099 0.371-0.236 0.514-0.404s0.25-0.363 0.317-0.573c0.063-0.202 0.085-0.415 0.064-0.626s-0.084-0.416-0.185-0.602c-0.109-0.2-0.256-0.375-0.434-0.517-0.177-0.141-0.381-0.246-0.6-0.307zm1.624-5.219-0.983 3.16 4.41 1.256c0.16 0.046 0.325 0.07 0.491 0.07 0.364 3e-3 0.72-0.11 1.017-0.322 0.296-0.212 0.518-0.513 0.633-0.859 0.065-0.208 0.087-0.426 0.064-0.642-0.024-0.217-0.092-0.426-0.2-0.614-0.222-0.39-0.59-0.676-1.023-0.796l-4.409-1.255z" fill="#fff"/>
 <path d="m1005.7 845.67c0 2.373-0.7 4.693-2.02 6.667-1.32 1.973-3.2 3.511-5.39 4.42-2.19 0.908-4.603 1.145-6.931 0.682s-4.466-1.605-6.144-3.284c-1.679-1.678-2.821-3.816-3.284-6.144s-0.226-4.74 0.682-6.933c0.909-2.193 2.447-4.067 4.42-5.386 1.974-1.318 4.294-2.022 6.667-2.022 3.18 0 6.23 1.264 8.49 3.515 2.25 2.25 3.51 5.302 3.51 8.485z" fill="#182542"/>
 <path d="m993.77 853.1-1.616-0.458 0.538-1.728-1.389-0.395-0.538 1.728-1.574-0.454-0.389-0.114 0.514-1.654-1.92-0.545 0.542-1.742 1.919 0.548 1.972-6.341-1.918-0.548 0.54-1.742 1.919 0.547 0.61-1.96 1.576 0.45 0.389 0.114-0.633 2.031 1.39 0.395 0.63-2.034 1.62 0.463-0.63 2.033 0.45 0.128c0.39 0.105 0.75 0.284 1.06 0.528 0.31 0.243 0.58 0.546 0.77 0.891 0.2 0.336 0.32 0.709 0.36 1.094s0 0.774-0.11 1.144c-0.13 0.383-0.32 0.738-0.59 1.042-0.26 0.304-0.58 0.551-0.95 0.726 0.2 0.339 0.33 0.717 0.38 1.109 0.05 0.391 0.01 0.789-0.11 1.165s-0.31 0.724-0.57 1.024c-0.25 0.3-0.56 0.546-0.92 0.724-0.72 0.373-1.554 0.455-2.333 0.228l-0.458-0.129-0.53 1.732zm-1.166-6.614-0.76 2.447 3.415 0.972c0.338 0.098 0.703 0.062 1.013-0.1 0.15-0.077 0.29-0.184 0.4-0.314s0.19-0.28 0.24-0.443c0.05-0.157 0.07-0.321 0.05-0.485-0.01-0.163-0.06-0.322-0.14-0.466-0.08-0.154-0.2-0.29-0.33-0.4-0.14-0.109-0.3-0.19-0.47-0.237zm1.257-4.041-0.761 2.447 3.412 0.972c0.13 0.036 0.25 0.054 0.38 0.054 0.28 2e-3 0.56-0.085 0.79-0.249 0.23-0.165 0.4-0.398 0.49-0.665 0.05-0.161 0.07-0.33 0.05-0.498-0.02-0.167-0.07-0.329-0.15-0.475-0.18-0.302-0.46-0.523-0.8-0.616l-3.411-0.971z" fill="#fff"/>
 <path d="m1087.7 719.67c0 3.956-1.17 7.822-3.37 11.111s-5.32 5.853-8.98 7.367c-3.65 1.513-7.67 1.909-11.55 1.138-3.88-0.772-7.45-2.677-10.24-5.474-2.8-2.797-4.7-6.361-5.48-10.24-0.77-3.88-0.37-7.901 1.14-11.556 1.52-3.654 4.08-6.778 7.37-8.975 3.29-2.198 7.15-3.371 11.11-3.371 5.3 0 10.39 2.107 14.14 5.858s5.86 8.838 5.86 14.142z" fill="#182542"/>
 <path d="m1067.8 732.05-2.7-0.762 0.9-2.88-2.32-0.659-0.89 2.88-2.63-0.756-0.64-0.191 0.85-2.756-3.2-0.908 0.91-2.903 3.19 0.912 3.29-10.568-3.2-0.914 0.91-2.903 3.19 0.913 1.02-3.267 2.63 0.749 0.64 0.19-1.05 3.385 2.31 0.659 1.05-3.391 2.71 0.772-1.06 3.388 0.76 0.214c0.64 0.175 1.24 0.474 1.76 0.879 0.53 0.406 0.96 0.911 1.29 1.486 0.32 0.561 0.52 1.181 0.59 1.823s0.01 1.291-0.18 1.907c-0.21 0.639-0.54 1.23-0.98 1.737s-0.97 0.918-1.58 1.21c0.34 0.565 0.55 1.194 0.63 1.847s0.01 1.315-0.18 1.943c-0.2 0.626-0.52 1.206-0.95 1.706-0.42 0.5-0.94 0.911-1.53 1.206-1.2 0.622-2.6 0.759-3.9 0.381l-0.76-0.215zm-1.95-11.023-1.26 4.078 5.69 1.621c0.56 0.163 1.17 0.103 1.69-0.168 0.25-0.128 0.48-0.305 0.66-0.522 0.19-0.216 0.32-0.467 0.41-0.738 0.08-0.262 0.11-0.536 0.08-0.809-0.02-0.272-0.1-0.536-0.24-0.776-0.14-0.258-0.33-0.484-0.55-0.667-0.23-0.183-0.5-0.317-0.78-0.396zm2.1-6.735-1.27 4.078 5.69 1.621c0.21 0.059 0.42 0.089 0.63 0.089 0.47 4e-3 0.93-0.141 1.32-0.415 0.38-0.274 0.67-0.662 0.81-1.108 0.09-0.268 0.12-0.55 0.09-0.829s-0.12-0.549-0.26-0.792c-0.29-0.504-0.76-0.873-1.32-1.027l-5.69-1.619z" fill="#fff"/>
 <path d="m1123.7 842.67c0 2.373-0.7 4.693-2.02 6.667-1.32 1.973-3.2 3.511-5.39 4.42-2.19 0.908-4.6 1.145-6.93 0.682s-4.47-1.605-6.15-3.284c-1.67-1.678-2.82-3.816-3.28-6.144s-0.22-4.74 0.68-6.933c0.91-2.193 2.45-4.067 4.42-5.386 1.98-1.318 4.3-2.022 6.67-2.022 3.18 0 6.23 1.264 8.49 3.515 2.25 2.25 3.51 5.302 3.51 8.485z" fill="#182542"/>
 <path d="m1111.8 850.1-1.62-0.458 0.54-1.728-1.39-0.395-0.54 1.728-1.57-0.454-0.39-0.114 0.51-1.654-1.92-0.545 0.55-1.742 1.91 0.548 1.98-6.341-1.92-0.548 0.54-1.742 1.92 0.547 0.61-1.96 1.57 0.45 0.39 0.114-0.63 2.031 1.39 0.395 0.63-2.034 1.62 0.463-0.63 2.033 0.45 0.128c0.39 0.105 0.75 0.284 1.06 0.528 0.31 0.243 0.58 0.546 0.77 0.891 0.2 0.336 0.32 0.709 0.36 1.094s0 0.774-0.11 1.144c-0.13 0.383-0.32 0.738-0.59 1.042-0.26 0.304-0.58 0.551-0.95 0.726 0.2 0.339 0.33 0.717 0.38 1.109 0.05 0.391 0.01 0.789-0.11 1.165s-0.31 0.724-0.57 1.024c-0.25 0.3-0.56 0.546-0.92 0.724-0.72 0.373-1.55 0.455-2.33 0.228l-0.46-0.129zm-1.17-6.614-0.76 2.447 3.42 0.972c0.34 0.098 0.7 0.062 1.01-0.1 0.15-0.077 0.29-0.184 0.4-0.314s0.19-0.28 0.24-0.443c0.05-0.157 0.07-0.321 0.05-0.485-0.01-0.163-0.06-0.322-0.14-0.466-0.08-0.154-0.2-0.29-0.33-0.4-0.14-0.109-0.3-0.19-0.47-0.237zm1.26-4.041-0.76 2.447 3.41 0.972c0.13 0.036 0.25 0.054 0.38 0.054 0.28 2e-3 0.56-0.085 0.79-0.249 0.23-0.165 0.4-0.398 0.49-0.665 0.05-0.161 0.07-0.33 0.05-0.498-0.02-0.167-0.07-0.329-0.15-0.475-0.18-0.302-0.46-0.523-0.8-0.616l-3.41-0.971z" fill="#fff"/>
 <path d="m1199.7 804.67c0 2.967-0.88 5.867-2.53 8.334-1.65 2.466-3.99 4.389-6.73 5.524s-5.76 1.433-8.67 0.854-5.58-2.008-7.68-4.105c-2.09-2.098-3.52-4.771-4.1-7.681-0.58-2.909-0.28-5.925 0.85-8.666 1.14-2.741 3.06-5.084 5.53-6.732 2.46-1.648 5.36-2.528 8.33-2.528 3.98 0 7.79 1.58 10.61 4.393 2.81 2.813 4.39 6.629 4.39 10.607z" fill="#182542"/>
 <path d="m1184.8 813.95-2.02-0.572 0.67-2.16-1.73-0.494-0.68 2.16-1.96-0.567-0.49-0.143 0.64-2.067-2.4-0.682 0.68-2.177 2.4 0.685 2.46-7.926-2.39-0.686 0.67-2.177 2.4 0.684 0.76-2.45 1.97 0.562 0.49 0.143-0.79 2.538 1.73 0.494 0.79-2.542 2.03 0.578-0.79 2.542 0.57 0.16c0.48 0.131 0.93 0.355 1.32 0.659 0.39 0.305 0.72 0.683 0.96 1.115 0.24 0.42 0.4 0.885 0.45 1.367 0.05 0.481 0 0.968-0.14 1.43-0.15 0.479-0.4 0.923-0.73 1.303s-0.74 0.688-1.19 0.907c0.25 0.424 0.41 0.896 0.47 1.386s0.01 0.986-0.13 1.457c-0.15 0.469-0.39 0.904-0.71 1.279-0.32 0.376-0.71 0.683-1.15 0.905-0.9 0.466-1.95 0.569-2.92 0.286l-0.58-0.162zm-1.46-8.267-0.95 3.058 4.27 1.216c0.42 0.122 0.88 0.077 1.27-0.126 0.19-0.096 0.36-0.229 0.5-0.391 0.13-0.163 0.24-0.351 0.3-0.555 0.06-0.195 0.09-0.402 0.07-0.606s-0.09-0.402-0.18-0.582c-0.11-0.193-0.25-0.363-0.42-0.5-0.18-0.137-0.37-0.238-0.58-0.297zm1.57-5.052-0.95 3.059 4.27 1.215c0.16 0.045 0.32 0.067 0.48 0.068 0.35 2e-3 0.69-0.107 0.98-0.312s0.5-0.496 0.61-0.831c0.07-0.201 0.09-0.413 0.06-0.622-0.02-0.209-0.08-0.411-0.19-0.594-0.21-0.377-0.57-0.654-0.99-0.77l-4.27-1.214z" fill="#fff"/>
 <path d="m1320.7 840.67c0 2.373-0.7 4.693-2.02 6.667-1.32 1.973-3.2 3.511-5.39 4.42-2.19 0.908-4.6 1.145-6.93 0.682s-4.47-1.605-6.15-3.284c-1.67-1.678-2.82-3.816-3.28-6.144s-0.22-4.74 0.68-6.933c0.91-2.193 2.45-4.067 4.42-5.386 1.98-1.318 4.3-2.022 6.67-2.022 3.18 0 6.23 1.264 8.49 3.515 2.25 2.25 3.51 5.302 3.51 8.485z" fill="#182542"/>
 <path d="m1308.8 848.1-1.62-0.458 0.54-1.728-1.39-0.395-0.54 1.728-1.57-0.454-0.39-0.114 0.51-1.654-1.92-0.545 0.55-1.742 1.91 0.548 1.98-6.341-1.92-0.548 0.54-1.742 1.92 0.547 0.61-1.96 1.57 0.45 0.39 0.114-0.63 2.031 1.39 0.395 0.63-2.034 1.62 0.463-0.63 2.033 0.45 0.128c0.39 0.105 0.75 0.284 1.06 0.528 0.31 0.243 0.58 0.546 0.77 0.891 0.2 0.336 0.32 0.709 0.36 1.094s0 0.774-0.11 1.144c-0.13 0.383-0.32 0.738-0.59 1.042-0.26 0.304-0.58 0.551-0.95 0.726 0.21 0.339 0.33 0.717 0.38 1.109 0.05 0.391 0.01 0.789-0.11 1.165s-0.31 0.724-0.57 1.024c-0.25 0.3-0.56 0.546-0.92 0.724-0.72 0.373-1.55 0.455-2.33 0.228l-0.46-0.129zm-1.17-6.614-0.76 2.447 3.42 0.972c0.34 0.098 0.7 0.062 1.01-0.1 0.15-0.077 0.29-0.184 0.4-0.314s0.19-0.28 0.24-0.443c0.05-0.157 0.07-0.321 0.05-0.485-0.01-0.163-0.06-0.322-0.14-0.466-0.08-0.154-0.2-0.29-0.33-0.4-0.14-0.109-0.3-0.19-0.47-0.237zm1.26-4.041-0.76 2.447 3.41 0.972c0.13 0.036 0.25 0.054 0.38 0.054 0.28 2e-3 0.56-0.085 0.79-0.249 0.23-0.165 0.4-0.398 0.49-0.665 0.05-0.161 0.07-0.33 0.05-0.498-0.02-0.167-0.07-0.329-0.15-0.475-0.18-0.302-0.46-0.523-0.8-0.616l-3.41-0.971z" fill="#fff"/>
 <path d="m1365.7 797.67c0 2.967-0.88 5.867-2.53 8.334-1.65 2.466-3.99 4.389-6.73 5.524s-5.76 1.433-8.67 0.854-5.58-2.008-7.68-4.105c-2.09-2.098-3.52-4.771-4.1-7.681-0.58-2.909-0.28-5.925 0.85-8.666 1.14-2.741 3.06-5.084 5.53-6.732 2.46-1.648 5.36-2.528 8.33-2.528 3.98 0 7.79 1.58 10.61 4.393 2.81 2.813 4.39 6.629 4.39 10.607z" fill="#182542"/>
 <path d="m1350.8 806.95-2.02-0.572 0.67-2.16-1.73-0.494-0.68 2.16-1.96-0.567-0.49-0.143 0.64-2.067-2.4-0.682 0.68-2.177 2.4 0.685 2.46-7.926-2.39-0.686 0.67-2.177 2.4 0.684 0.76-2.45 1.97 0.562 0.49 0.143-0.79 2.538 1.73 0.494 0.79-2.542 2.03 0.578-0.79 2.542 0.57 0.16c0.48 0.131 0.93 0.355 1.32 0.659 0.39 0.305 0.72 0.683 0.96 1.115 0.24 0.42 0.4 0.885 0.45 1.367 0.05 0.481 0 0.968-0.14 1.43-0.15 0.479-0.4 0.923-0.73 1.303s-0.74 0.688-1.19 0.907c0.25 0.424 0.41 0.896 0.47 1.386s0.01 0.986-0.13 1.457c-0.15 0.469-0.39 0.904-0.71 1.279-0.32 0.376-0.71 0.683-1.15 0.905-0.9 0.466-1.95 0.569-2.92 0.286l-0.58-0.162zm-1.46-8.267-0.95 3.058 4.27 1.216c0.42 0.122 0.88 0.077 1.27-0.126 0.19-0.096 0.36-0.229 0.5-0.391 0.13-0.163 0.24-0.351 0.3-0.555 0.06-0.195 0.09-0.402 0.07-0.606s-0.09-0.402-0.18-0.582c-0.11-0.193-0.25-0.363-0.42-0.5-0.18-0.137-0.37-0.238-0.58-0.297zm1.57-5.052-0.95 3.059 4.27 1.215c0.16 0.045 0.32 0.067 0.48 0.068 0.35 2e-3 0.69-0.107 0.98-0.312s0.5-0.496 0.61-0.831c0.07-0.201 0.09-0.413 0.06-0.622-0.02-0.209-0.08-0.411-0.19-0.594-0.21-0.377-0.57-0.654-0.99-0.77l-4.27-1.214z" fill="#fff"/>
 <path d="m251.68 782.67c0 2.176-0.645 4.302-1.854 6.111s-2.926 3.219-4.936 4.052c-2.01 0.832-4.222 1.05-6.356 0.626-2.134-0.425-4.094-1.472-5.632-3.011-1.539-1.538-2.586-3.498-3.011-5.632-0.424-2.134-0.206-4.346 0.626-6.356 0.833-2.01 2.243-3.727 4.052-4.936s3.935-1.854 6.111-1.854c2.917 0 5.715 1.159 7.778 3.222s3.222 4.861 3.222 7.778z" fill="#182542"/>
 <path d="m240.76 789.48-1.482-0.42 0.494-1.584-1.274-0.362-0.493 1.584-1.443-0.416-0.356-0.105 0.471-1.516-1.76-0.499 0.497-1.597 1.759 0.502 1.808-5.812-1.759-0.503 0.495-1.597 1.759 0.502 0.56-1.797 1.444 0.412 0.357 0.105-0.581 1.862 1.271 0.362 0.579-1.865 1.488 0.425-0.58 1.863 0.419 0.118c0.351 0.096 0.68 0.26 0.967 0.483 0.288 0.224 0.529 0.501 0.709 0.818 0.176 0.308 0.287 0.649 0.325 1.002s3e-3 0.71-0.103 1.049c-0.112 0.352-0.294 0.677-0.535 0.955-0.242 0.279-0.538 0.505-0.87 0.666 0.185 0.31 0.303 0.657 0.345 1.016s8e-3 0.723-0.1 1.068c-0.109 0.345-0.285 0.664-0.519 0.939s-0.52 0.5-0.843 0.663c-0.661 0.342-1.428 0.417-2.143 0.21l-0.419-0.119-0.486 1.588zm-1.069-6.063-0.697 2.243 3.131 0.891c0.31 0.09 0.643 0.057 0.929-0.092 0.14-0.07 0.264-0.168 0.365-0.287s0.178-0.257 0.225-0.406c0.045-0.144 0.06-0.295 0.046-0.445-0.015-0.15-0.06-0.295-0.132-0.427-0.077-0.141-0.182-0.266-0.307-0.367-0.126-0.1-0.271-0.174-0.426-0.217zm1.152-3.704-0.697 2.243 3.13 0.891c0.113 0.033 0.23 0.049 0.348 0.049 0.259 2e-3 0.511-0.078 0.722-0.228 0.21-0.151 0.368-0.364 0.449-0.61 0.046-0.147 0.062-0.302 0.045-0.456-0.016-0.153-0.065-0.301-0.141-0.435-0.158-0.277-0.419-0.48-0.726-0.565l-3.13-0.89z" fill="#fff"/>
 <path d="m351.68 841.17c0 4.648-1.378 9.191-3.96 13.056-2.583 3.864-6.253 6.876-10.547 8.655s-9.019 2.244-13.578 1.337c-4.558-0.906-8.745-3.144-12.032-6.431s-5.525-7.474-6.431-12.032c-0.907-4.559-0.442-9.284 1.337-13.578 1.778-4.294 4.791-7.964 8.655-10.547 3.865-2.582 8.408-3.96 13.056-3.96 6.233 0 12.21 2.476 16.617 6.883s6.883 10.384 6.883 16.617z" fill="#182542"/>
 <path d="m328.35 855.72-3.164-0.896 1.054-3.384-2.722-0.774-1.052 3.384-3.084-0.889-0.761-0.223 1.007-3.239-3.76-1.067 1.061-3.411 3.758 1.072 3.863-12.417-3.758-1.074 1.059-3.411 3.758 1.072 1.195-3.839 3.086 0.88 0.761 0.224-1.24 3.977 2.715 0.774 1.238-3.984 3.178 0.907-1.24 3.981 0.895 0.251c0.75 0.206 1.453 0.557 2.067 1.034 0.615 0.477 1.129 1.07 1.514 1.746 0.377 0.658 0.613 1.387 0.695 2.141 0.081 0.754 6e-3 1.517-0.22 2.241-0.239 0.751-0.628 1.445-1.144 2.041-0.516 0.595-1.148 1.079-1.858 1.421 0.396 0.664 0.647 1.404 0.737 2.171 0.09 0.768 0.017 1.546-0.213 2.283-0.232 0.736-0.61 1.417-1.109 2.005-0.5 0.588-1.112 1.069-1.801 1.417-1.412 0.731-3.051 0.891-4.579 0.448l-0.895-0.253-1.038 3.391zm-2.283-12.952-1.488 4.792 6.688 1.904c0.662 0.192 1.373 0.121 1.985-0.197 0.298-0.15 0.563-0.359 0.779-0.613 0.217-0.255 0.38-0.55 0.481-0.868 0.096-0.307 0.129-0.63 0.098-0.95-0.032-0.32-0.128-0.63-0.282-0.913-0.164-0.302-0.387-0.568-0.656-0.783-0.269-0.214-0.579-0.373-0.91-0.465zm2.462-7.914-1.49 4.792 6.687 1.904c0.242 0.07 0.492 0.105 0.743 0.105 0.553 5e-3 1.093-0.166 1.543-0.488 0.449-0.321 0.785-0.777 0.959-1.302 0.1-0.315 0.132-0.646 0.097-0.974-0.036-0.328-0.138-0.645-0.302-0.931-0.338-0.591-0.895-1.025-1.551-1.206l-6.686-1.902z" fill="#fff"/>
 <g stroke="#182542" stroke-linecap="square" stroke-miterlimit="10" stroke-opacity=".25">
  <path d="m1509.3 725.49v321.7" opacity=".418"/>
  <path d="m1588.3 725.49v321.7" opacity=".418"/>
  <path d="m1668.3 725.49v321.7" opacity=".418"/>
  <path d="m1430.3 725.49v321.7" opacity=".418"/>
  <path d="m1826.3 725.49v321.7" opacity=".418"/>
  <path d="m1905.3 725.49v321.7" opacity=".418"/>
  <path d="m1747.3 725.49v321.7" opacity=".418"/>
 </g>
 <path d="m1503.3 791.99c8.56 0 15.5-6.94 15.5-15.5s-6.94-15.5-15.5-15.5-15.5 6.94-15.5 15.5 6.94 15.5 15.5 15.5z" fill="#6d4eda" opacity=".46"/>
 <path d="m1623.8 733.99c11.05 0 20-8.954 20-20s-8.95-20-20-20-20 8.954-20 20 8.95 20 20 20z" fill="#6234ce" opacity=".409"/>
 <path d="m1740.8 813.99c8.28 0 15-6.716 15-15s-6.72-15-15-15-15 6.716-15 15 6.72 15 15 15z" fill="#6d4eda" opacity=".358"/>
 <path d="m1906.8 806.99c8.28 0 15-6.716 15-15s-6.72-15-15-15-15 6.716-15 15 6.72 15 15 15z" fill="#6d4eda" opacity=".358"/>
 <g transform="translate(551.77 -6.0129)" opacity=".192" style="mix-blend-mode:darken">
  <path d="m865.5 880c4.142 0 7.5-3.358 7.5-7.5s-3.358-7.5-7.5-7.5-7.5 3.358-7.5 7.5 3.358 7.5 7.5 7.5z" fill="#2838ae"/>
 </g>
 <path d="m1459.8 800.99c6.627 0 12-5.373 12-12s-5.373-12-12-12-12 5.373-12 12 5.373 12 12 12z" fill="#ea550f" opacity=".358"/>
 <path d="m1549.8 851.99c6.63 0 12-5.373 12-12s-5.37-12-12-12c-6.627 0-12 5.373-12 12s5.373 12 12 12z" fill="#f8478e" opacity=".629"/>
 <path d="m1667.8 848.99c6.63 0 12-5.373 12-12s-5.37-12-12-12-12 5.373-12 12 5.37 12 12 12z" fill="#ea550f" opacity=".358"/>
 <path d="m1864.8 846.99c6.63 0 12-5.373 12-12s-5.37-12-12-12-12 5.373-12 12 5.37 12 12 12z" fill="#9f47d0" opacity=".66"/>
 <path d="m1424.8 866.49c0 1.483-0.44 2.933-1.264 4.167-0.824 1.233-1.995 2.194-3.366 2.762-1.37 0.568-2.878 0.716-4.333 0.427-1.455-0.29-2.791-1.004-3.84-2.053s-1.764-2.385-2.053-3.84-0.141-2.963 0.427-4.333c0.568-1.371 1.529-2.542 2.762-3.366 1.234-0.824 2.684-1.264 4.167-1.264 1.989 0 3.897 0.79 5.303 2.197 1.407 1.406 2.197 3.314 2.197 5.303z" fill="#182542"/>
 <path d="m1417.3 871.13-1.01-0.286 0.336-1.08-0.868-0.247-0.336 1.08-0.984-0.284-0.243-0.071 0.321-1.034-1.2-0.34 0.339-1.089 1.199 0.342 1.233-3.963-1.199-0.342 0.338-1.089 1.199 0.342 0.381-1.225 0.985 0.281 0.243 0.071-0.395 1.27 0.866 0.247 0.395-1.272 1.014 0.29-0.395 1.27 0.285 0.08c0.24 0.066 0.464 0.178 0.66 0.33s0.36 0.342 0.483 0.557c0.12 0.211 0.196 0.443 0.222 0.684s0 0.484-0.07 0.715c-0.076 0.24-0.201 0.461-0.365 0.651-0.165 0.19-0.367 0.345-0.593 0.454 0.126 0.212 0.206 0.448 0.235 0.693s0.01 0.493-0.068 0.728c-0.074 0.235-0.195 0.453-0.354 0.64-0.16 0.188-0.355 0.342-0.575 0.453-0.451 0.233-0.974 0.284-1.461 0.142l-0.286-0.08-0.331 1.082zm-0.729-4.134-0.475 1.53 2.135 0.607c0.211 0.062 0.438 0.039 0.633-0.062 0.095-0.048 0.18-0.115 0.249-0.196s0.121-0.176 0.153-0.277c0.031-0.098 0.042-0.201 0.032-0.303-0.01-0.103-0.041-0.202-0.09-0.292-0.053-0.096-0.124-0.181-0.21-0.25-0.086-0.068-0.184-0.119-0.29-0.148zm0.786-2.525-0.476 1.529 2.135 0.608c0.077 0.022 0.157 0.033 0.237 0.033 0.176 0 0.349-0.053 0.492-0.156 0.144-0.102 0.251-0.248 0.306-0.415 0.032-0.101 0.043-0.206 0.031-0.311-0.011-0.105-0.044-0.206-0.096-0.297-0.108-0.189-0.286-0.327-0.495-0.385l-2.134-0.607z" fill="#fff"/>
 <path d="m1471.8 788.99c0 2.373-0.704 4.693-2.022 6.667-1.319 1.973-3.193 3.511-5.386 4.42-2.193 0.908-4.605 1.145-6.933 0.682s-4.466-1.605-6.144-3.284c-1.679-1.678-2.821-3.816-3.284-6.144s-0.226-4.74 0.682-6.933c0.909-2.193 2.447-4.067 4.42-5.386 1.974-1.318 4.294-2.022 6.667-2.022 3.183 0 6.235 1.264 8.485 3.515 2.251 2.25 3.515 5.302 3.515 8.485z" fill="#182542"/>
 <path d="m1459.9 796.42-1.616-0.458 0.538-1.728-1.389-0.395-0.538 1.728-1.574-0.454-0.389-0.114 0.514-1.654-1.92-0.545 0.542-1.742 1.919 0.548 1.972-6.341-1.918-0.548 0.54-1.742 1.919 0.547 0.61-1.96 1.576 0.45 0.389 0.114-0.633 2.031 1.386 0.395 0.632-2.034 1.623 0.463-0.633 2.033 0.457 0.128c0.383 0.105 0.742 0.284 1.055 0.528 0.314 0.243 0.577 0.546 0.773 0.891 0.193 0.336 0.313 0.709 0.355 1.094s0 0.774-0.112 1.144c-0.122 0.383-0.321 0.738-0.584 1.042-0.264 0.304-0.587 0.551-0.949 0.726 0.202 0.339 0.33 0.717 0.376 1.109 0.046 0.391 0.01 0.789-0.108 1.165-0.119 0.376-0.312 0.724-0.567 1.024s-0.568 0.546-0.919 0.724c-0.721 0.373-1.559 0.455-2.338 0.228l-0.458-0.129-0.53 1.732zm-1.166-6.614-0.76 2.447 3.415 0.972c0.338 0.098 0.701 0.062 1.014-0.1 0.152-0.077 0.288-0.184 0.398-0.314 0.111-0.13 0.194-0.28 0.245-0.443 0.049-0.157 0.066-0.321 0.05-0.485-0.016-0.163-0.065-0.322-0.143-0.466-0.084-0.154-0.198-0.29-0.336-0.4-0.137-0.109-0.295-0.19-0.464-0.237zm1.257-4.041-0.761 2.447 3.415 0.972c0.124 0.036 0.251 0.054 0.38 0.054 0.282 0 0.558-0.085 0.787-0.249 0.23-0.165 0.401-0.398 0.49-0.665 0.051-0.161 0.068-0.33 0.05-0.498-0.019-0.167-0.071-0.329-0.155-0.475-0.172-0.302-0.457-0.523-0.792-0.616l-3.414-0.971z" fill="#fff"/>
 <path d="m1518.8 776.49c0 3.066-0.909 6.062-2.612 8.611s-4.124 4.536-6.956 5.709c-2.833 1.173-5.949 1.48-8.956 0.882s-5.768-2.074-7.936-4.242-3.644-4.929-4.242-7.936-0.291-6.123 0.882-8.956c1.173-2.832 3.16-5.253 5.709-6.956s5.545-2.612 8.611-2.612c4.111 0 8.053 1.633 10.96 4.54s4.54 6.849 4.54 10.96z" fill="#182542"/>
 <path d="m1503.4 786.08-2.088-0.59 0.696-2.232-1.795-0.511-0.694 2.232-2.034-0.586-0.502-0.148 0.664-2.136-2.48-0.704 0.7-2.25 2.478 0.707 2.548-8.189-2.478-0.709 0.698-2.25 2.478 0.707 0.789-2.531 2.035 0.58 0.502 0.148-0.818 2.623 1.791 0.51 0.816-2.627 2.097 0.598-0.818 2.626 0.59 0.165c0.495 0.136 0.958 0.367 1.364 0.682 0.405 0.315 0.744 0.706 0.998 1.152 0.248 0.434 0.404 0.915 0.458 1.412s0.01 1.001-0.145 1.478c-0.157 0.495-0.414 0.953-0.754 1.346-0.341 0.393-0.758 0.712-1.226 0.938 0.261 0.438 0.427 0.925 0.486 1.432 0.06 0.506 0.012 1.019-0.14 1.505-0.153 0.485-0.402 0.935-0.732 1.323-0.329 0.387-0.733 0.705-1.187 0.934-0.932 0.482-2.013 0.588-3.02 0.296l-0.591-0.167-0.685 2.236zm-1.506-8.543-0.982 3.161 4.411 1.256c0.437 0.127 0.906 0.08 1.31-0.13 0.196-0.099 0.371-0.236 0.514-0.404s0.25-0.363 0.317-0.573c0.063-0.202 0.085-0.415 0.064-0.626s-0.084-0.416-0.185-0.602c-0.109-0.2-0.256-0.375-0.434-0.517-0.177-0.141-0.381-0.246-0.6-0.307zm1.624-5.219-0.983 3.16 4.41 1.256c0.16 0.046 0.325 0.07 0.491 0.07 0.364 0 0.72-0.11 1.017-0.322 0.296-0.212 0.518-0.513 0.633-0.859 0.065-0.208 0.087-0.426 0.064-0.642-0.024-0.217-0.092-0.426-0.2-0.614-0.222-0.39-0.59-0.676-1.023-0.796l-4.409-1.255z" fill="#fff"/>
 <path d="m1561.8 839.99c0 2.373-0.7 4.693-2.02 6.667-1.32 1.973-3.2 3.511-5.39 4.42-2.19 0.908-4.603 1.145-6.931 0.682s-4.466-1.605-6.144-3.284c-1.679-1.678-2.821-3.816-3.284-6.144s-0.226-4.74 0.682-6.933c0.909-2.193 2.447-4.067 4.42-5.386 1.974-1.318 4.294-2.022 6.667-2.022 3.18 0 6.23 1.264 8.49 3.515 2.25 2.25 3.51 5.302 3.51 8.485z" fill="#182542"/>
 <path d="m1549.9 847.42-1.616-0.458 0.538-1.728-1.389-0.395-0.538 1.728-1.574-0.454-0.389-0.114 0.514-1.654-1.92-0.545 0.542-1.742 1.919 0.548 1.972-6.341-1.918-0.548 0.54-1.742 1.919 0.547 0.61-1.96 1.576 0.45 0.389 0.114-0.633 2.031 1.39 0.395 0.63-2.034 1.62 0.463-0.63 2.033 0.45 0.128c0.39 0.105 0.75 0.284 1.06 0.528 0.31 0.243 0.58 0.546 0.77 0.891 0.2 0.336 0.32 0.709 0.36 1.094s0 0.774-0.11 1.144c-0.13 0.383-0.32 0.738-0.59 1.042-0.26 0.304-0.58 0.551-0.95 0.726 0.2 0.339 0.33 0.717 0.38 1.109 0.05 0.391 0.01 0.789-0.11 1.165s-0.31 0.724-0.57 1.024c-0.25 0.3-0.56 0.546-0.92 0.724-0.72 0.373-1.554 0.455-2.333 0.228l-0.458-0.129-0.53 1.732zm-1.166-6.614-0.76 2.447 3.415 0.972c0.338 0.098 0.703 0.062 1.013-0.1 0.15-0.077 0.29-0.184 0.4-0.314s0.19-0.28 0.24-0.443c0.05-0.157 0.07-0.321 0.05-0.485-0.01-0.163-0.06-0.322-0.14-0.466-0.08-0.154-0.2-0.29-0.33-0.4-0.14-0.109-0.3-0.19-0.47-0.237zm1.257-4.041-0.761 2.447 3.412 0.972c0.13 0.036 0.25 0.054 0.38 0.054 0.28 0 0.56-0.085 0.79-0.249 0.23-0.165 0.4-0.398 0.49-0.665 0.05-0.161 0.07-0.33 0.05-0.498-0.02-0.167-0.07-0.329-0.15-0.475-0.18-0.302-0.46-0.523-0.8-0.616l-3.411-0.971z" fill="#fff"/>
 <path d="m1643.8 713.99c0 3.956-1.17 7.822-3.37 11.111s-5.32 5.853-8.98 7.367c-3.65 1.513-7.67 1.909-11.55 1.138-3.88-0.772-7.45-2.677-10.24-5.474-2.8-2.797-4.7-6.361-5.48-10.24-0.77-3.88-0.37-7.901 1.14-11.556 1.52-3.654 4.08-6.778 7.37-8.975 3.29-2.198 7.15-3.371 11.11-3.371 5.3 0 10.39 2.107 14.14 5.858s5.86 8.838 5.86 14.142z" fill="#182542"/>
 <path d="m1623.9 726.37-2.7-0.762 0.9-2.88-2.32-0.659-0.89 2.88-2.63-0.756-0.64-0.191 0.85-2.756-3.2-0.908 0.91-2.903 3.19 0.912 3.29-10.568-3.2-0.914 0.91-2.903 3.19 0.913 1.02-3.267 2.63 0.749 0.64 0.19-1.05 3.385 2.31 0.659 1.05-3.391 2.71 0.772-1.06 3.388 0.76 0.214c0.64 0.175 1.24 0.474 1.76 0.879 0.53 0.406 0.96 0.911 1.29 1.486 0.32 0.561 0.52 1.181 0.59 1.823s0.01 1.291-0.18 1.907c-0.21 0.639-0.54 1.23-0.98 1.737s-0.97 0.918-1.58 1.21c0.34 0.565 0.55 1.194 0.63 1.847s0.01 1.315-0.18 1.943c-0.2 0.626-0.52 1.206-0.95 1.706-0.42 0.5-0.94 0.911-1.53 1.206-1.2 0.622-2.6 0.759-3.9 0.381l-0.76-0.215zm-1.95-11.023-1.26 4.078 5.69 1.621c0.56 0.163 1.17 0.103 1.69-0.168 0.25-0.128 0.48-0.305 0.66-0.522 0.19-0.216 0.32-0.467 0.41-0.738 0.08-0.262 0.11-0.536 0.08-0.809-0.02-0.272-0.1-0.536-0.24-0.776-0.14-0.258-0.33-0.484-0.55-0.667-0.23-0.183-0.5-0.317-0.78-0.396zm2.1-6.735-1.27 4.078 5.69 1.621c0.21 0.059 0.42 0.089 0.63 0.089 0.47 0 0.93-0.141 1.32-0.415 0.38-0.274 0.67-0.662 0.81-1.108 0.09-0.268 0.12-0.55 0.09-0.829s-0.12-0.549-0.26-0.792c-0.29-0.504-0.76-0.873-1.32-1.027l-5.69-1.619z" fill="#fff"/>
 <path d="m1679.8 836.99c0 2.373-0.7 4.693-2.02 6.667-1.32 1.973-3.2 3.511-5.39 4.42-2.19 0.908-4.6 1.145-6.93 0.682s-4.47-1.605-6.15-3.284c-1.67-1.678-2.82-3.816-3.28-6.144s-0.22-4.74 0.68-6.933c0.91-2.193 2.45-4.067 4.42-5.386 1.98-1.318 4.3-2.022 6.67-2.022 3.18 0 6.23 1.264 8.49 3.515 2.25 2.25 3.51 5.302 3.51 8.485z" fill="#182542"/>
 <path d="m1667.9 844.42-1.62-0.458 0.54-1.728-1.39-0.395-0.54 1.728-1.57-0.454-0.39-0.114 0.51-1.654-1.92-0.545 0.55-1.742 1.91 0.548 1.98-6.341-1.92-0.548 0.54-1.742 1.92 0.547 0.61-1.96 1.57 0.45 0.39 0.114-0.63 2.031 1.39 0.395 0.63-2.034 1.62 0.463-0.63 2.033 0.45 0.128c0.39 0.105 0.75 0.284 1.06 0.528 0.31 0.243 0.58 0.546 0.77 0.891 0.2 0.336 0.32 0.709 0.36 1.094s0 0.774-0.11 1.144c-0.13 0.383-0.32 0.738-0.59 1.042-0.26 0.304-0.58 0.551-0.95 0.726 0.2 0.339 0.33 0.717 0.38 1.109 0.05 0.391 0.01 0.789-0.11 1.165s-0.31 0.724-0.57 1.024c-0.25 0.3-0.56 0.546-0.92 0.724-0.72 0.373-1.55 0.455-2.33 0.228l-0.46-0.129zm-1.17-6.614-0.76 2.447 3.42 0.972c0.34 0.098 0.7 0.062 1.01-0.1 0.15-0.077 0.29-0.184 0.4-0.314s0.19-0.28 0.24-0.443c0.05-0.157 0.07-0.321 0.05-0.485-0.01-0.163-0.06-0.322-0.14-0.466-0.08-0.154-0.2-0.29-0.33-0.4-0.14-0.109-0.3-0.19-0.47-0.237zm1.26-4.041-0.76 2.447 3.41 0.972c0.13 0.036 0.25 0.054 0.38 0.054 0.28 0 0.56-0.085 0.79-0.249 0.23-0.165 0.4-0.398 0.49-0.665 0.05-0.161 0.07-0.33 0.05-0.498-0.02-0.167-0.07-0.329-0.15-0.475-0.18-0.302-0.46-0.523-0.8-0.616l-3.41-0.971z" fill="#fff"/>
 <path d="m1755.8 798.99c0 2.967-0.88 5.867-2.53 8.334-1.65 2.466-3.99 4.389-6.73 5.524s-5.76 1.433-8.67 0.854-5.58-2.008-7.68-4.105c-2.09-2.098-3.52-4.771-4.1-7.681-0.58-2.909-0.28-5.925 0.85-8.666 1.14-2.741 3.06-5.084 5.53-6.732 2.46-1.648 5.36-2.528 8.33-2.528 3.98 0 7.79 1.58 10.61 4.393 2.81 2.813 4.39 6.629 4.39 10.607z" fill="#182542"/>
 <path d="m1740.9 808.27-2.02-0.572 0.67-2.16-1.73-0.494-0.68 2.16-1.96-0.567-0.49-0.143 0.64-2.067-2.4-0.682 0.68-2.177 2.4 0.685 2.46-7.926-2.39-0.686 0.67-2.177 2.4 0.684 0.76-2.45 1.97 0.562 0.49 0.143-0.79 2.538 1.73 0.494 0.79-2.542 2.03 0.578-0.79 2.542 0.57 0.16c0.48 0.131 0.93 0.355 1.32 0.659 0.39 0.305 0.72 0.683 0.96 1.115 0.24 0.42 0.4 0.885 0.45 1.367 0.05 0.481 0 0.968-0.14 1.43-0.15 0.479-0.4 0.923-0.73 1.303s-0.74 0.688-1.19 0.907c0.25 0.424 0.41 0.896 0.47 1.386s0.01 0.986-0.13 1.457c-0.15 0.469-0.39 0.904-0.71 1.279-0.32 0.376-0.71 0.683-1.15 0.905-0.9 0.466-1.95 0.569-2.92 0.286l-0.58-0.162zm-1.46-8.267-0.95 3.058 4.27 1.216c0.42 0.122 0.88 0.077 1.27-0.126 0.19-0.096 0.36-0.229 0.5-0.391 0.13-0.163 0.24-0.351 0.3-0.555 0.06-0.195 0.09-0.402 0.07-0.606s-0.09-0.402-0.18-0.582c-0.11-0.193-0.25-0.363-0.42-0.5-0.18-0.137-0.37-0.238-0.58-0.297zm1.57-5.052-0.95 3.059 4.27 1.215c0.16 0.045 0.32 0.067 0.48 0.068 0.35 0 0.69-0.107 0.98-0.312s0.5-0.496 0.61-0.831c0.07-0.201 0.09-0.413 0.06-0.622-0.02-0.209-0.08-0.411-0.19-0.594-0.21-0.377-0.57-0.654-0.99-0.77l-4.27-1.214z" fill="#fff"/>
 <path d="m1876.8 834.99c0 2.373-0.7 4.693-2.02 6.667-1.32 1.973-3.2 3.511-5.39 4.42-2.19 0.908-4.6 1.145-6.93 0.682s-4.47-1.605-6.15-3.284c-1.67-1.678-2.82-3.816-3.28-6.144s-0.22-4.74 0.68-6.933c0.91-2.193 2.45-4.067 4.42-5.386 1.98-1.318 4.3-2.022 6.67-2.022 3.18 0 6.23 1.264 8.49 3.515 2.25 2.25 3.51 5.302 3.51 8.485z" fill="#182542"/>
 <path d="m1864.9 842.42-1.62-0.458 0.54-1.728-1.39-0.395-0.54 1.728-1.57-0.454-0.39-0.114 0.51-1.654-1.92-0.545 0.55-1.742 1.91 0.548 1.98-6.341-1.92-0.548 0.54-1.742 1.92 0.547 0.61-1.96 1.57 0.45 0.39 0.114-0.63 2.031 1.39 0.395 0.63-2.034 1.62 0.463-0.63 2.033 0.45 0.128c0.39 0.105 0.75 0.284 1.06 0.528 0.31 0.243 0.58 0.546 0.77 0.891 0.2 0.336 0.32 0.709 0.36 1.094s0 0.774-0.11 1.144c-0.13 0.383-0.32 0.738-0.59 1.042-0.26 0.304-0.58 0.551-0.95 0.726 0.21 0.339 0.33 0.717 0.38 1.109 0.05 0.391 0.01 0.789-0.11 1.165s-0.31 0.724-0.57 1.024c-0.25 0.3-0.56 0.546-0.92 0.724-0.72 0.373-1.55 0.455-2.33 0.228l-0.46-0.129zm-1.17-6.614-0.76 2.447 3.42 0.972c0.34 0.098 0.7 0.062 1.01-0.1 0.15-0.077 0.29-0.184 0.4-0.314s0.19-0.28 0.24-0.443c0.05-0.157 0.07-0.321 0.05-0.485-0.01-0.163-0.06-0.322-0.14-0.466-0.08-0.154-0.2-0.29-0.33-0.4-0.14-0.109-0.3-0.19-0.47-0.237zm1.26-4.041-0.76 2.447 3.41 0.972c0.13 0.036 0.25 0.054 0.38 0.054 0.28 0 0.56-0.085 0.79-0.249 0.23-0.165 0.4-0.398 0.49-0.665 0.05-0.161 0.07-0.33 0.05-0.498-0.02-0.167-0.07-0.329-0.15-0.475-0.18-0.302-0.46-0.523-0.8-0.616l-3.41-0.971z" fill="#fff"/>
 <path d="m1921.8 791.99c0 2.967-0.88 5.867-2.53 8.334-1.65 2.466-3.99 4.389-6.73 5.524s-5.76 1.433-8.67 0.854-5.58-2.008-7.68-4.105c-2.09-2.098-3.52-4.771-4.1-7.681-0.58-2.909-0.28-5.925 0.85-8.666 1.14-2.741 3.06-5.084 5.53-6.732 2.46-1.648 5.36-2.528 8.33-2.528 3.98 0 7.79 1.58 10.61 4.393 2.81 2.813 4.39 6.629 4.39 10.607z" fill="#182542"/>
 <path d="m1906.9 801.27-2.02-0.572 0.67-2.16-1.73-0.494-0.68 2.16-1.96-0.567-0.49-0.143 0.64-2.067-2.4-0.682 0.68-2.177 2.4 0.685 2.46-7.926-2.39-0.686 0.67-2.177 2.4 0.684 0.76-2.45 1.97 0.562 0.49 0.143-0.79 2.538 1.73 0.494 0.79-2.542 2.03 0.578-0.79 2.542 0.57 0.16c0.48 0.131 0.93 0.355 1.32 0.659 0.39 0.305 0.72 0.683 0.96 1.115 0.24 0.42 0.4 0.885 0.45 1.367 0.05 0.481 0 0.968-0.14 1.43-0.15 0.479-0.4 0.923-0.73 1.303s-0.74 0.688-1.19 0.907c0.25 0.424 0.41 0.896 0.47 1.386s0.01 0.986-0.13 1.457c-0.15 0.469-0.39 0.904-0.71 1.279-0.32 0.376-0.71 0.683-1.15 0.905-0.9 0.466-1.95 0.569-2.92 0.286l-0.58-0.162zm-1.46-8.267-0.95 3.058 4.27 1.216c0.42 0.122 0.88 0.077 1.27-0.126 0.19-0.096 0.36-0.229 0.5-0.391 0.13-0.163 0.24-0.351 0.3-0.555 0.06-0.195 0.09-0.402 0.07-0.606s-0.09-0.402-0.18-0.582c-0.11-0.193-0.25-0.363-0.42-0.5-0.18-0.137-0.37-0.238-0.58-0.297zm1.57-5.052-0.95 3.059 4.27 1.215c0.16 0.045 0.32 0.067 0.48 0.068 0.35 0 0.69-0.107 0.98-0.312s0.5-0.496 0.61-0.831c0.07-0.201 0.09-0.413 0.06-0.622-0.02-0.209-0.08-0.411-0.19-0.594-0.21-0.377-0.57-0.654-0.99-0.77l-4.27-1.214z" fill="#fff"/>
</svg>
