<svg
  width="79"
  height="15"
  viewBox="0 0 79 15"
  fill="none"
  xmlns="http://www.w3.org/2000/svg"
>
<path
    d="M6.48323 14.9806H6.28299H3.89212C3.67133 14.9806 3.67133 14.9806 3.67133 14.7655C3.67133 13.6226 3.67133 12.4796 3.67133 11.3367C3.67133 11.1222 3.67133 11.1216 3.46208 11.1216C2.6649 11.1216 1.86774 11.1068 1.07185 11.1274C0.444773 11.1435 -0.0192808 10.6714 0.000616357 10.0506C0.0192297 9.53535 0.00896031 9.02013 0.000616357 8.50492C0.000616357 8.36581 0.0397689 8.32008 0.182258 8.32073C2.5836 8.32717 4.98474 8.33081 7.38567 8.33168C7.75087 8.33168 8.11415 8.33168 8.44855 8.15328C8.98194 7.86603 9.29002 7.4178 9.30734 6.8137C9.3311 5.98226 9.32466 5.15018 9.31312 4.31874C9.30093 3.47377 8.60068 2.79175 7.72391 2.78724C6.13535 2.77887 4.54744 2.79304 2.95886 2.79367C2.81574 2.79367 2.79392 2.85809 2.79392 2.98108C2.79776 4.23694 2.79926 5.49258 2.79842 6.74802C2.79842 6.95667 2.79842 6.95732 2.5866 6.95732C1.78943 6.95732 0.992906 6.95732 0.195737 6.96182C0.0519633 6.96182 0.00318331 6.92383 0.00318331 6.77249C0.00960173 4.9428 0.00767643 3.11247 0.013453 1.28279C0.013453 0.518331 0.537197 0.00826188 1.30292 0.00826188C3.43705 0.00826188 5.57118 -0.0168552 7.70467 0.0204985C9.60131 0.0572081 10.962 0.970438 11.7579 2.69772C11.9647 3.14153 12.0741 3.62469 12.0788 4.11458C12.0852 5.09093 12.125 6.06986 12.0743 7.04362C11.9954 8.55645 11.2508 9.70216 9.97744 10.4969C9.31852 10.9067 8.5575 11.121 7.78233 11.1152C7.40813 11.1152 7.0333 11.1222 6.65909 11.1152C6.51661 11.1152 6.47746 11.1596 6.47873 11.2994C6.48451 12.4477 6.48259 13.596 6.48323 14.7442C6.48323 14.8158 6.48323 14.884 6.48323 14.9806Z"
    fill="#464B4E"
  />
<path
    d="M16.1714 9.50689V7.95121H19.2924V6.74124H16.1714V5.28159H19.7053V4.0332H14.6254V10.7553H19.8302V9.50689H16.1714ZM26.148 5.28159V4.0332H21.068V10.7553H22.6237V8.30652H25.735V7.05814H22.6237V5.28159H26.148ZM27.2012 10.7553H28.7569V4.0332H27.2012V10.7553ZM34.9808 4.0332V8.11446L31.6389 4.0332H30.3521V10.7553H31.8886V6.67402L35.24 10.7553H36.5172V4.0332H34.9808ZM39.6537 9.50689V7.95121H42.7747V6.74124H39.6537V5.28159H43.1876V4.0332H38.1077V10.7553H43.3125V9.50689H39.6537ZM48.6623 10.7553H50.218V5.30079H52.369V4.0332H46.5112V5.30079H48.6623V10.7553ZM59.1598 10.7553L57.6522 8.59461C58.5261 8.22009 59.035 7.48067 59.035 6.47236C59.035 4.96469 57.9115 4.0332 56.1157 4.0332H53.206V10.7553H54.7617V8.8827H56.1157H56.1925L57.4889 10.7553H59.1598ZM57.4601 6.47236C57.4601 7.20218 56.98 7.64392 56.0293 7.64392H54.7617V5.30079H56.0293C56.98 5.30079 57.4601 5.73293 57.4601 6.47236ZM63.254 10.8705C65.165 10.8705 66.2981 9.77577 66.2981 7.79756V4.0332H64.7616V7.73995C64.7616 9.01714 64.2143 9.5453 63.2636 9.5453C62.3225 9.5453 61.7655 9.01714 61.7655 7.73995V4.0332H60.2098V7.79756C60.2098 9.77577 61.343 10.8705 63.254 10.8705ZM70.0442 10.8705C71.9648 10.8705 72.8963 9.91021 72.8963 8.78667C72.8963 6.31871 68.9879 7.17337 68.9879 5.93459C68.9879 5.51206 69.3432 5.16635 70.2651 5.16635C70.8605 5.16635 71.5039 5.33921 72.1281 5.69452L72.6082 4.51335C71.984 4.11963 71.1198 3.91797 70.2747 3.91797C68.3637 3.91797 67.4418 4.86866 67.4418 6.01141C67.4418 8.50818 71.3502 7.64392 71.3502 8.9019C71.3502 9.31483 70.9757 9.62213 70.0538 9.62213C69.2472 9.62213 68.4021 9.33404 67.8355 8.92111L67.3074 10.0927C67.9028 10.5536 68.9783 10.8705 70.0442 10.8705ZM75.2579 10.7553H76.8135V5.30079H78.9646V4.0332H73.1068V5.30079H75.2579V10.7553Z"
    fill="#464B4E"
  />
</svg>
