<svg viewBox="0 0 11 11" fill="none" xmlns="http://www.w3.org/2000/svg">
<path d="M10.0833 0H3.66671C3.16263 0 2.75 0.412634 2.75 0.916711V7.33329C2.75 7.83737 3.16263 8.25 3.66671 8.25H10.0833C10.5874 8.25 11 7.83737 11 7.33329V0.916711C11 0.412634 10.5874 0 10.0833 0ZM8.47824 4.125L8.47865 3.00685L5.06851 6.41671L4.58329 5.92969L7.99178 2.52176L6.8746 2.52079V1.83329H8.70789C8.96129 1.83383 9.16617 2.03871 9.16577 2.29171L9.16674 4.1254L8.47824 4.125Z" fill="#464B4E"/>
<path d="M4.58329 9.16671V10.0833H0.916711V6.41671H1.83329V5.5H0.458289C0.206384 5.5 0 5.70638 0 5.95829V10.5417C0 10.7932 0.206384 11 0.458289 11H5.04171C5.29362 11 5.5 10.7932 5.5 10.5417V9.16671H4.58329Z" fill="#464B4E"/>
</svg>
