<svg viewBox="0 0 30 30" fill="none" xmlns="http://www.w3.org/2000/svg">
<path d="M1.66675 30H13.3333C14.2498 30 15 29.2498 15 28.3333L15 16.6667C15 15.7502 14.2498 15 13.3333 15L1.66675 15C0.750245 15 5.48363e-07 15.7502 5.48363e-07 16.6667L5.48363e-07 28.3333C5.48363e-07 29.2498 0.750245 30 1.66675 30ZM4.58501 22.5L4.58428 24.533L10.7845 18.3333L11.6667 19.2188L5.46948 25.415L7.50073 25.4167L7.50073 26.6667H4.16748C3.70674 26.6658 3.33423 26.2933 3.33496 25.8333L3.3332 22.4993L4.58501 22.5Z" fill="#464B4E"/>
<path d="M11.6668 12.5L11.6668 3.83352L26.3332 3.83352L26.3332 19.1665H17V23H28.1668C29.1745 23 30 22.1369 30 21.0835L30 1.91648C30 0.864746 29.1745 0 28.1668 0L9.83315 0C8.82554 0 8 0.864746 8 1.91648L8 12.5L11.6668 12.5Z" fill="#464B4E"/>
</svg>
