<svg viewBox="0 0 124 43" fill="none" xmlns="http://www.w3.org/2000/svg">
<path d="M56.4951 6.61373H63.2825V36.1393H56.4951V6.61373ZM84.2784 36.6455C81.2896 36.6455 78.5804 35.9986 76.1503 34.7052C73.7481 33.3835 71.8486 31.5698 70.4523 29.2641C69.0834 26.9302 68.3993 24.301 68.3993 21.3765C68.3993 18.4521 69.0834 15.837 70.4523 13.5312C71.8486 11.1972 73.7481 9.3835 76.1503 8.09001C78.5804 6.76837 81.3037 6.10757 84.3203 6.10757C86.8619 6.10757 89.1522 6.55748 91.1914 7.45732C93.2581 8.35716 94.99 9.65065 96.3867 11.3378L92.0294 15.3871C90.0461 13.0813 87.5883 11.9283 84.6555 11.9283C82.8398 11.9283 81.2199 12.3361 79.7954 13.1515C78.3709 13.9389 77.2534 15.0496 76.4436 16.4837C75.6613 17.9178 75.2705 19.5487 75.2705 21.3765C75.2705 23.2043 75.6613 24.8352 76.4436 26.2694C77.2534 27.7035 78.3709 28.8281 79.7954 29.6437C81.2199 30.4309 82.8398 30.8247 84.6555 30.8247C87.5883 30.8247 90.0461 29.6579 92.0294 27.3238L96.3867 31.3731C94.99 33.0882 93.2581 34.3958 91.1914 35.2958C89.1244 36.1957 86.82 36.6455 84.2784 36.6455ZM123.679 30.656V36.1393H100.97V6.61373H123.134V12.0971H107.716V18.5083H121.332V23.8229H107.716V30.656H123.679Z" fill="#464B4E"/>
<path d="M7.92527 27.0247L21.3225 40.422H12.6218L7.76389 35.7255L7.92527 27.0247Z" fill="#464B4E"/>
<path d="M0 20.2495L4.74981 24.9993L4.80466 33.5934L0 29.0019V20.2495Z" fill="#464B4E"/>
<path d="M0.0770264 17.3466L25.5368 42.7531L30.3948 42.6998L42.8317 30.4241V21.617L27.9932 36.5088L6.42946 14.8917L21.2147 0.0532632L12.4607 0L0.236816 12.3821L0.0770264 17.3466Z" fill="#464B4E"/>
<path d="M10.6996 14.8917L25.5913 0.0532532H30.4491L32.4248 2.18848L19.4003 14.945L21.429 16.9721L34.4518 4.16236L38.7224 8.43281L25.9657 21.3491L27.9412 23.3778L40.8574 10.6213L42.7797 12.4902L42.833 17.24L27.9412 32.1852L10.6996 14.8917Z" fill="#464B4E"/>
</svg>
