<svg width="16" height="16" viewBox="0 0 21 21" fill="none" xmlns="http://www.w3.org/2000/svg">
<path d="M3.76489 12.8382L10.1293 19.2026H5.996L3.68823 16.9715L3.76489 12.8382Z" fill="white"/>
<path d="M0 9.61957L2.25642 11.876L2.28247 15.9587L0 13.7774V9.61957Z" fill="white"/>
<path d="M0.0372314 8.24054L12.132 20.31L14.4398 20.2847L20.348 14.4531V10.2692L13.2989 17.3436L3.05497 7.07438L10.0787 0.0253029L5.92014 0L0.11314 5.88217L0.0372314 8.24054Z" fill="white"/>
<path d="M5.08289 7.07436L12.1573 0.025279H14.465L15.4035 1.03963L9.21618 7.09966L10.1799 8.06265L16.3665 1.97732L18.3952 4.00601L12.3351 10.142L13.2736 11.1057L19.4095 5.04566L20.3226 5.93349L20.3479 8.18991L13.2736 15.2896L5.08289 7.07436Z" fill="white"/>
</svg>
