<svg viewBox="0 0 27 28" fill="none" xmlns="http://www.w3.org/2000/svg">
<path d="M26.2264 17.3868C24.4482 24.8868 17.2242 29.4511 10.0908 27.5809C2.96045 25.711 -1.38029 18.1143 0.398775 10.6148C2.17617 3.11391 9.40019 -1.45091 16.5314 0.418944C23.6643 2.2888 28.0046 9.88635 26.2264 17.3868Z" fill="#464B4E"/>
<path d="M18.2811 8H9.6122C9.42067 8.00021 9.23704 8.07639 9.10161 8.21182C8.96617 8.34725 8.89 8.53088 8.88979 8.72241V18.9998L7.24895 20.6227C7.22331 20.6587 7.20807 20.7011 7.2049 20.7452C7.20174 20.7893 7.21077 20.8334 7.23101 20.8727C7.25125 20.9121 7.28192 20.945 7.31966 20.9681C7.3574 20.9911 7.40075 21.0034 7.44496 21.0034H18.2811C18.4727 21.0032 18.6563 20.927 18.7917 20.7916C18.9272 20.6562 19.0033 20.4725 19.0035 20.281V8.72241C19.0033 8.53088 18.9272 8.34725 18.7917 8.21182C18.6563 8.07639 18.4727 8.00021 18.2811 8Z" fill="white"/>
<path d="M8.8898 13.7793H6.72256C6.53097 13.7793 6.34722 13.8554 6.21174 13.9909C6.07626 14.1264 6.00015 14.3101 6.00015 14.5017V19.5083C5.99501 19.8653 6.11922 20.2121 6.34985 20.4847C6.58048 20.7573 6.90195 20.9372 7.25489 20.9912C7.45887 21.018 7.66622 21.001 7.8631 20.9413C8.05998 20.8815 8.24186 20.7805 8.39659 20.6449C8.55133 20.5093 8.67536 20.3423 8.76041 20.155C8.84546 19.9676 8.88957 19.7643 8.8898 19.5586V13.7793Z" fill="#BCC2D7"/>
<path d="M13.7059 15.7057C15.4348 15.7057 16.8363 14.3042 16.8363 12.5753C16.8363 10.8464 15.4348 9.44482 13.7059 9.44482C11.977 9.44482 10.5754 10.8464 10.5754 12.5753C10.5754 14.3042 11.977 15.7057 13.7059 15.7057Z" fill="#464B4E"/>
<path d="M14.1093 12.3641C14.0692 12.3499 14.028 12.3345 13.9871 12.3193V11.5789C14.0326 11.5961 14.0752 11.6198 14.1138 11.6494C14.1611 11.6919 14.2232 11.7139 14.2866 11.7107C14.3501 11.7075 14.4097 11.6794 14.4525 11.6324C14.4953 11.5854 14.5178 11.5235 14.5151 11.46C14.5124 11.3965 14.4848 11.3367 14.4382 11.2935C14.3077 11.1864 14.1528 11.1132 13.9871 11.0807V10.951C13.9871 10.8871 13.9618 10.8259 13.9166 10.7807C13.8714 10.7356 13.8102 10.7102 13.7463 10.7102C13.6825 10.7102 13.6212 10.7356 13.5761 10.7807C13.5309 10.8259 13.5055 10.8871 13.5055 10.951V11.098C13.3559 11.135 13.2203 11.2149 13.1154 11.328C13.0106 11.441 12.9411 11.5822 12.9154 11.7342C12.8866 11.8614 12.8934 11.994 12.9349 12.1176C12.9764 12.2412 13.0511 12.3511 13.1508 12.4351C13.2605 12.5179 13.3796 12.5874 13.5055 12.6424V13.6337C13.3939 13.6141 13.2885 13.5683 13.1979 13.5001C13.1445 13.4654 13.0795 13.4532 13.0171 13.4663C12.9547 13.4794 12.9001 13.5167 12.8652 13.57C12.8302 13.6233 12.8179 13.6883 12.8308 13.7507C12.8437 13.8131 12.8809 13.8679 12.9341 13.903C13.1019 14.0244 13.2992 14.0985 13.5055 14.1175V14.2609C13.5055 14.3247 13.5309 14.386 13.576 14.4311C13.6212 14.4763 13.6824 14.5017 13.7463 14.5017C13.8102 14.5017 13.8714 14.4763 13.9166 14.4311C13.9617 14.386 13.9871 14.3247 13.9871 14.2609V14.0913C14.1646 14.0437 14.3247 13.9464 14.4488 13.8109C14.5728 13.6753 14.6556 13.5072 14.6873 13.3262C14.7243 13.123 14.686 12.9133 14.5796 12.7362C14.4733 12.5592 14.3061 12.4269 14.1093 12.3641ZM13.3886 11.8233C13.4036 11.745 13.4448 11.674 13.5055 11.6223V12.0934C13.4554 12.0716 13.4155 12.0316 13.3938 11.9814C13.3721 11.9313 13.3702 11.8748 13.3886 11.8233ZM14.2124 13.2464C14.2006 13.3144 14.1744 13.3791 14.1355 13.4361C14.0967 13.4932 14.0461 13.5413 13.9871 13.5772V12.8359C14.0672 12.8666 14.1337 12.9247 14.175 12.9999C14.2162 13.075 14.2295 13.1624 14.2124 13.2464Z" fill="white"/>
<path d="M16.5955 17.873H10.8162C10.7524 17.873 10.6911 17.8476 10.646 17.8024C10.6008 17.7573 10.5754 17.696 10.5754 17.6322C10.5754 17.5683 10.6008 17.507 10.646 17.4619C10.6911 17.4167 10.7524 17.3914 10.8162 17.3914H16.5955C16.6594 17.3914 16.7206 17.4167 16.7658 17.4619C16.811 17.507 16.8363 17.5683 16.8363 17.6322C16.8363 17.696 16.811 17.7573 16.7658 17.8024C16.7206 17.8476 16.6594 17.873 16.5955 17.873Z" fill="#546C8C"/>
<path d="M16.5955 19.5585H10.8162C10.7524 19.5585 10.6911 19.5331 10.646 19.488C10.6008 19.4428 10.5754 19.3816 10.5754 19.3177C10.5754 19.2538 10.6008 19.1926 10.646 19.1474C10.6911 19.1023 10.7524 19.0769 10.8162 19.0769H16.5955C16.6594 19.0769 16.7206 19.1023 16.7658 19.1474C16.811 19.1926 16.8363 19.2538 16.8363 19.3177C16.8363 19.3816 16.811 19.4428 16.7658 19.488C16.7206 19.5331 16.6594 19.5585 16.5955 19.5585Z" fill="#546C8C"/>
</svg>
