<svg viewBox="0 0 24 29" fill="none" xmlns="http://www.w3.org/2000/svg">
<path d="M7.88027 28.3949C3.67547 28.3706 0.197338 19.7872 0.197338 15.4159C0.197338 8.27534 5.55397 6.71208 7.61838 6.71208C8.54872 6.71208 9.54213 7.07743 10.4183 7.40073C11.0311 7.62625 11.6648 7.85906 12.0172 7.85906C12.2281 7.85906 12.7253 7.66101 13.1642 7.48725C14.1002 7.11462 15.2649 6.65149 16.6213 6.65149C16.6237 6.65149 16.627 6.65149 16.6293 6.65149C17.6421 6.65149 20.7129 6.87376 22.5591 9.64624L22.9915 10.2961L22.3691 10.7657C21.48 11.4366 19.8577 12.6604 19.8577 15.0845C19.8577 17.9556 21.695 19.0598 22.5777 19.5908C22.9673 19.8252 23.3706 20.0669 23.3706 20.5956C23.3706 20.9407 20.6159 28.352 16.6156 28.352C15.6367 28.352 14.9448 28.0578 14.3345 27.7984C13.717 27.5357 13.1843 27.3094 12.3041 27.3094C11.8579 27.3094 11.2937 27.5203 10.6963 27.7442C9.88006 28.0489 8.95612 28.3949 7.90775 28.3949H7.88027Z" fill="#464B4E"/>
<path d="M17.0451 0.44519C17.1493 4.20165 14.4628 6.80771 11.7795 6.64426C11.3373 3.64648 14.4625 0.44519 17.0451 0.44519Z" fill="#464B4E"/>
</svg>
