<svg viewBox="0 0 50 50" fill="none" xmlns="http://www.w3.org/2000/svg">
<path d="M8 0.25H42C46.2802 0.25 49.75 3.71979 49.75 8V42C49.75 46.2802 46.2802 49.75 42 49.75H8C3.71979 49.75 0.25 46.2802 0.25 42V8C0.25 3.71979 3.71979 0.25 8 0.25Z" fill="#464B4E" stroke="#464B4E" stroke-width="0.5"/>
<path d="M8.2797 12.5496L14.8773 10.0739C15.0469 10.01 15.2287 9.98705 15.4084 10.007C15.5882 10.0269 15.761 10.0891 15.9132 10.1887C16.0654 10.2883 16.1929 10.4225 16.2857 10.5809C16.3784 10.7393 16.4339 10.9175 16.4478 11.1015L18.1627 33.5359L22.803 31.6644L20.9662 11.5174L44.4889 21.3124L46 29.5712L38.232 33.756L37.1537 25.6065L31.972 23.404L33.5842 34.4376C33.6484 34.8777 33.5733 35.3272 33.3697 35.7206C33.1661 36.114 32.8447 36.4308 32.4524 36.6249L19.5637 43L9.25833 38.5829C8.88709 38.4237 8.56781 38.1601 8.33768 37.8229C8.10755 37.4856 7.97603 37.0886 7.95845 36.678L7.00213 14.5168C6.98274 14.0929 7.09612 13.6737 7.32582 13.32C7.55553 12.9663 7.88963 12.6965 8.2797 12.5496Z" fill="white"/>
</svg>
