<svg viewBox="0 0 99 98" fill="none" xmlns="http://www.w3.org/2000/svg">
<path d="M17.9869 61.9472L48.6965 92.6568H28.7525L17.617 81.8912L17.9869 61.9472Z" fill="#464B4E"/>
<path d="M0.121956 49.4292L11.0096 60.3169L11.1353 80.0167L0.121956 69.4917V49.4292Z" fill="#464B4E"/>
<path d="M0 39.7623L58.3598 98L69.4952 97.8779L98.0036 69.7394V49.5512L63.9903 83.6866L14.5612 34.1354L48.4524 0.122092L28.3863 0L0.366275 28.3827L0 39.7623Z" fill="#464B4E"/>
<path d="M24.3454 34.1354L58.4808 0.122131H69.6162L74.1444 5.01657L44.2894 34.2575L48.9397 38.9042L78.7911 9.54113L88.5799 19.33L59.339 48.9372L63.8672 53.5875L93.4744 24.3465L97.8804 28.6305L98.0025 39.5182L63.8672 73.7757L24.3454 34.1354Z" fill="#464B4E"/>
</svg>
