<?xml version="1.0" encoding="UTF-8"?>
<svg version="1.1" viewBox="0 0 1233.7 232.08" xmlns="http://www.w3.org/2000/svg" xmlns:cc="http://creativecommons.org/ns#" xmlns:dc="http://purl.org/dc/elements/1.1/" xmlns:rdf="http://www.w3.org/1999/02/22-rdf-syntax-ns#">
 <metadata>
  <rdf:RDF>
   <cc:Work rdf:about="">
    <dc:format>image/svg+xml</dc:format>
    <dc:type rdf:resource="http://purl.org/dc/dcmitype/StillImage"/>
    <dc:title/>
   </cc:Work>
  </rdf:RDF>
 </metadata>
 <g transform="translate(638.33 -182.55)">
  <g transform="translate(53.673 241.9)" fill="#1a2443">
   <path d="m-692 56.683v-116.04h230.57v232.08h-230.57zm208.64 68.792v-25.324h-17.194l-6.6181-7.1815 23.812-0.41637v-9.789h-32.185l-7.4459-7.5595h39.631v-10.583h-48.188l-3.3091-3.5908-3.3091-3.5908 54.807-0.39684v-9.8085h-63.354l-27.461-31.939c-15.104-17.566-31.04-36.101-35.414-41.188l-7.9526-9.249-53.295-0.02276v28.658l38.453 45.047-38.453 0.4035v9.0459h46.581l3.5896 4.1577 3.5895 4.1577h-53.76v9.0714h61.092l7.1373 7.9375-67.851 0.75595-0.22506 4.7247-0.22505 4.7247h77.038l3.0942 3.6957c1.7018 2.0326 3.0942 3.9036 3.0942 4.1577 0 0.25413-18.71 0.46205-41.577 0.46205h-41.577v9.0714l91.848 0.0406 42.333 49.812 53.295 0.0407zm0-123.22v-37.42h-62.744v74.839h62.744z"/>
   <path d="m-432.71 54.415v-76.729h16.346l8.3754 9.6384c23.68 27.251 57.214 72.532 73.899 99.786 1.5909 2.5986 3.1843 4.7247 3.541 4.7247 0.35669 0 0.64852-25.683 0.64852-57.074v-57.074h19.655v153.46h-17.139l-6.3038-10.394c-20.883-34.435-56.97-85.326-76.252-107.53l-2.2972-2.6458-0.0307 60.287-0.0307 60.287h-20.411z"/>
   <path d="m-255.78 129.07c-13.578-29.155-31.402-76.248-38.555-101.86-1.2771-4.5735-2.5092-8.9108-2.7381-9.6384-0.38294-1.217 0.43669-1.3229 10.242-1.3229 7.8627 0 10.737 0.24783 10.958 0.94494 0.16473 0.51972 1.7128 6.2177 3.4402 12.662 6.0093 22.419 25.412 77.863 27.248 77.863 2.0999 0 22.749-59.346 28.669-82.399 0.48054-1.871 1.2041-4.6775 1.6079-6.2366l0.7342-2.8348h10.227c9.3893 0 10.194 0.10838 9.8253 1.3229-0.22105 0.7276-1.9243 6.5957-3.7851 13.04-6.9324 24.01-20.041 59.047-33.303 89.013l-5.102 11.528h-18.499z"/>
   <path d="m-145.82 133.39c-7.1038-1.0989-16.183-4.2007-21.438-7.3239-7.0717-4.2032-14.493-12.384-18.157-20.016-3.7071-7.7217-5.0984-12.956-6.2603-23.552-1.6322-14.884 0.8244-29.413 6.9855-41.313 9.12-17.615 25.119-27.238 45.227-27.201 14.715 0.02664 24.265 3.6178 32.968 12.397 9.6919 9.7762 13.804 22.183 14.176 42.774l0.17079 9.4494-78.997 0.39146 0.0112 2.8281c0.017 4.3103 2.042 11.989 4.5438 17.232 2.9129 6.1034 9.4454 12.262 15.441 14.556 10.186 3.8978 27.618 4.1565 39.837 0.5913 3.5962-1.0493 6.972-2.0043 7.5018-2.1222 1.3899-0.30929 4.0539 15.361 2.7521 16.189-1.2422 0.78962-8.1546 2.7936-14.147 4.1013-6.1417 1.3403-24.573 1.9536-30.616 1.0188zm32.682-75.763c-0.84726-11.047-6.2747-20.155-14.527-24.377-3.7251-1.9062-5.498-2.312-11.067-2.5326-10.383-0.41136-18.106 2.9793-24.122 10.59-3.0724 3.8869-7.0242 13.275-7.8244 18.588l-0.48386 3.2128h58.444z"/>
   <path d="m-57.377 133.72c-8.2445-1.1939-12.582-2.1133-17.908-3.7956-4.8983-1.5474-5.9866-2.1618-5.7091-3.2231 0.1886-0.72119 0.97491-4.4379 1.7474-8.2594s1.778-6.9481 2.2346-6.9481c0.45658 0 3.8705 1.0377 7.5865 2.3061 9.0694 3.0955 21.015 4.3397 30.74 3.2017 12.205-1.4283 17.175-4.9771 17.817-12.724 0.86949-10.485-3.646-14.347-29.883-25.557-20.309-8.6774-26.173-14.225-28.235-26.71-1.6659-10.087 1.3405-20.232 7.9647-26.875 4.3363-4.349 12.527-8.5171 19.692-10.022 9.4229-1.9784 24.65-1.3508 37.3 1.5373 7.6297 1.7419 7.3567 1.223 5.4051 10.275-0.92965 4.3118-1.7484 7.9109-1.8195 7.998-0.07107 0.08713-2.795-0.68814-6.0533-1.7228-8.2556-2.6216-20.01-3.781-26.651-2.6286-6.8536 1.1893-10.689 2.975-13.662 6.361-2.2341 2.5445-2.4568 3.2448-2.4568 7.7232 0 5.5534 0.98354 7.9442 4.6602 11.328 3.8675 3.5597 5.5337 4.4055 20.029 10.167 20.133 8.0018 26.964 12.654 31.061 21.152 3.7752 7.8305 3.778 20.542 0.00605 28.571-3.4899 7.4295-11.643 13.116-23.143 16.141-5.6387 1.4832-24.881 2.5506-30.725 1.7044z"/>
   <path d="m45.172 133.28c-17.356-2.175-26.818-11.921-29.597-30.481-0.51308-3.4276-0.71964-25.251-0.58639-61.951l0.20573-56.659 7.5595-1.3304c4.1577-0.73172 8.495-1.5054 9.6384-1.7193l2.0789-0.38886v35.492h43.845v16.631h-43.845v31.713c0 32.519 0.32505 37.009 3.0724 42.442 1.7611 3.4824 5.8285 7.0474 9.525 8.3486 1.8016 0.63413 5.9056 0.99006 10.837 0.93988 6.4853-0.066 8.9852-0.44553 13.664-2.0746 3.1496-1.0966 6.0723-1.9938 6.495-1.9938 0.42268 0 1.5482 3.4386 2.5011 7.6414 1.4522 6.4051 1.5633 7.7509 0.68655 8.3182-2.4604 1.5919-13.31 4.4974-19.399 5.1951-7.4801 0.85708-8.9478 0.84626-16.682-0.12297z"/>
   <path d="m114.22 131.83c-3.742-0.3422-9.44-1.0182-12.662-1.5022l-5.8586-0.87997v-149.33l1.8451-0.46309c6.2362-1.5652 23.646-2.8976 37.842-2.8962 12.772 0.0013 17.608 0.31064 24.741 1.5829 19.724 3.5177 30.56 10.455 36.76 23.535 1.8292 3.8588 1.9719 4.9186 1.9846 14.741 0.0135 10.414-0.0254 10.663-2.4381 15.595-2.8077 5.7387-9.9889 13.007-15.141 15.325-3.0174 1.3576-4.2005 2.72-2.362 2.72 2.6114 0 13.944 6.3543 17.747 9.9506 7.6393 7.2249 10.186 13.903 10.186 26.713 0 12.865-3.3641 21.823-11.121 29.611-11.05 11.094-30.504 16.239-60.584 16.022-7.7745-0.0562-17.197-0.38216-20.939-0.72436zm35.948-16.909c7.9562-0.48415 16.972-2.7217 22.006-5.4615 2.085-1.1348 5.4592-3.8886 7.4982-6.1196 4.7359-5.1818 6.3098-10.118 5.8175-18.244-0.62441-10.307-4.9839-16.906-13.852-20.966-7.5205-3.443-12.935-4.1536-34.929-4.5839l-20.6-0.40307v55.342l1.7009 0.39494c2.0271 0.4707 16.759 0.88437 22.112 0.62089 2.0789-0.10234 6.6896-0.36315 10.246-0.57957zm5.6289-73.365c15.554-3.2802 23.082-11.947 22.115-25.463-0.85826-11.995-10.511-19.286-28.784-21.738-6.6114-0.88741-20.16-1.0335-27.916-0.30104l-5.1027 0.48192v48.162l17.198-0.01312c12.225-0.0093 18.728-0.33579 22.49-1.1291z"/>
   <path d="m252.94 133.32c-16.881-1.949-27.827-9.0079-32.676-21.072-1.4314-3.5615-1.6745-5.627-1.6955-14.403-0.0243-10.177-7e-3 -10.278 2.5477-15.313 5.9189-11.661 18.355-18.34 37.357-20.062 7.3692-0.66792 16.951-0.10862 23.326 1.3616 6.3963 1.4751 6.1689 1.7372 5.7096-6.5797-0.22389-4.0538-0.95309-9.1234-1.6205-11.266-1.6076-5.161-6.7634-10.857-11.948-13.2-3.646-1.6476-4.9713-1.8016-15.33-1.7807-8.2049 0.01654-13.011 0.40484-17.387 1.4048-3.3262 0.76004-6.7544 1.5436-7.6182 1.7413-1.4648 0.33515-1.6365-0.15798-2.5495-7.3219-0.59767-4.6899-0.70735-7.9528-0.28162-8.3786 0.38349-0.3835 3.7419-1.3997 7.4632-2.2583 9.5638-2.2065 30.957-2.847 38.894-1.1644 15.312 3.2463 24.519 12.107 28.362 27.294 1.176 4.6479 1.379 10.265 1.6687 46.17l0.32978 40.878-5.1639 0.87413c-8.4549 1.4312-16.612 2.3413-28.22 3.1485-12.253 0.85202-13.177 0.84881-21.167-0.0736zm32.708-17.021 2.0924-0.45246-0.20246-17.846-0.20246-17.846-4.1577-0.99487c-5.3502-1.2802-22.565-1.4417-28.058-0.26325-9.7241 2.0861-16.35 8.4771-17.075 16.469-1.0508 11.588 5.1073 19.178 17.359 21.393 3.9898 0.72151 26.354 0.38148 30.244-0.45984z"/>
   <path d="m330.99 75.408 0.19386-55.736 10.583-2.067c19.383-3.7855 40.299-4.4461 51.405-1.6234 11.379 2.8921 19.711 9.4875 24.551 19.434 5.3412 10.976 5.5072 12.579 5.8601 56.609l0.31364 39.121h-19.62l-0.3479-37.231c-0.29094-31.133-0.54941-38.007-1.578-41.97-3.6056-13.892-10.327-19.352-25.053-20.355-5.411-0.36855-19.934 0.69458-24.379 1.7847l-1.7009 0.41706v97.354h-20.42z"/>
   <path d="m448.16 47.044 0.19227-84.1 7.1816-1.2498c3.9499-0.6874 8.2871-1.4314 9.6384-1.6534l2.4568-0.40356v52.491c0 28.87 0.27779 52.491 0.6173 52.491 0.89323 0 22.133-21.765 35.227-36.097l11.223-12.284h22.641l-5.5608 6.2074c-7.3012 8.1503-14.131 15.46-25.254 27.029-5.0104 5.2112-11.098 11.598-13.528 14.194l-4.4178 4.7188 2.1883 1.6351c1.2036 0.8993 6.643 6.0897 12.088 11.534 12.818 12.818 27.211 30.921 36.87 46.374l2.0082 3.2128h-23.179l-5.0058-7.3705c-7.2937-10.739-14.122-19.053-23.973-29.188-7.996-8.2263-19.916-18.626-21.349-18.626-0.32763 0-0.59568 12.417-0.59568 27.592v27.592h-19.661z"/>
  </g>
 </g>
</svg>
