<svg viewBox="0 0 347 82" fill="none" xmlns="http://www.w3.org/2000/svg">
<path
    d="M141.403 52.6829L141.349 30.2781L130.36 48.7354H126.466L115.53 30.7582V52.6829H107.422V15.3416H114.57L128.546 38.5466L142.309 15.3416H149.404L149.511 52.6829H141.403ZM184.456 53.3231C180.58 53.3231 177.076 52.4871 173.947 50.8159C170.853 49.1444 168.417 46.8506 166.639 43.9344C164.896 40.9827 164.025 37.6753 164.025 34.0122C164.025 30.3492 164.896 27.0597 166.639 24.1435C168.417 21.1917 170.853 18.8801 173.947 17.2086C177.076 15.5372 180.58 14.7014 184.456 14.7014C188.332 14.7014 191.818 15.5372 194.912 17.2086C198.006 18.8801 200.441 21.1917 202.22 24.1435C203.998 27.0597 204.887 30.3492 204.887 34.0122C204.887 37.6753 203.998 40.9827 202.22 43.9344C200.441 46.8506 198.006 49.1444 194.912 50.8159C191.818 52.4871 188.332 53.3231 184.456 53.3231ZM184.456 45.9615C186.661 45.9615 188.652 45.4636 190.431 44.4678C192.209 43.4365 193.596 42.014 194.592 40.2002C195.623 38.3865 196.139 36.3238 196.139 34.0122C196.139 31.7007 195.623 29.638 194.592 27.8242C193.596 26.0105 192.209 24.6058 190.431 23.61C188.652 22.5787 186.661 22.063 184.456 22.063C182.251 22.063 180.26 22.5787 178.482 23.61C176.703 24.6058 175.298 26.0105 174.267 27.8242C173.271 29.638 172.774 31.7007 172.774 34.0122C172.774 36.3238 173.271 38.3865 174.267 40.2002C175.298 42.014 176.703 43.4365 178.482 44.4678C180.26 45.4636 182.251 45.9615 184.456 45.9615ZM253.631 15.3416V52.6829H246.536L227.918 30.0114V52.6829H219.383V15.3416H226.531L245.095 38.0131V15.3416H253.631ZM299.38 45.7481V52.6829H270.468V15.3416H298.687V22.2764H279.056V30.3848H296.393V37.1062H279.056V45.7481H299.38ZM331.817 39.4534V52.6829H323.175V39.3467L308.719 15.3416H317.894L327.87 31.9318L337.845 15.3416H346.327L331.817 39.4534Z"
    fill="#464B4E"
  />
<path
    d="M124.106 62.0969V79.6693H122.324V65.6114L115.421 77.4351H114.542L107.639 65.6867V79.6693H105.856V62.0969H107.388L115.019 75.1256L122.575 62.0969H124.106ZM143.363 74.975H133.572L131.464 79.6693H129.531L137.564 62.0969H139.396L147.429 79.6693H145.471L143.363 74.975ZM142.685 73.4688L138.467 64.0299L134.25 73.4688H142.685ZM164.846 79.6693L160.83 74.021C160.378 74.0713 159.909 74.0964 159.424 74.0964H154.704V79.6693H152.847V62.0969H159.424C161.666 62.0969 163.423 62.6322 164.696 63.7035C165.968 64.7748 166.603 66.2471 166.603 68.1217C166.603 69.4943 166.252 70.6572 165.549 71.6111C164.863 72.5481 163.875 73.2259 162.587 73.6445L166.88 79.6693H164.846ZM159.374 72.5148C161.114 72.5148 162.444 72.1301 163.365 71.3601C164.286 70.59 164.746 69.5106 164.746 68.1217C164.746 66.699 164.286 65.6114 163.365 64.8583C162.444 64.0882 161.114 63.7035 159.374 63.7035H154.704V72.5148H159.374ZM178.946 71.4103L175.356 75.0503V79.6693H173.498V62.0969H175.356V72.7157L185.673 62.0969H187.807L180.201 70.0547L188.334 79.6693H186.125L178.946 71.4103ZM206.282 78.0627V79.6693H193.856V62.0969H205.905V63.7035H195.713V69.9543H204.801V71.5358H195.713V78.0627H206.282ZM216.573 63.7035H210.398V62.0969H224.606V63.7035H218.431V79.6693H216.573V63.7035ZM234.66 79.8199C233.354 79.8199 232.099 79.611 230.894 79.1924C229.705 78.7738 228.785 78.2215 228.133 77.5355L228.861 76.1046C229.496 76.7404 230.342 77.2594 231.396 77.661C232.45 78.0458 233.538 78.2384 234.66 78.2384C236.232 78.2384 237.412 77.9541 238.199 77.3849C238.985 76.7994 239.379 76.0463 239.379 75.1256C239.379 74.4227 239.161 73.8623 238.726 73.4437C238.308 73.0251 237.789 72.7075 237.17 72.4897C236.55 72.2556 235.689 72.0046 234.584 71.7366C233.262 71.4021 232.208 71.0839 231.421 70.7827C230.634 70.4645 229.956 69.9875 229.388 69.3518C228.836 68.7161 228.559 67.8538 228.559 66.7662C228.559 65.8794 228.793 65.0761 229.262 64.3562C229.73 63.6201 230.45 63.0339 231.421 62.599C232.391 62.1641 233.596 61.9463 235.036 61.9463C236.04 61.9463 237.019 62.0888 237.973 62.373C238.943 62.641 239.781 63.0176 240.484 63.5027L239.856 64.9838C239.119 64.4987 238.333 64.1384 237.496 63.9044C236.659 63.6533 235.839 63.5278 235.036 63.5278C233.496 63.5278 232.333 63.829 231.547 64.4315C230.777 65.0171 230.392 65.779 230.392 66.7159C230.392 67.4188 230.601 67.9881 231.02 68.423C231.454 68.8416 231.99 69.1679 232.626 69.402C233.279 69.6198 234.149 69.862 235.237 70.13C236.525 70.4482 237.563 70.7658 238.35 71.0839C239.153 71.3852 239.831 71.854 240.383 72.4897C240.935 73.1092 241.212 73.9539 241.212 75.0252C241.212 75.912 240.969 76.7241 240.484 77.4602C240.015 78.1801 239.287 78.7574 238.3 79.1924C237.312 79.611 236.099 79.8199 234.66 79.8199Z"
    fill="#464B4E"
  />
<path
    d="M81.9756 54.8557C81.9756 63.2161 81.9783 71.5753 81.963 79.9362C81.963 80.2556 82.0765 80.552 81.9059 80.9278C81.3907 82.073 80.307 82.3213 79.2623 81.5737C78.5331 81.0514 77.8028 80.5236 77.0484 80.0313C76.1946 79.4751 75.3875 78.8451 74.5518 78.2604C74.0251 77.8912 73.4386 77.592 72.9574 77.1731C72.2638 76.5687 71.4155 76.2028 70.7236 75.5968C70.2798 75.2063 69.7245 74.9455 69.2345 74.6036C68.5986 74.1595 67.9835 73.6826 67.3487 73.2358C66.6595 72.7517 65.9336 72.3164 65.2659 71.8039C64.5498 71.2548 63.6571 70.8801 63.25 69.999C63.0267 69.515 62.8171 69.037 62.8171 68.4605C62.8346 56.4024 62.816 44.345 62.8472 32.2864C62.8516 30.7085 62.1724 29.657 60.9071 28.8354C59.926 28.1983 59.0163 27.4548 58.0298 26.829C56.494 25.8541 55.0531 24.7474 53.5499 23.7257C52.394 22.9396 51.2609 22.1194 50.1021 21.3347C48.9946 20.5855 47.8756 19.8461 46.8051 19.0529C45.7588 18.2768 44.6883 17.5304 43.622 16.7868C42.684 16.1327 41.7643 15.4416 40.7849 14.8399C39.9294 14.3149 39.135 13.692 38.3122 13.1131C37.5677 12.5909 36.8246 12.0687 36.0772 11.5507C35.401 11.0811 34.7277 10.6043 34.0501 10.136C33.1775 9.53294 32.3048 8.92421 31.455 8.28568C30.4883 7.55914 30.5467 6.45517 31.4407 5.80099C33.0493 4.62608 34.7007 3.51075 36.3334 2.36846C37.2915 1.69729 38.2396 1.01049 39.2091 0.356339C40.039 -0.202743 41.8754 -0.0721961 42.6953 0.526618C43.4028 1.04313 44.1559 1.49295 44.872 1.99811C45.7133 2.59125 46.529 3.22128 47.3703 3.81441C48.0849 4.31816 48.828 4.78359 49.5469 5.28165C50.253 5.76981 50.942 6.28348 51.6452 6.77583C52.5279 7.39451 53.4175 8.00188 54.303 8.61772C54.9922 9.09732 55.677 9.58261 56.3683 10.0608C56.9055 10.4312 57.4531 10.7859 57.987 11.1605C58.8868 11.792 59.7707 12.4462 60.6761 13.0705C61.3779 13.5529 62.0911 14.0269 62.7748 14.5278C63.4865 15.0485 64.231 15.5268 64.9284 16.0688C65.5802 16.5754 66.2963 17.0011 66.9783 17.4722C67.69 17.9632 68.3934 18.4683 69.1039 18.9636C69.7997 19.4488 70.5003 19.9313 71.1977 20.4137C71.8496 20.865 72.503 21.3162 73.1538 21.7703C74.1244 22.4472 75.0939 23.1255 76.0607 23.8065C76.7054 24.2607 77.3419 24.7275 77.9894 25.1787C78.6802 25.6612 79.3891 26.1152 80.0705 26.6105C80.7515 27.1043 81.4801 27.5726 81.7561 28.4325C81.89 28.8482 81.9855 29.2782 81.9739 29.7223C81.9695 29.8656 81.9728 30.0076 81.9728 30.1508C81.9756 38.3839 81.9756 46.6197 81.9756 54.8557Z"
    fill="#464B4E"
  />
<path
    d="M49.5276 59.3875C49.5276 66.4352 49.5136 73.4828 49.5416 80.531C49.5458 81.7284 48.381 82.1577 47.631 81.9496C46.9175 81.7524 46.3792 81.2493 45.8129 80.8271C45.112 80.3054 44.3845 79.828 43.678 79.3151C42.5958 78.5285 41.5038 77.7561 40.3993 77.0006C39.5974 76.4522 38.8152 75.8737 38.0036 75.3368C36.9817 74.6578 36.0215 73.8843 35.022 73.1698C34.2707 72.6328 33.4941 72.1325 32.7371 71.6037C31.8694 70.9958 31.0298 70.3424 30.7452 69.25C30.6681 68.955 30.5153 68.6289 30.6569 68.282C30.7129 68.1444 30.6723 67.9641 30.6723 67.8041C30.6723 58.8118 30.6723 49.8183 30.6737 40.826C30.6737 39.4173 30.0022 38.4338 28.8542 37.6841C27.7496 36.9627 26.6969 36.1592 25.6189 35.3953C24.6867 34.7349 23.7461 34.0858 22.8168 33.4211C21.9224 32.7834 21.0603 32.0946 20.1394 31.4979C18.6311 30.5215 17.2391 29.3806 15.7392 28.3928C14.8224 27.7891 13.9856 27.0592 13.0534 26.4838C11.8997 25.771 10.8834 24.8682 9.73114 24.1539C9.18167 23.8138 8.58173 23.4042 8.54385 22.6346C8.50322 21.8056 9.02466 21.3521 9.65685 20.9212C10.3984 20.4153 11.1525 19.9264 11.8408 19.334C12.4114 18.8422 13.0814 18.4681 13.7024 18.0344C14.6472 17.3739 15.592 16.7121 16.5298 16.0403C17.4255 15.3997 18.4236 15.2014 19.4483 15.5344C19.9978 15.713 20.4744 16.1282 20.9706 16.4584C21.7696 16.9885 22.5911 17.4944 23.3424 18.0883C24.0573 18.6537 24.8087 19.1625 25.5432 19.6982C26.4754 20.377 27.4188 21.0403 28.3538 21.7149C29.2832 22.3852 30.2125 23.0584 31.1573 23.6976C32.6797 24.7279 34.1403 25.8461 35.664 26.8735C36.5458 27.4688 37.3966 28.1264 38.27 28.733C38.975 29.2219 39.6983 29.7037 40.3993 30.1997C41.0258 30.6433 41.6468 31.1082 42.2748 31.5532C43.0542 32.1073 43.8672 32.6232 44.6284 33.1958C45.8634 34.124 47.2007 34.9092 48.3711 35.9196C49.1463 36.5886 49.5388 37.4417 49.536 38.5103C49.5206 45.4688 49.5276 52.4288 49.5276 59.3875Z"
    fill="#464B4E"
  />
<path
    d="M18.7846 63.9891C18.7846 69.4209 18.7804 74.8543 18.7902 80.2867C18.7916 80.8798 18.6938 81.4331 18.1673 81.7485C17.4761 82.1635 16.7694 82.0348 16.1284 81.5822C15.3827 81.0558 14.5853 80.5897 13.88 80.024C12.8857 79.228 11.802 78.5606 10.7867 77.7979C10.2546 77.3985 9.63322 77.0524 9.10254 76.6558C8.44058 76.1627 7.7214 75.7494 7.08038 75.2187C6.26899 74.547 5.30399 74.0642 4.47446 73.4135C3.82228 72.9005 3.10726 72.4861 2.45369 71.9748C1.89508 71.5377 1.25687 71.204 0.754124 70.69C0.230426 70.1556 0.00698257 69.4866 0.00698257 68.7632C-4.01041e-08 57.7386 0.00279305 46.7151 0 35.6918C0 35.0494 0.244391 34.5076 0.825342 34.2912C1.3281 34.1041 1.8462 34.1027 2.4118 34.4616C3.52901 35.1695 4.57361 35.9767 5.65171 36.7321C6.92256 37.6217 8.19621 38.5111 9.46286 39.4063C10.5508 40.1743 11.6302 40.9647 12.7558 41.6838C13.651 42.2563 14.461 42.9629 15.3575 43.5327C16.1256 44.0214 16.8379 44.587 17.6059 45.0771C18.0808 45.3788 18.3684 45.9136 18.5807 46.468C18.853 47.1801 18.7832 47.9104 18.7846 48.6394C18.7874 53.7559 18.7846 58.8722 18.7846 63.9891Z"
    fill="#464B4E"
  />
</svg>
