<svg viewBox="0 0 77 18" fill="none" xmlns="http://www.w3.org/2000/svg">
<path
    d="M31.0396 11.5645L31.0279 6.64642L28.6156 10.698H27.7608L25.3603 6.75181V11.5645H23.5804V3.36766H25.1495L28.2175 8.46144L31.2387 3.36766H32.7961L32.8195 11.5645H31.0396ZM40.4904 11.7051C39.6394 11.7051 38.8704 11.5216 38.1836 11.1547C37.5044 10.7878 36.9696 10.2843 36.5793 9.64414C36.1967 8.9962 36.0055 8.27019 36.0055 7.4661C36.0055 6.66202 36.1967 5.93993 36.5793 5.29978C36.9696 4.65184 37.5044 4.14441 38.1836 3.7775C38.8704 3.4106 39.6394 3.22714 40.4904 3.22714C41.3412 3.22714 42.1063 3.4106 42.7855 3.7775C43.4647 4.14441 43.9993 4.65184 44.3898 5.29978C44.78 5.93993 44.9753 6.66202 44.9753 7.4661C44.9753 8.27019 44.78 8.9962 44.3898 9.64414C43.9993 10.2843 43.4647 10.7878 42.7855 11.1547C42.1063 11.5216 41.3412 11.7051 40.4904 11.7051ZM40.4904 10.0891C40.9743 10.0891 41.4115 9.97982 41.8019 9.76123C42.1922 9.53485 42.4966 9.22258 42.7153 8.82445C42.9416 8.42631 43.0548 7.97353 43.0548 7.4661C43.0548 6.95868 42.9416 6.5059 42.7153 6.10776C42.4966 5.70963 42.1922 5.40127 41.8019 5.18269C41.4115 4.9563 40.9743 4.8431 40.4904 4.8431C40.0063 4.8431 39.5692 4.9563 39.1789 5.18269C38.7885 5.40127 38.4802 5.70963 38.2538 6.10776C38.0352 6.5059 37.9259 6.95868 37.9259 7.4661C37.9259 7.97353 38.0352 8.42631 38.2538 8.82445C38.4802 9.22258 38.7885 9.53485 39.1789 9.76123C39.5692 9.97982 40.0063 10.0891 40.4904 10.0891ZM55.675 3.36766V11.5645H54.1176L50.0309 6.58787V11.5645H48.1573V3.36766H49.7264L53.8014 8.34434V3.36766H55.675ZM65.7177 10.0423V11.5645H59.3709V3.36766H65.5654V4.88994H61.2562V6.66984H65.0619V8.14528H61.2562V10.0423H65.7177ZM72.8379 8.66051V11.5645H70.9409V8.63709L67.7676 3.36766H69.7817L71.9714 7.00942L74.1611 3.36766H76.023L72.8379 8.66051Z"
    fill="#186AB4"
  />
<path
    d="M27.2429 13.631V17.4884H26.8516V14.4025L25.3362 16.9979H25.1434L23.628 14.419V17.4884H23.2367V13.631H23.5729L25.2481 16.491L26.9067 13.631H27.2429ZM31.4698 16.4579H29.3207L28.8579 17.4884H28.4336L30.1969 13.631H30.5992L32.3625 17.4884H31.9327L31.4698 16.4579ZM31.3211 16.1273L30.3953 14.0553L29.4695 16.1273H31.3211ZM36.1857 17.4884L35.3041 16.2485C35.2049 16.2595 35.102 16.265 34.9955 16.265H33.9595V17.4884H33.5517V13.631H34.9955C35.4877 13.631 35.8734 13.7485 36.1527 13.9837C36.4319 14.2189 36.5715 14.542 36.5715 14.9535C36.5715 15.2548 36.4943 15.5101 36.34 15.7195C36.1895 15.9252 35.9726 16.074 35.6898 16.1659L36.6321 17.4884H36.1857ZM34.9845 15.9179C35.3665 15.9179 35.6585 15.8334 35.8606 15.6644C36.0627 15.4954 36.1637 15.2584 36.1637 14.9535C36.1637 14.6412 36.0627 14.4025 35.8606 14.2372C35.6585 14.0681 35.3665 13.9837 34.9845 13.9837H33.9595V15.9179H34.9845ZM39.2807 15.6754L38.4927 16.4744V17.4884H38.0849V13.631H38.4927V15.962L40.7575 13.631H41.2259L39.5562 15.3779L41.3417 17.4884H40.8567L39.2807 15.6754ZM45.2814 17.1357V17.4884H42.5537V13.631H45.1987V13.9837H42.9615V15.3558H44.9563V15.703H42.9615V17.1357H45.2814ZM47.5404 13.9837H46.1848V13.631H49.3038V13.9837H47.9482V17.4884H47.5404V13.9837ZM51.5106 17.5214C51.2241 17.5214 50.9485 17.4756 50.684 17.3837C50.4231 17.2918 50.2212 17.1706 50.0779 17.02L50.2377 16.7059C50.3772 16.8454 50.5628 16.9594 50.7943 17.0475C51.0257 17.132 51.2644 17.1743 51.5106 17.1743C51.8559 17.1743 52.1148 17.1119 52.2876 16.9869C52.4602 16.8584 52.5466 16.6931 52.5466 16.491C52.5466 16.3367 52.4988 16.2137 52.4033 16.1218C52.3114 16.0299 52.1975 15.9602 52.0617 15.9124C51.9257 15.861 51.7366 15.8059 51.4941 15.7471C51.2038 15.6736 50.9724 15.6038 50.7998 15.5377C50.627 15.4678 50.4782 15.3631 50.3534 15.2236C50.2322 15.084 50.1716 14.8947 50.1716 14.656C50.1716 14.4613 50.223 14.285 50.3259 14.127C50.4286 13.9654 50.5866 13.8367 50.7998 13.7412C51.0127 13.6458 51.2773 13.598 51.5933 13.598C51.8137 13.598 52.0286 13.6292 52.238 13.6916C52.451 13.7505 52.6348 13.8331 52.7891 13.9396L52.6513 14.2647C52.4896 14.1582 52.3169 14.0792 52.1333 14.0278C51.9495 13.9727 51.7696 13.9451 51.5933 13.9451C51.2552 13.9451 50.9999 14.0112 50.8273 14.1435C50.6583 14.272 50.5738 14.4393 50.5738 14.645C50.5738 14.7993 50.6197 14.9242 50.7116 15.0197C50.8071 15.1116 50.9246 15.1832 51.0643 15.2346C51.2075 15.2824 51.3985 15.3356 51.6374 15.3944C51.9202 15.4642 52.1479 15.5339 52.3207 15.6038C52.497 15.6699 52.6458 15.7728 52.767 15.9124C52.8882 16.0483 52.9489 16.2338 52.9489 16.4689C52.9489 16.6636 52.8955 16.8419 52.7891 17.0035C52.6861 17.1615 52.5263 17.2882 52.3096 17.3837C52.0928 17.4756 51.8265 17.5214 51.5106 17.5214Z"
    fill="#186AB4"
  />
<path
    d="M17.9946 12.0415C17.9946 13.8767 17.9952 15.7116 17.9919 17.547C17.9919 17.6171 18.0168 17.6821 17.9793 17.7646C17.8662 18.016 17.6284 18.0705 17.399 17.9064C17.239 17.7918 17.0787 17.6759 16.9131 17.5679C16.7256 17.4458 16.5485 17.3075 16.365 17.1791C16.2494 17.0981 16.1207 17.0324 16.015 16.9404C15.8628 16.8078 15.6766 16.7275 15.5247 16.5944C15.4273 16.5087 15.3054 16.4514 15.1978 16.3764C15.0582 16.2789 14.9232 16.1742 14.7839 16.0761C14.6326 15.9699 14.4732 15.8743 14.3267 15.7618C14.1695 15.6413 13.9735 15.5591 13.8841 15.3656C13.8351 15.2594 13.7891 15.1545 13.7891 15.0279C13.793 12.381 13.7889 9.73428 13.7957 7.08727C13.7967 6.74089 13.6476 6.51008 13.3698 6.32973C13.1545 6.18987 12.9548 6.02666 12.7382 5.8893C12.4011 5.6753 12.0848 5.43235 11.7549 5.20807C11.5011 5.03551 11.2524 4.85547 10.998 4.68322C10.7549 4.51876 10.5093 4.35647 10.2743 4.18235C10.0446 4.01198 9.80963 3.84813 9.57557 3.68492C9.36965 3.54132 9.16777 3.38962 8.95279 3.25755C8.76499 3.14231 8.59062 3.00556 8.40999 2.87848C8.24656 2.76385 8.08344 2.64922 7.91939 2.53552C7.77095 2.43243 7.62316 2.32777 7.47441 2.22498C7.28285 2.0926 7.0913 1.95897 6.90475 1.81881C6.69256 1.65932 6.70538 1.41699 6.90161 1.27339C7.25473 1.01548 7.61722 0.770653 7.97563 0.519907C8.18594 0.372575 8.39406 0.221815 8.60687 0.0782208C8.78904 -0.0445045 9.19215 -0.0158479 9.37214 0.115599C9.52745 0.228979 9.69276 0.32772 9.84994 0.43861C10.0346 0.568811 10.2137 0.707109 10.3984 0.83731C10.5552 0.947888 10.7183 1.05006 10.8761 1.15939C11.0311 1.26654 11.1824 1.3793 11.3368 1.48738C11.5305 1.62319 11.7258 1.75651 11.9202 1.89169C12.0715 1.99697 12.2218 2.1035 12.3735 2.20846C12.4915 2.28977 12.6117 2.36764 12.7288 2.44988C12.9264 2.58848 13.1204 2.73208 13.3191 2.86913C13.4732 2.97503 13.6298 3.07907 13.7798 3.18902C13.9361 3.30334 14.0995 3.40832 14.2526 3.52729C14.3957 3.6385 14.5528 3.73194 14.7026 3.83536C14.8588 3.94314 15.0132 4.05402 15.1692 4.16273C15.3219 4.26926 15.4757 4.37516 15.6288 4.48106C15.7719 4.58012 15.9153 4.67917 16.0581 4.77884C16.2712 4.92742 16.484 5.07632 16.6963 5.22583C16.8378 5.32551 16.9775 5.42798 17.1196 5.52704C17.2713 5.63294 17.4269 5.73261 17.5765 5.84132C17.7259 5.94972 17.8859 6.05252 17.9465 6.24127C17.9759 6.33254 17.9968 6.42692 17.9943 6.52441C17.9933 6.55587 17.994 6.58702 17.994 6.61848C17.9946 8.42572 17.9946 10.2336 17.9946 12.0415Z"
    fill="#186AB4"
  />
<path
    d="M10.8719 13.0363C10.8719 14.5833 10.8688 16.1304 10.875 17.6775C10.8759 17.9404 10.6202 18.0346 10.4556 17.9889C10.299 17.9456 10.1808 17.8352 10.0565 17.7425C9.90265 17.628 9.74295 17.5232 9.58786 17.4106C9.35031 17.238 9.11061 17.0684 8.86814 16.9026C8.69212 16.7822 8.52042 16.6552 8.34226 16.5373C8.11794 16.3883 7.90716 16.2185 7.68778 16.0617C7.52284 15.9438 7.35237 15.834 7.18621 15.7179C6.99574 15.5844 6.81142 15.441 6.74895 15.2012C6.73203 15.1365 6.69849 15.0649 6.72957 14.9887C6.74187 14.9585 6.73295 14.919 6.73295 14.8838C6.73295 12.9099 6.73295 10.9357 6.73326 8.96181C6.73326 8.65259 6.58587 8.43668 6.33386 8.27212C6.09138 8.11377 5.8603 7.93738 5.62367 7.7697C5.41905 7.62473 5.21257 7.48224 5.00857 7.33634C4.81225 7.19635 4.62301 7.04516 4.42084 6.91418C4.08976 6.69984 3.7842 6.4494 3.45496 6.23257C3.25371 6.10004 3.07001 5.93983 2.86538 5.81352C2.61214 5.65704 2.38905 5.45887 2.13611 5.30208C2.0155 5.22741 1.8838 5.1375 1.87549 4.96858C1.86657 4.7866 1.98103 4.68704 2.11981 4.59247C2.28259 4.48141 2.44813 4.37408 2.59921 4.24404C2.72446 4.13609 2.87153 4.05396 3.00785 3.95877C3.21525 3.81379 3.42264 3.66851 3.62849 3.52105C3.82512 3.38043 4.04421 3.33688 4.26914 3.40999C4.38977 3.44919 4.49439 3.54034 4.60331 3.61282C4.77871 3.72918 4.95903 3.84024 5.12396 3.97059C5.28089 4.09472 5.44582 4.2064 5.60705 4.32399C5.81168 4.473 6.01876 4.61861 6.224 4.76668C6.42802 4.91383 6.63203 5.0616 6.83942 5.20191C7.17359 5.42808 7.49422 5.67353 7.8287 5.89907C8.02225 6.02973 8.20903 6.17408 8.40073 6.30724C8.55551 6.41457 8.71428 6.52034 8.86814 6.62921C9.00568 6.72659 9.14199 6.82863 9.27985 6.92632C9.45093 7.04795 9.6294 7.16119 9.79649 7.28688C10.0676 7.49064 10.3611 7.66299 10.6181 7.8848C10.7882 8.03163 10.8744 8.21892 10.8738 8.45348C10.8704 9.98097 10.8719 11.5088 10.8719 13.0363Z"
    fill="#186AB4"
  />
<path
    d="M4.12346 14.0464C4.12346 15.2387 4.12253 16.4314 4.12469 17.6239C4.12499 17.7541 4.10352 17.8756 3.98795 17.9448C3.83622 18.0359 3.68109 18.0077 3.54039 17.9083C3.37668 17.7927 3.20165 17.6904 3.04684 17.5663C2.82857 17.3915 2.59068 17.245 2.36782 17.0776C2.25102 16.9899 2.11461 16.914 1.99812 16.8269C1.85281 16.7187 1.69494 16.6279 1.55423 16.5114C1.37612 16.364 1.16429 16.258 0.982199 16.1152C0.839038 16.0026 0.682082 15.9116 0.538615 15.7994C0.415993 15.7034 0.275899 15.6302 0.165539 15.5173C0.0505813 15.4 0.00153276 15.2532 0.00153276 15.0944C-8.80334e-09 12.6743 0.000613108 10.2546 0 7.83479C0 7.69378 0.0536469 7.57485 0.181173 7.52734C0.291533 7.48627 0.405263 7.48596 0.529419 7.56474C0.774662 7.72015 1.00396 7.89733 1.24062 8.06316C1.51959 8.25842 1.79917 8.45367 2.07721 8.65016C2.31602 8.81876 2.55298 8.99225 2.80006 9.15012C2.99656 9.27579 3.17437 9.4309 3.37117 9.55597C3.53978 9.66325 3.69612 9.7874 3.86472 9.89499C3.96896 9.9612 4.0321 10.0786 4.0787 10.2003C4.13847 10.3566 4.12315 10.5169 4.12346 10.677C4.12407 11.8001 4.12346 12.9232 4.12346 14.0464Z"
    fill="#186AB4"
  />
</svg>
