<svg viewBox="0 0 16 16" fill="none" xmlns="http://www.w3.org/2000/svg">
<path d="M0.797277 1.59455C1.2376 1.59455 1.59455 1.2376 1.59455 0.797277C1.59455 0.356953 1.2376 0 0.797277 0C0.356953 0 0 0.356953 0 0.797277C0 1.2376 0.356953 1.59455 0.797277 1.59455Z" fill="#464B4E"/>
<path d="M3.16495 4.01057C3.60528 4.01057 3.96223 3.65362 3.96223 3.21329C3.96223 2.77297 3.60528 2.41602 3.16495 2.41602C2.72463 2.41602 2.36768 2.77297 2.36768 3.21329C2.36768 3.65362 2.72463 4.01057 3.16495 4.01057Z" fill="#464B4E"/>
<path d="M3.16495 1.59455C3.60528 1.59455 3.96223 1.2376 3.96223 0.797277C3.96223 0.356953 3.60528 0 3.16495 0C2.72463 0 2.36768 0.356953 2.36768 0.797277C2.36768 1.2376 2.72463 1.59455 3.16495 1.59455Z" fill="#464B4E"/>
<path d="M5.58097 4.01057C6.02129 4.01057 6.37825 3.65362 6.37825 3.21329C6.37825 2.77297 6.02129 2.41602 5.58097 2.41602C5.14064 2.41602 4.78369 2.77297 4.78369 3.21329C4.78369 3.65362 5.14064 4.01057 5.58097 4.01057Z" fill="#464B4E"/>
<path d="M5.58097 6.37825C6.02129 6.37825 6.37825 6.02129 6.37825 5.58097C6.37825 5.14064 6.02129 4.78369 5.58097 4.78369C5.14064 4.78369 4.78369 5.14064 4.78369 5.58097C4.78369 6.02129 5.14064 6.37825 5.58097 6.37825Z" fill="#464B4E"/>
<path d="M5.58097 1.59455C6.02129 1.59455 6.37825 1.2376 6.37825 0.797277C6.37825 0.356953 6.02129 0 5.58097 0C5.14064 0 4.78369 0.356953 4.78369 0.797277C4.78369 1.2376 5.14064 1.59455 5.58097 1.59455Z" fill="#464B4E"/>
<path d="M7.94864 4.01057C8.38897 4.01057 8.74592 3.65362 8.74592 3.21329C8.74592 2.77297 8.38897 2.41602 7.94864 2.41602C7.50832 2.41602 7.15137 2.77297 7.15137 3.21329C7.15137 3.65362 7.50832 4.01057 7.94864 4.01057Z" fill="#464B4E"/>
<path d="M7.94864 6.37825C8.38897 6.37825 8.74592 6.02129 8.74592 5.58097C8.74592 5.14064 8.38897 4.78369 7.94864 4.78369C7.50832 4.78369 7.15137 5.14064 7.15137 5.58097C7.15137 6.02129 7.50832 6.37825 7.94864 6.37825Z" fill="#464B4E"/>
<path d="M7.94864 1.59455C8.38897 1.59455 8.74592 1.2376 8.74592 0.797277C8.74592 0.356953 8.38897 0 7.94864 0C7.50832 0 7.15137 0.356953 7.15137 0.797277C7.15137 1.2376 7.50832 1.59455 7.94864 1.59455Z" fill="#464B4E"/>
<path d="M10.3163 4.01057C10.7566 4.01057 11.1136 3.65362 11.1136 3.21329C11.1136 2.77297 10.7566 2.41602 10.3163 2.41602C9.876 2.41602 9.51904 2.77297 9.51904 3.21329C9.51904 3.65362 9.876 4.01057 10.3163 4.01057Z" fill="#464B4E"/>
<path d="M10.3163 6.37825C10.7566 6.37825 11.1136 6.02129 11.1136 5.58097C11.1136 5.14064 10.7566 4.78369 10.3163 4.78369C9.876 4.78369 9.51904 5.14064 9.51904 5.58097C9.51904 6.02129 9.876 6.37825 10.3163 6.37825Z" fill="#464B4E"/>
<path d="M7.94864 8.74592C8.38897 8.74592 8.74592 8.38897 8.74592 7.94864C8.74592 7.50832 8.38897 7.15137 7.94864 7.15137C7.50832 7.15137 7.15137 7.50832 7.15137 7.94864C7.15137 8.38897 7.50832 8.74592 7.94864 8.74592Z" fill="#464B4E"/>
<path d="M10.3163 8.74592C10.7566 8.74592 11.1136 8.38897 11.1136 7.94864C11.1136 7.50832 10.7566 7.15137 10.3163 7.15137C9.876 7.15137 9.51904 7.50832 9.51904 7.94864C9.51904 8.38897 9.876 8.74592 10.3163 8.74592Z" fill="#464B4E"/>
<path d="M5.58102 11.162C6.02138 11.162 6.37835 10.8051 6.37835 10.3647C6.37835 9.92436 6.02138 9.56738 5.58102 9.56738C5.14067 9.56738 4.78369 9.92436 4.78369 10.3647C4.78369 10.8051 5.14067 11.162 5.58102 11.162Z" fill="#464B4E"/>
<path d="M7.9487 11.162C8.38905 11.162 8.74603 10.8051 8.74603 10.3647C8.74603 9.92436 8.38905 9.56738 7.9487 9.56738C7.50834 9.56738 7.15137 9.92436 7.15137 10.3647C7.15137 10.8051 7.50834 11.162 7.9487 11.162Z" fill="#464B4E"/>
<path d="M10.3164 11.162C10.7567 11.162 11.1137 10.8051 11.1137 10.3647C11.1137 9.92436 10.7567 9.56738 10.3164 9.56738C9.87602 9.56738 9.51904 9.92436 9.51904 10.3647C9.51904 10.8051 9.87602 11.162 10.3164 11.162Z" fill="#464B4E"/>
<path d="M3.16495 13.5325C3.60528 13.5325 3.96223 13.1756 3.96223 12.7353C3.96223 12.2949 3.60528 11.938 3.16495 11.938C2.72463 11.938 2.36768 12.2949 2.36768 12.7353C2.36768 13.1756 2.72463 13.5325 3.16495 13.5325Z" fill="#464B4E"/>
<path d="M5.58097 13.5325C6.02129 13.5325 6.37825 13.1756 6.37825 12.7353C6.37825 12.2949 6.02129 11.938 5.58097 11.938C5.14064 11.938 4.78369 12.2949 4.78369 12.7353C4.78369 13.1756 5.14064 13.5325 5.58097 13.5325Z" fill="#464B4E"/>
<path d="M7.94864 13.5325C8.38897 13.5325 8.74592 13.1756 8.74592 12.7353C8.74592 12.2949 8.38897 11.938 7.94864 11.938C7.50832 11.938 7.15137 12.2949 7.15137 12.7353C7.15137 13.1756 7.50832 13.5325 7.94864 13.5325Z" fill="#464B4E"/>
<path d="M10.3163 13.5325C10.7566 13.5325 11.1136 13.1756 11.1136 12.7353C11.1136 12.2949 10.7566 11.938 10.3163 11.938C9.876 11.938 9.51904 12.2949 9.51904 12.7353C9.51904 13.1756 9.876 13.5325 10.3163 13.5325Z" fill="#464B4E"/>
<path d="M12.7836 6.37825C13.2239 6.37825 13.5809 6.02129 13.5809 5.58097C13.5809 5.14064 13.2239 4.78369 12.7836 4.78369C12.3433 4.78369 11.9863 5.14064 11.9863 5.58097C11.9863 6.02129 12.3433 6.37825 12.7836 6.37825Z" fill="#464B4E"/>
<path d="M12.7836 8.74592C13.2239 8.74592 13.5809 8.38897 13.5809 7.94864C13.5809 7.50832 13.2239 7.15137 12.7836 7.15137C12.3433 7.15137 11.9863 7.50832 11.9863 7.94864C11.9863 8.38897 12.3433 8.74592 12.7836 8.74592Z" fill="#464B4E"/>
<path d="M12.7837 11.162C13.224 11.162 13.581 10.8051 13.581 10.3647C13.581 9.92436 13.224 9.56738 12.7837 9.56738C12.3433 9.56738 11.9863 9.92436 11.9863 10.3647C11.9863 10.8051 12.3433 11.162 12.7837 11.162Z" fill="#464B4E"/>
<path d="M0.797331 15.9999C1.23768 15.9999 1.59466 15.643 1.59466 15.2026C1.59466 14.7623 1.23768 14.4053 0.797331 14.4053C0.356977 14.4053 0 14.7623 0 15.2026C0 15.643 0.356977 15.9999 0.797331 15.9999Z" fill="#464B4E"/>
<path d="M3.16501 15.9999C3.60536 15.9999 3.96234 15.643 3.96234 15.2026C3.96234 14.7623 3.60536 14.4053 3.16501 14.4053C2.72465 14.4053 2.36768 14.7623 2.36768 15.2026C2.36768 15.643 2.72465 15.9999 3.16501 15.9999Z" fill="#464B4E"/>
<path d="M5.58102 15.9999C6.02138 15.9999 6.37835 15.643 6.37835 15.2026C6.37835 14.7623 6.02138 14.4053 5.58102 14.4053C5.14067 14.4053 4.78369 14.7623 4.78369 15.2026C4.78369 15.643 5.14067 15.9999 5.58102 15.9999Z" fill="#464B4E"/>
<path d="M7.9487 15.9999C8.38905 15.9999 8.74603 15.643 8.74603 15.2026C8.74603 14.7623 8.38905 14.4053 7.9487 14.4053C7.50834 14.4053 7.15137 14.7623 7.15137 15.2026C7.15137 15.643 7.50834 15.9999 7.9487 15.9999Z" fill="#464B4E"/>
<path d="M15.1547 8.74592C15.595 8.74592 15.952 8.38897 15.952 7.94864C15.952 7.50832 15.595 7.15137 15.1547 7.15137C14.7144 7.15137 14.3574 7.50832 14.3574 7.94864C14.3574 8.38897 14.7144 8.74592 15.1547 8.74592Z" fill="#464B4E"/>
</svg>
