<svg
    fill="none"
    version="1.1"
    viewBox="0 0 21 21.064"
    xmlns="http://www.w3.org/2000/svg"
>
    <g id="one" fill="white" opacity="0.8">
    <path d="m1.0496 2.0992c0.57968 0 1.0496-0.46992 1.0496-1.0496 0-0.57967-0.46992-1.0496-1.0496-1.0496-0.57967 0-1.0496 0.46992-1.0496 1.0496 0 0.57968 0.46992 1.0496 1.0496 1.0496z" />
    <path d="m4.1667 5.2797c0.57967 0 1.0496-0.46992 1.0496-1.0496 0-0.57968-0.46992-1.0496-1.0496-1.0496-0.57968 0-1.0496 0.46992-1.0496 1.0496 0 0.57967 0.46991 1.0496 1.0496 1.0496z" />
    <path d="m7.3474 8.3968c0.57968 0 1.0496-0.46992 1.0496-1.0496s-0.46992-1.0496-1.0496-1.0496c-0.57967 0-1.0496 0.46992-1.0496 1.0496s0.46992 1.0496 1.0496 1.0496z" />
    <path d="m10.464 11.514c0.5797 0 1.0496-0.47 1.0496-1.0496 0-0.57971-0.4699-1.0496-1.0496-1.0496-0.57969 0-1.0496 0.46992-1.0496 1.0496 0 0.5796 0.46992 1.0496 1.0496 1.0496z" />
    <path d="m7.3473 14.694c0.57972 0 1.0497-0.47 1.0497-1.0497s-0.46995-1.0497-1.0497-1.0497c-0.57971 0-1.0497 0.47-1.0497 1.0497s0.46995 1.0497 1.0497 1.0497z" />
    <path d="m4.1667 17.815c0.57967 0 1.0496-0.4699 1.0496-1.0495 0-0.5797-0.46992-1.0496-1.0496-1.0496-0.57968 0-1.0496 0.4699-1.0496 1.0496 0 0.5796 0.46991 1.0495 1.0496 1.0495z" />
    <path d="m1.0497 21.064c0.57972 0 1.0497-0.47 1.0497-1.0497s-0.46995-1.0497-1.0497-1.0497c-0.57971 0-1.0497 0.47-1.0497 1.0497s0.46995 1.0497 1.0497 1.0497z" />
    <animate
        attributeName="opacity"
        from="0.3"
        to="1"
        dur="1s"
        repeatCount="indefinite"
    />
    </g>
    <g id="two" fill="white" opacity="0.6">
    <path d="m4.1667 2.0992c0.57967 0 1.0496-0.46992 1.0496-1.0496 0-0.57967-0.46992-1.0496-1.0496-1.0496-0.57968 0-1.0496 0.46992-1.0496 1.0496 0 0.57968 0.46991 1.0496 1.0496 1.0496z" />
    <path d="m7.3474 5.2797c0.57968 0 1.0496-0.46992 1.0496-1.0496 0-0.57968-0.46992-1.0496-1.0496-1.0496-0.57967 0-1.0496 0.46992-1.0496 1.0496 0 0.57967 0.46992 1.0496 1.0496 1.0496z" />
    <path d="m10.464 8.3968c0.5797 0 1.0496-0.46992 1.0496-1.0496s-0.4699-1.0496-1.0496-1.0496c-0.57969 0-1.0496 0.46992-1.0496 1.0496s0.46992 1.0496 1.0496 1.0496z" />
    <path d="m13.581 11.514c0.5797 0 1.0496-0.47 1.0496-1.0496 0-0.57971-0.4699-1.0496-1.0496-1.0496-0.5796 0-1.0496 0.46992-1.0496 1.0496 0 0.5796 0.47 1.0496 1.0496 1.0496z" />
    <path d="m10.464 14.694c0.5798 0 1.0497-0.47 1.0497-1.0497s-0.4699-1.0497-1.0497-1.0497c-0.57968 0-1.0496 0.47-1.0496 1.0497s0.46995 1.0497 1.0496 1.0497z" />
    <path d="m7.3474 17.815c0.57968 0 1.0496-0.4699 1.0496-1.0495 0-0.5797-0.46992-1.0496-1.0496-1.0496-0.57967 0-1.0496 0.4699-1.0496 1.0496 0 0.5796 0.46992 1.0495 1.0496 1.0495z" />
    <path d="m4.1667 21.064c0.57971 0 1.0497-0.47 1.0497-1.0497s-0.46995-1.0497-1.0497-1.0497-1.0497 0.47-1.0497 1.0497 0.46996 1.0497 1.0497 1.0497z" />
    <animate
        attributeName="opacity"
        from="0.3"
        to="1"
        dur="1s"
        repeatCount="indefinite"
    />
    </g>
    <g id="three" fill="white" opacity="0.4">
    <path d="m7.3474 2.0992c0.57968 0 1.0496-0.46992 1.0496-1.0496 0-0.57967-0.46992-1.0496-1.0496-1.0496-0.57967 0-1.0496 0.46992-1.0496 1.0496 0 0.57968 0.46992 1.0496 1.0496 1.0496z" />
    <path d="m10.464 5.2797c0.5797 0 1.0496-0.46992 1.0496-1.0496 0-0.57968-0.4699-1.0496-1.0496-1.0496-0.57969 0-1.0496 0.46992-1.0496 1.0496 0 0.57967 0.46992 1.0496 1.0496 1.0496z" />
    <path d="m13.581 8.3968c0.5797 0 1.0496-0.46992 1.0496-1.0496s-0.4699-1.0496-1.0496-1.0496c-0.5796 0-1.0496 0.46992-1.0496 1.0496s0.47 1.0496 1.0496 1.0496z" />
    <path d="m13.581 14.694c0.5797 0 1.0496-0.47 1.0496-1.0497s-0.4699-1.0497-1.0496-1.0497-1.0497 0.47-1.0497 1.0497 0.47 1.0497 1.0497 1.0497z" />
    <path d="m10.464 17.815c0.5797 0 1.0496-0.4699 1.0496-1.0495 0-0.5797-0.4699-1.0496-1.0496-1.0496-0.57969 0-1.0496 0.4699-1.0496 1.0496 0 0.5796 0.46992 1.0495 1.0496 1.0495z" />
    <path d="m16.83 11.514c0.5796 0 1.0496-0.47 1.0496-1.0496 0-0.57971-0.47-1.0496-1.0496-1.0496-0.5797 0-1.0496 0.46992-1.0496 1.0496 0 0.5796 0.4699 1.0496 1.0496 1.0496z" />
    <path d="m7.3473 21.064c0.57972 0 1.0497-0.47 1.0497-1.0497s-0.46995-1.0497-1.0497-1.0497c-0.57971 0-1.0497 0.47-1.0497 1.0497s0.46995 1.0497 1.0497 1.0497z" />
    <animate
        attributeName="opacity"
        begin="0.4s"
        from="0.3"
        to="1"
        dur="1s"
        repeatCount="indefinite"
    />
    </g>
    <g id="four" fill="white" opacity="0.3">
    <path d="m10.464 2.0992c0.5797 0 1.0496-0.46992 1.0496-1.0496 0-0.57967-0.4699-1.0496-1.0496-1.0496-0.57969 0-1.0496 0.46992-1.0496 1.0496 0 0.57968 0.46992 1.0496 1.0496 1.0496z" />
    <path d="m13.581 5.2797c0.5797 0 1.0496-0.46992 1.0496-1.0496 0-0.57968-0.4699-1.0496-1.0496-1.0496-0.5796 0-1.0496 0.46992-1.0496 1.0496 0 0.57967 0.47 1.0496 1.0496 1.0496z" />
    <path d="m13.581 17.815c0.5797 0 1.0496-0.4699 1.0496-1.0495 0-0.5797-0.4699-1.0496-1.0496-1.0496-0.5796 0-1.0496 0.4699-1.0496 1.0496 0 0.5796 0.47 1.0495 1.0496 1.0495z" />
    <path d="m16.83 8.3968c0.5796 0 1.0496-0.46992 1.0496-1.0496s-0.47-1.0496-1.0496-1.0496c-0.5797 0-1.0496 0.46992-1.0496 1.0496s0.4699 1.0496 1.0496 1.0496z" />
    <path d="m16.83 14.694c0.5797 0 1.0496-0.47 1.0496-1.0497s-0.4699-1.0497-1.0496-1.0497-1.0497 0.47-1.0497 1.0497 0.47 1.0497 1.0497 1.0497z" />
    <path d="m10.464 21.064c0.5798 0 1.0497-0.47 1.0497-1.0497s-0.4699-1.0497-1.0497-1.0497c-0.57968 0-1.0496 0.47-1.0496 1.0497s0.46995 1.0497 1.0496 1.0497z" />
    <path d="m19.95 11.514c0.5797 0 1.0496-0.47 1.0496-1.0496 0-0.57971-0.4699-1.0496-1.0496-1.0496s-1.0496 0.46992-1.0496 1.0496c0 0.5796 0.4699 1.0496 1.0496 1.0496z" />
    <animate
        attributeName="opacity"
        begin="0.6s"
        from="0.3"
        to="1"
        dur="1s"
        repeatCount="indefinite"
    />
    </g>
</svg>