<svg viewBox="0 0 12 12" fill="none" xmlns="http://www.w3.org/2000/svg">
<path d="M0.598202 1.19592C0.928445 1.19592 1.19616 0.928201 1.19616 0.597958C1.19616 0.267715 0.928445 0 0.598202 0C0.267959 0 0.000244141 0.267715 0.000244141 0.597958C0.000244141 0.928201 0.267959 1.19592 0.598202 1.19592Z" fill="white"/>
<path d="M2.37384 3.00793C2.70408 3.00793 2.97179 2.74021 2.97179 2.40997C2.97179 2.07973 2.70408 1.81201 2.37384 1.81201C2.04359 1.81201 1.77588 2.07973 1.77588 2.40997C1.77588 2.74021 2.04359 3.00793 2.37384 3.00793Z" fill="white"/>
<path d="M2.37384 1.19592C2.70408 1.19592 2.97179 0.928201 2.97179 0.597958C2.97179 0.267715 2.70408 0 2.37384 0C2.04359 0 1.77588 0.267715 1.77588 0.597958C1.77588 0.928201 2.04359 1.19592 2.37384 1.19592Z" fill="white"/>
<path d="M4.18585 3.00793C4.51609 3.00793 4.78381 2.74021 4.78381 2.40997C4.78381 2.07973 4.51609 1.81201 4.18585 1.81201C3.85561 1.81201 3.58789 2.07973 3.58789 2.40997C3.58789 2.74021 3.85561 3.00793 4.18585 3.00793Z" fill="white"/>
<path d="M4.18585 4.78368C4.51609 4.78368 4.78381 4.51597 4.78381 4.18573C4.78381 3.85548 4.51609 3.58777 4.18585 3.58777C3.85561 3.58777 3.58789 3.85548 3.58789 4.18573C3.58789 4.51597 3.85561 4.78368 4.18585 4.78368Z" fill="white"/>
<path d="M4.18585 1.19592C4.51609 1.19592 4.78381 0.928201 4.78381 0.597958C4.78381 0.267715 4.51609 0 4.18585 0C3.85561 0 3.58789 0.267715 3.58789 0.597958C3.58789 0.928201 3.85561 1.19592 4.18585 1.19592Z" fill="white"/>
<path d="M5.96173 3.00793C6.29197 3.00793 6.55968 2.74021 6.55968 2.40997C6.55968 2.07973 6.29197 1.81201 5.96173 1.81201C5.63148 1.81201 5.36377 2.07973 5.36377 2.40997C5.36377 2.74021 5.63148 3.00793 5.96173 3.00793Z" fill="white"/>
<path d="M5.96173 4.78368C6.29197 4.78368 6.55968 4.51597 6.55968 4.18573C6.55968 3.85548 6.29197 3.58777 5.96173 3.58777C5.63148 3.58777 5.36377 3.85548 5.36377 4.18573C5.36377 4.51597 5.63148 4.78368 5.96173 4.78368Z" fill="white"/>
<path d="M5.96173 1.19592C6.29197 1.19592 6.55968 0.928201 6.55968 0.597958C6.55968 0.267715 6.29197 0 5.96173 0C5.63148 0 5.36377 0.267715 5.36377 0.597958C5.36377 0.928201 5.63148 1.19592 5.96173 1.19592Z" fill="white"/>
<path d="M7.73736 3.00793C8.06761 3.00793 8.33532 2.74021 8.33532 2.40997C8.33532 2.07973 8.06761 1.81201 7.73736 1.81201C7.40712 1.81201 7.1394 2.07973 7.1394 2.40997C7.1394 2.74021 7.40712 3.00793 7.73736 3.00793Z" fill="white"/>
<path d="M7.73736 4.78368C8.06761 4.78368 8.33532 4.51597 8.33532 4.18573C8.33532 3.85548 8.06761 3.58777 7.73736 3.58777C7.40712 3.58777 7.1394 3.85548 7.1394 4.18573C7.1394 4.51597 7.40712 4.78368 7.73736 4.78368Z" fill="white"/>
<path d="M5.96173 6.55944C6.29197 6.55944 6.55968 6.29173 6.55968 5.96148C6.55968 5.63124 6.29197 5.36353 5.96173 5.36353C5.63148 5.36353 5.36377 5.63124 5.36377 5.96148C5.36377 6.29173 5.63148 6.55944 5.96173 6.55944Z" fill="white"/>
<path d="M7.73736 6.55944C8.06761 6.55944 8.33532 6.29173 8.33532 5.96148C8.33532 5.63124 8.06761 5.36353 7.73736 5.36353C7.40712 5.36353 7.1394 5.63124 7.1394 5.96148C7.1394 6.29173 7.40712 6.55944 7.73736 6.55944Z" fill="white"/>
<path d="M4.18589 8.37141C4.51615 8.37141 4.78389 8.10368 4.78389 7.77341C4.78389 7.44315 4.51615 7.17542 4.18589 7.17542C3.85562 7.17542 3.58789 7.44315 3.58789 7.77341C3.58789 8.10368 3.85562 8.37141 4.18589 8.37141Z" fill="white"/>
<path d="M5.96177 8.37141C6.29203 8.37141 6.55977 8.10368 6.55977 7.77341C6.55977 7.44315 6.29203 7.17542 5.96177 7.17542C5.6315 7.17542 5.36377 7.44315 5.36377 7.77341C5.36377 8.10368 5.6315 8.37141 5.96177 8.37141Z" fill="white"/>
<path d="M7.7374 8.37141C8.06767 8.37141 8.3354 8.10368 8.3354 7.77341C8.3354 7.44315 8.06767 7.17542 7.7374 7.17542C7.40714 7.17542 7.1394 7.44315 7.1394 7.77341C7.1394 8.10368 7.40714 8.37141 7.7374 8.37141Z" fill="white"/>
<path d="M2.37384 10.1494C2.70408 10.1494 2.97179 9.88169 2.97179 9.55145C2.97179 9.22121 2.70408 8.95349 2.37384 8.95349C2.04359 8.95349 1.77588 9.22121 1.77588 9.55145C1.77588 9.88169 2.04359 10.1494 2.37384 10.1494Z" fill="white"/>
<path d="M4.18585 10.1494C4.51609 10.1494 4.78381 9.88169 4.78381 9.55145C4.78381 9.22121 4.51609 8.95349 4.18585 8.95349C3.85561 8.95349 3.58789 9.22121 3.58789 9.55145C3.58789 9.88169 3.85561 10.1494 4.18585 10.1494Z" fill="white"/>
<path d="M5.96173 10.1494C6.29197 10.1494 6.55968 9.88169 6.55968 9.55145C6.55968 9.22121 6.29197 8.95349 5.96173 8.95349C5.63148 8.95349 5.36377 9.22121 5.36377 9.55145C5.36377 9.88169 5.63148 10.1494 5.96173 10.1494Z" fill="white"/>
<path d="M7.73736 10.1494C8.06761 10.1494 8.33532 9.88169 8.33532 9.55145C8.33532 9.22121 8.06761 8.95349 7.73736 8.95349C7.40712 8.95349 7.1394 9.22121 7.1394 9.55145C7.1394 9.88169 7.40712 10.1494 7.73736 10.1494Z" fill="white"/>
<path d="M9.58795 4.78368C9.91819 4.78368 10.1859 4.51597 10.1859 4.18573C10.1859 3.85548 9.91819 3.58777 9.58795 3.58777C9.2577 3.58777 8.98999 3.85548 8.98999 4.18573C8.98999 4.51597 9.2577 4.78368 9.58795 4.78368Z" fill="white"/>
<path d="M9.58795 6.55944C9.91819 6.55944 10.1859 6.29173 10.1859 5.96148C10.1859 5.63124 9.91819 5.36353 9.58795 5.36353C9.2577 5.36353 8.98999 5.63124 8.98999 5.96148C8.98999 6.29173 9.2577 6.55944 9.58795 6.55944Z" fill="white"/>
<path d="M9.58774 8.37141C9.91801 8.37141 10.1857 8.10368 10.1857 7.77341C10.1857 7.44315 9.91801 7.17542 9.58774 7.17542C9.25748 7.17542 8.98975 7.44315 8.98975 7.77341C8.98975 8.10368 9.25748 8.37141 9.58774 8.37141Z" fill="white"/>
<path d="M0.597998 12C0.928263 12 1.196 11.7323 1.196 11.402C1.196 11.0718 0.928263 10.804 0.597998 10.804C0.267733 10.804 0 11.0718 0 11.402C0 11.7323 0.267733 12 0.597998 12Z" fill="white"/>
<path d="M2.37388 12C2.70414 12 2.97188 11.7323 2.97188 11.402C2.97188 11.0718 2.70414 10.804 2.37388 10.804C2.04361 10.804 1.77588 11.0718 1.77588 11.402C1.77588 11.7323 2.04361 12 2.37388 12Z" fill="white"/>
<path d="M4.18589 12C4.51615 12 4.78389 11.7323 4.78389 11.402C4.78389 11.0718 4.51615 10.804 4.18589 10.804C3.85562 10.804 3.58789 11.0718 3.58789 11.402C3.58789 11.7323 3.85562 12 4.18589 12Z" fill="white"/>
<path d="M5.96177 12C6.29203 12 6.55977 11.7323 6.55977 11.402C6.55977 11.0718 6.29203 10.804 5.96177 10.804C5.6315 10.804 5.36377 11.0718 5.36377 11.402C5.36377 11.7323 5.6315 12 5.96177 12Z" fill="white"/>
<path d="M11.366 6.55944C11.6963 6.55944 11.964 6.29173 11.964 5.96148C11.964 5.63124 11.6963 5.36353 11.366 5.36353C11.0358 5.36353 10.7681 5.63124 10.7681 5.96148C10.7681 6.29173 11.0358 6.55944 11.366 6.55944Z" fill="white"/>
</svg>
