<svg viewBox="0 0 12 12" fill="none" xmlns="http://www.w3.org/2000/svg">
<path d="M11.3654 10.8041C11.0352 10.8041 10.7675 11.0718 10.7675 11.402C10.7675 11.7323 11.0352 12 11.3654 12C11.6957 12 11.9634 11.7323 11.9634 11.402C11.9634 11.0718 11.6957 10.8041 11.3654 10.8041Z" fill="white"/>
<path d="M9.59003 8.99207C9.25979 8.99207 8.99207 9.25979 8.99207 9.59003C8.99207 9.92027 9.25979 10.188 9.59003 10.188C9.92027 10.188 10.188 9.92027 10.188 9.59003C10.188 9.25979 9.92027 8.99207 9.59003 8.99207Z" fill="white"/>
<path d="M9.59003 10.8041C9.25979 10.8041 8.99207 11.0718 8.99207 11.402C8.99207 11.7323 9.25979 12 9.59003 12C9.92027 12 10.188 11.7323 10.188 11.402C10.188 11.0718 9.92027 10.8041 9.59003 10.8041Z" fill="white"/>
<path d="M7.77802 8.99207C7.44778 8.99207 7.18006 9.25979 7.18006 9.59003C7.18006 9.92027 7.44778 10.188 7.77802 10.188C8.10826 10.188 8.37598 9.92027 8.37598 9.59003C8.37598 9.25979 8.10826 8.99207 7.77802 8.99207Z" fill="white"/>
<path d="M7.77802 7.21632C7.44778 7.21632 7.18006 7.48403 7.18006 7.81427C7.18006 8.14452 7.44778 8.41223 7.77802 8.41223C8.10826 8.41223 8.37598 8.14452 8.37598 7.81427C8.37598 7.48403 8.10826 7.21632 7.77802 7.21632Z" fill="white"/>
<path d="M7.77802 10.8041C7.44778 10.8041 7.18006 11.0718 7.18006 11.402C7.18006 11.7323 7.44778 12 7.77802 12C8.10826 12 8.37598 11.7323 8.37598 11.402C8.37598 11.0718 8.10826 10.8041 7.77802 10.8041Z" fill="white"/>
<path d="M6.00214 8.99207C5.6719 8.99207 5.40418 9.25979 5.40418 9.59003C5.40418 9.92027 5.6719 10.188 6.00214 10.188C6.33238 10.188 6.6001 9.92027 6.6001 9.59003C6.6001 9.25979 6.33238 8.99207 6.00214 8.99207Z" fill="white"/>
<path d="M6.00214 7.21632C5.6719 7.21632 5.40418 7.48403 5.40418 7.81427C5.40418 8.14452 5.6719 8.41223 6.00214 8.41223C6.33238 8.41223 6.6001 8.14452 6.6001 7.81427C6.6001 7.48403 6.33238 7.21632 6.00214 7.21632Z" fill="white"/>
<path d="M6.00214 10.8041C5.6719 10.8041 5.40418 11.0718 5.40418 11.402C5.40418 11.7323 5.6719 12 6.00214 12C6.33238 12 6.6001 11.7323 6.6001 11.402C6.6001 11.0718 6.33238 10.8041 6.00214 10.8041Z" fill="white"/>
<path d="M4.2265 8.99207C3.89626 8.99207 3.62855 9.25979 3.62855 9.59003C3.62855 9.92027 3.89626 10.188 4.2265 10.188C4.55675 10.188 4.82446 9.92027 4.82446 9.59003C4.82446 9.25979 4.55675 8.99207 4.2265 8.99207Z" fill="white"/>
<path d="M4.2265 7.21632C3.89626 7.21632 3.62855 7.48403 3.62855 7.81427C3.62855 8.14452 3.89626 8.41223 4.2265 8.41223C4.55675 8.41223 4.82446 8.14452 4.82446 7.81427C4.82446 7.48403 4.55675 7.21632 4.2265 7.21632Z" fill="white"/>
<path d="M6.00214 5.44056C5.6719 5.44056 5.40418 5.70827 5.40418 6.03852C5.40418 6.36876 5.6719 6.63647 6.00214 6.63647C6.33238 6.63647 6.6001 6.36876 6.6001 6.03852C6.6001 5.70827 6.33238 5.44056 6.00214 5.44056Z" fill="white"/>
<path d="M4.2265 5.44056C3.89626 5.44056 3.62855 5.70827 3.62855 6.03852C3.62855 6.36876 3.89626 6.63647 4.2265 6.63647C4.55675 6.63647 4.82446 6.36876 4.82446 6.03852C4.82446 5.70827 4.55675 5.44056 4.2265 5.44056Z" fill="white"/>
<path d="M7.77798 3.62859C7.44771 3.62859 7.17998 3.89632 7.17998 4.22659C7.17998 4.55685 7.44771 4.82458 7.77798 4.82458C8.10824 4.82458 8.37598 4.55685 8.37598 4.22659C8.37598 3.89632 8.10824 3.62859 7.77798 3.62859Z" fill="white"/>
<path d="M6.0021 3.62859C5.67183 3.62859 5.4041 3.89632 5.4041 4.22659C5.4041 4.55685 5.67183 4.82458 6.0021 4.82458C6.33236 4.82458 6.6001 4.55685 6.6001 4.22659C6.6001 3.89632 6.33236 3.62859 6.0021 3.62859Z" fill="white"/>
<path d="M4.22646 3.62859C3.8962 3.62859 3.62847 3.89632 3.62847 4.22659C3.62847 4.55685 3.8962 4.82458 4.22646 4.82458C4.55673 4.82458 4.82446 4.55685 4.82446 4.22659C4.82446 3.89632 4.55673 3.62859 4.22646 3.62859Z" fill="white"/>
<path d="M9.59003 1.85059C9.25979 1.85059 8.99207 2.11831 8.99207 2.44855C8.99207 2.77879 9.25979 3.04651 9.59003 3.04651C9.92027 3.04651 10.188 2.77879 10.188 2.44855C10.188 2.11831 9.92027 1.85059 9.59003 1.85059Z" fill="white"/>
<path d="M7.77802 1.85059C7.44778 1.85059 7.18006 2.11831 7.18006 2.44855C7.18006 2.77879 7.44778 3.04651 7.77802 3.04651C8.10826 3.04651 8.37598 2.77879 8.37598 2.44855C8.37598 2.11831 8.10826 1.85059 7.77802 1.85059Z" fill="white"/>
<path d="M6.00214 1.85059C5.6719 1.85059 5.40418 2.11831 5.40418 2.44855C5.40418 2.77879 5.6719 3.04651 6.00214 3.04651C6.33238 3.04651 6.6001 2.77879 6.6001 2.44855C6.6001 2.11831 6.33238 1.85059 6.00214 1.85059Z" fill="white"/>
<path d="M4.2265 1.85059C3.89626 1.85059 3.62855 2.11831 3.62855 2.44855C3.62855 2.77879 3.89626 3.04651 4.2265 3.04651C4.55675 3.04651 4.82446 2.77879 4.82446 2.44855C4.82446 2.11831 4.55675 1.85059 4.2265 1.85059Z" fill="white"/>
<path d="M2.37592 7.21632C2.04568 7.21632 1.77796 7.48403 1.77796 7.81427C1.77796 8.14452 2.04568 8.41223 2.37592 8.41223C2.70616 8.41223 2.97388 8.14452 2.97388 7.81427C2.97388 7.48403 2.70616 7.21632 2.37592 7.21632Z" fill="white"/>
<path d="M2.37592 5.44056C2.04568 5.44056 1.77796 5.70827 1.77796 6.03852C1.77796 6.36876 2.04568 6.63647 2.37592 6.63647C2.70616 6.63647 2.97388 6.36876 2.97388 6.03852C2.97388 5.70827 2.70616 5.44056 2.37592 5.44056Z" fill="white"/>
<path d="M2.37612 3.62859C2.04586 3.62859 1.77812 3.89632 1.77812 4.22659C1.77812 4.55685 2.04586 4.82458 2.37612 4.82458C2.70639 4.82458 2.97412 4.55685 2.97412 4.22659C2.97412 3.89632 2.70639 3.62859 2.37612 3.62859Z" fill="white"/>
<path d="M11.3659 -1.33514e-05C11.0356 -1.33514e-05 10.7679 0.267719 10.7679 0.597985C10.7679 0.92825 11.0356 1.19598 11.3659 1.19598C11.6961 1.19598 11.9639 0.92825 11.9639 0.597985C11.9639 0.267719 11.6961 -1.33514e-05 11.3659 -1.33514e-05Z" fill="white"/>
<path d="M9.58999 -1.33514e-05C9.25972 -1.33514e-05 8.99199 0.267719 8.99199 0.597985C8.99199 0.92825 9.25972 1.19598 9.58999 1.19598C9.92026 1.19598 10.188 0.92825 10.188 0.597985C10.188 0.267719 9.92026 -1.33514e-05 9.58999 -1.33514e-05Z" fill="white"/>
<path d="M7.77798 -1.33514e-05C7.44771 -1.33514e-05 7.17998 0.267719 7.17998 0.597985C7.17998 0.92825 7.44771 1.19598 7.77798 1.19598C8.10824 1.19598 8.37598 0.92825 8.37598 0.597985C8.37598 0.267719 8.10824 -1.33514e-05 7.77798 -1.33514e-05Z" fill="white"/>
<path d="M6.0021 -1.33514e-05C5.67183 -1.33514e-05 5.4041 0.267719 5.4041 0.597985C5.4041 0.92825 5.67183 1.19598 6.0021 1.19598C6.33236 1.19598 6.6001 0.92825 6.6001 0.597985C6.6001 0.267719 6.33236 -1.33514e-05 6.0021 -1.33514e-05Z" fill="white"/>
<path d="M0.597842 5.44056C0.267599 5.44056 -0.000115395 5.70827 -0.000115395 6.03852C-0.000115395 6.36876 0.267599 6.63647 0.597842 6.63647C0.928085 6.63647 1.1958 6.36876 1.1958 6.03852C1.1958 5.70827 0.928085 5.44056 0.597842 5.44056Z" fill="white"/>
</svg>
