<svg viewBox="0 0 178 37" fill="none" xmlns="http://www.w3.org/2000/svg">
<path d="M36.442 22.9754C33.9711 32.8861 23.9333 38.9176 14.0214 36.4461C4.11359 33.9752 -1.91793 23.9368 0.554104 14.0267C3.02383 4.11481 13.0617 -1.91728 22.9707 0.553605C32.882 3.02449 38.9129 13.0641 36.442 22.9754V22.9754Z" fill="#F7931A"/>
<path d="M26.6544 15.8645C27.0227 13.4029 25.1484 12.0796 22.5856 11.1968L23.417 7.8622L21.3872 7.35634L20.5778 10.6031C20.0442 10.4701 19.4962 10.3446 18.9516 10.2204L19.7667 6.95223L17.7381 6.44638L16.9062 9.77981C16.4645 9.67922 16.0309 9.57979 15.61 9.47516L15.6123 9.46475L12.8131 8.76579L12.2731 10.9337C12.2731 10.9337 13.7791 11.2789 13.7473 11.3003C14.5694 11.5055 14.718 12.0495 14.6931 12.4808L13.7462 16.2796C13.8028 16.2941 13.8763 16.3149 13.9572 16.3473C13.8896 16.3305 13.8173 16.312 13.7427 16.2941L12.4153 21.6157C12.3148 21.8654 12.0598 22.24 11.4852 22.0978C11.5054 22.1273 10.0098 21.7295 10.0098 21.7295L9.00214 24.053L11.6436 24.7115C12.135 24.8346 12.6165 24.9635 13.0906 25.0849L12.2506 28.4577L14.2781 28.9635L15.11 25.6266C15.6638 25.777 16.2015 25.9157 16.7275 26.0464L15.8985 29.3677L17.9283 29.8735L18.7683 26.5071C22.2295 27.1621 24.8322 26.8979 25.9277 23.7674C26.8105 21.2468 25.8838 19.7928 24.0627 18.8447C25.3889 18.5389 26.3879 17.6665 26.6544 15.8645V15.8645ZM22.0168 22.3678C21.3895 24.8884 17.1455 23.5258 15.7696 23.1841L16.8842 18.7158C18.2601 19.0592 22.6723 19.7391 22.0168 22.3678ZM22.6446 15.8281C22.0723 18.1209 18.5399 16.956 17.3941 16.6704L18.4047 12.6178C19.5505 12.9034 23.2406 13.4364 22.6446 15.8281Z" fill="white"/>
<path d="M54.2134 11.1933C55.7136 11.1933 57.0097 11.4621 58.0989 11.99C59.1933 12.523 60.0963 13.241 60.8207 14.144C61.5352 15.0517 62.0671 16.1125 62.4105 17.3283C62.7516 18.5476 62.9227 19.8582 62.9227 21.2613C62.9227 23.4165 62.5279 25.4526 61.7307 27.372C60.9334 29.2942 59.8518 30.9615 58.4758 32.3837C57.1011 33.8041 55.4777 34.924 53.6058 35.7512C51.7367 36.5791 49.7046 36.993 47.5228 36.993C47.2407 36.993 46.7446 36.985 46.044 36.9705C45.3433 36.956 44.538 36.8838 43.6361 36.7618C42.7285 36.6352 41.7688 36.4479 40.7553 36.197C39.7425 35.9507 38.7805 35.6055 37.8746 35.1673L45.9752 1.13L53.2306 0.0055542L50.3301 12.0842C50.951 11.8044 51.5766 11.5876 52.2009 11.4298C52.8259 11.2742 53.4965 11.1933 54.2134 11.1933V11.1933ZM48.1275 31.2373C49.2202 31.2373 50.2498 30.9685 51.217 30.4406C52.1871 29.9122 53.0242 29.1988 53.7254 28.3103C54.4267 27.4177 54.9817 26.4123 55.3864 25.289C55.7911 24.1657 55.9957 22.9939 55.9957 21.7746C55.9957 20.2767 55.7454 19.1083 55.2465 18.2637C54.7475 17.4226 53.8243 16.9994 52.4836 16.9994C52.0443 16.9994 51.4783 17.0832 50.7765 17.2329C50.0723 17.3919 49.4422 17.722 48.8773 18.2186L45.789 31.0459C45.9752 31.0789 46.1399 31.1101 46.2804 31.1396C46.418 31.1714 46.5701 31.1939 46.7215 31.2095C46.8817 31.2275 47.0649 31.2367 47.2864 31.2367C47.5078 31.2367 47.7847 31.2373 48.1275 31.2373V31.2373Z" fill="#4D4D4D"/>
<path d="M70.4469 36.3415H63.517L69.3693 11.7154H76.3467L70.4469 36.3415ZM73.8191 8.71492C72.8519 8.71492 71.9749 8.42702 71.1968 7.85005C70.4123 7.27656 70.0238 6.39377 70.0238 5.204C70.0238 4.54957 70.1567 3.9356 70.4204 3.35633C70.688 2.77821 71.0378 2.28045 71.476 1.85727C71.9136 1.43756 72.4206 1.10224 72.9965 0.849603C73.5757 0.601012 74.192 0.476723 74.8488 0.476723C75.8154 0.476723 76.6877 0.764627 77.4688 1.34159C78.2469 1.92144 78.6383 2.80423 78.6383 3.98764C78.6383 4.64438 78.5059 5.26066 78.24 5.83877C77.9758 6.41689 77.626 6.91465 77.1878 7.33783C76.7536 7.75812 76.242 8.09228 75.6674 8.34261C75.0875 8.59524 74.4735 8.71492 73.8191 8.71492Z" fill="#4D4D4D"/>
<path d="M82.4198 5.57978L89.6781 4.45534L87.8958 11.7142H95.6692L94.2655 17.4249H86.5389L84.4808 26.0388C84.2912 26.7569 84.1837 27.4275 84.1536 28.0507C84.1195 28.6768 84.1987 29.2145 84.386 29.6671C84.5722 30.1209 84.9069 30.4707 85.3925 30.7181C85.8758 30.9696 86.5678 31.0962 87.4755 31.0962C88.223 31.0962 88.9514 31.0251 89.6556 30.8841C90.3557 30.7453 91.065 30.5522 91.783 30.2996L92.2999 35.6391C91.3633 35.9825 90.3493 36.2779 89.2567 36.5265C88.1623 36.7786 86.8667 36.9 85.3694 36.9C83.2165 36.9 81.5474 36.5803 80.3582 35.9438C79.1708 35.3026 78.3314 34.4268 77.829 33.318C77.3335 32.2132 77.1121 30.9396 77.174 29.5047C77.2381 28.0663 77.4549 26.5545 77.829 24.9624L82.4198 5.57978V5.57978Z" fill="#4D4D4D"/>
<path d="M95.3639 26.5077C95.3639 24.3866 95.7073 22.3863 96.3935 20.5138C97.0786 18.6395 98.0654 17.0005 99.346 15.594C100.622 14.1943 102.176 13.0855 104.006 12.2715C105.827 11.4621 107.866 11.054 110.113 11.054C111.52 11.054 112.776 11.187 113.882 11.4535C114.992 11.7223 115.996 12.0698 116.904 12.5057L114.514 17.94C113.89 17.6868 113.242 17.4636 112.572 17.2613C111.901 17.0549 111.082 16.9554 110.114 16.9554C107.801 16.9554 105.972 17.7527 104.611 19.3419C103.256 20.9323 102.573 23.0731 102.573 25.7584C102.573 27.35 102.916 28.6369 103.606 29.6214C104.291 30.606 105.558 31.0956 107.397 31.0956C108.305 31.0956 109.18 31.0008 110.019 30.8158C110.864 30.6285 111.611 30.3926 112.268 30.114L112.786 35.6848C111.909 36.0247 110.942 36.3317 109.882 36.6005C108.82 36.8601 107.555 36.9948 106.088 36.9948C104.152 36.9948 102.513 36.7115 101.172 36.1536C99.831 35.5871 98.7228 34.8349 97.8498 33.8822C96.9722 32.9271 96.3421 31.8119 95.9524 30.532C95.5628 29.2532 95.3639 27.9096 95.3639 26.5077V26.5077Z" fill="#4D4D4D"/>
<path d="M126.149 36.9948C124.495 36.9948 123.058 36.7427 121.839 36.2438C120.624 35.7449 119.618 35.0448 118.822 34.1371C118.024 33.2341 117.428 32.164 117.019 30.9309C116.61 29.6983 116.414 28.3334 116.414 26.8378C116.414 24.9618 116.715 23.0864 117.324 21.2162C117.93 19.3419 118.829 17.6579 120.018 16.1611C121.199 14.662 122.655 13.4364 124.37 12.4808C126.083 11.5315 128.053 11.054 130.266 11.054C131.89 11.054 133.319 11.3066 134.555 11.8055C135.784 12.3033 136.797 13.0092 137.598 13.9122C138.39 14.8199 138.992 15.8853 139.396 17.1202C139.804 18.3504 140.005 19.7188 140.005 21.2156C140.005 23.0858 139.708 24.9612 139.118 26.8372C138.528 28.704 137.652 30.3921 136.496 31.8923C135.342 33.3891 133.899 34.6141 132.166 35.5657C130.435 36.5173 128.428 36.9948 126.149 36.9948V36.9948ZM129.612 16.956C128.585 16.956 127.677 17.2543 126.899 17.8434C126.119 18.4395 125.463 19.1887 124.935 20.0923C124.401 21 124.005 21.9897 123.737 23.0656C123.471 24.1438 123.341 25.163 123.341 26.1313C123.341 27.694 123.593 28.9109 124.089 29.7868C124.591 30.658 125.494 31.0962 126.806 31.0962C127.836 31.0962 128.74 30.8002 129.522 30.2048C130.298 29.6134 130.954 28.8635 131.487 27.9582C132.017 27.0552 132.417 26.0625 132.684 24.9849C132.946 23.9102 133.08 22.8852 133.08 21.9186C133.08 20.36 132.829 19.1401 132.329 18.2654C131.829 17.3942 130.923 16.956 129.612 16.956Z" fill="#4D4D4D"/>
<path d="M147.557 36.3415H140.621L146.473 11.7154H153.454L147.557 36.3415V36.3415ZM150.924 8.71492C149.957 8.71492 149.08 8.42702 148.303 7.85005C147.523 7.27656 147.131 6.39377 147.131 5.204C147.131 4.54957 147.266 3.9356 147.53 3.35633C147.794 2.77821 148.146 2.28045 148.584 1.85727C149.02 1.43756 149.531 1.10224 150.106 0.849603C150.682 0.601012 151.298 0.476723 151.953 0.476723C152.921 0.476723 153.797 0.764627 154.576 1.34159C155.356 1.92144 155.75 2.80423 155.75 3.98764C155.75 4.64438 155.61 5.26066 155.348 5.83877C155.086 6.41689 154.734 6.91465 154.297 7.33783C153.858 7.75812 153.353 8.09228 152.777 8.34261C152.197 8.59524 151.581 8.71492 150.924 8.71492V8.71492Z" fill="#4D4D4D"/>
<path d="M158.448 12.8352C158.974 12.6814 159.562 12.4964 160.201 12.2952C160.842 12.094 161.558 11.9067 162.358 11.7379C163.15 11.5639 164.043 11.4228 165.025 11.3136C166.007 11.202 167.126 11.1476 168.37 11.1476C172.025 11.1476 174.544 12.212 175.935 14.3342C177.325 16.4565 177.566 19.361 176.664 23.0424L173.476 36.3392H166.5L169.59 23.3223C169.778 22.5094 169.926 21.7238 170.036 20.956C170.146 20.1952 170.14 19.5246 170.011 18.9442C169.888 18.3707 169.597 17.9012 169.147 17.5376C168.69 17.1797 167.999 16.9999 167.062 16.9999C166.158 16.9999 165.239 17.0971 164.301 17.2844L159.758 36.3386H152.78L158.448 12.8352V12.8352Z" fill="#4D4D4D"/>
</svg>
