<?xml version="1.0" encoding="UTF-8" standalone="no"?>
<svg
   xmlns:dc="http://purl.org/dc/elements/1.1/"
   xmlns:cc="http://creativecommons.org/ns#"
   xmlns:rdf="http://www.w3.org/1999/02/22-rdf-syntax-ns#"
   xmlns:svg="http://www.w3.org/2000/svg"
   xmlns="http://www.w3.org/2000/svg"
   xmlns:sodipodi="http://sodipodi.sourceforge.net/DTD/sodipodi-0.dtd"
   xmlns:inkscape="http://www.inkscape.org/namespaces/inkscape"
   viewBox="0 0 178 37"
   fill="none"
   version="1.1"
   id="svg20"
   sodipodi:docname="bitcoin.svg"
   inkscape:version="0.92.4 (5da689c313, 2019-01-14)">
  <metadata
     id="metadata26">
    <rdf:RDF>
      <cc:Work
         rdf:about="">
        <dc:format>image/svg+xml</dc:format>
        <dc:type
           rdf:resource="http://purl.org/dc/dcmitype/StillImage" />
        <dc:title></dc:title>
      </cc:Work>
    </rdf:RDF>
  </metadata>
  <defs
     id="defs24">
    <linearGradient
       id="paint0_linear"
       x1="4.8524599"
       y1="4.1382399"
       x2="17.786699"
       y2="17.0725"
       gradientUnits="userSpaceOnUse"
       gradientTransform="matrix(1.9333207,0,0,1.9333207,-139.33424,109.9916)">
      <stop
         stop-color="#00AAE4"
         id="stop16" />
      <stop
         offset="1"
         stop-color="#006097"
         id="stop18" />
    </linearGradient>
  </defs>
  <sodipodi:namedview
     pagecolor="#ffffff"
     bordercolor="#666666"
     borderopacity="1"
     objecttolerance="10"
     gridtolerance="10"
     guidetolerance="10"
     inkscape:pageopacity="0"
     inkscape:pageshadow="2"
     inkscape:window-width="1920"
     inkscape:window-height="1017"
     id="namedview22"
     showgrid="false"
     inkscape:zoom="1.7022472"
     inkscape:cx="159.45008"
     inkscape:cy="18.5"
     inkscape:window-x="-8"
     inkscape:window-y="-8"
     inkscape:window-maximized="1"
     inkscape:current-layer="svg20" />
  <path
     d="M 28.834501,22.345386 C 26.873605,30.210473 18.907652,34.997044 11.041613,33.035673 3.17882,31.074777 -1.607767,23.108348 0.354028,15.243738 2.313991,7.3777055 10.28,2.5906662 18.143737,4.5515494 26.009301,6.5124325 30.795396,14.479823 28.834501,22.345386 Z"
     id="path2"
     inkscape:connector-curvature="0"
     style="fill:#f7931a;stroke-width:0.79359549" />
  <path
     d="m 21.067105,16.702207 c 0.292281,-1.953514 -1.195155,-3.003679 -3.228981,-3.704265 l 0.659795,-2.646324 -1.61084,-0.4014485 -0.642336,2.5766145 C 15.82128,12.421236 15.38639,12.32164 14.954198,12.223075 l 0.646859,-2.5936055 -1.609887,-0.40144 -0.660193,2.6453955 c -0.350531,-0.07983 -0.694634,-0.158735 -1.028658,-0.241769 l 0.0018,-0.0083 -2.221432,-0.554692 -0.428542,1.720444 c 0,0 1.195155,0.273949 1.169919,0.290932 0.652415,0.162846 0.770343,0.594562 0.750582,0.936839 l -0.751455,3.014711 c 0.04492,0.01151 0.103246,0.02801 0.167448,0.05373 -0.05365,-0.01333 -0.111024,-0.02801 -0.170226,-0.04222 L 9.766994,21.266298 C 9.687234,21.464459 9.484871,21.761739 9.028871,21.64889 9.044901,21.6723 7.858,21.356609 7.858,21.356609 l -0.799674,1.843919 2.096251,0.522583 c 0.389973,0.09769 0.772089,0.199986 1.148332,0.296328 l -0.66662,2.676639 1.609015,0.401401 0.660192,-2.648149 c 0.439493,0.119357 0.86621,0.229428 1.283641,0.333151 l -0.657891,2.635769 1.61084,0.401401 0.666621,-2.67156 c 2.746792,0.519805 4.812283,0.310137 5.681667,-2.174214 0.700586,-2.000337 -0.03484,-3.154224 -1.480055,-3.906632 1.052466,-0.242682 1.845268,-0.935015 2.056761,-2.365074 z m -3.680378,5.16099 c -0.497823,2.000337 -3.865842,0.918984 -4.95775,0.647812 l 0.884541,-3.546023 c 1.091908,0.272521 4.593411,0.812086 4.073209,2.898211 z m 0.498219,-5.189877 c -0.454175,1.819556 -3.257472,0.895097 -4.166773,0.668446 l 0.802007,-3.216125 c 0.909302,0.226651 3.837749,0.649637 3.364766,2.547679 z"
     id="path4"
     inkscape:connector-curvature="0"
     style="fill:#ffffff;stroke-width:0.79359549" />
  <path
     d="m 42.937804,12.995164 c 1.190552,0 2.219131,0.213319 3.083515,0.632258 0.868511,0.422986 1.585128,0.992788 2.160008,1.709404 0.567024,0.720347 0.989138,1.562193 1.261658,2.527046 0.270696,0.967631 0.40648,2.007718 0.40648,3.121212 0,1.710357 -0.313312,3.326196 -0.945966,4.849424 -0.632734,1.525449 -1.491086,2.848611 -2.583074,3.977262 -1.090956,1.127223 -2.379279,2.015971 -3.86481,2.672433 -1.483309,0.657018 -3.095975,0.985487 -4.827441,0.985487 -0.223874,0 -0.617576,-0.0063 -1.173569,-0.01786 -0.556073,-0.01151 -1.195155,-0.0688 -1.910899,-0.165623 -0.720267,-0.10047 -1.481881,-0.24911 -2.28619,-0.448223 -0.803754,-0.195463 -1.567192,-0.469412 -2.286111,-0.817165 l 6.4286,-27.0118451 5.757853,-0.8923551 -2.301824,9.5855592 c 0.492744,-0.222048 0.989217,-0.394099 1.484659,-0.519329 0.495997,-0.123483 1.028182,-0.187685 1.597111,-0.187685 z m -4.829743,15.906828 c 0.867162,0 1.684248,-0.213318 2.451813,-0.632257 0.769867,-0.419336 1.434186,-0.985487 1.990655,-1.690597 0.556549,-0.708363 0.996994,-1.506244 1.318162,-2.39769 0.321168,-0.891446 0.483538,-1.821381 0.483538,-2.789012 0,-1.188727 -0.198637,-2.115964 -0.594562,-2.786234 -0.396004,-0.667493 -1.128651,-1.003343 -2.192625,-1.003343 -0.348626,0 -0.797801,0.0665 -1.354747,0.185304 -0.55885,0.126182 -1.058894,0.388148 -1.507196,0.782248 l -2.450861,10.179687 c 0.147767,0.02619 0.278472,0.05095 0.389973,0.07436 0.109198,0.02524 0.229904,0.04309 0.350055,0.05547 0.127134,0.01429 0.27252,0.02159 0.448302,0.02159 0.175702,0 0.395448,4.76e-4 0.667493,4.76e-4 z"
     id="path6"
     inkscape:connector-curvature="0"
     style="fill:#4d4d4d;stroke-width:0.79359549" />
  <path
     d="M 55.820636,32.952662 H 50.321099 L 54.965458,13.4095 h 5.537233 z m 2.676163,-21.924329 c -0.767566,0 -1.463549,-0.228476 -2.081045,-0.686357 -0.622576,-0.4551195 -0.930888,-1.1556975 -0.930888,-2.0998945 0,-0.519352 0.105469,-1.006596 0.31474,-1.466302 0.212366,-0.4587936 0.489966,-0.8538137 0.837719,-1.1896474 0.347278,-0.33308 0.749631,-0.5991884 1.206662,-0.79968 0.459651,-0.1972807 0.948744,-0.2959159 1.469977,-0.2959159 0.76709,0 1.459343,0.2284793 2.079221,0.6863546 0.617496,0.4601663 0.92811,1.1607445 0.92811,2.0998937 0,0.521186 -0.105073,1.010263 -0.31609,1.469048 -0.209668,0.458794 -0.487267,0.853814 -0.835021,1.189647 -0.344579,0.3335415 -0.750582,0.5987295 -1.206582,0.7973895 -0.460206,0.200486 -0.947474,0.295464 -1.466803,0.295464 z"
     id="path8"
     inkscape:connector-curvature="0"
     style="fill:#4d4d4d;stroke-width:0.79359549" />
  <path
     d="m 65.322274,8.5402995 5.76016,-0.892351 -1.41443,5.7605995 h 6.16894 l -1.11397,4.531986 h -6.1318 l -1.6333,6.835952 c -0.15046,0.569881 -0.23577,1.102066 -0.25966,1.596635 -0.0271,0.49687 0.0358,0.923586 0.18443,1.282768 0.14777,0.360133 0.41338,0.637733 0.79875,0.834069 0.38355,0.199589 0.93272,0.300058 1.65306,0.300058 0.59322,0 1.17127,-0.05642 1.73012,-0.168322 0.5556,-0.110151 1.11849,-0.263394 1.6883,-0.463856 l 0.4102,4.237403 c -0.74328,0.272521 -1.54798,0.506949 -2.41506,0.704237 -0.86852,0.200065 -1.8967,0.296408 -3.08495,0.296408 -1.70853,0 -3.03312,-0.253713 -3.97686,-0.758836 -0.94232,-0.508854 -1.608464,-1.203885 -2.007166,-2.083824 -0.393227,-0.876764 -0.568929,-1.887487 -0.519805,-3.026217 0.05087,-1.141508 0.222921,-2.341266 0.519805,-3.604749 z"
     id="path10"
     inkscape:connector-curvature="0"
     style="fill:#4d4d4d;stroke-width:0.79359549" />
  <path
     d="m 75.594654,25.148603 c 0,-1.683295 0.27252,-3.270724 0.81709,-4.756732 0.54369,-1.487436 1.32681,-2.788139 2.34309,-3.904331 1.01263,-1.110796 2.24587,-1.990735 3.69815,-2.636721 1.44514,-0.642336 3.06328,-0.966203 4.84649,-0.966203 1.11659,0 2.11335,0.105548 2.99106,0.317042 0.88089,0.213318 1.67766,0.489092 2.39825,0.835021 l -1.8967,4.312636 c -0.4952,-0.200939 -1.00945,-0.378069 -1.54116,-0.538613 -0.5325,-0.163799 -1.18246,-0.242761 -1.95066,-0.242761 -1.83558,0 -3.28707,0.632733 -4.36715,1.893915 -1.07532,1.262135 -1.61735,2.961064 -1.61735,5.092106 0,1.263087 0.2722,2.284365 0.81978,3.065659 0.54362,0.781374 1.5491,1.169919 3.00853,1.169919 0.72058,0 1.41498,-0.07523 2.0808,-0.222048 0.67059,-0.148641 1.26341,-0.33585 1.7848,-0.556946 l 0.41108,4.420962 c -0.69598,0.269743 -1.46339,0.513377 -2.3046,0.726696 -0.8428,0.206017 -1.8467,0.312914 -3.0109,0.312914 -1.5364,0 -2.8371,-0.224825 -3.90132,-0.667572 -1.06421,-0.449572 -1.94367,-1.046514 -2.63648,-1.802573 -0.69646,-0.757963 -1.1965,-1.642981 -1.50577,-2.658704 -0.30918,-1.01485 -0.46703,-2.081124 -0.46703,-3.193666 z"
     id="path12"
     inkscape:connector-curvature="0"
     style="fill:#4d4d4d;stroke-width:0.79359549" />
  <path
     d="m 100.02557,33.471118 c -1.31261,0 -2.453006,-0.200065 -3.420396,-0.59599 -0.96422,-0.395925 -1.76257,-0.951521 -2.39428,-1.671867 -0.63329,-0.716617 -1.10627,-1.565844 -1.43085,-2.544426 -0.32458,-0.978186 -0.48012,-2.061365 -0.48012,-3.248266 0,-1.488785 0.23887,-2.977094 0.72217,-4.461277 0.48092,-1.487436 1.19436,-2.82385 2.13794,-4.011704 0.93724,-1.189679 2.09272,-2.16231 3.453726,-2.92067 1.35943,-0.75336 2.92281,-1.132302 4.67904,-1.132302 1.2888,0 2.42285,0.200462 3.40373,0.596387 0.97533,0.395052 1.77924,0.955251 2.41491,1.671868 0.62853,0.720346 1.10628,1.565843 1.42689,2.545854 0.32379,0.976281 0.4833,2.062238 0.4833,3.250091 0,1.484183 -0.2357,2.972492 -0.70392,4.461277 -0.46822,1.481484 -1.16341,2.821152 -2.08081,4.011704 -0.91581,1.187854 -2.06097,2.160009 -3.43627,2.915194 -1.37371,0.755186 -2.96646,1.134127 -4.77506,1.134127 z m 2.74822,-15.902701 c -0.81502,0 -1.53561,0.236729 -2.15302,0.704237 -0.61901,0.473062 -1.13961,1.067624 -1.55863,1.784716 -0.42378,0.720347 -0.73804,1.505769 -0.95072,2.359598 -0.211096,0.855655 -0.314266,1.664487 -0.314266,2.432926 0,1.240151 0.19999,2.205878 0.593606,2.900988 0.39839,0.69138 1.115,1.039134 2.1562,1.039134 0.8174,0 1.53481,-0.234904 2.15541,-0.707411 0.61583,-0.469332 1.13642,-1.06445 1.55941,-1.782892 0.42061,-0.716616 0.73805,-1.504419 0.94994,-2.359597 0.20792,-0.852877 0.31426,-1.666313 0.31426,-2.433402 0,-1.236898 -0.19919,-2.205005 -0.59599,-2.899163 -0.3968,-0.691381 -1.1158,-1.039134 -2.1562,-1.039134 z"
     id="path14"
     inkscape:connector-curvature="0"
     style="fill:#4d4d4d;stroke-width:0.79359549" />
  <path
     d="m 117.01486,32.952662 h -5.50438 L 116.1546,13.4095 h 5.54009 z m 2.67204,-21.924329 c -0.76741,0 -1.46339,-0.228476 -2.08002,-0.686357 -0.619,-0.4551195 -0.93009,-1.1556975 -0.93009,-2.0998945 0,-0.519352 0.10713,-1.006596 0.31664,-1.466302 0.20951,-0.4587936 0.48886,-0.8538137 0.83645,-1.1896474 0.34601,-0.33308 0.75154,-0.5991884 1.20786,-0.79968 0.45711,-0.1972807 0.94596,-0.2959159 1.46577,-0.2959159 0.7682,0 1.46339,0.2284793 2.0816,0.6863546 0.619,0.4601663 0.93168,1.1607445 0.93168,2.0998937 0,0.521186 -0.1111,1.010263 -0.31903,1.469048 -0.20792,0.458794 -0.48726,0.853814 -0.83407,1.189647 -0.34838,0.3335415 -0.74915,0.5987295 -1.20626,0.7973895 -0.46029,0.200486 -0.94914,0.295464 -1.47053,0.295464 z"
     id="path16"
     inkscape:connector-curvature="0"
     style="fill:#4d4d4d;stroke-width:0.79359549" />
  <path
     d="m 125.65791,14.298168 c 0.41743,-0.122054 0.88407,-0.26887 1.39117,-0.428541 0.5087,-0.159671 1.07691,-0.308312 1.71179,-0.442271 0.62853,-0.138085 1.33721,-0.250062 2.11652,-0.336722 0.77931,-0.08857 1.66734,-0.131737 2.65457,-0.131737 2.9006,0 4.89966,0.844703 6.00355,2.528871 1.1031,1.684248 1.29436,3.989246 0.57854,6.910789 l -2.52999,10.55228 h -5.53612 l 2.45221,-10.330153 c 0.1492,-0.645114 0.26665,-1.268563 0.35394,-1.877885 0.0873,-0.603768 0.0825,-1.135953 -0.0198,-1.596556 -0.0976,-0.455127 -0.32854,-0.82772 -0.68566,-1.116271 -0.36268,-0.284028 -0.91105,-0.426716 -1.65465,-0.426716 -0.71741,0 -1.44672,0.07714 -2.19112,0.225778 l -3.6053,15.121327 h -5.53771 l 4.4981,-18.652193 z"
     id="path18"
     inkscape:connector-curvature="0"
     style="fill:#4d4d4d;stroke-width:0.79359549" />
</svg>
