<svg viewBox="0 0 118 23" fill="none" xmlns="http://www.w3.org/2000/svg">
<path d="M32 13.4782C31.9981 13.5807 31.9527 13.6784 31.8737 13.7498C31.7946 13.8213 31.6884 13.8607 31.5781 13.8596H23.8086C24.0078 15.6465 25.4492 17.2809 27.4883 17.2809C28.8828 17.2809 29.9141 16.7906 30.6875 15.7554C30.7235 15.7011 30.7733 15.6557 30.8326 15.6234C30.8918 15.5911 30.9587 15.5729 31.0273 15.5702C31.0785 15.5689 31.1295 15.5772 31.177 15.5948C31.2246 15.6124 31.2678 15.6389 31.304 15.6725C31.3402 15.7062 31.3687 15.7464 31.3876 15.7906C31.4065 15.8348 31.4155 15.8822 31.4141 15.9298C31.4143 15.9955 31.394 16.0599 31.3555 16.115C30.5703 17.3789 29.0117 18 27.4883 18C24.875 18 23 15.8208 23 13.5C23 11.1792 24.8633 9 27.4883 9C30.1133 9 31.9883 11.1574 32 13.4782ZM31.168 13.1404C31.0039 11.3535 29.5273 9.71913 27.4883 9.71913C25.4492 9.71913 24.0078 11.3535 23.8086 13.1404H31.168Z" fill="#3B3B3B"/>
<path d="M40.6568 9.20083C40.747 9.2036 40.8327 9.24283 40.8965 9.31048C40.9603 9.37813 40.9973 9.46908 40.9999 9.56471C41.0012 9.61286 40.9932 9.66079 40.9764 9.70556C40.9596 9.75033 40.9344 9.79099 40.9023 9.82506C40.8702 9.85912 40.8318 9.88587 40.7896 9.90368C40.7474 9.92148 40.7022 9.92995 40.6568 9.92858H38.8066V17.6361C38.8058 17.7324 38.7694 17.8244 38.7053 17.8925C38.6411 17.9605 38.5543 17.9991 38.4636 18C38.3735 17.9972 38.2877 17.958 38.224 17.8904C38.1602 17.8227 38.1232 17.7318 38.1206 17.6361V9.92858H36.3432C36.2978 9.92995 36.2526 9.92148 36.2104 9.90368C36.1682 9.88587 36.1298 9.85912 36.0977 9.82506C36.0656 9.79099 36.0404 9.75033 36.0236 9.70556C36.0068 9.66079 35.9988 9.61286 36.0001 9.56471C36.0009 9.46847 36.0373 9.37642 36.1015 9.30836C36.1657 9.24031 36.2524 9.20169 36.3432 9.20083H38.1206V6.38907C38.1208 6.2959 38.1523 6.20585 38.2094 6.13511C38.2666 6.06437 38.3457 6.01757 38.4324 6.00314C38.4809 5.99631 38.5303 6.00066 38.577 6.01591C38.6238 6.03115 38.6669 6.05693 38.7034 6.09148C38.7399 6.12603 38.769 6.16853 38.7886 6.21608C38.8082 6.26364 38.8179 6.31512 38.817 6.36701V9.20083H40.6568Z" fill="#3B3B3B"/>
<path d="M53 12.9793V17.6236C52.9973 17.7188 52.959 17.8094 52.8931 17.8767C52.8271 17.9441 52.7384 17.9831 52.6452 17.9859C52.5982 17.9873 52.5515 17.9788 52.5078 17.9611C52.4642 17.9434 52.4245 17.9167 52.3913 17.8828C52.3581 17.8489 52.332 17.8084 52.3146 17.7638C52.2973 17.7193 52.289 17.6715 52.2903 17.6236V12.9793C52.2903 11.4093 51.4194 9.85022 49.7097 9.85022C47.5162 9.85022 46.5699 11.8045 46.699 13.8138C46.699 13.8686 46.7205 14.0992 46.7205 14.1322V17.6126C46.7203 17.7054 46.6877 17.795 46.6286 17.8655C46.5695 17.9359 46.4877 17.9825 46.3979 17.9969C46.3477 18.0037 46.2967 17.9993 46.2483 17.9842C46.1999 17.969 46.1553 17.9433 46.1176 17.9089C46.0798 17.8745 46.0497 17.8322 46.0295 17.7848C46.0092 17.7375 45.9992 17.6862 46.0001 17.6346V2.36232C46.0009 2.26649 46.0386 2.17483 46.1049 2.10707C46.1713 2.03931 46.261 2.00086 46.3549 2C46.4481 2.00276 46.5368 2.04182 46.6028 2.10918C46.6688 2.17654 46.707 2.2671 46.7097 2.36232V10.9921C47.3226 9.87217 48.4194 9.1146 49.699 9.1146C51.8065 9.1146 53 10.9921 53 12.9793Z" fill="#3B3B3B"/>
<path d="M66 13.4782C65.9984 13.5807 65.958 13.6784 65.8877 13.7498C65.8174 13.8213 65.723 13.8607 65.625 13.8596H58.7188C58.8958 15.6465 60.1771 17.2809 61.9896 17.2809C63.2292 17.2809 64.1458 16.7906 64.8333 15.7554C64.8653 15.7011 64.9096 15.6557 64.9623 15.6234C65.015 15.5911 65.0744 15.5729 65.1354 15.5702C65.1809 15.5689 65.2262 15.5772 65.2685 15.5948C65.3108 15.6124 65.3492 15.6389 65.3814 15.6725C65.4135 15.7062 65.4388 15.7464 65.4556 15.7906C65.4725 15.8348 65.4805 15.8822 65.4792 15.9298C65.4794 15.9955 65.4613 16.0599 65.4271 16.115C64.7292 17.3789 63.3438 18 61.9896 18C59.6667 18 58 15.8208 58 13.5C58 11.1792 59.6563 9 61.9896 9C64.3021 9 65.9896 11.1574 66 13.4782ZM65.25 13.1404C65.1042 11.3535 63.7917 9.71913 61.9792 9.71913C60.1667 9.71913 58.8854 11.3535 58.7083 13.1404H65.25Z" fill="#3B3B3B"/>
<path d="M74.9991 9.35215C75.0058 9.453 74.9753 9.55261 74.9143 9.62922C74.8533 9.70584 74.7669 9.75325 74.6737 9.76109C72.627 10.0905 71.7033 11.8967 71.7033 13.9982V17.5992C71.7031 17.6952 71.6713 17.7879 71.6136 17.8608C71.5559 17.9337 71.476 17.9819 71.3884 17.9968C71.3394 18.0038 71.2896 17.9993 71.2424 17.9836C71.1952 17.9679 71.1516 17.9413 71.1148 17.9058C71.0779 17.8702 71.0486 17.8264 71.0288 17.7774C71.009 17.7284 70.9992 17.6754 71.0001 17.6219V9.40894C71.0002 9.31296 71.032 9.22019 71.0898 9.14731C71.1475 9.07444 71.2273 9.02623 71.3149 9.01136C71.3639 9.00432 71.4137 9.00881 71.4609 9.02451C71.5082 9.04022 71.5517 9.06678 71.5886 9.10237C71.6255 9.13796 71.6548 9.18174 71.6746 9.23073C71.6944 9.27972 71.7042 9.33276 71.7033 9.38623V11.0561C72.2806 9.99964 73.4247 9 74.6212 9C74.7997 9 74.9991 9.13632 74.9991 9.35215Z" fill="#3B3B3B"/>
<path d="M87 13.4782C86.9984 13.5807 86.958 13.6784 86.8877 13.7498C86.8174 13.8213 86.723 13.8607 86.625 13.8596H79.7188C79.8958 15.6465 81.1771 17.2809 82.9896 17.2809C84.2292 17.2809 85.1458 16.7906 85.8333 15.7554C85.8653 15.7011 85.9096 15.6557 85.9623 15.6234C86.015 15.5911 86.0744 15.5729 86.1354 15.5702C86.1809 15.5689 86.2262 15.5772 86.2685 15.5948C86.3108 15.6124 86.3492 15.6389 86.3814 15.6725C86.4135 15.7062 86.4388 15.7464 86.4556 15.7906C86.4725 15.8348 86.4805 15.8822 86.4792 15.9298C86.4794 15.9955 86.4613 16.0599 86.4271 16.115C85.7292 17.3789 84.3438 18 82.9896 18C80.6667 18 79 15.8208 79 13.5C79 11.1792 80.6563 9 82.9896 9C85.3229 9 86.9896 11.1574 87 13.4782ZM86.2604 13.1404C86.1146 11.3535 84.8021 9.71913 82.9896 9.71913C81.1771 9.71913 79.8958 11.3535 79.7188 13.1404H86.2604Z" fill="#3B3B3B"/>
<path d="M99 9.3888V17.4452C98.9973 17.5414 98.9589 17.6329 98.8926 17.701C98.8263 17.7691 98.7372 17.8086 98.6435 17.8114C98.5963 17.8127 98.5494 17.8042 98.5055 17.7863C98.4617 17.7684 98.4218 17.7414 98.3885 17.7072C98.3551 17.6729 98.3289 17.632 98.3114 17.5869C98.294 17.5419 98.2857 17.4936 98.287 17.4452V15.9138C97.6929 17.1233 96.6451 18 95.3056 18C93.1775 18 92 16.1024 92 14.0939V9.3777C92.0008 9.28085 92.0387 9.18821 92.1053 9.11972C92.172 9.05124 92.2622 9.01237 92.3565 9.01151C92.4502 9.0143 92.5393 9.05377 92.6055 9.12185C92.6718 9.18993 92.7102 9.28147 92.713 9.3777V14.0939C92.713 15.6807 93.588 17.2565 95.3056 17.2565C97.7145 17.2565 98.287 14.9373 98.287 12.3739V9.36661C98.2878 9.30724 98.3025 9.24893 98.3297 9.19657C98.3569 9.1442 98.396 9.09929 98.4436 9.06561C98.4912 9.03193 98.5459 9.01045 98.6033 9.00296C98.6606 8.99548 98.7189 9.00222 98.7731 9.0226C98.8411 9.05502 98.8985 9.10674 98.9387 9.17163C98.9789 9.23652 99.0002 9.31188 99 9.3888Z" fill="#3B3B3B"/>
<path d="M118 12.886V17.6182C117.997 17.7148 117.957 17.8067 117.887 17.875C117.817 17.9433 117.724 17.9829 117.625 17.9857C117.576 17.9871 117.526 17.9785 117.48 17.9605C117.434 17.9426 117.392 17.9156 117.357 17.8812C117.322 17.8468 117.295 17.8057 117.276 17.7605C117.258 17.7153 117.249 17.6669 117.251 17.6182V12.886C117.251 11.2937 116.331 9.73489 114.526 9.73489C112.255 9.73489 111.392 12.1177 111.392 13.9661V17.6182C111.389 17.7148 111.349 17.8067 111.279 17.875C111.209 17.9433 111.116 17.9829 111.017 17.9857C110.967 17.9871 110.918 17.9785 110.872 17.9605C110.826 17.9426 110.784 17.9156 110.749 17.8812C110.714 17.8468 110.686 17.8057 110.668 17.7605C110.65 17.7153 110.641 17.6669 110.642 17.6182V12.886C110.642 11.2937 109.723 9.73489 107.917 9.73489C105.624 9.73489 104.681 11.5053 104.761 13.8659C104.761 13.9215 104.784 14.0217 104.761 14.0551V17.6071C104.761 17.7012 104.726 17.7921 104.664 17.8636C104.601 17.935 104.515 17.9823 104.42 17.9968C104.367 18.0037 104.313 17.9993 104.262 17.9839C104.211 17.9685 104.164 17.9425 104.124 17.9076C104.084 17.8727 104.053 17.8298 104.031 17.7818C104.01 17.7338 103.999 17.6818 104 17.6294V9.55673C104 9.46265 104.035 9.37172 104.097 9.30028C104.16 9.22885 104.246 9.1816 104.341 9.16702C104.394 9.16012 104.448 9.16452 104.499 9.17991C104.55 9.19531 104.597 9.22134 104.637 9.25623C104.677 9.29111 104.708 9.33403 104.73 9.38205C104.751 9.43007 104.762 9.48206 104.761 9.53446V10.8818C105.408 9.74602 106.566 9 107.917 9C109.45 9 110.642 9.95758 111.131 11.3494C111.755 9.96872 112.97 9 114.526 9C116.74 9 118 10.8818 118 12.886Z" fill="#3B3B3B"/>
<path opacity="0.6" d="M6.91956 8.34515L0 11.4881L6.91956 15.5815L13.8475 11.4881L6.91956 8.34515Z" fill="black"/>
<path opacity="0.45" d="M0 11.4881L6.91956 15.5815V0L0 11.4881Z" fill="black"/>
<path opacity="0.8" d="M6.91956 0V15.5815L13.8475 11.4881L6.91956 0Z" fill="black"/>
<path opacity="0.45" d="M0 12.8054L6.91956 22.5594V16.8904L0 12.8054Z" fill="black"/>
<path opacity="0.8" d="M6.91956 16.8904V22.5594L13.8475 12.8054L6.91956 16.8904Z" fill="black"/>
</svg>
