<svg viewBox="0 0 77 23" fill="none" xmlns="http://www.w3.org/2000/svg">
<path d="M27.9133 8.31769C27.711 8.25024 27.284 8.20525 26.8568 8.20525C25.5754 8.20525 24.2041 9.24326 24.2041 10.5246V16.6353H21.2817V5.73247H24.0917V6.83397C24.7436 6.02469 25.935 5.50763 27.2614 5.50763C27.5931 5.51002 27.924 5.5401 28.2506 5.59755L27.9133 8.31769Z" fill="#434C54"/>
<path d="M31.218 0C32.2745 0 33.1288 0.809282 33.1288 1.86587C33.1288 2.92245 32.2746 3.73167 31.218 3.73167C30.1613 3.73167 29.3071 2.92245 29.3071 1.86587C29.3071 0.809282 30.1614 0 31.218 0ZM32.6791 16.6353H29.7568V5.73245H32.6791V16.6353V16.6353Z" fill="#434C54"/>
<path d="M41.3118 5.50711C40.152 5.49243 39.0232 5.8823 38.1197 6.60968V5.73239H35.3091V22.03H38.2317V15.8712C39.0629 16.5278 40.0953 16.8773 41.1544 16.8605C42.7731 16.8605 44.3238 16.1406 45.2905 15.0166C46.1452 14.0272 46.6613 12.6791 46.6613 11.1951C46.6613 7.98043 44.2786 5.50711 41.3118 5.50711ZM40.9566 14.2072C39.1412 14.2072 37.9481 12.9545 37.9481 11.2047C37.9481 9.45487 39.1412 8.20212 40.9566 8.20212C42.5061 8.20212 43.7625 9.54665 43.7625 11.2047C43.7625 12.8627 42.5061 14.2072 40.9566 14.2072Z" fill="#434C54"/>
<path d="M64.3983 16.6353H61.4758V0.674377H64.3983V16.6353V16.6353Z" fill="#434C54"/>
<path d="M76.3128 14.9043C75.2562 16.1632 73.5252 16.8601 71.8393 16.8601C68.5796 16.8601 66.1293 14.6121 66.1293 11.1951C66.1293 8.16026 68.1975 5.50757 71.4346 5.50757C74.447 5.50757 76.5826 8.04782 76.5826 11.0826C76.5843 11.3614 76.5617 11.6397 76.5151 11.9145H68.9618C69.1192 13.4431 70.3556 14.4996 71.9068 14.4996C73.1431 14.4996 74.1323 13.8027 74.6493 13.2408L76.3128 14.9043ZM73.5927 9.77885C73.5028 8.81219 72.6261 7.86802 71.4346 7.86802C70.2207 7.86802 69.2316 8.78975 69.0967 9.77885H73.5927Z" fill="#434C54"/>
<path d="M54.3954 5.50711C53.2356 5.49244 52.1069 5.88231 51.2034 6.60968V5.73239H48.3927V22.03H51.3154V15.8712C52.1466 16.5278 53.179 16.8773 54.2381 16.8605C55.8567 16.8605 57.4075 16.1406 58.3741 15.0166C59.2288 14.0272 59.7449 12.6791 59.7449 11.1951C59.7449 7.98043 57.3622 5.50711 54.3954 5.50711ZM54.0402 14.2072C52.2248 14.2072 51.0317 12.9545 51.0317 11.2047C51.0317 9.45487 52.2249 8.20211 54.0402 8.20211C55.5897 8.20211 56.8461 9.54663 56.8461 11.2046C56.8461 12.8627 55.5897 14.2072 54.0402 14.2072Z" fill="#434C54"/>
<path d="M15.2572 12.6631C14.5974 12.2821 13.8543 12.1717 13.1183 12.146C12.5008 12.1244 11.5795 11.7287 11.5795 10.6054C11.5795 9.76846 12.258 9.09488 13.1186 9.06483C13.8546 9.03912 14.5976 8.92856 15.2572 8.54771C15.8497 8.20561 16.3418 7.71356 16.6839 7.12103C17.026 6.52849 17.2061 5.85634 17.2061 5.17214C17.2061 4.48793 17.026 3.81578 16.6839 3.22325C16.3418 2.63072 15.8497 2.13868 15.2572 1.79658C14.6646 1.45449 13.9925 1.2744 13.3083 1.27441C12.6241 1.27443 11.9519 1.45454 11.3594 1.79666C10.7669 2.13878 10.2748 2.63084 9.93274 3.22339C9.59066 3.81593 9.41058 4.48809 9.4106 5.17229C9.4106 5.92748 9.6792 6.62243 10.0219 7.26699C10.3102 7.80911 10.456 8.81529 9.46739 9.38604C8.73198 9.81063 7.81418 9.54178 7.35575 8.8081C6.96852 8.18841 6.50106 7.60778 5.8466 7.22986C5.25407 6.88776 4.58193 6.70765 3.89774 6.70765C3.21354 6.70765 2.5414 6.88775 1.94887 7.22985C1.35634 7.57194 0.864296 8.06398 0.522198 8.65651C0.1801 9.24904 0 9.92118 0 10.6054C0 11.2896 0.1801 11.9617 0.522198 12.5542C0.864296 13.1468 1.35634 13.6388 1.94887 13.9809C2.5414 14.323 3.21354 14.5031 3.89774 14.5031C4.58193 14.5031 5.25407 14.323 5.8466 13.9809C6.50088 13.6031 6.96838 13.0229 7.35536 12.4036C7.67315 11.895 8.46681 11.2468 9.46736 11.8249C10.2016 12.2491 10.4286 13.1786 10.0216 13.9443C9.67891 14.5887 9.41066 15.2836 9.41066 16.0386C9.41066 16.7228 9.59076 17.3949 9.93285 17.9874C10.2749 18.58 10.767 19.072 11.3595 19.4141C11.952 19.7562 12.6242 19.9363 13.3083 19.9363C13.9925 19.9363 14.6647 19.7562 15.2572 19.4141C15.8497 19.072 16.3417 18.58 16.6838 17.9875C17.0259 17.3949 17.206 16.7228 17.206 16.0386C17.206 15.3544 17.0259 14.6823 16.6839 14.0898C16.3418 13.4972 15.8497 13.0052 15.2572 12.6631Z" fill="url(#paint0_linear)"/>
<defs>
<linearGradient id="paint0_linear" x1="4.85246" y1="4.13824" x2="17.7867" y2="17.0725" gradientUnits="userSpaceOnUse">
<stop stop-color="#00AAE4"/>
<stop offset="1" stop-color="#006097"/>
</linearGradient>
</defs>
</svg>
