<svg viewBox="0 0 81 23" fill="none" xmlns="http://www.w3.org/2000/svg">
<path d="M11.015 22.03C17.0984 22.03 22.03 17.0984 22.03 11.015C22.03 4.93158 17.0984 0 11.015 0C4.93158 0 0 4.93158 0 11.015C0 17.0984 4.93158 22.03 11.015 22.03Z" fill="#26A17B"/>
<path d="M12.1891 12.0315V12.0297C12.113 12.035 11.7198 12.058 10.845 12.058C10.1455 12.058 9.65495 12.0386 9.48141 12.0297V12.0315C6.79141 11.9128 4.78498 11.4453 4.78498 10.8839C4.78498 10.3243 6.79318 9.85505 9.48141 9.7364V11.5657C9.65673 11.5781 10.1614 11.6082 10.8574 11.6082C11.6933 11.6082 12.1112 11.5728 12.1891 11.5657V9.73817C14.8738 9.85859 16.8749 10.3261 16.8749 10.8857C16.8749 11.4453 14.872 11.9128 12.1891 12.0333V12.0315ZM12.1891 9.54868V7.91237H15.9346V5.41718H5.73773V7.91237H9.48318V9.54868C6.439 9.68858 4.151 10.2907 4.151 11.0132C4.151 11.7357 6.44077 12.3378 9.48318 12.4795V17.7249H12.1909V12.4795C15.2297 12.3396 17.5142 11.7375 17.5142 11.015C17.5142 10.2942 15.2297 9.69035 12.1909 9.55045" fill="white"/>
<path d="M31.3866 6.09896V8.74468H33.9579V10.7299H31.3689V14.7551C31.3689 15.6441 31.8594 16.078 32.5784 16.078C32.9379 16.078 33.3541 15.9646 33.6941 15.7946L34.3369 17.7603C33.6764 18.0242 33.1274 18.1375 32.4279 18.157C30.4055 18.2332 29.0827 17.0803 29.0827 14.7551V10.7299H27.3436V8.74468H29.0827V6.34511L31.3866 6.09896ZM75.7175 8.62072L75.8875 9.69743C76.6065 8.54457 77.5699 8.37456 78.5155 8.37456C79.4789 8.37456 80.4051 8.75176 80.9151 9.26178L79.8756 11.2647C79.4027 10.868 78.9689 10.659 78.2127 10.659C77.0032 10.659 75.8875 11.3019 75.8875 13.0214V17.9356H73.5818V8.61718L75.7175 8.62072ZM70.0666 12.1926C69.916 10.9831 68.9704 10.3774 67.6475 10.3774C66.4008 10.3774 65.379 10.9831 65.039 12.1926H70.0666ZM65.0018 14.1017C65.1523 15.2545 66.1546 16.0868 67.7803 16.0868C68.6304 16.0868 69.746 15.7645 70.2755 15.2173L71.7489 16.673C70.7661 17.693 69.1599 18.1853 67.7414 18.1853C64.529 18.1853 62.6182 16.2002 62.6182 13.2144C62.6182 10.3792 64.5467 8.33737 67.5714 8.33737C70.6899 8.33737 72.6379 10.2659 72.2784 14.1017H65.0018ZM54.8333 4.70703V9.88514C55.6656 8.80843 56.6857 8.48613 57.7447 8.48613C60.3904 8.48613 61.5627 10.2818 61.5627 13.0232V17.9374H59.257V13.0427C59.257 11.3408 58.368 10.6236 57.139 10.6236C55.7772 10.6236 54.8333 11.7765 54.8333 13.1755V17.9392H52.5276V4.7088L54.8333 4.70703ZM48.7095 5.9927V8.63843H51.2809V10.6236H48.6918V14.6489C48.6918 15.5379 49.1841 15.9717 49.9013 15.9717C50.2608 15.9717 50.677 15.8584 51.017 15.6884L51.6598 17.6541C50.9993 17.9179 50.4503 18.0313 49.7508 18.0508C47.7284 18.1269 46.4056 16.9723 46.4056 14.6489V10.6236H44.6666V8.63843H46.4056V6.23886L48.7095 5.9927ZM42.3396 12.1926C42.1891 10.9831 41.2434 10.3774 39.9206 10.3774C38.6738 10.3774 37.652 10.9831 37.312 12.1926H42.3396ZM37.2748 14.1017C37.4254 15.2545 38.4277 16.0868 40.0534 16.0868C40.9034 16.0868 42.0191 15.7645 42.5486 15.2173L44.022 16.673C43.0391 17.693 41.4329 18.1853 40.0144 18.1853C36.8002 18.1853 34.8912 16.2002 34.8912 13.2144C34.8912 10.3792 36.8197 8.33737 39.8426 8.33737C42.9612 8.33737 44.9074 10.2659 44.5497 14.1017H37.2748Z" fill="#5B5A5D"/>
</svg>
