<svg viewBox="0 0 198 38" fill="none" xmlns="http://www.w3.org/2000/svg">
<path d="M68.0352 7H73.3144L65.0163 31.3717H60.2156L52 7H57.4276L62.7067 25.502L68.0352 7ZM91.1313 22.162H97.3012L94.2658 12.5721L91.1313 22.162ZM91.4448 7H97.1858L105.797 31.3717H100.287L98.72 26.3618H89.7621L88.0793 31.3717H82.7672L91.4448 7ZM117.048 7H122.212V21.9802C122.212 23.6556 122.41 24.8792 122.806 25.6508C123.422 27.0176 124.763 27.701 126.831 27.701C128.888 27.701 130.224 27.0176 130.84 25.6508C131.236 24.8792 131.434 23.6556 131.434 21.9802V7H136.597V21.9802C136.597 24.5705 136.196 26.5877 135.393 28.0317C133.898 30.6772 131.044 32 126.831 32C122.619 32 119.759 30.6772 118.253 28.0317C117.45 26.5877 117.048 24.5705 117.048 21.9802V7ZM150.868 7H155.949V26.9901H167.992V31.3717H150.868V7ZM198 7V11.3155H190.725V31.3717H185.611V11.3155H178.303V7H198Z" fill="black"/>
<path d="M21.3322 26.2398L21.3378 26.2357C21.1816 25.8183 21.1218 25.3709 21.163 24.9271C21.2042 24.4833 21.3452 24.0545 21.5756 23.673L21.5548 23.6523C20.9269 23.0215 20.2936 22.3957 19.6734 21.7575C19.5598 21.6405 19.4485 21.5674 19.3274 21.5405C18.7313 21.9153 18.0422 22.1156 17.3383 22.1188C16.6343 22.1219 15.9435 21.9277 15.3441 21.5582C15.2195 21.5966 15.1048 21.6794 14.9862 21.8036C14.4598 22.3557 13.9243 22.9001 13.3717 23.4249C13.2911 23.4998 13.2151 23.5797 13.1442 23.664C13.3887 24.0446 13.5425 24.4765 13.5937 24.9261C13.645 25.3757 13.5922 25.8311 13.4396 26.2571C13.4453 26.2617 13.4509 26.2669 13.4569 26.2711C14.0527 26.7136 14.7421 27.0371 15.316 27.504C15.5788 27.7193 15.8731 27.8928 16.1886 28.0186C16.5222 27.7673 16.9297 27.634 17.3472 27.6397C17.7647 27.6454 18.1684 27.7898 18.495 28.0501C19.4437 27.4512 20.3894 26.8478 21.3322 26.2398Z" fill="black"/>
<path d="M25.2867 22.1633C25.7346 21.4576 26.1774 20.7487 26.6289 20.0452C26.735 19.8798 26.8497 19.7182 26.9424 19.5497C26.6759 19.228 26.5237 18.8268 26.5098 18.4092C26.4959 17.9916 26.621 17.5812 26.8655 17.2424C26.8626 17.237 26.8599 17.2315 26.8568 17.2261C26.3508 16.3445 25.7671 15.5079 25.2462 14.6341C25.2234 14.5957 25.2003 14.5597 25.177 14.5262C24.7491 14.6845 24.2903 14.7413 23.8367 14.6921C23.3832 14.6429 22.9472 14.489 22.5631 14.2427C22.5579 14.2469 22.5525 14.2508 22.5477 14.255C21.8842 14.8467 21.2819 15.5067 20.6461 16.1302C20.5888 16.1844 20.539 16.2461 20.4981 16.3137C20.8836 16.9173 21.0895 17.6182 21.0918 18.3345C21.0941 19.0509 20.8926 19.7531 20.511 20.3591C20.5319 20.499 20.5836 20.6369 20.6559 20.7185C21.1973 21.3298 21.8106 21.8767 22.3655 22.4769C22.4302 22.5481 22.4992 22.6151 22.5723 22.6775C22.95 22.4495 23.374 22.3092 23.8131 22.2668C24.2521 22.2244 24.6951 22.2811 25.1093 22.4327C25.1607 22.3621 25.2168 22.2736 25.2867 22.1633Z" fill="black"/>
<path d="M16.1926 8.86719C15.2701 9.40928 14.3744 10.0008 13.4738 10.5814C13.4098 10.6225 13.3323 10.6697 13.2664 10.721C13.3746 11.104 13.4044 11.505 13.3539 11.8998C13.3034 12.2947 13.1738 12.6752 12.9727 13.0186C13.0192 13.0786 13.0696 13.1354 13.1238 13.1885C13.76 13.8372 14.4102 14.4723 15.0429 15.1243C15.0849 15.1683 15.1311 15.2081 15.1807 15.2434C15.8154 14.8046 16.5693 14.5712 17.3406 14.5749C18.112 14.5785 18.8637 14.8188 19.4942 15.2636C19.5788 15.2113 19.6556 15.1474 19.7224 15.0737C20.2584 14.5054 20.8066 13.9468 21.3782 13.4147C21.4512 13.348 21.5199 13.2767 21.5838 13.2012C21.3724 12.8223 21.247 12.4014 21.2166 11.9685C21.1862 11.5356 21.2515 11.1013 21.408 10.6966C21.3245 10.6264 21.2352 10.5637 21.1408 10.5092C20.5015 10.1281 19.8786 9.71918 19.2536 9.31463C18.949 9.11746 18.6535 8.89451 18.331 8.76254C18.0321 8.96756 17.6806 9.08203 17.3184 9.09227C16.9562 9.1025 16.5987 9.00806 16.2887 8.82025C16.2555 8.83336 16.2234 8.84905 16.1926 8.86719V8.86719Z" fill="black"/>
<path d="M14.0556 20.7162C14.1146 20.651 14.1592 20.5475 14.1847 20.4357C13.7745 19.818 13.5552 19.093 13.5544 18.3513C13.5535 17.6096 13.7711 16.884 14.1799 16.2654C14.1445 16.2141 14.1038 16.1665 14.0587 16.1234C13.4202 15.5033 12.8171 14.845 12.1578 14.2498C12.083 14.1823 11.981 14.1344 11.8695 14.1013C11.195 14.4776 10.3999 14.5743 9.655 14.3706C9.58193 14.4554 9.517 14.5469 9.46107 14.644C9.00152 15.4061 8.51833 16.154 8.03476 16.9014C7.93039 17.0626 7.82238 17.2209 7.73877 17.385C7.95597 17.6956 8.07458 18.0646 8.07914 18.4438C8.0837 18.8229 7.974 19.1946 7.76433 19.5104C7.76837 19.5183 7.7724 19.5262 7.77683 19.5337C8.33132 20.4717 8.9354 21.3804 9.50527 22.3092C9.54574 22.3765 9.59267 22.4397 9.64539 22.4979C10.0438 22.3501 10.4694 22.2903 10.8931 22.3224C11.3168 22.3545 11.7285 22.4778 12.1002 22.6839C12.7794 22.0566 13.4359 21.4018 14.0556 20.7162Z" fill="black"/>
<path d="M7.31168 5.7224C7.46655 5.96604 7.56357 6.24196 7.59529 6.52898C7.62701 6.816 7.59258 7.10647 7.49465 7.3781C7.99917 7.88844 8.49774 8.40475 9.02859 8.88567C9.04073 8.89656 9.05357 8.90665 9.06703 8.91587C9.60695 8.63312 10.2212 8.52495 10.8251 8.60626C11.429 8.68757 11.9929 8.95436 12.439 9.36985C12.7013 9.32369 12.942 9.18172 13.1955 8.97396C13.3073 8.8824 13.4436 8.82161 13.5606 8.7362C14.1595 8.30107 14.8563 7.99482 15.4008 7.49525C15.3384 7.08787 15.4108 6.67125 15.607 6.30891C15.8032 5.94656 16.1124 5.65838 16.4875 5.48829C16.5377 5.32287 16.5619 5.15063 16.5591 4.97775C16.5426 4.32371 16.5551 3.66755 16.554 3.01235C16.554 2.19345 16.5455 1.37436 16.5576 0.555454C16.5634 0.166298 16.4146 -0.0183738 16.0116 0.00143989C15.0861 0.047223 14.1588 0.0631894 13.2341 0.130133C13.0215 0.14533 12.7738 0.268444 12.6202 0.420605C10.8439 2.17998 9.0826 3.95571 7.31168 5.7224Z" fill="black"/>
<path d="M18.2386 5.59335C18.5164 5.76121 18.7462 5.99805 18.9056 6.28093C19.065 6.5638 19.1488 6.8831 19.1487 7.20788C19.1487 7.24635 19.1473 7.28482 19.145 7.3233C19.2255 7.44141 19.3138 7.54894 19.4235 7.62531C20.273 8.21684 21.1481 8.77431 22.0401 9.2989C22.1362 9.35488 22.2707 9.38604 22.4068 9.39046C22.8228 9.08375 23.312 8.89189 23.8254 8.83412C24.3389 8.77635 24.8585 8.8547 25.3321 9.06132C25.4889 9.02805 25.6438 8.95899 25.7419 8.87011C26.2752 8.38612 26.7744 7.86462 27.2814 7.35158C27.1814 7.08968 27.141 6.80882 27.1629 6.52933C27.1848 6.24985 27.2686 5.97876 27.4082 5.7357C25.6575 3.97344 23.916 2.20194 22.1573 0.447562C21.9921 0.282512 21.7249 0.149395 21.495 0.131697C20.5725 0.0612912 19.6449 0.0466714 18.7197 0.00204252C18.3441 -0.0160399 18.1967 0.152857 18.2007 0.521431C18.2111 1.35803 18.204 2.19501 18.2034 3.03142C18.2034 3.24976 18.1959 3.46828 18.2034 3.68547C18.228 4.31893 18.1304 4.97605 18.2386 5.59335Z" fill="black"/>
<path d="M33.9591 7.2344C32.9174 7.2392 31.8673 7.16014 30.8357 7.25479C30.7569 7.49936 30.629 7.72525 30.4599 7.91863C30.2908 8.112 30.0841 8.26878 29.8523 8.37936C29.6205 8.48994 29.3687 8.552 29.1121 8.56172C28.8555 8.57145 28.5997 8.52863 28.3602 8.43591C27.8044 8.94222 27.3004 9.51663 26.7884 10.071C26.7423 10.124 26.7062 10.1849 26.6817 10.2507C27.0001 10.7843 27.1418 11.405 27.0865 12.024C27.0313 12.6431 26.782 13.2288 26.3742 13.6975C26.383 13.7125 26.3925 13.7277 26.4023 13.7431C26.9831 14.6451 27.5434 15.5604 28.1188 16.466L28.1276 16.4797C28.2156 16.4671 28.3044 16.4606 28.3933 16.4605C28.6673 16.46 28.9381 16.5196 29.1867 16.6351C29.2034 16.6192 29.2205 16.6026 29.2378 16.5855C30.6411 15.1851 32.0392 13.7794 33.4321 12.3685C33.6151 12.182 33.7973 11.9297 33.8413 11.6829C34.0814 10.3598 34.2778 9.02821 34.4894 7.70088C34.5106 7.2998 34.2774 7.23286 33.9591 7.2344Z" fill="black"/>
<path d="M5.47484 16.5542C5.51943 16.5986 5.56267 16.638 5.60457 16.6727C5.79463 16.6102 5.99342 16.5784 6.19347 16.5786C6.27567 16.5786 6.35778 16.5839 6.43929 16.5946C6.4844 16.5382 6.52643 16.4795 6.56518 16.4186C7.12602 15.5471 7.69781 14.6809 8.21002 13.7812C8.24929 13.7085 8.27692 13.6301 8.2919 13.5488C7.85924 13.0898 7.58518 12.5039 7.51004 11.8774C7.43489 11.2508 7.56262 10.6166 7.87445 10.0682L7.86926 10.0616C7.4272 9.55609 6.92306 9.10557 6.45967 8.61888C6.42546 8.58291 6.39086 8.5479 6.35626 8.51328C6.11639 8.59882 5.86169 8.63486 5.60752 8.61922C5.35335 8.60358 5.10498 8.53659 4.87738 8.42229C4.64977 8.30798 4.44766 8.14873 4.28321 7.95414C4.11876 7.75954 3.99538 7.53363 3.92052 7.29002C3.67833 7.25965 3.43412 7.24846 3.19017 7.25655C3.15839 7.25757 3.12636 7.25834 3.09407 7.25886C2.8715 7.2629 2.64874 7.2577 2.42598 7.25886C1.91704 7.25886 1.40733 7.27809 0.899347 7.25309C0.439414 7.23 0.262015 7.41679 0.327747 7.86539C0.509759 9.10595 0.671399 10.3498 0.881088 11.5857C0.926447 11.8533 1.09058 12.1401 1.28278 12.3373C2.66835 13.7545 4.07006 15.1559 5.47484 16.5542Z" fill="black"/>
<path d="M23.3713 28.0574C22.9439 27.9491 22.5464 27.7458 22.2083 27.4626C22.1476 27.4824 22.0896 27.5093 22.0353 27.5429C21.3092 27.9905 20.5982 28.4628 19.8729 28.9119C19.6393 29.0566 19.4002 29.193 19.2002 29.3632C19.2048 29.4169 19.2073 29.4709 19.2073 29.5258C19.2074 29.8658 19.1157 30.1996 18.9417 30.4917C18.7678 30.7839 18.5181 31.0234 18.2192 31.1851C18.1763 31.2936 18.152 31.4085 18.1473 31.525C18.1192 33.4506 18.1319 35.3768 18.1344 37.3029C18.1344 37.4772 18.1559 37.6517 18.174 37.9243C18.3643 37.8387 18.4588 37.82 18.5209 37.7648C20.0676 36.3927 21.6186 35.0255 23.1431 33.6289C23.3142 33.4722 23.4028 33.148 23.4068 32.8979C23.4305 31.3721 23.4237 29.8455 23.4168 28.3196C23.416 28.2303 23.4007 28.1418 23.3713 28.0574V28.0574Z" fill="black"/>
<path d="M15.4375 29.5258C15.4375 29.4615 15.4407 29.3973 15.4471 29.3334C15.4222 29.311 15.3959 29.2902 15.3683 29.2713C14.5295 28.6967 13.6604 28.1663 12.8042 27.6169C12.7327 27.5711 12.6637 27.5263 12.5943 27.4888C12.2333 27.8018 11.8015 28.022 11.3364 28.1301C11.3141 28.2225 11.3045 28.3174 11.3081 28.4123C11.3429 29.8659 11.3342 31.3211 11.3127 32.7752C11.306 33.2327 11.4455 33.5874 11.7792 33.8825C13.1931 35.1332 14.6073 36.3836 16.0216 37.6336C16.1381 37.7363 16.2828 37.8067 16.5405 37.9741C16.5584 37.6121 16.5778 37.4006 16.579 37.1892C16.5815 35.4439 16.5732 33.6986 16.5843 31.9532C16.5859 31.711 16.5909 31.4723 16.5549 31.2476C16.2224 31.0993 15.9399 30.8578 15.7416 30.5522C15.5433 30.2466 15.4377 29.8901 15.4375 29.5258Z" fill="black"/>
<path d="M0.691008 5.67028C1.72696 5.65201 2.76676 5.70875 3.79925 5.65104C3.939 5.64325 4.07819 5.62745 4.21613 5.60372C4.39155 5.36979 4.619 5.17998 4.88045 5.04932C5.1419 4.91867 5.43017 4.85076 5.7224 4.85099C5.76904 4.85099 5.81523 4.85266 5.86097 4.856C5.91953 4.80765 5.97661 4.75731 6.03222 4.70499C7.34071 3.46904 8.58616 2.16576 9.85544 0.888833C9.97576 0.766681 10.082 0.630293 10.2477 0.440043C10.0661 0.405225 9.98172 0.368676 9.90176 0.376947C6.73298 0.702623 3.59763 1.22009 0.516106 2.03937C0.136513 2.14017 -0.0176306 2.37313 0.00158935 2.7569C0.0400292 3.5379 0.084235 4.3191 0.0959592 5.10069C0.102494 5.52216 0.272974 5.67701 0.691008 5.67028Z" fill="black"/>
<path d="M33.9916 1.98703C31.2216 1.48341 28.454 0.967486 25.6832 0.467334C25.318 0.401545 24.9417 0.404815 24.4437 0.36615C24.5696 0.562363 24.5986 0.631038 24.6475 0.680091C26.0244 2.06513 27.3627 3.49229 28.8034 4.80653C28.8827 4.79651 28.9625 4.7915 29.0425 4.79153C29.3487 4.79133 29.6503 4.86589 29.9212 5.00876C30.1921 5.15163 30.424 5.35849 30.597 5.61139C30.6411 5.61793 30.6848 5.62364 30.7283 5.62851C31.8238 5.75105 32.9432 5.65679 34.0523 5.66699C34.4068 5.67045 34.5947 5.55253 34.6045 5.17087C34.6237 4.40737 34.6478 3.64291 34.7064 2.88172C34.7477 2.33425 34.5034 2.08032 33.9916 1.98703Z" fill="black"/>
<path d="M7.66705 24.4883C7.72534 24.4844 7.78266 24.4714 7.83696 24.4498C7.95061 24.0515 8.14711 23.6817 8.41355 23.3647C8.40351 23.3358 8.39064 23.3081 8.37511 23.2818C7.77449 22.2834 7.14696 21.3004 6.51213 20.3236C6.17996 20.3802 5.8387 20.347 5.52365 20.2274C5.32549 20.4138 5.13598 20.61 4.94705 20.8058C3.78482 22.0074 3.85517 21.5841 4.49211 23.1848C4.88958 24.1836 5.40218 24.8253 6.41622 24.4929C6.94246 24.4923 7.30591 24.5091 7.66705 24.4883Z" fill="black"/>
<path d="M30.4375 21.4827C30.0292 21.0938 29.6441 20.6808 29.2418 20.2856C29.1812 20.2254 29.1174 20.1685 29.0508 20.115C28.8405 20.1932 28.6181 20.2332 28.3938 20.2329C28.3455 20.2329 28.2977 20.2311 28.2504 20.2276C28.2106 20.2795 28.1699 20.3382 28.1276 20.4047C27.5895 21.2488 27.0636 22.0997 26.5264 22.944C26.452 23.0609 26.3803 23.1709 26.3321 23.285C26.6267 23.6287 26.8379 24.0359 26.9492 24.4748C27.0692 24.5112 27.2058 24.5206 27.3657 24.5021C27.4603 24.492 27.5554 24.4872 27.6506 24.4879C27.6982 24.4879 27.7467 24.4879 27.794 24.4898L27.8778 24.4921C27.9616 24.4946 28.0454 24.4971 28.129 24.4971C28.2007 24.4971 28.2723 24.4952 28.3442 24.4931L28.4161 24.491C28.5749 24.4832 28.734 24.487 28.8922 24.5023C29.3817 24.56 29.6725 24.3677 29.8555 23.9069C30.0702 23.3672 30.3414 22.8489 30.5878 22.3224C30.7348 22.0069 30.7027 21.7353 30.4375 21.4827Z" fill="black"/>
<path d="M26.9096 26.0674C26.773 26.51 26.5342 26.9142 26.2126 27.2474C25.891 27.5806 25.4956 27.8335 25.0584 27.9855C24.9913 28.1019 24.9431 28.2232 24.9367 28.34C24.891 29.1551 24.9163 29.9751 24.9229 30.7921C24.9242 30.9614 24.9613 31.1305 24.983 31.2996L25.1306 31.3434C26.4524 29.7376 27.6292 28.0338 28.6906 26.0549C27.995 26.0547 27.4493 26.0372 26.9096 26.0674Z" fill="black"/>
<path d="M9.75244 28.0603C9.29535 27.91 8.88192 27.6501 8.54817 27.3032C8.21441 26.9564 7.97046 26.5331 7.83756 26.0703C7.82499 26.0669 7.81211 26.0647 7.79912 26.0638C7.26308 26.0322 6.72396 26.0503 5.99918 26.0503C7.09894 28.0265 8.25502 29.7416 9.63847 31.4306C9.7213 31.2176 9.7682 31.1528 9.76878 31.0874C9.77627 30.1063 9.79146 29.1253 9.76666 28.1465C9.76564 28.1173 9.76085 28.0883 9.75244 28.0603V28.0603Z" fill="black"/>
<path d="M32.7306 15.2532C31.8821 16.0996 31.0322 16.9443 30.1994 17.8057C30.318 18.204 30.3024 18.6303 30.155 19.0188C30.421 19.4933 30.9695 19.7603 31.3018 20.1876L31.5105 20.1699L33.1033 15.2134L32.9495 15.1341C32.8754 15.1732 32.7869 15.197 32.7306 15.2532Z" fill="black"/>
<path d="M4.4214 19.1072C4.2683 18.6826 4.27191 18.2171 4.43159 17.7949C3.64223 16.9079 2.76945 16.0946 1.92416 15.2574C1.89879 15.2322 1.83133 15.2495 1.65201 15.2399L3.19844 20.0746L3.43619 20.117C3.76216 19.7788 4.14598 19.4746 4.4214 19.1072Z" fill="black"/>
</svg>
