<?xml version="1.0" encoding="UTF-8"?>
<svg width="37" height="37" fill="none" version="1.1" viewBox="0 0 37 37" xmlns="http://www.w3.org/2000/svg" xmlns:cc="http://creativecommons.org/ns#" xmlns:dc="http://purl.org/dc/elements/1.1/" xmlns:rdf="http://www.w3.org/1999/02/22-rdf-syntax-ns#">
 <g transform="matrix(.5 0 0 .5 39.737 -4.3835)" fill="#8d8e9b">
  <path d="m-51.338 42.42 9.3216-9.3213 9.3266 9.3262 5.424-5.424-14.751-14.751-14.746 14.746z"/>
  <path d="m-55.17 46.249-5.4239-5.4239-5.4242 5.4241 5.4239 5.4239z"/>
  <path d="m-51.338 50.08 9.3217 9.3213 9.3262-9.3259 5.427 5.421-0.0027 3e-3 -14.75 14.751-14.746-14.746-0.0076-0.0076z"/>
  <path d="m-23.44 51.676 5.4242-5.4241-5.4239-5.4239-5.4242 5.4241z"/>
  <path d="m-36.516 46.247h0.0023l-5.504-5.504-4.0675 4.0675h-4e-4l-0.4671 0.4675-0.9641 0.9641-0.0075 0.0076 0.0075 0.0079 5.4991 5.4991 5.504-5.504 0.0026-3e-3z"/>
 </g>
</svg>
