<?xml version="1.0" encoding="UTF-8"?>
<svg width="37" height="37" fill="none" version="1.1" viewBox="0 0 37 37" xmlns="http://www.w3.org/2000/svg" xmlns:cc="http://creativecommons.org/ns#" xmlns:dc="http://purl.org/dc/elements/1.1/" xmlns:rdf="http://www.w3.org/1999/02/22-rdf-syntax-ns#">
 <g transform="matrix(.77037 0 0 .77037 8.0302 8.1129)" fill="#8d8e9b">
  <path d="m1.0417 23.399c1.2691 1.344 8.24 7.7857 19.182 0.3096 7.9119-6.1615 7.7143-19.52 6.9542-23.554-0.2648 0.58709-9.4548 20.712-26.136 23.245zm26.135-23.248c-0.0969-0.040034-10.276-1.4278-20.339 5.0534-6.2487 4.0246-7.0747 9.9152-6.7896 13.84 14.628-1.637 26.797-18.432 27.128-18.894z"/>
  <path d="m27.176 0.15126c-0.0969-0.040034-10.276-1.4278-20.339 5.0534-6.2487 4.0246-7.0747 9.9152-6.7896 13.84 14.628-1.637 26.797-18.432 27.128-18.894z"/>
 </g>
</svg>
