<?xml version="1.0" encoding="UTF-8"?>
<svg width="37" height="37" fill="none" version="1.1" viewBox="0 0 37 37" xmlns="http://www.w3.org/2000/svg" xmlns:cc="http://creativecommons.org/ns#" xmlns:dc="http://purl.org/dc/elements/1.1/" xmlns:rdf="http://www.w3.org/1999/02/22-rdf-syntax-ns#">
 <g transform="matrix(.76319 0 0 .76319 -42.729 11.159)" fill="#8d8e9b">
  <path d="m67.561 10.293c0-5.026 1.3477-8.8997 4.043-11.621 2.3438-2.3698 5.3256-3.5547 8.9454-3.5547 4.8437 0 8.3854 1.5885 10.625 4.7656 1.2369 1.7838 1.901 3.5742 1.9921 5.3711h-6.0156c-0.3906-1.3802-0.8919-2.4219-1.5039-3.125-1.0937-1.25-2.7148-1.875-4.8633-1.875-2.1875 0-3.9127 0.88542-5.1758 2.6562-1.263 1.7578-1.8945 4.2513-1.8945 7.4805 0 3.2292 0.66406 5.651 1.9922 7.2656 1.3412 1.6016 3.0404 2.4024 5.0977 2.4024 2.1093 0 3.7174-0.6901 4.8242-2.0703 0.612-0.7422 1.1198-1.8555 1.5234-3.3399h5.9571c-0.5209 3.138-1.8555 5.6901-4.004 7.6563-2.1354 1.9661-4.8763 2.9492-8.2226 2.9492-4.1406 0-7.3958-1.3281-9.7656-3.9844-2.3698-2.6693-3.5547-6.3281-3.5547-10.977z" fill="#8d8e9b"/>
 </g>
</svg>
