<?xml version="1.0" encoding="UTF-8"?>
<svg width="37" height="37" fill="none" version="1.1" viewBox="0 0 37 37" xmlns="http://www.w3.org/2000/svg" xmlns:cc="http://creativecommons.org/ns#" xmlns:dc="http://purl.org/dc/elements/1.1/" xmlns:rdf="http://www.w3.org/1999/02/22-rdf-syntax-ns#">
 <g transform="matrix(.76319 0 0 .76319 -42.729 11.159)" fill="#8d8e9b">
  <g transform="matrix(1.0763 0 0 1.0763 65.17 -5.0498)" fill="#8d8e9b">
   <path d="m28 12.979v1.6649c-0.0112 0.0464-0.0187 0.0937-0.0225 0.1413-0.0279 0.5392-0.0941 1.0758-0.1981 1.6056-0.7979 4.0481-2.9234 7.1948-6.3766 9.4401-1.7106 1.1041-3.6466 1.8068-5.6643 2.0561-0.3386 0.0452-0.6799 0.0763-1.0199 0.113h-1.6563c-0.0393-0.0104-0.0792-0.0179-0.1194-0.0226-1.0517-0.0638-2.0921-0.2535-3.0991-0.5649-3.4517-1.0704-6.1195-3.1632-8.0273-6.2388-0.0281-0.0452-0.07587-0.0861-0.0576-0.1497 0.01264 0 0.02248-0.0099 0.0309-0.0071l0.1152 0.041c0.42765 0.1846 0.87232 0.3265 1.3276 0.4236 0.39336 0.0707 0.78531 0.1413 1.1815 0.185 0.51214 0.0787 1.0332 0.0787 1.5453 0 0.75341-0.1464 1.5246-0.1769 2.2871-0.0903l0.22899 0.0183c0.08294 0.0173 0.16853 0.0173 0.25147 0-0.02003-0.0136-0.04118-0.0254-0.06322-0.0353-0.80614-0.2888-1.6616-0.4127-2.5161-0.3643-0.16301 0.0148-0.32687 0.0176-0.49029 0.0085-0.70754-0.065-1.379-0.3436-1.926-0.7993-0.83544-0.6559-1.5656-1.437-2.1649-2.3159-0.66168-0.9603-1.0283-2.0491-1.2967-3.1745-0.11801-0.4957-0.18544-0.9984-0.26973-1.4997v-0.2189c0.033716 0.0748 0.071647 0.1412 0.10115 0.2231 0.2012 0.5458 0.49075 1.0544 0.85696 1.5053 0.40178 0.4773 0.88786 0.7838 1.5355 0.7654 0.05084 0.0012 0.10153 0.0059 0.15173 0.0141 0.73252 0.1205 1.4462 0.337 2.1227 0.644 0.347 0.1412 0.68697 0.3078 1.0494 0.4716-0.04017-0.0552-0.0939-0.099-0.15594-0.1271-1.1933-0.7842-2.2796-1.7218-3.2312-2.7889-0.82989-0.9214-1.2755-2.1283-1.2447-3.3708 0.01471-1.0849 0.16912-2.1634 0.45939-3.2084 0.0045-0.02919 0.01541-0.057 0.03193-0.08142 0.01653-0.02443 0.03825-0.04485 0.0636-0.05979 0.37368 3.5303 2.2478 5.9479 5.3904 7.466-0.00429-0.0258-0.01372-0.0505-0.02772-0.0726s-0.03229-0.0411-0.05376-0.0559c-0.74572-0.7351-1.4307-1.53-2.0483-2.3767-1.0986-1.4983-1.6507-3.1519-1.4821-5.0286 0.12337-1.3362 0.56004-2.624 1.2742-3.7577 0.01686-0.02542 0.02669-0.07061 0.08569-0.04943v0.14122c-0.0321 0.71368-0.01144 1.4288 0.06182 2.1394 0.09272 0.75691 0.22618 1.5039 0.58441 2.1888 0.56194 1.076 1.3304 1.994 2.1761 2.8497 0.01566 0.0137 0.03316 0.0251 0.05198 0.0339 0.01264-0.0622-0.02529-0.096-0.04636-0.1342-0.54753-0.98215-1.0091-2.0103-1.3796-3.0728-0.30361-0.82852-0.40009-1.7193-0.28097-2.5941 0.19949-1.367 0.80919-2.5419 1.6647-3.6038 0.06603-0.0805 0.14049-0.15816 0.20933-0.24148 0.01162 0.01491 0.01793 0.03331 0.01793 0.05225s-0.00631 0.03734-0.01793 0.05225c-0.29561 0.66303-0.4625 1.3767-0.4917 2.1027-0.06605 1.2683 0.0904 2.5383 0.46219 3.7521 0.14521 0.5686 0.41174 1.0986 0.7811 1.5534 0.04636 0.05366 0.08429 0.12144 0.1742 0.14121 0.00188-0.02491 0.00188-0.04993 0-0.07484-0.18709-1.037-0.25544-2.0922-0.2037-3.1448 0.04439-0.95156 0.25307-1.8881 0.61672-2.7678 0.26519-0.66153 0.68317-1.2501 1.2195-1.7172 0.5347-0.45839 1.1665-0.78781 1.8473-0.96308h0.281c-0.1856 0.099964-0.3645 0.21224-0.5353 0.33609-0.6476 0.51982-1.1481 1.2016-1.4512 1.977-0.3424 0.85971-0.5326 1.773-0.5619 2.6986-0.07171 1.165-0.0014 2.3345 0.2093 3.4824 0.4215 2.145 1.4807 3.9258 3.0612 5.3958 1.0185 0.9475 2.2365 1.309 3.6147 1.0266 0.5113-0.1045 0.9946-0.2824 1.3739-0.668 0.1222-0.1228 0.2515-0.2753 0.1756-0.4617s-0.281-0.1568-0.4425-0.1794c-0.1026-0.0155-0.2627 0.0805-0.2936-0.0113s0.1152-0.1878 0.198-0.2683c0.6228-0.6305 1.2794-1.2264 1.9668-1.7849 0.4341-0.3446 0.7025-0.8134 0.9286-1.3034 0.0731-0.154 0.0183-0.2232-0.1404-0.1893-0.1223 0.0269-0.1279-0.0212-0.1124-0.12 0.0238-0.15675 0.0421-0.31491 0.0576-0.47307 0.038-0.21449 0.0106-0.43553-0.0787-0.63405-0.1421-0.27771-0.348-0.51736-0.6006-0.6991-0.2526-0.18173-0.5447-0.30031-0.852-0.34589-0.3849-0.06354-0.7657 0-1.1464 0.01695-0.5254 0.02683-1.0494 0.0706-1.5748 0.10308-0.1644 0.00989-0.1883-0.01694-0.1405-0.15816 0.2164-0.70607 0.524-1.3698 1.0691-1.8951 0.177-0.17087 0.3484-0.34739 0.517-0.52673 0.0875-0.07348 0.1507-0.17199 0.1812-0.28243 0.1054-0.62841 0.4734-1.069 1.0003-1.3881 0.5223-0.29691 1.104-0.473 1.7026-0.51543 1.6142-0.16805 2.9024 0.4886 4.0137 1.5957 1.7022 2.0485 2.7898 4.5414 3.1356 7.1878 0.0492 0.3488 0.0787 0.706 0.118 1.0633z" fill="#8d8e9b"/>
  </g>
 </g>
</svg>
