<?xml version="1.0" encoding="UTF-8"?>
<svg width="37" height="37" fill="none" version="1.1" viewBox="0 0 37 37" xmlns="http://www.w3.org/2000/svg" xmlns:cc="http://creativecommons.org/ns#" xmlns:dc="http://purl.org/dc/elements/1.1/" xmlns:rdf="http://www.w3.org/1999/02/22-rdf-syntax-ns#">
 <g transform="matrix(.76319 0 0 .76319 -42.729 11.159)" fill="#8d8e9b">
  <g transform="matrix(.58733 0 0 .58733 63.503 -2.6769)" stroke-width="1.3103">
   <g fill="#8d8e9b">
    <path d="m28.666 18.702c6.4162 0 11.618-5.2013 11.618-11.618 0-6.4162-5.2013-11.618-11.618-11.618-6.4162 0-11.618 5.2014-11.618 11.618 0 6.4162 5.2013 11.618 11.618 11.618z"/>
    <path d="m28.666 46.778c6.4162 0 11.618-5.2013 11.618-11.618 0-6.4162-5.2013-11.618-11.618-11.618-6.4162 0-11.618 5.2013-11.618 11.618 0 6.4162 5.2013 11.618 11.618 11.618z"/>
    <path d="m42.703 32.74c6.4162 0 11.618-5.2013 11.618-11.618 0-6.4162-5.2013-11.618-11.618-11.618-6.4162 0-11.618 5.2013-11.618 11.618 0 6.4162 5.2013 11.618 11.618 11.618z"/>
    <path d="m14.628 32.74c6.4162 0 11.618-5.2013 11.618-11.618 0-6.4162-5.2013-11.618-11.618-11.618-6.4162 0-11.618 5.2013-11.618 11.618 0 6.4162 5.2014 11.618 11.618 11.618z"/>
   </g>
   <g clip-rule="evenodd" fill="#e6e6e6" fill-rule="evenodd">
    <path d="m25.918 18.376c-4.2097-1.0206-7.5233-4.3342-8.5439-8.5439 4.2097 1.0206 7.5233 4.3342 8.5439 8.5439z"/>
    <path d="m17.375 32.414c1.0206-4.2097 4.3342-7.5233 8.5439-8.5439-1.0206 4.2096-4.3342 7.5233-8.5439 8.5439z"/>
    <path d="m31.413 23.87c4.2097 1.0206 7.5233 4.3342 8.5439 8.5439-4.2097-1.0206-7.5233-4.3343-8.5439-8.5439z"/>
    <path d="m39.957 9.8318c-1.0206 4.2097-4.3342 7.5233-8.5439 8.5439 1.0206-4.2097 4.3342-7.5233 8.5439-8.5439z"/>
   </g>
  </g>
 </g>
</svg>
