<?xml version="1.0" standalone="no"?>
<!DOCTYPE svg PUBLIC "-//W3C//DTD SVG 20010904//EN"
 "http://www.w3.org/TR/2001/REC-SVG-20010904/DTD/svg10.dtd">
<svg version="1.0" xmlns="http://www.w3.org/2000/svg"
 width="624.000000pt" height="624.000000pt" viewBox="0 0 624.000000 624.000000"
 preserveAspectRatio="xMidYMid meet">
<metadata>
Created by potrace 1.11, written by Peter Selinger 2001-2013
</metadata>
<g transform="translate(0.000000,624.000000) scale(0.100000,-0.100000)"
fill="#000000" stroke="none">
<path d="M1180 5719 c-108 -42 -223 -85 -320 -121 -30 -11 -64 -24 -75 -29
-56 -24 -240 -89 -252 -89 -7 0 -13 -5 -13 -12 0 -6 -3 -9 -6 -5 -3 3 -26 -3
-50 -13 -24 -11 -45 -19 -47 -19 -1 0 -15 -5 -32 -11 -16 -7 -69 -26 -117 -44
-144 -53 -210 -111 -249 -221 -18 -50 -19 -73 -14 -213 12 -315 19 -466 31
-707 3 -49 4 -99 4 -110 -1 -24 -2 -18 4 -125 3 -47 7 -150 11 -230 3 -80 8
-192 10 -250 3 -58 8 -161 11 -230 3 -69 7 -165 9 -215 2 -49 6 -151 9 -225 3
-74 6 -135 6 -135 1 0 3 -45 5 -100 2 -55 6 -161 10 -235 13 -295 15 -349 19
-450 3 -58 8 -172 11 -255 8 -221 14 -262 48 -330 23 -48 101 -125 148 -147
76 -35 150 -68 154 -68 2 0 38 -16 79 -35 42 -19 79 -35 82 -35 3 0 30 -11 60
-25 30 -14 57 -25 59 -25 2 0 28 -11 57 -24 29 -14 177 -77 328 -141 151 -64
304 -130 339 -147 36 -17 69 -31 75 -32 6 -1 34 -12 61 -25 28 -12 72 -32 100
-43 27 -11 72 -30 100 -42 27 -12 66 -29 85 -36 19 -8 45 -20 58 -26 13 -7 29
-11 35 -10 7 1 245 118 530 259 285 141 522 257 527 257 6 0 10 5 10 10 0 6 5
10 11 10 7 0 242 114 523 254 420 208 517 261 547 293 84 91 108 189 84 340
-3 18 -7 48 -10 65 -27 185 -36 247 -40 268 -2 14 -6 43 -9 66 -2 22 -7 56
-10 75 -4 19 -8 50 -11 69 -2 19 -4 35 -5 35 -1 0 -3 14 -4 30 -2 17 -7 53
-11 80 -4 28 -9 59 -10 70 -3 17 -16 108 -51 345 -4 25 -8 54 -9 65 -11 80
-16 114 -22 140 -3 17 -7 44 -8 60 -2 17 -5 47 -9 68 -8 49 -16 104 -22 147
-9 70 -14 103 -20 111 -3 5 -1 9 5 9 9 0 326 -132 456 -190 22 -10 96 -41 165
-70 69 -28 143 -60 165 -70 l41 -19 17 -140 c10 -78 20 -151 22 -163 3 -13 7
-43 9 -68 3 -25 7 -56 10 -70 2 -14 8 -52 11 -85 12 -100 23 -180 30 -225 2
-14 9 -68 15 -120 6 -52 13 -106 16 -120 2 -14 7 -47 10 -75 3 -27 7 -61 9
-74 3 -13 7 -45 10 -70 3 -25 8 -56 11 -69 l4 -22 53 28 c28 16 88 48 132 72
157 84 211 114 275 149 36 20 85 47 110 59 25 13 72 37 105 55 33 19 96 53
140 77 44 23 103 55 130 70 28 15 91 49 140 75 50 26 98 55 109 64 10 9 20 15
22 14 24 -16 27 16 8 97 -3 14 -7 39 -10 55 -2 17 -6 41 -10 55 -3 14 -8 39
-11 55 -3 17 -9 50 -14 75 -5 25 -11 59 -14 75 -2 17 -7 41 -10 55 -3 14 -8
39 -10 55 -2 17 -6 42 -9 58 -13 63 -45 238 -51 277 -2 14 -9 50 -15 80 -6 30
-13 69 -15 85 -3 17 -7 41 -10 55 -3 14 -15 74 -25 134 -18 102 -33 134 -62
136 -5 0 -10 0 -13 0 -2 1 -38 16 -79 35 -41 18 -77 31 -80 28 -3 -4 -6 -2 -6
4 0 6 -10 13 -22 16 -21 5 -206 80 -268 109 -14 6 -31 12 -38 14 -7 1 -24 9
-37 18 -13 9 -29 16 -35 16 -8 0 -152 59 -310 127 -62 27 -93 40 -164 68 -38
15 -77 31 -85 35 -9 5 -45 20 -81 35 -36 15 -79 33 -97 41 -17 8 -34 14 -37
14 -3 0 -29 11 -58 24 -29 12 -127 53 -218 90 -91 38 -183 76 -205 86 -22 10
-92 39 -155 65 -144 59 -226 93 -265 111 -46 21 -274 114 -280 114 -2 0 -28
11 -57 24 -29 13 -105 45 -168 71 -63 26 -139 58 -168 71 -29 13 -56 24 -60
24 -5 0 -32 11 -60 25 -29 14 -55 25 -58 25 -4 0 -34 12 -68 26 -82 36 -106
46 -211 89 -144 60 -214 89 -273 116 -57 25 -72 25 -66 -3 2 -13 7 -50 9 -83
5 -63 11 -129 20 -230 3 -33 8 -82 10 -110 2 -27 6 -70 9 -95 3 -25 8 -74 11
-110 3 -36 7 -85 10 -110 2 -25 7 -74 10 -110 3 -36 8 -87 10 -115 3 -27 7
-79 10 -115 4 -36 8 -78 9 -95 2 -16 7 -66 11 -110 3 -44 8 -100 10 -125 2
-25 6 -67 9 -95 7 -61 16 -162 21 -235 3 -30 7 -73 9 -95 2 -22 8 -76 11 -120
4 -44 9 -93 10 -110 2 -16 6 -64 9 -105 4 -41 9 -91 11 -110 4 -33 12 -113 21
-220 2 -25 6 -79 9 -120 2 -41 5 -75 6 -75 1 0 3 -18 4 -40 4 -57 15 -165 20
-195 2 -14 7 -63 10 -110 4 -47 8 -101 10 -121 l4 -36 -97 -38 c-53 -21 -110
-44 -127 -51 -16 -7 -127 -52 -245 -99 -118 -48 -227 -93 -242 -100 -25 -12
-27 -11 -32 14 -3 14 -8 69 -12 121 -3 52 -7 111 -9 130 -2 19 -7 77 -10 127
-3 51 -8 110 -10 130 -5 48 -15 186 -21 272 -2 36 -6 93 -9 126 -6 70 -14 175
-20 260 -2 33 -7 92 -10 130 -4 39 -8 98 -10 132 -3 59 -7 106 -21 263 -3 36
-7 94 -9 130 -2 36 -7 94 -10 130 -3 36 -7 92 -10 125 -2 33 -6 92 -9 130 -4
39 -9 104 -12 145 -3 41 -7 93 -9 115 -2 22 -6 85 -9 140 -4 55 -9 118 -11
140 -3 22 -7 74 -10 115 -2 41 -6 100 -9 130 -3 30 -8 91 -11 135 -5 75 -9
121 -20 270 -3 33 -7 90 -10 127 -5 79 -22 124 -60 163 -66 65 -134 69 -275
14z"/>
</g>
</svg>
