<?xml version="1.0" standalone="no"?>
<!DOCTYPE svg PUBLIC "-//W3C//DTD SVG 20010904//EN"
 "http://www.w3.org/TR/2001/REC-SVG-20010904/DTD/svg10.dtd">
<svg version="1.0" xmlns="http://www.w3.org/2000/svg"
 width="792.000000pt" height="792.000000pt" viewBox="0 0 792.000000 792.000000"
 preserveAspectRatio="xMidYMid meet">
<metadata>
Created by potrace 1.11, written by Peter Selinger 2001-2013
</metadata>
<g transform="translate(0.000000,792.000000) scale(0.100000,-0.100000)"
fill="#000000" stroke="none">
<path d="M2150 7760 c-104 -106 -621 -632 -1345 -1365 -147 -148 -381 -386
-521 -527 l-255 -257 -5 -148 c-2 -81 -6 -213 -9 -293 -2 -80 -6 -219 -9 -308
l-5 -164 1087 -1084 c597 -596 1647 -1644 2333 -2329 l1246 -1244 334 4 c184
2 385 4 447 4 l112 1 190 188 c188 186 959 947 1408 1390 675 665 684 674 680
704 -3 15 -2 28 2 28 6 0 4 76 -3 88 -3 4 -1 16 3 27 4 11 4 32 -1 47 -4 15
-4 30 0 32 7 5 5 92 -4 114 -2 6 -1 12 3 12 4 0 6 17 4 38 -4 54 -3 104 2 109
3 3 1 15 -4 28 -5 13 -6 26 -3 29 4 3 6 31 6 61 0 30 -2 58 -6 61 -3 3 -2 16
3 29 5 13 6 25 3 29 -7 7 -10 96 -3 96 7 0 3 168 -4 186 -3 8 -1 14 4 14 5 0
5 13 0 30 -5 17 -6 30 -2 30 4 0 7 16 7 35 0 19 -3 35 -7 35 -4 0 -3 11 2 25
5 13 5 27 1 29 -5 3 -5 24 -1 46 4 22 4 40 0 40 -4 0 -4 16 0 35 5 21 4 35 -2
35 -5 0 -6 5 -3 10 9 14 11 98 3 105 -3 4 -3 19 1 33 8 28 4 52 -8 52 -4 0
-106 -99 -227 -220 -120 -121 -729 -732 -1352 -1358 l-1133 -1137 -1974 1980
c-1086 1089 -1975 1982 -1975 1985 0 3 608 615 1350 1359 742 745 1348 1356
1346 1358 -1 2 -362 5 -802 7 l-799 4 -115 -118z"/>
<path d="M4365 7559 c-170 -171 -784 -783 -1364 -1360 l-1054 -1050 656 -657
c361 -361 1072 -1075 1581 -1586 l925 -928 688 691 c378 379 993 996 1366
1370 500 501 677 685 678 703 0 12 -2 38 -4 56 -2 18 0 35 5 38 5 3 5 10 1 17
-3 6 -8 151 -9 321 -1 171 -3 334 -3 363 -1 58 22 30 -230 277 l-122 119 -112
-110 c-62 -61 -219 -216 -349 -345 -130 -128 -492 -486 -805 -795 -943 -932
-1097 -1083 -1103 -1083 -7 0 -360 358 -360 364 0 4 150 157 952 968 295 299
645 653 778 788 133 135 322 327 421 426 98 100 179 185 179 188 0 12 -771
777 -780 774 -8 -3 -161 -152 -957 -935 -121 -120 -407 -400 -633 -623 -227
-223 -490 -481 -585 -575 -95 -93 -181 -178 -192 -187 -19 -17 -25 -13 -201
163 -100 99 -182 184 -182 188 0 4 129 134 288 289 158 155 361 354 452 443
91 89 329 322 528 518 200 196 433 424 517 506 612 599 597 584 583 598 -20
20 -200 217 -221 241 -10 12 -43 47 -74 79 l-55 57 -446 0 -447 -1 -310 -310z"/>
<path d="M10 3123 l0 -802 82 -79 c46 -44 108 -103 140 -133 250 -239 471
-450 586 -561 l73 -70 -5 788 -4 787 -436 436 -436 436 0 -802z"/>
<path d="M1434 2742 c-1 -97 -4 -330 -8 -517 -3 -187 -9 -465 -11 -618 l-6
-278 98 -95 c54 -52 176 -170 272 -262 95 -92 251 -242 345 -334 154 -151 174
-168 206 -168 146 -3 1553 -1 1555 2 4 3 -2439 2448 -2446 2448 -2 0 -5 -80
-5 -178z"/>
</g>
</svg>
