<svg width="30" height="19" viewBox="0 0 30 19" fill="none" xmlns="http://www.w3.org/2000/svg">
<path d="M0.211568 10.039L8.30401 18.7471C8.45374 18.908 8.66374 19 8.88368 19H12.3611C13.0526 19 13.4117 18.1755 12.9408 17.6692L5.34351 9.50031L12.9408 1.33145C13.4117 0.825087 13.0526 0.000617981 12.3611 0.000617981H8.88368C8.66374 0.000617981 8.45374 0.0919495 8.30401 0.253489L0.211568 8.96164C-0.0705032 9.26546 -0.0705032 9.73516 0.211568 10.039Z" fill="#8D8E9B"/>
<path d="M8.75822 10.039L16.8507 18.7465C17.0004 18.9081 17.2104 18.9994 17.4303 18.9994H20.9078C21.5993 18.9994 21.9584 18.1749 21.4874 17.6686L17.1557 13.0107L28.5845 13.0107C29.2705 13.0107 29.8271 12.454 29.8271 11.7681V7.23071C29.8271 6.54479 29.2705 5.98811 28.5845 5.98811L17.1563 5.98811L21.488 1.33084C21.959 0.824478 21.5999 1.14441e-05 20.9084 1.14441e-05H17.431C17.211 1.14441e-05 17.001 0.0913429 16.8513 0.252882L8.75884 8.96103C8.47615 9.26485 8.47615 9.73517 8.75822 10.039Z" fill="#8D8E9B"/>
</svg>
