<svg width="30" height="19" viewBox="0 0 30 19" fill="none" xmlns="http://www.w3.org/2000/svg">
<path d="M29.6156 8.96102L21.5231 0.252869C21.3734 0.0919523 21.1634 0 20.9435 0L17.466 0C16.7745 0 16.4154 0.824466 16.8864 1.33083L24.4836 9.49969L16.8864 17.6686C16.4154 18.1749 16.7745 18.9994 17.466 18.9994H20.9435C21.1634 18.9994 21.3734 18.9081 21.5231 18.7465L29.6156 10.0384C29.8977 9.73454 29.8977 9.26484 29.6156 8.96102Z" fill="#8D8E9B"/>
<path d="M21.0689 8.96104L12.9765 0.25351C12.8268 0.0919718 12.6168 0.000640869 12.3968 0.000640869H8.91939C8.22789 0.000640869 7.86877 0.825107 8.33972 1.33147L12.6714 5.98936H1.2426C0.556686 5.98936 0 6.54604 0 7.23196L0 11.7693C0 12.4552 0.556686 13.0119 1.2426 13.0119H12.6708L8.3391 17.6692C7.86815 18.1756 8.22726 19 8.91877 19H12.3962C12.6161 19 12.8261 18.9087 12.9759 18.7471L21.0683 10.039C21.351 9.73518 21.351 9.26486 21.0689 8.96104Z" fill="#8D8E9B"/>
</svg>
