<svg width="23" height="23" viewBox="0 0 23 23" fill="none" xmlns="http://www.w3.org/2000/svg">
<path d="M11.5089 4.16209e-06C5.15721 -0.00534154 0.00534986 5.13942 4.16209e-06 11.4911C-0.00534154 17.8428 5.13942 22.9947 11.4911 23C17.8419 22.9947 22.9902 17.8508 23 11.5C23 5.15187 17.857 0.00534986 11.5089 4.16209e-06ZM11.4911 21.0863C6.19684 21.0863 1.90483 16.7943 1.90483 11.5C1.90483 6.20573 6.19684 1.91372 11.4911 1.91372C16.7836 1.91907 21.072 6.20753 21.0774 11.5C21.0774 16.7943 16.7854 21.0863 11.4911 21.0863Z" fill="#8B8C99"/>
<path d="M14.3168 10.9393C15.0859 10.5058 15.5016 9.63804 15.3583 8.7675C15.1802 7.42348 13.5781 6.91609 12.3141 6.80931V4.78882H11.068V6.79152H10.2313V4.78882H8.9852V6.79152H6.4751V8.08217H7.4097C7.82806 8.08217 8.03276 8.20679 8.03276 8.545V14.0903C8.03276 14.5531 7.80133 14.6956 7.5521 14.6956H6.59971V16.0129H9.02078V18.0601H10.2758V16.0129H11.1125V18.0601H12.3319V16.0129H12.5989C15.1624 16.0129 16.0169 14.7579 16.0169 13.0489C15.9964 12.0413 15.2977 11.1743 14.3168 10.9393ZM10.2313 8.16227H11.1214C11.7444 8.16227 12.9728 8.26909 12.9728 9.28379C13.0155 9.94602 12.5357 10.5264 11.8779 10.61H10.2313C10.2313 10.61 10.2313 8.16227 10.2313 8.16227ZM11.6109 14.5709V14.562H10.2313V11.8917H11.8335C12.2073 11.8917 13.6136 12.0163 13.6136 13.0132C13.6136 14.0101 12.9461 14.5709 11.6109 14.5709Z" fill="#8B8C99"/>
</svg>
