<svg width="15" height="15" viewBox="0 0 15 15" fill="none" xmlns="http://www.w3.org/2000/svg">
<path d="M8.85976 7.50001L14.7181 1.64161C15.0939 1.26594 15.094 0.657644 14.7181 0.281881C14.3424 -0.0939114 13.7342 -0.0939993 13.3584 0.281851L7.5 6.14025L1.64161 0.281881C1.26594 -0.0938821 0.657617 -0.0939993 0.281855 0.281822C-0.0939369 0.657585 -0.0939662 1.26579 0.281855 1.64158L6.14018 7.50001L0.281825 13.3584C-0.0930873 13.7333 -0.0930873 14.3433 0.281825 14.7181C0.657559 15.0939 1.26582 15.094 1.64158 14.7181L7.49994 8.85971L13.3583 14.7181C13.734 15.0939 14.3423 15.0939 14.718 14.7181C15.0938 14.3424 15.0939 13.7341 14.7181 13.3583L8.85976 7.50001Z" fill="#8D8E9B"/>
</svg>
