<svg width="36" height="24" viewBox="0 0 36 24" fill="none" xmlns="http://www.w3.org/2000/svg">
<path d="M31.381 13.0437C31.556 12.3479 31.731 11.826 31.731 11.1301C31.731 7.30291 28.581 4.17155 24.731 4.17155C24.031 4.17155 23.331 4.34552 22.806 4.51948C21.056 2.25794 18.256 0.692261 15.106 0.692261C9.85596 0.692261 5.48096 5.04137 5.48096 10.2603C5.48096 11.1301 5.65596 12 5.83096 12.8698H5.48096C2.50596 12.8698 0.230957 15.1313 0.230957 18.0887C0.230957 21.0461 2.50596 23.3076 5.48096 23.3076H14.231V16.3491H10.731L17.731 9.39049L24.731 16.3491H21.231V23.3076H29.981C32.956 23.3076 35.231 21.0461 35.231 18.0887C35.231 15.6532 33.656 13.7396 31.381 13.0437Z" fill="#727272"/>
</svg>
