<svg width="17" height="18" viewBox="0 0 17 18" fill="none" xmlns="http://www.w3.org/2000/svg">
<path fill-rule="evenodd" clip-rule="evenodd" d="M7.58936 17.3076C11.697 17.3076 15.0269 13.5882 15.0269 8.99995C15.0269 4.41173 11.697 0.692261 7.58936 0.692261C3.48173 0.692261 0.151855 4.41173 0.151855 8.99995C0.151855 13.5882 3.48173 17.3076 7.58936 17.3076Z" fill="#FFD12B"/>
<path fill-rule="evenodd" clip-rule="evenodd" d="M15.0267 8.99995C15.0267 4.7565 12.1777 1.25837 8.49993 0.756349C8.79865 0.7157 9.10222 0.692261 9.41064 0.692261C13.5183 0.692261 16.8481 4.41173 16.8481 8.99995C16.8481 13.5882 13.5183 17.3076 9.41064 17.3076C9.10222 17.3076 8.79865 17.2842 8.49993 17.2436C12.1777 16.7415 15.0267 13.2434 15.0267 8.99995Z" fill="#FFB023"/>
<path fill-rule="evenodd" clip-rule="evenodd" d="M15.0273 9.29663H16.8481C16.8421 9.49631 16.8305 9.69421 16.812 9.89004H14.9897C15.0085 9.69421 15.0209 9.49631 15.0273 9.29663Z" fill="#FF6D15"/>
<path fill-rule="evenodd" clip-rule="evenodd" d="M14.9579 7.81311H16.7781C16.8033 8.00864 16.8215 8.20684 16.834 8.40652H15.0129C15.0001 8.20684 14.9831 8.00864 14.9579 7.81311Z" fill="#FF6D15"/>
<path fill-rule="evenodd" clip-rule="evenodd" d="M14.8604 10.7802H16.6821C16.6427 10.9807 16.5971 11.1786 16.5452 11.3736H14.7241C14.7757 11.1786 14.8209 10.9807 14.8604 10.7802Z" fill="#FF6D15"/>
<path fill-rule="evenodd" clip-rule="evenodd" d="M14.4357 12.2637H16.2583C16.1809 12.466 16.0953 12.6633 16.0042 12.8571H14.1825C14.2736 12.6636 14.3582 12.4657 14.4357 12.2637Z" fill="#FF6D15"/>
<path fill-rule="evenodd" clip-rule="evenodd" d="M14.6407 6.32959H16.46C16.5192 6.52452 16.5745 6.72183 16.6206 6.923H14.7971C14.7509 6.72243 14.6996 6.52393 14.6407 6.32959Z" fill="#FF6D15"/>
<path fill-rule="evenodd" clip-rule="evenodd" d="M14.036 4.84607H15.8574C15.9576 5.03922 16.052 5.23683 16.1382 5.43948H14.3155C14.2293 5.23712 14.1361 5.03922 14.036 4.84607Z" fill="#FF6D15"/>
<path fill-rule="evenodd" clip-rule="evenodd" d="M12.7968 3.06592H14.6204C14.7931 3.25462 14.9574 3.45252 15.1128 3.65932H13.2898C13.1341 3.45252 12.9696 3.25462 12.7968 3.06592Z" fill="#FF6D15"/>
<path fill-rule="evenodd" clip-rule="evenodd" d="M10.9406 1.5824H12.7659C13.0762 1.75745 13.3737 1.95565 13.6572 2.1758H11.8331C11.5492 1.95565 11.2511 1.75745 10.9406 1.5824Z" fill="#FF6D15"/>
<path fill-rule="evenodd" clip-rule="evenodd" d="M13.5029 14.0439H15.3252C15.1843 14.2496 15.0356 14.4475 14.8783 14.6374H13.0548C13.212 14.4475 13.3617 14.2496 13.5029 14.0439Z" fill="#FF6D15"/>
<path fill-rule="evenodd" clip-rule="evenodd" d="M14.0151 15.5275C13.7714 15.742 13.5161 15.9411 13.2489 16.1209H11.4232C11.6916 15.9408 11.9496 15.7429 12.1943 15.5275H14.0151Z" fill="#FF6D15"/>
<path fill-rule="evenodd" clip-rule="evenodd" d="M11.9238 6.40812C11.4674 6.40812 11.0974 6.79482 11.0974 7.27182C11.0975 7.36237 11.1115 7.45231 11.1387 7.53828L10.4685 7.98352C10.0272 8.27737 9.44541 8.17998 9.11402 7.7568L8.45704 6.91686C8.56159 6.76976 8.61811 6.5914 8.61819 6.40814C8.61819 5.93113 8.24819 5.54443 7.79179 5.54443C7.33539 5.54443 6.9654 5.93113 6.9654 6.40814C6.96547 6.5914 7.02199 6.76976 7.12654 6.91686L6.46956 7.7568C6.13823 8.17974 5.55671 8.27711 5.11553 7.98352L4.44495 7.53828C4.47217 7.45231 4.48611 7.36237 4.48627 7.27182C4.48634 6.79482 4.11643 6.40806 3.66001 6.40798C3.20363 6.4079 2.83357 6.79453 2.8335 7.27154C2.83342 7.71931 3.16078 8.0929 3.58757 8.13207L4.07597 11.1939C4.09253 11.298 4.17868 11.3743 4.27966 11.3744H11.304C11.405 11.3743 11.4911 11.298 11.5077 11.1939L11.9961 8.13207C12.4506 8.08945 12.7861 7.66976 12.7453 7.19466C12.7072 6.74994 12.351 6.40895 11.9238 6.40812Z" fill="#FFB023"/>
<path fill-rule="evenodd" clip-rule="evenodd" d="M7.79173 12.2381C9.82598 12.2381 11.4751 11.7547 11.4751 11.1585C11.4751 10.5622 9.82598 10.0789 7.79173 10.0789C5.75748 10.0789 4.1084 10.5622 4.1084 11.1585C4.1084 11.7547 5.75748 12.2381 7.79173 12.2381Z" fill="#FFB023"/>
</svg>
