<svg width="11" height="14" viewBox="0 0 11 14" fill="none" xmlns="http://www.w3.org/2000/svg">
<path d="M8.2723 6.48823C9.08359 6.03093 9.52208 5.11548 9.37091 4.19714C9.18311 2.77933 7.493 2.24408 6.15964 2.13143V0H4.84508V2.11267H3.96247V0H2.64792V2.11267H0V3.47418H0.985916C1.42724 3.47418 1.64319 3.60564 1.64319 3.96243V9.81219C1.64319 10.3004 1.39905 10.4507 1.13614 10.4507H0.131455V11.8404H2.68545V14H4.00939V11.8404H4.892V14H6.1784V11.8404H6.46008C9.1643 11.8404 10.0657 10.5164 10.0657 8.71363C10.0441 7.65067 9.30703 6.73612 8.2723 6.48823ZM3.96243 3.55868H4.90138C5.55866 3.55868 6.85444 3.67137 6.85444 4.74178C6.89951 5.44038 6.3934 6.05259 5.69949 6.14082H3.96243C3.96243 6.14082 3.96243 3.55868 3.96243 3.55868ZM5.41782 10.3192V10.3098H3.96243V7.49291H5.65258C6.04695 7.49291 7.53049 7.62436 7.53049 8.67601C7.53049 9.72765 6.82629 10.3192 5.41782 10.3192Z" fill="#787885"/>
</svg>
