<svg width="18" height="18" viewBox="0 0 18 18" fill="none" xmlns="http://www.w3.org/2000/svg">
<path fill-rule="evenodd" clip-rule="evenodd" d="M9 18C13.9706 18 18 13.9706 18 9C18 4.02944 13.9706 0 9 0C4.02944 0 0 4.02944 0 9C0 13.9706 4.02944 18 9 18Z" fill="#F9F9F9"/>
<path fill-rule="evenodd" clip-rule="evenodd" d="M10.5455 10.5975C10.3827 10.5975 10.2505 10.4651 10.25 10.3014C10.2495 10.1374 10.3814 10.004 10.5446 10.0035C11.287 10.0012 11.9933 9.55076 12.5334 8.73509C13.0517 7.95221 13.3563 6.9284 13.4027 5.8257H12.1009C11.9377 5.8257 11.8054 5.69274 11.8054 5.52869C11.8054 5.36464 11.9377 5.23169 12.1009 5.23169H13.7045C13.8677 5.23169 14 5.36464 14 5.52869C14 6.85948 13.6539 8.11502 13.0256 9.06419C12.3727 10.05 11.4924 10.5946 10.5465 10.5975C10.5462 10.5975 10.5459 10.5975 10.5455 10.5975Z" fill="#C56D41"/>
<path fill-rule="evenodd" clip-rule="evenodd" d="M7.45453 10.5975C7.45415 10.5975 7.45392 10.5975 7.45361 10.5975C6.50772 10.5946 5.62725 10.05 4.97452 9.06419C4.34611 8.11502 4 6.85948 4 5.52869C4 5.36464 4.1323 5.23169 4.29554 5.23169H5.89909C6.06233 5.23169 6.19463 5.36464 6.19463 5.52869C6.19463 5.69274 6.06233 5.8257 5.89909 5.8257H4.59732C4.64373 6.9284 4.94827 7.95221 5.46663 8.73509C6.00668 9.55076 6.71298 10.0012 7.45538 10.0035C7.61862 10.004 7.75054 10.1374 7.75 10.3014C7.74954 10.4651 7.61731 10.5975 7.45453 10.5975Z" fill="#DC914E"/>
<path fill-rule="evenodd" clip-rule="evenodd" d="M12.2118 4.5H6.03819C5.87908 4.5 5.75 4.629 5.75 4.78816C5.75 6.48091 6.08194 8.07692 6.68458 9.2821C7.0707 10.0542 7.54291 10.6147 8.06509 10.9356V12.5045C8.06509 12.6637 8.19418 12.7927 8.35328 12.7927H9.89672C10.0559 12.7927 10.1849 12.6637 10.1849 12.5045V10.9356C10.7071 10.6148 11.1794 10.0542 11.5654 9.2821C12.1681 8.07692 12.5 6.48091 12.5 4.78816C12.5 4.629 12.371 4.5 12.2118 4.5Z" fill="#EC9D58"/>
<path fill-rule="evenodd" clip-rule="evenodd" d="M10.0992 12.5045V10.9356C10.6407 10.6148 11.1305 10.0542 11.5308 9.2821C12.1558 8.07692 12.5 6.48091 12.5 4.78816C12.5 4.629 12.3662 4.5 12.2011 4.5H9V12.7927H9.8003C9.96538 12.7927 10.0992 12.6637 10.0992 12.5045Z" fill="#E7824E"/>
<path fill-rule="evenodd" clip-rule="evenodd" d="M10.6812 12.3049H7.56875C6.97947 12.3049 6.5 12.7973 6.5 13.4025V14.2017C6.5 14.3665 6.63008 14.5001 6.79059 14.5001H11.4594C11.6199 14.5001 11.75 14.3665 11.75 14.2017V13.4025C11.75 12.7973 11.2706 12.3049 10.6812 12.3049Z" fill="#DA7C4C"/>
<path fill-rule="evenodd" clip-rule="evenodd" d="M10.6304 12.3049H9V14.5001H11.4456C11.6137 14.5001 11.75 14.3665 11.75 14.2017V13.4025C11.75 12.7973 11.2478 12.3049 10.6304 12.3049Z" fill="#C56D41"/>
<path fill-rule="evenodd" clip-rule="evenodd" d="M11.7031 14.5H6.2969C6.13299 14.5 6 14.3908 6 14.2561C6 14.1214 6.13299 14.0122 6.2969 14.0122H11.7031C11.8671 14.0122 12 14.1214 12 14.2561C12 14.3908 11.8671 14.5 11.7031 14.5Z" fill="#C56D41"/>
<path fill-rule="evenodd" clip-rule="evenodd" d="M11.7031 14.0122H9V14.5H11.7031C11.8671 14.5 12 14.3908 12 14.2561C12 14.1214 11.8671 14.0122 11.7031 14.0122Z" fill="#B05A2F"/>
</svg>
