<svg width="23" height="23" viewBox="0 0 23 23" fill="none" xmlns="http://www.w3.org/2000/svg">
<path d="M11.5089 4.16209e-06C5.15721 -0.00534154 0.00534986 5.13942 4.16209e-06 11.4911C-0.00534154 17.8428 5.13942 22.9947 11.4911 23C17.8419 22.9947 22.9902 17.8508 23 11.5C23 5.15187 17.857 0.00534986 11.5089 4.16209e-06ZM11.4911 21.0863C6.19684 21.0863 1.90483 16.7943 1.90483 11.5C1.90483 6.20573 6.19684 1.91372 11.4911 1.91372C16.7836 1.91907 21.072 6.20753 21.0774 11.5C21.0774 16.7943 16.7854 21.0863 11.4911 21.0863Z" fill="#8B8C99"/>
<path d="M7.22964 12.4911L11.3427 14.2146C11.3887 14.234 11.438 14.2435 11.487 14.2435C11.5359 14.2435 11.5852 14.234 11.6312 14.2146L15.7443 12.4911C15.8494 12.4472 15.9287 12.3575 15.9597 12.2477C15.9908 12.1383 15.9703 12.0201 15.9042 11.9276L11.7911 6.15699C11.7211 6.0586 11.6041 6.00005 11.4871 6C11.37 5.99995 11.2529 6.0585 11.1828 6.15699L7.06971 11.9276C7.00362 12.0201 6.98315 12.1383 7.0142 12.2477C7.04524 12.3575 7.12449 12.4472 7.22964 12.4911V12.4911ZM11.8609 13.3059V7.54406L15.0235 11.981L11.8609 13.3059ZM11.1131 7.54406V13.3059L7.95047 11.981L11.1131 7.54406Z" fill="#8B8C99"/>
<path d="M15.9158 13.6874C15.818 13.5332 15.6233 13.4729 15.4557 13.542L11.487 15.2103L7.51821 13.542C7.35025 13.4718 7.15598 13.5328 7.05813 13.6874C6.96063 13.8423 6.98802 14.0453 7.12348 14.168L11.2365 17.9031C11.3077 17.9677 11.3971 18 11.4869 18C11.5768 18 11.6662 17.9677 11.7374 17.9031L15.8504 14.168C15.9859 14.0453 16.0133 13.8423 15.9158 13.6874ZM11.487 17.1174L9.24792 15.0844L11.3427 15.9649C11.4348 16.0038 11.5392 16.0038 11.6312 15.9649L13.726 15.0844C13.726 15.0844 11.487 17.1174 11.487 17.1174V17.1174Z" fill="#8B8C99"/>
</svg>
