<svg width="7" height="15" viewBox="0 0 7 15" fill="none" xmlns="http://www.w3.org/2000/svg">
<path d="M4.1853 6.34816H2.77455C1.97084 6.34816 1.31701 5.69433 1.31701 4.89067C1.31701 4.08696 1.97089 3.43313 2.77455 3.43313H5.59599C5.95968 3.43313 6.25452 3.13828 6.25452 2.7746C6.25452 2.41091 5.95968 2.11607 5.59599 2.11607H4.13845V0.658528C4.13845 0.294845 3.84361 0 3.47992 0C3.11624 0 2.8214 0.294845 2.8214 0.658528V2.11607H2.7746C1.24466 2.11607 0 3.36077 0 4.89067C0 6.42056 1.24471 7.66522 2.7746 7.66522H4.18534C4.98901 7.66522 5.64284 8.3191 5.64284 9.12276C5.64284 9.92643 4.98901 10.5803 4.18534 10.5803H1.3639C1.00022 10.5803 0.705371 10.8751 0.705371 11.2388C0.705371 11.6025 1.00022 11.8974 1.3639 11.8974H2.8214V13.3549C2.8214 13.7186 3.11624 14.0135 3.47992 14.0135C3.84361 14.0135 4.13845 13.7186 4.13845 13.3549V11.8974H4.1853C5.71519 11.8974 6.95985 10.6527 6.95985 9.12276C6.95985 7.59287 5.71519 6.34816 4.1853 6.34816Z" fill="#787885"/>
</svg>
