<svg width="23" height="23" viewBox="0 0 23 23" fill="none" xmlns="http://www.w3.org/2000/svg">
<path d="M11.5089 4.16209e-06C5.15721 -0.00534154 0.00534986 5.13942 4.16209e-06 11.4911C-0.00534154 17.8428 5.13942 22.9947 11.4911 23C17.8419 22.9947 22.9902 17.8508 23 11.5C23 5.15187 17.857 0.00534986 11.5089 4.16209e-06ZM11.4911 21.0863C6.19684 21.0863 1.90483 16.7943 1.90483 11.5C1.90483 6.20573 6.19684 1.91372 11.4911 1.91372C16.7836 1.91907 21.072 6.20753 21.0774 11.5C21.0774 16.7943 16.7854 21.0863 11.4911 21.0863Z" fill="#8B8C99"/>
<path d="M5 7V11.2188H10.6484V7H5ZM6.41797 10.3096L5.92086 9.8125L6.41797 9.31539L6.91508 9.8125L6.41797 10.3096ZM6.41797 8.90336L5.92086 8.40625L6.41797 7.90914L6.91508 8.40625L6.41797 8.90336ZM7.82422 10.3096L7.32711 9.8125L7.82422 9.31539L8.32133 9.8125L7.82422 10.3096ZM7.82422 8.90336L7.32711 8.40625L7.82422 7.90914L8.32133 8.40625L7.82422 8.90336ZM9.23047 10.3096L8.73336 9.8125L9.23047 9.31539L9.72758 9.8125L9.23047 10.3096ZM9.23047 8.90336L8.73336 8.40625L9.23047 7.90914L9.72758 8.40625L9.23047 8.90336Z" fill="#8B8C99"/>
<path d="M5 11.9219H17V12.8594H5V11.9219Z" fill="#8B8C99"/>
<path d="M5 13.5625H17V14.5H5V13.5625Z" fill="#8B8C99"/>
<path d="M5 15.2031H17V16.1406H5V15.2031Z" fill="#8B8C99"/>
<path d="M11.3516 7H17V7.9375H11.3516V7Z" fill="#8B8C99"/>
<path d="M11.3516 8.64062H17V9.57812H11.3516V8.64062Z" fill="#8B8C99"/>
<path d="M11.3516 10.2812H17V11.2188H11.3516V10.2812Z" fill="#8B8C99"/>
</svg>
