<svg width="23" height="23" viewBox="0 0 23 23" fill="none" xmlns="http://www.w3.org/2000/svg">
<path d="M12.3615 9.97654V8.42048H16.2598V6H5.60952V8.42046H9.50751V9.98252C6.35881 10.1338 4 10.754 4 11.4961C4 12.2383 6.35881 12.8584 9.50751 13.0098V17.8589C9.98965 17.9516 10.4888 18 11 18C11.4652 18 11.9203 17.9598 12.3615 17.8829V13.0157C15.5757 12.8755 18 12.2485 18 11.4961C18 10.7438 15.5757 10.1168 12.3615 9.97654ZM11 12.4526C7.48771 12.4526 4.64044 11.9553 4.64044 11.3417C4.64044 10.8179 6.71541 10.3787 9.50754 10.2615V12.0408C9.98088 12.1049 10.4579 12.1371 10.9345 12.1371C11.4115 12.1371 11.8885 12.1049 12.3615 12.0408V10.2561C15.2194 10.3653 17.3593 10.8096 17.3593 11.3417C17.3593 11.9553 14.512 12.4526 11 12.4526Z" fill="#8B8C99"/>
<path d="M11.5089 4.16209e-06C5.15721 -0.00534154 0.00534986 5.13942 4.16209e-06 11.4911C-0.00534154 17.8428 5.13942 22.9947 11.4911 23C17.8419 22.9947 22.9902 17.8508 23 11.5C23 5.15187 17.857 0.00534986 11.5089 4.16209e-06ZM11.4911 21.0863C6.19684 21.0863 1.90483 16.7943 1.90483 11.5C1.90483 6.20573 6.19684 1.91372 11.4911 1.91372C16.7836 1.91907 21.072 6.20753 21.0774 11.5C21.0774 16.7943 16.7854 21.0863 11.4911 21.0863Z" fill="#8B8C99"/>
</svg>
