<svg width="18" height="18" viewBox="0 0 18 18" fill="none" xmlns="http://www.w3.org/2000/svg">
<g clip-path="url(#clip0)">
<path d="M13.8151 7.01799C14.6926 6.29018 15.2525 5.19208 15.2525 3.96562C15.2525 1.77953 13.4739 0.000976562 11.2878 0.000976562C9.10167 0.000976562 7.32315 1.77953 7.32315 3.96562C7.32315 4.25137 7.35381 4.53005 7.41154 4.79882C7.18576 4.75874 6.95352 4.73775 6.71643 4.73775C4.5303 4.73775 2.75179 6.51631 2.75179 8.70239C2.75179 9.92875 3.31158 11.0267 4.18894 11.7546C1.73457 12.7552 0 15.1671 0 17.9769H1.40657C1.40657 15.049 3.78854 12.6671 6.71639 12.6671C8.90251 12.6671 10.681 10.8885 10.681 8.70243C10.681 8.41668 10.6504 8.13796 10.5926 7.86919C10.8184 7.90927 11.0507 7.93026 11.2878 7.93026C13.0132 7.93026 14.5484 8.75798 15.5188 10.0367L16.4719 8.97545C15.7675 8.12052 14.8559 7.4425 13.8151 7.01799ZM6.71643 11.2605C5.30592 11.2605 4.15835 10.1129 4.15835 8.70239C4.15835 7.29186 5.30592 6.14432 6.71643 6.14432C8.12693 6.14432 9.2745 7.29189 9.2745 8.70239C9.2745 10.1129 8.12693 11.2605 6.71643 11.2605ZM11.2878 6.52366C9.87729 6.52366 8.72972 5.37612 8.72972 3.96558C8.72972 2.55504 9.87729 1.40754 11.2878 1.40754C12.6983 1.40754 13.8459 2.55508 13.8459 3.96562C13.8459 5.37619 12.6983 6.52366 11.2878 6.52366Z" fill="black"/>
<path d="M16.9534 10.5435L12.068 15.9828L9.31106 13.3585L8.34131 14.3773L12.147 17.9999L17.9999 11.4834L16.9534 10.5435Z" fill="black"/>
</g>
<defs>
<clipPath id="clip0">
<rect width="18" height="18" fill="white"/>
</clipPath>
</defs>
</svg>
