<?xml version="1.0" encoding="UTF-8" standalone="no"?>
<!-- Created with Inkscape (http://www.inkscape.org/) -->

<svg
   xmlns:dc="http://purl.org/dc/elements/1.1/"
   xmlns:cc="http://creativecommons.org/ns#"
   xmlns:rdf="http://www.w3.org/1999/02/22-rdf-syntax-ns#"
   xmlns:svg="http://www.w3.org/2000/svg"
   xmlns="http://www.w3.org/2000/svg"
   xmlns:sodipodi="http://sodipodi.sourceforge.net/DTD/sodipodi-0.dtd"
   xmlns:inkscape="http://www.inkscape.org/namespaces/inkscape"
   width="635.64594mm"
   height="694.41235mm"
   viewBox="0 0 635.64594 694.41235"
   version="1.1"
   id="svg8"
   inkscape:version="0.92.4 (5da689c313, 2019-01-14)"
   sodipodi:docname="vault.svg">
  <defs
     id="defs2" />
  <sodipodi:namedview
     id="base"
     pagecolor="#ffffff"
     bordercolor="#666666"
     borderopacity="1.0"
     inkscape:pageopacity="0.0"
     inkscape:pageshadow="2"
     inkscape:zoom="0.175"
     inkscape:cx="1025.6771"
     inkscape:cy="1374.0671"
     inkscape:document-units="mm"
     inkscape:current-layer="layer1"
     showgrid="false"
     inkscape:window-width="1920"
     inkscape:window-height="1017"
     inkscape:window-x="-8"
     inkscape:window-y="-8"
     inkscape:window-maximized="1" />
  <metadata
     id="metadata5">
    <rdf:RDF>
      <cc:Work
         rdf:about="">
        <dc:format>image/svg+xml</dc:format>
        <dc:type
           rdf:resource="http://purl.org/dc/dcmitype/StillImage" />
        <dc:title></dc:title>
      </cc:Work>
    </rdf:RDF>
  </metadata>
  <g
     inkscape:label="Layer 1"
     inkscape:groupmode="layer"
     id="layer1"
     transform="translate(-636.61211,18.883307)">
    <g
       id="g882"
       style="fill:#ffffff"
       transform="translate(950.98809,86.178571)">
      <path
         transform="scale(0.26458333)"
         inkscape:connector-curvature="0"
         id="path828"
         d="m -67.92713,2212.1471 c -41.06618,-30.6824 -313.71301,-275.616 -323.60617,-290.7131 -9.20393,-14.0454 -10.17583,-32.4007 -10.17583,-192.1818 v -176.6533 l 23.08177,-9.3141 c 12.69498,-5.1227 32.3495,-15.1401 43.67673,-22.2609 l 20.59495,-12.9468 73.46613,46.5758 c 124.75965,79.0948 122.03756,76.8347 122.03756,101.3275 0,31.0536 25.670603,78.7656 51.616603,95.9359 11.902269,7.8765 22.88152,19.9182 24.398332,26.7591 1.516817,6.841 1.1054,110.6176 -0.914257,230.6146 l -3.672103,218.1764 z"
         style="fill:#ffffff;fill-opacity:1;stroke-width:5.71428585" />
      <path
         transform="scale(0.26458333)"
         inkscape:connector-curvature="0"
         id="path830"
         d="m 69.719442,1997.1425 v -225.3997 l 26.284086,-24.6003 c 31.880272,-29.838 40.996762,-46.4735 46.581592,-85.0005 l 4.27718,-29.5062 99.0539,-62.8945 99.0539,-62.8944 34.6059,17.8476 c 19.03324,9.8162 37.79256,17.8477 41.68736,17.8477 10.64857,0 16.11412,123.4771 11.3416,256.2282 l -4.03884,112.3432 -37.99477,37.2861 c -68.36031,67.0854 -304.65182,274.1425 -312.848704,274.1425 -6.726152,0 -8.003204,-35.9666 -8.003204,-225.3997 z"
         style="fill:#ffffff;fill-opacity:1;stroke-width:5.71428585" />
      <path
         transform="scale(0.26458333)"
         inkscape:connector-curvature="0"
         id="path832"
         d="m -543.13123,1747.3209 c -62.13481,-76.4531 -156.78973,-216.1693 -209.38505,-309.0645 l -18.60303,-32.8571 h 60.00048 60.00048 l 13.99254,30 c 19.80101,42.4534 49.0465,73.5839 89.26804,95.0217 l 34.72007,18.5056 -0.0875,103.9506 c -0.048,57.1729 -2.26559,107.3868 -4.92769,111.5866 -3.616,5.7046 -9.93352,1.3689 -24.97834,-17.1429 z"
         style="fill:#ffffff;fill-opacity:1;stroke-width:5.71428585" />
      <path
         transform="scale(0.26458333)"
         inkscape:connector-curvature="0"
         id="path834"
         d="m -807.86731,1294.7093 c -9.67271,-4.3616 -25.65165,-17.7144 -35.50876,-29.6728 -22.90173,-27.7837 -66.48301,-134.9307 -62.02036,-152.4804 1.80011,-7.0791 24.58045,-33.7803 50.62297,-59.3359 l 47.35005,-46.4648 34.62823,2.7873 34.62824,2.7874 46.22635,72.2489 c 25.42449,39.7369 54.17047,85.3442 63.87995,101.3495 l 17.6536,29.1006 -20.9841,40.8994 -20.9841,40.8994 -48.95266,0.063 c -26.92396,0.035 -57.95266,1.3422 -68.95266,2.9058 -11.08042,1.5751 -27.84332,-0.6937 -37.58675,-5.0873 z"
         style="fill:#ffffff;fill-opacity:1;stroke-width:5.71428585" />
      <path
         transform="scale(0.26458333)"
         inkscape:connector-curvature="0"
         id="path836"
         d="m -1019.6428,823.86892 c -29.4407,-92.56495 -49.7157,-165.11122 -46.4797,-166.30974 3.1569,-1.1692 44.6556,36.72438 92.21943,84.20797 l 86.47966,86.3338 -1.07744,49.96982 -1.07743,49.96982 -30.07366,30.10793 c -16.54051,16.55936 -34.05567,30.06211 -38.92257,30.00612 -6.55049,-0.0754 -22.41234,-42.74685 -61.06829,-164.28572 z"
         style="fill:#ffffff;fill-opacity:1;stroke-width:5.71428585" />
      <path
         transform="scale(0.26458333)"
         inkscape:connector-curvature="0"
         id="path838"
         d="M -954.58722,600.36539 C -1038.2233,515.64148 -1111.0309,437.85566 -1116.3819,427.508 c -9.2693,-17.9248 -47.8739,-254.56456 -48.087,-294.76479 -0.066,-12.38185 3.5057,-20.29871 10.9555,-24.28572 14.6594,-7.84545 214.66342,-7.84545 229.32279,0 6.0791,3.25344 11.05291,9.09613 11.05291,12.98375 0,12.82254 34.96754,49.78115 59.12415,62.49072 17.85341,9.39324 33.98046,12.55096 65.09696,12.74614 l 41.36398,0.25942 50.86792,50.63225 50.86793,50.63225 -12.02791,26.45577 c -9.20934,20.25629 -12.02789,37.83776 -12.02789,75.02723 0,52.30336 10.75476,85.5575 40.12268,124.06082 l 14.47351,18.97575 -21.40265,35.62457 c -11.77145,19.59351 -40.58599,65.83885 -64.0323,102.76743 -42.11395,66.33057 -42.89065,67.14285 -64.20352,67.14285 -11.86563,0 -25.18127,1.38429 -29.59032,3.07623 -5.10967,1.96074 -63.156,-52.78051 -160.08206,-150.96728 z"
         style="fill:#ffffff;fill-opacity:1;stroke-width:5.71428585" />
      <path
         transform="scale(0.26458333)"
         inkscape:connector-curvature="0"
         id="path840"
         d="m -1175.0556,-21.743556 c -2.8474,-5.5 -6.9681,-55.320074 -9.1571,-110.711284 l -3.98,-100.71128 14.9053,-11.7245 c 35.7007,-28.08215 445.40432,-107.23796 645.09004,-124.63307 42.99686,-3.74557 44.68046,-3.44576 38.9312,6.93263 -3.30503,5.96613 -69.81388,74.1655 -147.79747,151.55418 l -141.78836,140.706667 -34.04728,6.483805 c -33.0105,6.28636 -75.7424,29.754412 -81.50036,44.759412 -2.18645,5.697788 -33.3694,7.34344 -139.14837,7.34344 -124.0568,0 -136.7966,-0.900292 -141.5076,-10 z"
         style="fill:#ffffff;fill-opacity:1;stroke-width:5.71428585" />
      <path
         transform="scale(0.26458333)"
         inkscape:connector-curvature="0"
         id="path842"
         d="m -358.77359,224.7137 c -17.2426,-10.73754 -40.38546,-22.03303 -51.42857,-25.10103 -31.34476,-8.70823 -91.39447,-6.29497 -124.03844,4.98486 l -29.67433,10.25366 -50.28291,-50.51696 -50.28291,-50.51696 1.85755,-36.120643 c 1.23903,-24.093366 -1.22427,-43.496457 -7.39784,-58.271892 l -9.25539,-22.1512568 190.63104,-190.6310382 190.63104,-190.63104 39.58118,-4.8925 c 21.76965,-2.69088 76.31703,-5.72146 121.21641,-6.73462 67.751288,-1.52883 82.557059,-0.38435 87.055345,6.72931 3.111885,4.92117 5.457428,84.15001 5.507657,186.04285 l 0.08749,177.471427 -24.835943,17.5060055 c -30.2364,21.3125485 -55.164059,67.4376685 -55.164059,102.0731825 0,15.411685 -3.49901,26.789655 -10,32.517685 -18.49381,16.29489 -180.27345,118.68079 -186.59868,118.09313 -3.44216,-0.32 -20.36604,-9.36663 -37.60864,-20.10417 z"
         style="fill:#ffffff;fill-opacity:1;stroke-width:5.71428585" />
      <path
         transform="scale(0.26458333)"
         inkscape:connector-curvature="0"
         id="path844"
         d="m -212.45728,577.5098 -73.44041,-73.60378 12.53136,-33.49305 c 9.94781,-26.5879 12.19436,-43.2433 10.89679,-80.78618 l -1.63455,-47.29315 28.34034,-19.06581 c 15.58718,-10.4862 59.9399,-38.87089 98.56159,-63.0771 l 70.221253,-44.01127 39.833629,9.68158 c 38.925234,9.46079 40.693908,9.39916 77.557348,-2.70225 l 37.723715,-12.38382 83.649975,53.50862 c 46.00748,29.42973 92.05795,58.37609 102.33437,64.32523 12.8196,7.42141 17.514,13.54782 14.95565,19.51783 -2.05085,4.78567 -4.94245,29.27265 -6.42588,54.41551 -2.11892,35.91483 -0.24857,52.93603 8.72417,79.40362 l 11.4212,33.68934 -68.21739,68.46906 -68.2174,68.46905 -38.31952,-17.59337 c -76.107901,-34.94289 -154.872175,-35.20649 -228.96108,-0.76628 -19.99572,9.295 -36.74711,16.90001 -37.22531,16.90001 -0.4782,0 -33.91764,-33.12171 -74.30985,-73.60379 z"
         style="fill:#ffffff;fill-opacity:1;stroke-width:5.71428585" />
      <path
         transform="scale(0.26458333)"
         inkscape:connector-curvature="0"
         id="path846"
         d="m -375.99484,1158.1602 c -24.51324,-11.3153 -75.30679,-14.6316 -132.72219,-8.6655 -14.44521,1.5011 -20.12053,-5.6042 -77.9617,-97.6045 l -62.38237,-99.22348 11.45695,-25.90033 c 13.40408,-30.30214 12.16089,-73.3354 -2.99632,-103.71876 l -9.59495,-19.23354 64.24314,-101.94485 64.24315,-101.94486 37.65127,3.47251 c 29.80351,2.74872 46.7085,0.78372 81.10508,-9.42749 l 43.45379,-12.90001 21.75208,17.46874 c 11.96363,9.60781 45.7729,41.7236 75.13171,71.36843 l 53.37963,53.89968 -11.42614,22.39708 c -35.09437,68.79066 -39.07264,156.63785 -10.18533,224.91027 8.6437,20.42857 17.09859,41.61021 18.78864,47.07031 2.20684,7.1297 -16.83698,29.9251 -67.57467,80.8867 l -70.64749,70.9593 z"
         style="fill:#ffffff;fill-opacity:1;stroke-width:5.71428585" />
      <path
         transform="scale(0.26458333)"
         inkscape:connector-curvature="0"
         id="path848"
         d="m 72.70631,1529.011 c -33.694582,-17.486 -80.2534338,-18.9921 -115.701302,-3.7428 -33.607669,14.4576 -34.130235,14.299 -92.999848,-28.2224 -20.42858,-14.7555 -55.77361,-38.1393 -78.54452,-51.9639 -35.31589,-21.441 -40.77565,-26.8349 -37.14286,-36.6949 2.34234,-6.3575 4.08823,-34.702 3.87976,-62.9877 -0.29768,-40.3885 -3.11738,-57.4962 -13.13522,-79.6939 l -12.75618,-28.2653 71.27856,-71.2786 71.27858,-71.2786 33.285219,14.9283 c 70.341869,31.5479 150.40172,31.5983 220.546821,0.1388 18.13673,-8.1342 34.85101,-13.0891 37.14285,-11.011 2.29184,2.0781 35.35883,34.9659 73.48219,73.0839 l 69.3152,69.3056 -11.95915,26.3211 c -9.45896,20.8184 -11.86493,37.0729 -11.50842,77.7497 0.24789,28.2857 1.43769,56.4043 2.64395,62.4857 1.7598,8.8721 -16.47281,23.0806 -92.26349,71.9001 l -94.456694,60.8429 z"
         style="fill:#ffffff;fill-opacity:1;stroke-width:5.71428585" />
      <path
         transform="scale(0.26458333)"
         inkscape:connector-curvature="0"
         id="path850"
         d="m 302.57658,1094.2259 c -36.92857,-38.6034 -67.14285,-73.1815 -67.14285,-76.8401 0,-3.6587 6.10874,-18.78095 13.57498,-33.60504 34.60902,-68.71562 34.40763,-157.02779 -0.51617,-226.35296 l -14.09115,-27.97151 69.79291,-69.96088 69.79292,-69.96089 30.85446,14.12564 c 32.91685,15.06984 86.84266,19.92505 130.59205,11.75785 l 22.85714,-4.267 30.95075,49.98129 c 17.02291,27.48971 42.31184,68.33125 56.19761,90.75898 l 25.24686,40.7777 -10.33253,19.2223 c -15.76176,29.32265 -14.49098,92.69605 2.43301,121.33341 11.43728,19.3532 12.10493,23.62963 5.35287,34.28571 -4.24284,6.69604 -31.53915,49.8494 -60.65846,95.8963 l -52.94418,83.7217 -55.26583,-2.9091 c -43.33183,-2.2809 -60.8185,-0.8241 -80.9801,6.7466 -46.38166,17.4164 -43.35591,18.9 -115.71429,-56.74 z"
         style="fill:#ffffff;fill-opacity:1;stroke-width:5.71428585" />
      <path
         transform="scale(0.26458333)"
         inkscape:connector-curvature="0"
         id="path852"
         d="m 662.72294,1252.6067 -21.28222,-43.7923 63.34942,-101.0561 63.34942,-101.0561 28.05865,-3.7221 c 15.43226,-2.0472 31.70579,-1.6811 36.16339,0.8135 4.4576,2.4946 30.3316,28.5537 57.49778,57.909 39.05158,42.1985 48.73415,55.9986 46.24601,65.9122 -1.73087,6.8963 -18.61471,45.2649 -37.51965,85.2635 -26.87604,56.8637 -37.5921,73.9488 -49.13432,78.3372 -8.11893,3.0868 -48.66572,5.5159 -90.10398,5.3979 l -75.34228,-0.2144 z"
         style="fill:#ffffff;fill-opacity:1;stroke-width:5.71428585" />
      <path
         transform="scale(0.26458333)"
         inkscape:connector-curvature="0"
         id="path854"
         d="m 546.48332,1764.7861 c -6.61675,-10.7061 -9.85049,-151.3075 -4.31404,-187.5718 4.51002,-29.541 6.11965,-31.8441 33.28753,-47.6281 40.41477,-23.4803 75.29489,-59.2567 91.82716,-94.1869 l 14.19885,-30 h 57.58682 c 48.43392,0 57.07221,1.341 54.3491,8.4374 -15.05354,39.2289 -135.08934,221.9252 -202.82681,308.7055 -41.178,52.7542 -38.93848,50.6093 -44.10861,42.2439 z"
         style="fill:#ffffff;fill-opacity:1;stroke-width:5.71428585" />
      <path
         transform="scale(0.26458333)"
         inkscape:connector-curvature="0"
         id="path856"
         d="m 941.98044,957.4594 c -33.95912,-31.59801 -38.57577,-38.24249 -34.7172,-49.9665 2.4477,-7.43719 4.13296,-27.66503 3.74503,-44.95074 l -0.70534,-31.42857 89.64128,-90 c 49.30269,-49.5 92.88569,-90 96.85109,-90 8.8643,0 8.9203,-1.57288 -1.0319,28.98206 -4.5329,13.91701 -29.0712,90.23222 -54.5295,169.58936 -26.7963,83.52774 -49.19301,144.27161 -53.18688,144.25222 -3.79445,-0.0183 -24.52441,-16.43346 -46.06658,-36.47783 z"
         style="fill:#ffffff;fill-opacity:1;stroke-width:5.71428585" />
      <path
         transform="scale(0.26458333)"
         inkscape:connector-curvature="0"
         id="path858"
         d="m 798.29087,741.14141 c -15.71429,-3.04771 -31.26723,-6.27108 -34.5621,-7.16308 -3.29486,-0.892 -31.60804,-42.40143 -62.91818,-92.24326 l -56.92751,-90.62148 18.28721,-30.59802 C 695.2075,465.23798 700.4516,409.22519 678.56525,345.3993 l -13.71628,-40 18.05854,-20 c 9.93219,-11 34.4303,-37.04021 54.44023,-57.86714 l 36.3817,-37.86714 36.55342,2.93416 c 26.24123,2.10638 43.59244,0.24594 61.50451,-6.59476 28.3269,-10.81814 62.14542,-42.00256 72.40101,-66.76175 l 6.91758,-16.70051 h 115.35744 c 87.8063,0 117.8763,1.84185 125.9041,7.7119 10.1909,7.45178 9.9203,11.74025 -8.0228,127.14286 -29.5716,190.19187 -28.7062,187.15731 -63.9962,224.40514 -89.7472,94.7261 -282.74784,286.34713 -287.72429,285.66753 -3.16905,-0.43275 -18.61905,-3.28046 -34.33334,-6.32818 z"
         style="fill:#ffffff;fill-opacity:1;stroke-width:5.71428585" />
      <path
         transform="scale(0.26458333)"
         inkscape:connector-curvature="0"
         id="path860"
         d="M 263.15665,195.07599 C 151.30984,123.83503 138.31957,112.55688 138.16537,86.558598 137.99206,57.338335 121.1852,23.061644 96.330757,1.2391525 l -20.897029,-18.3478345 0.0875,-181.603158 c 0.04811,-99.88173 1.976697,-184.36214 4.285715,-187.73424 2.309016,-3.3721 8.055355,-7.54071 12.769641,-9.26358 14.553986,-5.31886 216.383786,6.03701 230.008976,12.94136 7.06649,3.58083 96.67773,90.05565 199.1361,192.16628 L 708.00961,-4.9463333 699.7087,18.797912 c -5.53572,15.834549 -7.25057,35.379492 -5.14777,58.672275 l 3.15308,34.928033 -56.80531,55.81017 -56.80536,55.81011 -24.33481,-4.99686 c -13.38414,-2.74834 -48.88151,-5.00908 -78.88304,-5.02394 -48.39047,-0.0229 -57.96475,1.74697 -84.81307,15.68732 -16.64565,8.64285 -35.81323,15.5688 -42.59461,15.39097 -6.78139,-0.17772 -47.42591,-22.67783 -90.32116,-50 z"
         style="fill:#ffffff;fill-opacity:1;stroke-width:5.71428585" />
      <path
         transform="scale(0.26458333)"
         inkscape:connector-curvature="0"
         id="path862"
         d="M 964.54275,-9.9894304 C 942.69937,-11.900825 933.03537,-16.160956 920.77877,-29.281688 899.78342,-51.757282 861.1509,-68.606916 830.26156,-68.760916 l -25.17217,-0.125497 -149.02821,-149.999997 -149.02821,-150 25.70146,-1.68628 c 23.41634,-1.53636 594.04217,98.42204 647.42787,113.41204 34.4431,9.6712 37.7926,24.21229 31.5218,136.84567 -3.3463,60.103058 -7.7615,96.668435 -12.1785,100.857961 -7.3139,6.937366 -182.9853,14.0158686 -234.96285,9.4675886 z"
         style="fill:#ffffff;fill-opacity:1;stroke-width:5.71428585" />
    </g>
  </g>
</svg>
