<?xml version="1.0" encoding="UTF-8"?>
<svg width="37" height="37" fill="none" version="1.1" viewBox="0 0 37 37" xmlns="http://www.w3.org/2000/svg" xmlns:cc="http://creativecommons.org/ns#" xmlns:dc="http://purl.org/dc/elements/1.1/" xmlns:rdf="http://www.w3.org/1999/02/22-rdf-syntax-ns#">
 <path d="m22.546 17.726c1.748-1.8388 1.6744-4.7465-0.1644-6.4944-0.5238-0.498-1.1578-0.8653-1.8503-1.0721v-0.8466c0-0.72487-0.5876-1.3125-1.3124-1.3125-0.7249 0-1.3126 0.58763-1.3126 1.3125v0.65625h-1.3124v-0.65625c0-0.72487-0.5877-1.3125-1.3126-1.3125-0.7248 0-1.3124 0.58763-1.3124 1.3125v0.65625h-0.6563c-0.7249 0-1.3125 0.58765-1.3125 1.3124v14.438c0 0.7248 0.5876 1.3124 1.3125 1.3124h0.6563v0.6563c0 0.7249 0.5876 1.3125 1.3124 1.3125 0.7249 0 1.3126-0.5876 1.3126-1.3125v-0.6563h1.3124v0.6563c0 0.7249 0.5877 1.3125 1.3126 1.3125 0.7248 0 1.3124-0.5876 1.3124-1.3125v-0.8269c2.3166-0.5981 3.9357-2.6868 3.9376-5.0794-0.0017-1.5715-0.7072-3.0596-1.9229-4.0556zm-7.9209-5.1318h4.5938c1.0873 0 1.9687 0.8814 1.9687 1.9687s-0.8814 1.9687-1.9687 1.9687h-4.5938v-3.9374zm4.5938 11.812h-4.5938v-5.25h4.5938c1.4497 0 2.625 1.1753 2.625 2.625 0 1.4498-1.1753 2.625-2.625 2.625z" fill="#8d8e9b"/>
</svg>
