<svg width="47" height="47" viewBox="0 0 47 47" fill="none" xmlns="http://www.w3.org/2000/svg">
<path d="M26.571 37.3936L23.2833 37.4802L23.2832 33.9358L20.4545 34.006L20.4568 37.5497L17.248 37.6187L16.4549 37.6314L16.4532 34.2399L12.5458 34.339L12.5441 30.7669L16.4507 30.6728L16.4455 17.6688L12.5383 17.7609L12.5345 14.1895L16.441 14.0953L16.4404 10.0752L19.6487 9.99698L20.4418 9.98432L20.4409 14.1502L23.2632 14.0821L23.2599 9.91042L26.5638 9.83053L26.5642 14.0007L27.4935 13.9737C28.2709 13.9468 29.0459 14.0732 29.7744 14.3458C30.5029 14.6184 31.1705 15.0319 31.7392 15.5625C32.2945 16.0791 32.7372 16.7049 33.0394 17.4005C33.3417 18.0962 33.497 18.8468 33.4956 19.6053C33.4915 20.3931 33.3266 21.1719 33.011 21.8938C32.6954 22.6157 32.2356 23.2656 31.66 23.8036C32.2349 24.3199 32.6945 24.9515 33.009 25.6573C33.3234 26.3632 33.4855 27.1274 33.4848 27.9C33.4816 28.6714 33.3243 29.4343 33.022 30.144C32.7198 30.8537 32.2787 31.4958 31.7248 32.0326C30.5934 33.1503 29.0761 33.7909 27.486 33.822L26.5561 33.8468L26.5731 37.393L26.571 37.3936ZM20.5391 25.707L20.5434 30.7245L27.4946 30.5539C28.1841 30.5398 28.8418 30.261 29.3314 29.7753C29.5714 29.543 29.7624 29.265 29.8934 28.9577C30.0243 28.6504 30.0924 28.32 30.0937 27.986C30.0942 27.6645 30.0299 27.3462 29.9046 27.0501C29.7794 26.7541 29.5957 26.4863 29.3646 26.2628C29.1179 26.0228 28.8255 25.8349 28.5047 25.7101C28.184 25.5853 27.8414 25.5263 27.4974 25.5364L20.5391 25.707ZM20.5356 17.419L20.5378 22.4372L27.4891 22.2665C27.7404 22.2609 27.9897 22.2203 28.2298 22.1459C28.7589 21.9858 29.2236 21.662 29.5572 21.2211C29.8907 20.7803 30.0759 20.245 30.0862 19.6923C30.0872 19.3626 30.0199 19.0362 29.8885 18.7338C29.7572 18.4314 29.5647 18.1594 29.3231 17.9351C28.8252 17.4709 28.1638 17.2227 27.4834 17.2447L20.535 17.4168L20.5356 17.419Z" fill="#8D8E9B"/>
</svg>
