<svg width="37" height="37" viewBox="0 0 37 37" fill="none" xmlns="http://www.w3.org/2000/svg">
<path d="M10.4161 18.7293L17.864 21.8436C17.9473 21.8786 18.0366 21.8958 18.1251 21.8958C18.2138 21.8958 18.303 21.8786 18.3863 21.8436L25.8342 18.7293C26.0246 18.6499 26.1681 18.4879 26.2243 18.2896C26.2805 18.0919 26.2435 17.8783 26.1238 17.711L18.676 7.28368C18.549 7.1059 18.3373 7.00009 18.1255 7C17.9134 6.99991 17.7014 7.10571 17.5744 7.28368L10.1265 17.711C10.0068 17.8783 9.96974 18.0919 10.0259 18.2896C10.0822 18.4879 10.2257 18.6499 10.4161 18.7293ZM18.8023 20.2017V9.79008L24.529 17.8075L18.8023 20.2017ZM17.4481 9.79008V20.2017L11.7213 17.8075L17.4481 9.79008Z" fill="#8D8E9B"/>
<path d="M26.145 20.9C25.9678 20.6223 25.6154 20.5139 25.3119 20.6382L18.1251 23.6428L10.9384 20.6382C10.6342 20.5119 10.2825 20.6216 10.1053 20.9C9.92871 21.1791 9.97831 21.5447 10.2236 21.7656L17.6715 28.4921C17.8004 28.6085 17.9624 28.6666 18.1251 28.6666C18.2877 28.6666 18.4497 28.6085 18.5787 28.4921L26.0266 21.7656C26.2719 21.5447 26.3215 21.1791 26.145 20.9ZM18.1251 27.0771L14.0706 23.416L17.864 25.0016C18.0306 25.0717 18.2197 25.0717 18.3863 25.0016L22.1797 23.416C22.1797 23.416 18.1251 27.0771 18.1251 27.0771Z" fill="#8D8E9B"/>
</svg>
