<svg width="37" height="38" viewBox="0 0 37 38" fill="none" xmlns="http://www.w3.org/2000/svg">
<path d="M23.1461 26.7775L16.5366 26.7681L17.8399 21.9912L20.8517 21.0605C21.439 20.8791 21.7677 20.2567 21.5859 19.6704C21.4041 19.0842 20.7807 18.7562 20.1934 18.9375L18.5331 19.4505L20.4558 12.4035C20.6173 11.8113 20.2674 11.2006 19.6743 11.0393C19.0812 10.8782 18.4693 11.2273 18.3077 11.8195L16.0133 20.2292L12.7843 21.2271C12.197 21.4086 11.8683 22.0309 12.0501 22.6172C12.1978 23.0935 12.637 23.3995 13.1116 23.4001C13.221 23.4003 13.3325 23.3842 13.4426 23.3502L15.3201 22.77L14.0063 27.5853C13.9152 27.9191 13.9851 28.2762 14.1954 28.5513C14.4056 28.8264 14.7322 28.988 15.0788 28.9885L23.143 29C23.7578 29.0009 24.2568 28.5041 24.2578 27.8904C24.2585 27.2766 23.7608 26.7783 23.1461 26.7775Z" fill="#8D8E9B"/>
</svg>
