<svg width="37" height="37" viewBox="0 0 37 37" fill="none" xmlns="http://www.w3.org/2000/svg">
<path d="M20.3477 16.6334V14.429H25.6383V11H11.1844V14.429H16.4745V16.6419C12.2012 16.8563 9 17.7348 9 18.7862C9 19.8375 12.2012 20.7161 16.4745 20.9305V27.8002C17.1288 27.9314 17.8062 28 18.5 28C19.1313 28 19.749 27.9431 20.3477 27.8341V20.939C24.7099 20.7403 28 19.8521 28 18.7862C28 17.7203 24.7099 16.8321 20.3477 16.6334ZM18.5 20.1412C13.7333 20.1412 9.86916 19.4367 9.86916 18.5674C9.86916 17.8253 12.6852 17.2031 16.4745 17.0372V19.5577C17.1169 19.6486 17.7642 19.6942 18.4111 19.6942C19.0585 19.6942 19.7058 19.6486 20.3478 19.5577V17.0295C24.2264 17.1841 27.1305 17.8136 27.1305 18.5673C27.1304 19.4366 23.2662 20.1412 18.5 20.1412Z" fill="#8D8E9B"/>
</svg>
