<svg width="37" height="38" viewBox="0 0 37 38" fill="none" xmlns="http://www.w3.org/2000/svg">
<path d="M18.4097 18.9489C16.0709 18.9489 13.8977 16.8554 10.3309 13.055C9.86426 12.5578 9.89612 11.783 10.402 11.3245C10.908 10.8659 11.6964 10.8972 12.163 11.3944C15.0481 14.4686 17.1628 16.4995 18.4097 16.4995C19.6567 16.4995 21.7713 14.4686 24.6565 11.3944C25.1231 10.8973 25.9115 10.8659 26.4175 11.3245C26.9234 11.7831 26.9552 12.5578 26.4886 13.055C22.9218 16.8554 20.7486 18.9489 18.4097 18.9489Z" fill="#8D8E9B"/>
<path d="M25.3637 29.4157C25.0278 29.4158 24.9014 29.2831 24.6558 29.0213C21.7706 25.9472 19.656 23.9162 18.409 23.9162C17.162 23.9162 15.0475 25.9471 12.1622 29.0213C11.6957 29.5185 10.9073 29.5499 10.4013 29.0913C9.89539 28.6327 9.86353 27.8579 10.3301 27.3607C13.8969 23.5603 16.0701 21.4669 18.409 21.4669C20.7479 21.4669 22.9211 23.5603 26.4879 27.3607C27.3147 28.2587 26.4914 29.5069 25.3637 29.4157Z" fill="#8D8E9B"/>
</svg>
