<svg viewBox="0 0 18 18" fill="none" xmlns="http://www.w3.org/2000/svg">
<path d="M14.3086 18H3.69141C1.65596 18 0 16.344 0 14.3086V3.69141C0 1.65596 1.65596 0 3.69141 0H14.3086C16.344 0 18 1.65596 18 3.69141V14.3086C18 16.344 16.344 18 14.3086 18Z" fill="#464B4E"/>
<path d="M5.54237 13.8697C5.37977 14.1513 5.08372 14.3089 4.77972 14.3089C4.6307 14.3089 4.47981 14.2711 4.34175 14.1914C3.92205 13.9491 3.77773 13.4105 4.02003 12.9908L4.1929 12.6914H6.22264L5.54237 13.8697Z" fill="white"/>
<path d="M3.88477 11.9883C3.40014 11.9883 3.00586 11.594 3.00586 11.1094C3.00586 10.6247 3.40014 10.2305 3.88477 10.2305H5.61368L7.98511 6.12302L7.34242 5.00983C7.10012 4.59013 7.2444 4.05154 7.6641 3.80921H7.66413C8.08383 3.56691 8.62242 3.71126 8.86472 4.13092L9 4.36524L9.13528 4.13096C9.37768 3.71123 9.91628 3.56695 10.3359 3.80924C10.5392 3.92663 10.6846 4.11616 10.7454 4.34292C10.8062 4.56967 10.7749 4.80656 10.6575 5.00987L7.64343 10.2305H9.54464L10.5595 11.9883H3.88477Z" fill="white"/>
<path d="M14.1153 11.9883H13.4012L13.98 12.9908C14.2223 13.4105 14.078 13.9491 13.6583 14.1914C13.5229 14.2696 13.3726 14.3096 13.2203 14.3096C13.1439 14.3096 13.0671 14.2995 12.9914 14.2792C12.7646 14.2184 12.575 14.073 12.4576 13.8697L9.40594 8.58398L10.4208 6.82617L12.3864 10.2305H14.1153C14.5999 10.2305 14.9942 10.6248 14.9942 11.1094C14.9942 11.5941 14.5999 11.9883 14.1153 11.9883Z" fill="#F2F2F2"/>
<path d="M9 10.2305V11.9883H10.5595L9.54468 10.2305H9Z" fill="#F2F2F2"/>
<path d="M10.7454 4.3429C10.6846 4.11615 10.5392 3.92658 10.3359 3.80923C9.91624 3.56693 9.37765 3.71118 9.13528 4.13095L9 4.36523V7.88085L10.6575 5.00985C10.7749 4.80654 10.8062 4.5697 10.7454 4.3429Z" fill="#F2F2F2"/>
</svg>
