<svg viewBox="0 0 18 18" fill="none" xmlns="http://www.w3.org/2000/svg">
<path d="M17 0H5.00011C4.73499 0.000289395 4.48081 0.105738 4.29334 0.293209C4.10586 0.480681 4.00042 0.734864 4.00013 0.999988V15.2264L1.72882 17.4728C1.69332 17.5227 1.67223 17.5813 1.66785 17.6424C1.66347 17.7034 1.67597 17.7645 1.70399 17.8189C1.73201 17.8733 1.77446 17.919 1.8267 17.9509C1.87893 17.9828 1.93894 17.9997 2.00015 17.9998H17C17.2651 17.9995 17.5193 17.8941 17.7068 17.7066C17.8942 17.5191 17.9997 17.2649 18 16.9998V0.999988C17.9997 0.734864 17.8942 0.480681 17.7068 0.293209C17.5193 0.105738 17.2651 0.000289395 17 0V0Z" fill="#464B4E"/>
<path d="M4.00017 7.99988H1.0002C0.734987 7.99988 0.480637 8.10523 0.293102 8.29277C0.105568 8.4803 0.00021261 8.73465 0.00021261 8.99987V15.9302C-0.00690781 16.4244 0.165033 16.9045 0.484279 17.2818C0.803526 17.659 1.24851 17.9081 1.73706 17.9829C2.01942 18.0199 2.30644 17.9964 2.57897 17.9137C2.8515 17.8311 3.10326 17.6912 3.31745 17.5035C3.53164 17.3159 3.70333 17.0846 3.82106 16.8253C3.93879 16.566 3.99985 16.2846 4.00017 15.9998V7.99988Z" fill="#BCC2D7"/>
<path d="M10.6668 10.6666C13.06 10.6666 15.0001 8.72649 15.0001 6.33328C15.0001 3.94008 13.06 2 10.6668 2C8.27357 2 6.3335 3.94008 6.3335 6.33328C6.3335 8.72649 8.27357 10.6666 10.6668 10.6666Z" fill="white"/>
<path d="M11.2251 6.04093C11.1696 6.0213 11.1127 5.99996 11.056 5.97896V4.95403C11.1189 4.97784 11.178 5.01074 11.2313 5.05169C11.2968 5.11042 11.3828 5.1409 11.4706 5.13648C11.5585 5.13207 11.641 5.09312 11.7002 5.02813C11.7595 4.96313 11.7906 4.87735 11.7869 4.78949C11.7832 4.70162 11.7449 4.61879 11.6804 4.55903C11.4998 4.41069 11.2853 4.30949 11.056 4.26448V4.08492C11.056 3.99651 11.0209 3.91173 10.9584 3.84922C10.8959 3.78671 10.8111 3.75159 10.7227 3.75159C10.6343 3.75159 10.5495 3.78671 10.487 3.84922C10.4245 3.91173 10.3894 3.99651 10.3894 4.08492V4.28836C10.1822 4.3396 9.99453 4.45025 9.8494 4.60671C9.70428 4.76317 9.60803 4.95862 9.57249 5.16905C9.5327 5.3451 9.54204 5.5287 9.59951 5.69979C9.65697 5.87089 9.76034 6.02291 9.89833 6.13926C10.0502 6.25381 10.215 6.35012 10.3894 6.4262V7.79844C10.2349 7.77122 10.089 7.70785 9.9636 7.61352C9.88965 7.56539 9.79964 7.54854 9.7133 7.56667C9.62695 7.5848 9.55131 7.63642 9.50297 7.71023C9.45463 7.78404 9.43752 7.874 9.4554 7.9604C9.47329 8.0468 9.5247 8.12258 9.59837 8.17113C9.83063 8.33926 10.1038 8.44182 10.3894 8.46806V8.66655C10.3894 8.75496 10.4245 8.83974 10.487 8.90225C10.5495 8.96476 10.6343 8.99988 10.7227 8.99988C10.8111 8.99988 10.8959 8.96476 10.9584 8.90225C11.0209 8.83974 11.056 8.75496 11.056 8.66655V8.43189C11.3016 8.36596 11.5233 8.23126 11.695 8.04364C11.8667 7.85602 11.9813 7.62328 12.0252 7.37278C12.0764 7.09147 12.0234 6.80116 11.8762 6.55606C11.729 6.31097 11.4975 6.12786 11.2251 6.04093V6.04093ZM10.2276 5.2924C10.2483 5.18393 10.3054 5.08575 10.3894 5.01408V5.66621C10.32 5.63605 10.2647 5.58066 10.2347 5.51125C10.2046 5.44184 10.2021 5.36361 10.2276 5.2924ZM11.3679 7.26227C11.3515 7.3564 11.3152 7.44595 11.2614 7.52491C11.2077 7.60387 11.1376 7.67043 11.056 7.72013V6.69406C11.1668 6.73658 11.259 6.817 11.3161 6.92103C11.3732 7.02507 11.3915 7.14598 11.3679 7.26227V7.26227Z" fill="#464B4E"/>
<path d="M14.6667 13.6665H6.66683C6.57842 13.6665 6.49364 13.6314 6.43113 13.5689C6.36861 13.5064 6.3335 13.4216 6.3335 13.3332C6.3335 13.2448 6.36861 13.16 6.43113 13.0975C6.49364 13.035 6.57842 12.9999 6.66683 12.9999H14.6667C14.7551 12.9999 14.8399 13.035 14.9024 13.0975C14.9649 13.16 15.0001 13.2448 15.0001 13.3332C15.0001 13.4216 14.9649 13.5064 14.9024 13.5689C14.8399 13.6314 14.7551 13.6665 14.6667 13.6665Z" fill="white"/>
<path d="M14.6667 15.9998H6.66683C6.57842 15.9998 6.49364 15.9647 6.43113 15.9022C6.36861 15.8396 6.3335 15.7549 6.3335 15.6665C6.3335 15.5781 6.36861 15.4933 6.43113 15.4308C6.49364 15.3682 6.57842 15.3331 6.66683 15.3331H14.6667C14.7551 15.3331 14.8399 15.3682 14.9024 15.4308C14.9649 15.4933 15.0001 15.5781 15.0001 15.6665C15.0001 15.7549 14.9649 15.8396 14.9024 15.9022C14.8399 15.9647 14.7551 15.9998 14.6667 15.9998Z" fill="white"/>
</svg>
