<svg viewBox="0 0 18 17" fill="none" xmlns="http://www.w3.org/2000/svg">
<path d="M17.6747 0.000430223L13.9236 0.189124C13.864 0.192611 13.8066 0.21508 13.7583 0.253829C13.71 0.292579 13.6728 0.34596 13.6512 0.407559C13.6296 0.469157 13.6245 0.536351 13.6366 0.601065C13.6486 0.665779 13.6773 0.72526 13.7191 0.772358L14.4718 1.60604L6.53278 8.12454L3.00155 3.32144C2.97524 3.28542 2.94262 3.25568 2.90565 3.23401C2.86869 3.21234 2.82814 3.19918 2.78646 3.19533C2.74478 3.19149 2.70283 3.19703 2.66313 3.21163C2.62344 3.22622 2.58682 3.24957 2.5555 3.28027L0.105317 5.68182C0.0722761 5.71397 0.0457949 5.75355 0.0276357 5.79791C0.00947655 5.84228 5.56931e-05 5.89042 0 5.93913V8.68376C7.5297e-05 8.74969 0.0173019 8.81421 0.049618 8.86958C0.0819342 8.92495 0.127971 8.96883 0.182219 8.99598C0.236468 9.02312 0.296629 9.03238 0.355505 9.02265C0.41438 9.01291 0.469475 8.98459 0.514197 8.94107L2.72586 6.77624L6.22302 11.5691C6.27396 11.6378 6.347 11.6819 6.42674 11.6921C6.50648 11.7024 6.5867 11.6779 6.65048 11.624L16.2777 3.61992L17.2937 4.74521C17.3361 4.79267 17.3901 4.8254 17.449 4.8394C17.5079 4.85339 17.5693 4.84804 17.6255 4.82401C17.6817 4.79997 17.7304 4.7583 17.7655 4.70408C17.8007 4.64987 17.8208 4.58547 17.8234 4.51878L18 0.34694C18.0005 0.300118 17.9923 0.253684 17.9759 0.210496C17.9596 0.167309 17.9355 0.128283 17.905 0.0958217C17.8745 0.0633604 17.8384 0.0381508 17.7988 0.0217454C17.7592 0.00534 17.717 -0.001914 17.6747 0.000430223Z" fill="#464B4E"/>
<path d="M2.77231 10.1384H0.604008C0.432933 10.1384 0.29425 10.292 0.29425 10.4815V16.6569C0.29425 16.8464 0.432933 17 0.604008 17H2.77231C2.94338 17 3.08206 16.8464 3.08206 16.6569V10.4815C3.08206 10.292 2.94338 10.1384 2.77231 10.1384Z" fill="#464B4E"/>
<path d="M7.72842 12.8831H5.56012C5.38905 12.8831 5.25037 13.0367 5.25037 13.2261V16.6569C5.25037 16.8464 5.38905 17 5.56012 17H7.72842C7.8995 17 8.03818 16.8464 8.03818 16.6569V13.2261C8.03818 13.0367 7.8995 12.8831 7.72842 12.8831Z" fill="#464B4E"/>
<path d="M12.6845 10.1384H10.5162C10.3452 10.1384 10.2065 10.292 10.2065 10.4815V16.6569C10.2065 16.8464 10.3452 17 10.5162 17H12.6845C12.8556 17 12.9943 16.8464 12.9943 16.6569V10.4815C12.9943 10.292 12.8556 10.1384 12.6845 10.1384Z" fill="#464B4E"/>
<path d="M17.3309 6.36456H15.1626C14.9915 6.36456 14.8528 6.51816 14.8528 6.70764V16.6569C14.8528 16.8464 14.9915 17 15.1626 17H17.3309C17.502 17 17.6407 16.8464 17.6407 16.6569V6.70764C17.6407 6.51816 17.502 6.36456 17.3309 6.36456Z" fill="#464B4E"/>
</svg>
