<svg width="15" height="15" viewBox="0 0 15 15" fill="none" xmlns="http://www.w3.org/2000/svg">
<path d="M7.5 0C3.36433 0 0 3.36433 0 7.5C0 11.6357 3.36433 15 7.5 15C11.6357 15 15 11.6357 15 7.5C15 3.36433 11.6357 0 7.5 0Z" fill="#464B4E"/>
<path d="M11.3013 5.91055L7.23876 9.97298C7.11688 10.0949 6.95689 10.1562 6.79691 10.1562C6.63692 10.1562 6.47693 10.0949 6.35505 9.97298L4.32384 7.94176C4.07939 7.69743 4.07939 7.30238 4.32384 7.05805C4.56817 6.81361 4.9631 6.81361 5.20755 7.05805L6.79691 8.64741L10.4176 5.02684C10.6619 4.78239 11.0569 4.78239 11.3013 5.02684C11.5456 5.27117 11.5456 5.66611 11.3013 5.91055Z" fill="#FAFAFA"/>
</svg>
