<svg width="15" height="12" viewBox="0 0 15 12" fill="none" xmlns="http://www.w3.org/2000/svg">
<path d="M13.6364 1.09091H6C6 0.489273 5.51073 0 4.90909 0H3.81818C3.21655 0 2.72727 0.489273 2.72727 1.09091H0.545455C0.244364 1.09091 0 1.33473 0 1.63636C0 1.938 0.244364 2.18182 0.545455 2.18182H2.72727C2.72727 2.78345 3.21655 3.27273 3.81818 3.27273H4.90909C5.51073 3.27273 6 2.78345 6 2.18182H13.6364C13.9375 2.18182 14.1818 1.938 14.1818 1.63636C14.1818 1.33473 13.9375 1.09091 13.6364 1.09091ZM3.81818 2.18182V1.09091H4.90909L4.90964 1.63418C4.90964 1.63527 4.90909 1.63582 4.90909 1.63636C4.90909 1.63691 4.90964 1.63745 4.90964 1.63855V2.18182H3.81818Z" fill="#464B4E"/>
<path d="M13.6364 5.45454H10.3636C10.3636 4.8529 9.87436 4.36363 9.27273 4.36363H8.18182C7.58018 4.36363 7.09091 4.8529 7.09091 5.45454H0.545455C0.244364 5.45454 0 5.69836 0 6C0 6.30163 0.244364 6.54545 0.545455 6.54545H7.09091C7.09091 7.14709 7.58018 7.63636 8.18182 7.63636H9.27273C9.87436 7.63636 10.3636 7.14709 10.3636 6.54545H13.6364C13.9375 6.54545 14.1818 6.30163 14.1818 6C14.1818 5.69836 13.9375 5.45454 13.6364 5.45454ZM8.18182 6.54545V5.45454H9.27273L9.27327 5.99781C9.27327 5.99891 9.27273 5.99945 9.27273 6C9.27273 6.00054 9.27327 6.00109 9.27327 6.00218V6.54545H8.18182Z" fill="#464B4E"/>
<path d="M13.6364 9.81819H6C6 9.21655 5.51073 8.72728 4.90909 8.72728H3.81818C3.21655 8.72728 2.72727 9.21655 2.72727 9.81819H0.545455C0.244364 9.81819 0 10.062 0 10.3636C0 10.6653 0.244364 10.9091 0.545455 10.9091H2.72727C2.72727 11.5107 3.21655 12 3.81818 12H4.90909C5.51073 12 6 11.5107 6 10.9091H13.6364C13.9375 10.9091 14.1818 10.6653 14.1818 10.3636C14.1818 10.062 13.9375 9.81819 13.6364 9.81819ZM3.81818 10.9091V9.81819H4.90909L4.90964 10.3615C4.90964 10.3626 4.90909 10.3631 4.90909 10.3636C4.90909 10.3642 4.90964 10.3647 4.90964 10.3658V10.9091H3.81818Z" fill="#464B4E"/>
</svg>
