<svg viewBox="0 0 18 18" fill="none" xmlns="http://www.w3.org/2000/svg">
<path d="M16.8983 4.68872C16.9564 3.47243 16.7301 2.53149 16.2206 1.87994C15.7143 1.23212 14.9532 0.889708 14.0196 0.889708C13.8666 0.889708 13.4507 0.899446 13.1826 1.03297C11.9321 0.373846 10.509 0 9 0C4.03735 0 0 4.03735 0 9C0 10.561 0.399738 12.0303 1.10178 13.3113C1.04368 14.5276 1.26983 15.4685 1.77932 16.1201C2.28572 16.7679 3.04694 17.1167 3.98058 17.1103C4.20785 17.1088 4.70746 17.0277 4.81763 16.9671C6.06799 17.6262 7.49105 18 9 18C13.9626 18 18 13.9626 18 9C18 7.43903 17.6003 5.96977 16.8983 4.68872ZM14.0743 1.80715C14.7151 1.80715 15.1835 2.00811 15.5068 2.42155C16.0626 3.13232 16.139 4.48869 15.7278 6.34408L15.6365 6.75623L16.8475 7.35817L12.9388 9.4158L12.2206 5.05731L13.5367 5.71177L13.8074 5.36183C14.0916 4.99491 14.449 4.50323 14.6944 3.95635C14.9207 3.45194 14.9514 3.00858 14.7858 2.63811C14.6218 2.27165 14.2757 1.99763 13.7566 1.82317C13.866 1.81246 13.9725 1.80715 14.0743 1.80715ZM6.19542 11.2408C6.06078 11.0368 6.03748 10.7785 6.13325 10.5536C6.22902 10.3287 6.43117 10.1662 6.67163 10.1217L7.22266 10.0192C7.50466 9.96674 7.79132 10.0845 7.95512 10.3202C8.16235 10.6179 8.51308 10.7691 8.99765 10.7691C9.74372 10.7691 9.74372 10.4722 9.74372 10.3749C9.74372 10.2334 9.69065 10.1305 9.57678 10.0513C9.46057 9.97011 9.24863 9.89802 8.94725 9.83677C7.73483 9.58962 6.95414 9.26898 6.62575 8.88337C6.29257 8.49254 6.13062 8.05546 6.13062 7.54722C6.13062 6.99522 6.31283 6.49879 6.67218 6.07094C7.02009 5.65671 7.55174 5.38805 8.25226 5.27082V4.43022C8.25226 4.02688 8.57908 3.70011 8.98218 3.70011C9.38548 3.70011 9.71229 4.02688 9.71229 4.43022V5.28609C10.3392 5.40605 10.8285 5.65934 11.2005 6.05705C11.3718 6.24051 11.4371 6.49892 11.3731 6.7416C11.309 6.98451 11.1249 7.17725 10.8853 7.25225L10.5071 7.37054C10.233 7.45639 9.93355 7.37322 9.74298 7.15828C9.55278 6.9438 9.27051 6.83488 8.90391 6.83488C8.60871 6.83488 8.25679 6.90517 8.25679 7.24025C8.25679 7.33482 8.29315 7.42034 8.36183 7.48759C8.43379 7.55783 8.64365 7.63214 8.98578 7.70848C9.7752 7.88118 10.3524 8.03862 10.6978 8.17629C11.0478 8.31586 11.343 8.55499 11.5751 8.88725C11.807 9.21882 11.9249 9.61648 11.9249 10.0688C11.9249 10.702 11.6964 11.2401 11.2458 11.6682C10.861 12.0336 10.3458 12.2774 9.71229 12.3952V13.5697C9.71229 13.973 9.38548 14.2998 8.98218 14.2998C8.57908 14.2998 8.25226 13.973 8.25226 13.5697V12.4343C7.32757 12.3092 6.63531 11.9084 6.19542 11.2408ZM3.92557 16.1928C3.285 16.1928 2.8164 15.9917 2.49291 15.5783C1.9374 14.8675 1.86115 13.5111 2.27211 11.6557L2.36331 11.244L1.15246 10.6416L5.06114 8.58434L5.77938 12.9425L4.46326 12.288L4.19238 12.6379C3.90826 13.0052 3.55085 13.4966 3.30568 14.0433C3.07915 14.5478 3.04855 14.9914 3.21406 15.3616C3.37805 15.7281 3.72434 16.0023 4.24329 16.1766C4.13391 16.1874 4.02734 16.1928 3.92557 16.1928Z" fill="#464B4E"/>
</svg>
