<svg viewBox="0 0 18 21" fill="none" xmlns="http://www.w3.org/2000/svg">
<path fill-rule="evenodd" clip-rule="evenodd" d="M16.8334 14.238C17.2678 14.238 17.62 13.8858 17.62 13.4513V10.5408C17.62 8.80584 16.2085 7.39428 14.4736 7.39428H13.5282V4.62009C13.5282 2.07262 11.411 0 8.80853 0C6.20612 0 4.08886 2.07262 4.08886 4.62009V7.39428H3.14638C1.41144 7.39428 0 8.80584 0 10.5408V16.9911C0 18.7261 1.41144 20.1377 3.14638 20.1377H14.4736C16.2085 20.1377 17.62 18.7261 17.62 16.9911C17.62 16.5567 17.2678 16.2045 16.8334 16.2045C16.399 16.2045 16.0467 16.5567 16.0467 16.9911C16.0467 17.8586 15.341 18.5644 14.4736 18.5644H3.14638C2.27895 18.5644 1.57317 17.8586 1.57317 16.9911V10.5408C1.57317 9.67334 2.27895 8.96758 3.14638 8.96758H14.4736C15.341 8.96758 16.0467 9.67334 16.0467 10.5408V13.4513C16.0467 13.8858 16.399 14.238 16.8334 14.238ZM13.2737 14.4174C12.8189 14.4174 12.4513 14.0498 12.4513 13.5951C12.4513 13.1402 12.8189 12.7726 13.2737 12.7726C13.7284 12.7726 14.096 13.1402 14.096 13.5951C14.096 14.0498 13.7284 14.4174 13.2737 14.4174ZM5.66216 7.39428H11.955V4.62008C11.955 2.94001 10.5435 1.57324 8.80857 1.57324C7.0736 1.57324 5.66216 2.94001 5.66216 4.62008V7.39428ZM6.53894 13.5951C6.53894 14.0498 6.90654 14.4174 7.36125 14.4174C7.81605 14.4174 8.18365 14.0498 8.18365 13.5951C8.18365 13.1402 7.81605 12.7726 7.36125 12.7726C6.90654 12.7726 6.53894 13.1402 6.53894 13.5951ZM4.42465 14.4174C3.96987 14.4174 3.60226 14.0498 3.60226 13.5951C3.60226 13.1402 3.96987 12.7726 4.42465 12.7726C4.87945 12.7726 5.24705 13.1402 5.24705 13.5951C5.24705 14.0498 4.87945 14.4174 4.42465 14.4174ZM9.47554 13.5951C9.47554 14.0498 9.84314 14.4174 10.2979 14.4174C10.7527 14.4174 11.1202 14.0498 11.1202 13.5951C11.1202 13.1402 10.7527 12.7726 10.2979 12.7726C9.84314 12.7726 9.47554 13.1402 9.47554 13.5951Z" fill="#30363F"/>
</svg>
