<svg viewBox="0 0 20 28" fill="none" xmlns="http://www.w3.org/2000/svg">
<path d="M19.1329 11.1823C19.5321 8.25959 17.5006 6.68839 14.7228 5.64025L15.6239 1.68102L13.4239 1.08041L12.5466 4.9353C11.9683 4.77742 11.3742 4.62848 10.784 4.4809L11.6675 0.600609L9.46871 0L8.56702 3.95784C8.08829 3.8384 7.61833 3.72036 7.16215 3.59612L7.16466 3.58376L4.13062 2.75388L3.54537 5.32792C3.54537 5.32792 5.17769 5.73771 5.14322 5.7631C6.03426 6.00678 6.19529 6.65269 6.16835 7.16475L5.14196 11.6752C5.20337 11.6923 5.28296 11.717 5.37069 11.7555C5.29737 11.7356 5.21905 11.7136 5.13821 11.6923L3.6995 18.0107C3.59047 18.3073 3.31415 18.7521 2.6913 18.5832C2.71323 18.6182 1.09219 18.146 1.09219 18.146L0 20.9047L2.86298 21.6865C3.3956 21.8327 3.91756 21.9857 4.43138 22.1299L3.52094 26.1344L5.71845 26.735L6.62014 22.7731C7.22043 22.9515 7.80318 23.1163 8.3734 23.2714L7.47485 27.2148L9.67487 27.8154L10.5853 23.8185C14.3369 24.5962 17.1579 24.2825 18.3453 20.5656C19.3021 17.5728 18.2976 15.8465 16.3238 14.7208C17.7613 14.3577 18.8441 13.3219 19.1329 11.1823V11.1823ZM14.1063 18.9038C13.4264 21.8965 8.82643 20.2786 7.3351 19.873L8.54321 14.5677C10.0345 14.9754 14.8168 15.7827 14.1063 18.9038ZM14.7867 11.1391C14.1664 13.8614 10.3378 12.4783 9.09587 12.1392L10.1912 7.32745C11.4331 7.66654 15.4328 8.29939 14.7867 11.1391Z" fill="#F7931A"/>
</svg>
