<svg viewBox="0 0 27 25" fill="none" xmlns="http://www.w3.org/2000/svg">
<path d="M15.8882 13.0739V13.0704C15.7377 13.0809 14.9606 13.1264 13.2314 13.1264C11.8488 13.1264 10.8792 13.0879 10.5361 13.0704V13.0739C5.21906 12.8394 1.25313 11.9153 1.25313 10.8057C1.25313 9.69954 5.22256 8.77194 10.5361 8.53741V12.1533C10.8827 12.1778 11.8803 12.2373 13.2559 12.2373C14.9081 12.2373 15.7342 12.1673 15.8882 12.1533V8.54091C21.1948 8.77894 25.1502 9.70304 25.1502 10.8092C25.1502 11.9153 21.1913 12.8394 15.8882 13.0774V13.0739ZM15.8882 8.16637V4.93203H23.2915V0H3.13634V4.93203H10.5396V8.16637C4.52248 8.4429 0 9.63303 0 11.0612C0 12.4893 4.52598 13.6795 10.5396 13.9595V24.3276H15.8917V13.9595C21.8983 13.683 26.4138 12.4928 26.4138 11.0647C26.4138 9.64003 21.8983 8.4464 15.8917 8.16987" fill="#26A17B"/>
</svg>
